<svg width="20" height="16" viewBox="0 0 20 16" fill="none" xmlns="http://www.w3.org/2000/svg">
<path d="M19.4066 3.33519L19.4065 3.33524C19.3513 3.41835 19.287 3.49697 19.2138 3.56972L19.2138 3.56974L8.07758 14.6385C7.49264 15.2199 6.54804 15.22 5.96296 14.6388L0.872537 9.58169C0.587907 9.299 0.440322 8.92981 0.430239 8.55839L0.430238 8.55837C0.429531 8.53222 0.429508 8.5061 0.430154 8.48002L0.430155 8.47997C0.439363 8.11069 0.584486 7.74331 0.865543 7.46042C1.4494 6.87266 2.39914 6.86954 2.98685 7.45345C2.98685 7.45345 2.98686 7.45346 2.98686 7.45346L7.01987 11.46L17.0989 1.44199C17.0989 1.44199 17.0989 1.44199 17.0989 1.44198C17.6864 0.85799 18.6362 0.860854 19.2202 1.44841L19.4066 3.33519ZM19.4066 3.33519C19.7928 2.75406 19.7315 1.96276 19.2202 1.44844L19.4066 3.33519Z" fill="#3183FF" stroke="#3183FF" stroke-width="0.5"/>
</svg>
