<svg width="158" height="57" viewBox="0 0 158 57" fill="none" xmlns="http://www.w3.org/2000/svg">
<path d="M2.47656 14.9502C2.44727 14.9502 2.39844 14.9551 2.33008 14.9648C2.27148 14.9746 2.20312 14.9844 2.125 14.9941C2.05664 15.0039 1.98828 15.0137 1.91992 15.0234C1.85156 15.0332 1.79785 15.0381 1.75879 15.0381C1.48535 15.0381 1.24609 14.9258 1.04102 14.7012C0.835938 14.4668 0.733398 14.1592 0.733398 13.7783C0.733398 13.5244 0.816406 13.2803 0.982422 13.0459C1.14844 12.8115 1.40723 12.6162 1.75879 12.46C1.86621 12.4111 1.94922 12.3574 2.00781 12.2988C2.07617 12.2305 2.11035 12.1377 2.11035 12.0205C2.11035 11.708 2.10059 11.376 2.08105 11.0244C2.07129 10.6631 2.05176 10.2432 2.02246 9.76465C2.0127 9.66699 1.97852 9.57422 1.91992 9.48633C1.87109 9.39844 1.8125 9.30078 1.74414 9.19336C1.68555 9.07617 1.63184 8.94922 1.58301 8.8125C1.53418 8.67578 1.50977 8.50488 1.50977 8.2998C1.50977 8.11426 1.53418 7.9043 1.58301 7.66992C1.6416 7.42578 1.75391 7.20117 1.91992 6.99609C2.0957 6.78125 2.33496 6.60547 2.6377 6.46875C2.9502 6.32227 3.35547 6.24902 3.85352 6.24902C4.05859 6.24902 4.22949 6.26855 4.36621 6.30762C4.50293 6.34668 4.62012 6.39551 4.71777 6.4541C4.8252 6.50293 4.91797 6.54688 4.99609 6.58594C5.08398 6.625 5.17188 6.64453 5.25977 6.64453C5.41602 6.64453 5.72852 6.61523 6.19727 6.55664C6.66602 6.49805 7.22754 6.41504 7.88184 6.30762C8.5459 6.2002 9.27344 6.07812 10.0645 5.94141C10.8652 5.80469 11.6758 5.6582 12.4961 5.50195C13.3164 5.33594 14.1172 5.16992 14.8984 5.00391C15.6797 4.83789 16.3877 4.67676 17.0225 4.52051C17.2178 4.47168 17.3887 4.44727 17.5352 4.44727C17.7402 4.44727 17.9014 4.49609 18.0186 4.59375C18.1455 4.68164 18.2383 4.79395 18.2969 4.93066C18.3555 5.06738 18.3896 5.22363 18.3994 5.39941C18.4189 5.56543 18.4287 5.72168 18.4287 5.86816C18.4287 6.12207 18.3408 6.36133 18.165 6.58594C17.999 6.80078 17.7207 6.97168 17.3301 7.09863C16.3633 7.38184 15.3867 7.63086 14.4004 7.8457C13.4238 8.05078 12.4375 8.24121 11.4414 8.41699C10.4453 8.58301 9.44434 8.73438 8.43848 8.87109C7.43262 9.00781 6.43164 9.14453 5.43555 9.28125C5.29883 9.30078 5.19629 9.35449 5.12793 9.44238C5.05957 9.52051 5.02539 9.62793 5.02539 9.76465V10.3652C5.02539 10.5312 5.03027 10.7021 5.04004 10.8779C5.0498 11.0537 5.06934 11.2148 5.09863 11.3613C5.1377 11.5078 5.18652 11.6299 5.24512 11.7275C5.30371 11.8154 5.38184 11.8594 5.47949 11.8594C5.71387 11.8594 6.0752 11.8105 6.56348 11.7129C7.06152 11.6152 7.61816 11.498 8.2334 11.3613C8.8584 11.2148 9.50781 11.0586 10.1816 10.8926C10.8652 10.7168 11.5098 10.5605 12.1152 10.4238C12.7207 10.2773 13.2529 10.1553 13.7119 10.0576C14.1709 9.95996 14.4932 9.91113 14.6787 9.91113C14.9521 9.91113 15.1572 10.0137 15.2939 10.2188C15.4404 10.4141 15.5381 10.6631 15.5869 10.9658C15.5869 11.0146 15.5918 11.0586 15.6016 11.0977C15.6113 11.1367 15.6162 11.1807 15.6162 11.2295C15.6162 11.5127 15.5283 11.7764 15.3525 12.0205C15.1865 12.2549 14.8838 12.4307 14.4443 12.5479C14.3271 12.5869 14.0928 12.6504 13.7412 12.7383C13.3896 12.8164 12.9746 12.9141 12.4961 13.0312C12.0176 13.1387 11.5 13.2559 10.9434 13.3828C10.3867 13.5098 9.83984 13.6367 9.30273 13.7637C8.76562 13.8809 8.2627 13.998 7.79395 14.1152C7.33496 14.2227 6.95898 14.3105 6.66602 14.3789C6.40234 14.4473 6.24121 14.501 6.18262 14.54C6.13379 14.5791 6.10938 14.6279 6.10938 14.6865C6.12891 14.9014 6.23633 15.1016 6.43164 15.2871C6.63672 15.4727 6.89062 15.6436 7.19336 15.7998C7.50586 15.9561 7.85254 16.0977 8.2334 16.2246C8.62402 16.3516 9.02441 16.459 9.43457 16.5469C9.85449 16.625 10.2646 16.6885 10.665 16.7373C11.0654 16.7861 11.4365 16.8105 11.7783 16.8105C11.9248 16.8105 12.1348 16.8105 12.4082 16.8105C12.6816 16.8105 12.9795 16.8057 13.3018 16.7959C13.6338 16.7764 13.9707 16.752 14.3125 16.7227C14.6641 16.6934 14.9766 16.6543 15.25 16.6055C15.5332 16.5469 15.7627 16.4785 15.9385 16.4004C16.124 16.3125 16.2168 16.21 16.2168 16.0928C16.2168 15.9854 16.1777 15.873 16.0996 15.7559C16.0312 15.6387 15.9971 15.5117 15.9971 15.375C15.9971 15.1797 16.0508 14.9893 16.1582 14.8037C16.2656 14.6084 16.4023 14.4375 16.5684 14.291C16.7441 14.1348 16.9395 14.0127 17.1543 13.9248C17.3789 13.8271 17.6035 13.7783 17.8281 13.7783C18.1113 13.7783 18.3701 13.8369 18.6045 13.9541C18.8389 14.0615 19.0391 14.208 19.2051 14.3936C19.3809 14.5693 19.5127 14.7744 19.6006 15.0088C19.6982 15.2432 19.7471 15.4824 19.7471 15.7266C19.7471 16.3711 19.5078 16.9277 19.0293 17.3965C18.5605 17.8652 17.9453 18.251 17.1836 18.5537C16.4219 18.8662 15.5625 19.0957 14.6055 19.2422C13.6484 19.3984 12.6865 19.4766 11.7197 19.4766C10.5869 19.4766 9.55176 19.3984 8.61426 19.2422C7.67676 19.0957 6.83691 18.8564 6.09473 18.5244C5.35254 18.1924 4.71289 17.7627 4.17578 17.2354C3.63867 16.6982 3.19922 16.0488 2.85742 15.2871C2.74023 15.0625 2.61328 14.9502 2.47656 14.9502ZM20.4502 6.19043C20.3232 5.98535 20.2402 5.81445 20.2012 5.67773C20.1621 5.53125 20.1426 5.41406 20.1426 5.32617C20.1426 5.16016 20.2158 4.98926 20.3623 4.81348C20.5088 4.6377 20.6895 4.48145 20.9043 4.34473C21.1191 4.19824 21.3486 4.08105 21.5928 3.99316C21.8369 3.89551 22.0518 3.84668 22.2373 3.84668C22.3447 3.84668 22.457 3.89062 22.5742 3.97852C22.7012 4.05664 22.8721 4.2666 23.0869 4.6084C23.4287 5.16504 23.7852 5.74121 24.1562 6.33691C24.5371 6.93262 24.9375 7.5332 25.3574 8.13867C25.5234 8.36328 25.6943 8.47559 25.8701 8.47559C26.0654 8.47559 26.2461 8.37305 26.4121 8.16797C27.0762 7.43555 27.7451 6.75684 28.4189 6.13184C29.0928 5.50684 29.7666 4.99902 30.4404 4.6084C30.8506 4.36426 31.1875 4.20313 31.4512 4.125C31.7148 4.04687 31.9053 4.00781 32.0225 4.00781C32.208 4.00781 32.3984 4.06641 32.5938 4.18359C32.7891 4.30078 32.9648 4.44727 33.1211 4.62305C33.2871 4.78906 33.4189 4.96484 33.5166 5.15039C33.624 5.33594 33.6777 5.50195 33.6777 5.64844C33.6777 5.87305 33.5361 6.09277 33.2529 6.30762C32.9795 6.52246 32.5791 6.78613 32.0518 7.09863C31.3193 7.54785 30.6211 8.0752 29.957 8.68066C29.3027 9.28613 28.6729 9.92578 28.0674 10.5996C27.9697 10.6973 27.9014 10.79 27.8623 10.8779C27.833 10.9658 27.8184 11.0537 27.8184 11.1416C27.8184 11.2197 27.833 11.3027 27.8623 11.3906C27.9014 11.4785 27.96 11.5664 28.0381 11.6543C28.3994 12.0742 28.7607 12.46 29.1221 12.8115C29.4834 13.1631 29.8301 13.4658 30.1621 13.7197C30.5039 13.9639 30.8311 14.1592 31.1436 14.3057C31.4658 14.4424 31.7686 14.5107 32.0518 14.5107C32.2764 14.5107 32.5156 14.4814 32.7695 14.4229C33.0234 14.3545 33.2529 14.3203 33.458 14.3203C33.7412 14.3203 33.9365 14.4082 34.0439 14.584C34.1611 14.75 34.2197 14.9746 34.2197 15.2578C34.2197 15.5801 34.1611 15.8682 34.0439 16.1221C33.9268 16.376 33.7656 16.5908 33.5605 16.7666C33.3652 16.9326 33.1309 17.0645 32.8574 17.1621C32.584 17.25 32.2959 17.2939 31.9932 17.2939C31.5244 17.2939 31.0459 17.2109 30.5576 17.0449C30.0693 16.8789 29.5811 16.6494 29.0928 16.3564C28.6045 16.0635 28.1211 15.7217 27.6426 15.3311C27.1641 14.9307 26.6953 14.4961 26.2363 14.0273C26.0605 13.8418 25.8799 13.749 25.6943 13.749C25.499 13.749 25.3184 13.8516 25.1523 14.0566C24.6934 14.623 24.249 15.1553 23.8193 15.6533C23.3994 16.1514 22.9893 16.5859 22.5889 16.957C22.1982 17.3281 21.8174 17.6211 21.4463 17.8359C21.085 18.0508 20.7285 18.1582 20.377 18.1582C20.123 18.1582 19.8984 18.1094 19.7031 18.0117C19.5176 17.9043 19.3613 17.7773 19.2344 17.6309C19.1074 17.4844 19.0098 17.333 18.9414 17.1768C18.8828 17.0205 18.8535 16.8887 18.8535 16.7812C18.8535 16.6445 18.9023 16.5176 19 16.4004C19.0977 16.2734 19.2393 16.1367 19.4248 15.9902C19.6104 15.834 19.8252 15.6484 20.0693 15.4336C20.3232 15.2188 20.6064 14.9502 20.9189 14.6279C21.2607 14.2861 21.6367 13.8662 22.0469 13.3682C22.457 12.8604 22.9014 12.3184 23.3799 11.7422C23.4287 11.6836 23.4678 11.6201 23.4971 11.5518C23.5264 11.4736 23.541 11.3955 23.541 11.3174C23.541 11.0439 23.3896 10.6973 23.0869 10.2773C22.4814 9.44727 21.9541 8.6709 21.5049 7.94824C21.0557 7.21582 20.7041 6.62988 20.4502 6.19043ZM34.4102 8.3291C34.4102 7.94824 34.5811 7.66016 34.9229 7.46484C35.2646 7.25977 35.7529 7.15723 36.3877 7.15723C36.5342 7.15723 36.666 7.17676 36.7832 7.21582C36.9004 7.25488 37.0029 7.33301 37.0908 7.4502C37.1885 7.55762 37.2764 7.70898 37.3545 7.9043C37.4326 8.09961 37.5107 8.34863 37.5889 8.65137C37.667 8.99316 37.7451 9.16406 37.8232 9.16406C37.8916 9.16406 37.9746 9.02246 38.0723 8.73926C38.248 8.18262 38.4775 7.69922 38.7607 7.28906C39.0537 6.86914 39.3809 6.52246 39.7422 6.24902C40.1035 5.96582 40.4941 5.75586 40.9141 5.61914C41.3438 5.48242 41.793 5.41406 42.2617 5.41406C43.209 5.41406 44.0928 5.59473 44.9131 5.95605C45.7334 6.30762 46.4414 6.80078 47.0371 7.43555C47.6328 8.06055 48.1016 8.80273 48.4434 9.66211C48.7852 10.5117 48.9561 11.4346 48.9561 12.4307C48.9561 13.4854 48.7705 14.4619 48.3994 15.3604C48.0381 16.2588 47.5303 17.0352 46.876 17.6895C46.2217 18.334 45.4404 18.8369 44.5322 19.1982C43.6338 19.5693 42.6475 19.7549 41.5732 19.7549L40.8262 19.7256C40.3867 19.7256 40.167 19.9746 40.167 20.4727L40.9141 27.1963C40.9043 27.3623 40.8457 27.5137 40.7383 27.6504C40.6406 27.7969 40.5039 27.9238 40.3281 28.0312C40.1621 28.1387 39.9619 28.2217 39.7275 28.2803C39.5029 28.3389 39.2686 28.3682 39.0244 28.3682C38.3213 28.3682 37.9404 28.1387 37.8818 27.6797C37.6768 25.9023 37.4473 24.2129 37.1934 22.6113C36.9492 21.0098 36.6953 19.5205 36.4316 18.1436C36.1777 16.7568 35.9287 15.4971 35.6846 14.3643C35.4404 13.2314 35.2207 12.2451 35.0254 11.4053C34.8398 10.5654 34.6934 9.88184 34.5859 9.35449C34.4688 8.82715 34.4102 8.48535 34.4102 8.3291ZM39.1709 12.1963C39.1709 12.8311 39.1953 13.4609 39.2441 14.0859C39.293 14.7012 39.3711 15.3701 39.4785 16.0928C39.5371 16.5322 39.7764 16.7812 40.1963 16.8398C40.4502 16.8984 40.7334 16.957 41.0459 17.0156C41.3682 17.0645 41.6367 17.0889 41.8516 17.0889C42.4766 17.0889 43.043 16.9961 43.5508 16.8105C44.0586 16.625 44.4932 16.3613 44.8545 16.0195C45.2158 15.668 45.4941 15.2529 45.6895 14.7744C45.8848 14.2959 45.9824 13.7637 45.9824 13.1777C45.9824 12.4648 45.8848 11.8008 45.6895 11.1855C45.4941 10.5605 45.2256 10.0186 44.8838 9.55957C44.5518 9.10059 44.1562 8.73926 43.6973 8.47559C43.248 8.21191 42.7598 8.08008 42.2324 8.08008C41.7734 8.08008 41.3535 8.18262 40.9727 8.3877C40.6016 8.58301 40.2793 8.86133 40.0059 9.22266C39.7422 9.57422 39.5371 10.0039 39.3906 10.5117C39.2441 11.0195 39.1709 11.5811 39.1709 12.1963ZM50.7871 13.6904C50.7871 13.5244 50.8066 13.3389 50.8457 13.1338C50.8848 12.9287 50.9043 12.7041 50.9043 12.46C50.9043 12.2939 50.8311 12.167 50.6846 12.0791C50.5479 11.9912 50.3916 11.8936 50.2158 11.7861C50.04 11.6787 49.8789 11.542 49.7324 11.376C49.5957 11.21 49.5273 10.9707 49.5273 10.6582C49.5273 10.4336 49.5859 10.209 49.7031 9.98438C49.8301 9.75977 50.0107 9.55469 50.2451 9.36914C50.8213 8.93945 51.417 8.55371 52.0322 8.21191C52.6572 7.87012 53.2773 7.58203 53.8926 7.34766C54.5176 7.11328 55.1328 6.93262 55.7383 6.80566C56.3438 6.67871 56.9248 6.61523 57.4814 6.61523C58.4189 6.61523 59.2979 6.79102 60.1182 7.14258C60.9482 7.48438 61.666 7.95801 62.2715 8.56348C62.8867 9.15918 63.3701 9.8623 63.7217 10.6729C64.083 11.4736 64.2637 12.333 64.2637 13.251C64.2637 14.1494 64.0732 15.0039 63.6924 15.8145C63.3213 16.6152 62.8184 17.3184 62.1836 17.9238C61.5488 18.5293 60.8018 19.0078 59.9424 19.3594C59.0928 19.7207 58.1943 19.9014 57.2471 19.9014C56.3193 19.9014 55.46 19.7451 54.6689 19.4326C53.8779 19.1201 53.1943 18.6904 52.6182 18.1436C52.042 17.5869 51.5928 16.9326 51.2705 16.1807C50.9482 15.4189 50.7871 14.5889 50.7871 13.6904ZM57.5693 17.2646C57.9795 17.2646 58.4043 17.1816 58.8438 17.0156C59.2832 16.8496 59.6836 16.6104 60.0449 16.2979C60.416 15.9756 60.7188 15.585 60.9531 15.126C61.1973 14.667 61.3193 14.1494 61.3193 13.5732C61.3193 12.9873 61.2119 12.4404 60.9971 11.9326C60.7822 11.4248 60.4844 10.9854 60.1035 10.6143C59.7324 10.2334 59.2881 9.93555 58.7705 9.7207C58.2627 9.50586 57.7109 9.39844 57.1152 9.39844C56.0312 9.39844 55.2012 9.68164 54.625 10.248C54.0488 10.8047 53.7607 11.6641 53.7607 12.8262C53.7607 13.4609 53.8535 14.0518 54.0391 14.5986C54.2344 15.1357 54.5029 15.6045 54.8447 16.0049C55.1865 16.3955 55.5869 16.7031 56.0459 16.9277C56.5146 17.1523 57.0225 17.2646 57.5693 17.2646ZM74.1221 7.59668C73.7607 7.59668 73.4434 7.69434 73.1699 7.88965C72.8965 8.0752 72.6621 8.33887 72.4668 8.68066C72.2715 9.0127 72.1104 9.4082 71.9834 9.86719C71.8564 10.3164 71.7539 10.8096 71.6758 11.3467C71.5977 11.8838 71.5439 12.4453 71.5146 13.0312C71.4854 13.6172 71.4707 14.208 71.4707 14.8037C71.4707 15.585 71.5 16.3564 71.5586 17.1182C71.627 17.8701 71.6611 18.5684 71.6611 19.2129C71.6611 19.6328 71.5049 19.96 71.1924 20.1943C70.8799 20.4385 70.4355 20.5605 69.8594 20.5605C69.752 20.5605 69.6299 20.5508 69.4932 20.5312C69.3564 20.5117 69.2246 20.4727 69.0977 20.4141C68.9805 20.3555 68.873 20.2725 68.7754 20.165C68.6875 20.0674 68.6387 19.9307 68.6289 19.7549C68.541 18.8955 68.4141 18.0166 68.248 17.1182C68.082 16.2197 67.8721 15.3262 67.6182 14.4375C67.374 13.5391 67.0762 12.6504 66.7246 11.7715C66.3828 10.8926 65.9873 10.0332 65.5381 9.19336C65.46 9.04688 65.3916 8.91016 65.333 8.7832C65.2842 8.65625 65.2598 8.53418 65.2598 8.41699C65.2598 8.27051 65.3232 8.11426 65.4502 7.94824C65.5869 7.77246 65.7529 7.61133 65.9482 7.46484C66.1533 7.31836 66.373 7.20117 66.6074 7.11328C66.8516 7.01562 67.0859 6.9668 67.3105 6.9668C67.6816 6.9668 68.0088 7.22559 68.292 7.74316C68.5752 8.25098 68.8389 9.06641 69.083 10.1895C69.1318 10.3848 69.1709 10.5215 69.2002 10.5996C69.2295 10.6777 69.2686 10.7168 69.3174 10.7168C69.4248 10.7168 69.4932 10.5508 69.5225 10.2188C69.6396 9.29102 69.8398 8.49512 70.123 7.83105C70.4062 7.15723 70.7578 6.60547 71.1777 6.17578C71.6074 5.73633 72.0957 5.41406 72.6426 5.20898C73.1992 5.00391 73.8096 4.90137 74.4736 4.90137C74.8545 4.90137 75.2402 4.93555 75.6309 5.00391C76.0215 5.07227 76.373 5.1748 76.6855 5.31152C76.998 5.44824 77.252 5.61426 77.4473 5.80957C77.6426 6.00488 77.7402 6.22461 77.7402 6.46875C77.7402 6.64453 77.7012 6.85449 77.623 7.09863C77.5547 7.33301 77.4619 7.5625 77.3447 7.78711C77.2275 8.00195 77.0908 8.1875 76.9346 8.34375C76.7881 8.49023 76.6367 8.56348 76.4805 8.56348C76.3047 8.56348 76.1338 8.51465 75.9678 8.41699C75.8018 8.30957 75.6211 8.19727 75.4258 8.08008C75.2402 7.96289 75.04 7.85547 74.8252 7.75781C74.6201 7.65039 74.3857 7.59668 74.1221 7.59668ZM78.1797 1.63477C78.1797 1.11719 78.3262 0.755859 78.6191 0.550781C78.9121 0.335937 79.3955 0.228516 80.0693 0.228516C80.3135 0.228516 80.5186 0.25293 80.6846 0.301758C80.8604 0.34082 81.0068 0.418945 81.124 0.536133C81.251 0.65332 81.3486 0.80957 81.417 1.00488C81.4951 1.19043 81.5586 1.42969 81.6074 1.72266C81.7246 2.63086 81.8516 3.56836 81.9883 4.53516C82.1348 5.50195 82.2861 6.47363 82.4424 7.4502C82.501 7.88965 82.7305 8.10938 83.1309 8.10938C83.2383 8.10938 83.4141 8.09961 83.6582 8.08008C83.9121 8.05078 84.21 8.02148 84.5518 7.99219C84.8936 7.95312 85.2598 7.91406 85.6504 7.875C86.0508 7.83594 86.4463 7.80176 86.8369 7.77246C87.2373 7.7334 87.6133 7.7041 87.9648 7.68457C88.3262 7.65527 88.6436 7.64062 88.917 7.64062C89.1318 7.64062 89.3027 7.68457 89.4297 7.77246C89.5566 7.85059 89.6543 7.95801 89.7227 8.09473C89.8008 8.22168 89.8496 8.36816 89.8691 8.53418C89.8984 8.69043 89.9131 8.85156 89.9131 9.01758C89.9131 9.16406 89.8838 9.31543 89.8252 9.47168C89.7764 9.62793 89.7031 9.76953 89.6055 9.89648C89.5176 10.0137 89.4053 10.1113 89.2686 10.1895C89.1318 10.2676 88.9756 10.3066 88.7998 10.3066C87.9502 10.3066 87.0908 10.3359 86.2217 10.3945C85.3623 10.4434 84.5029 10.5117 83.6436 10.5996C83.2041 10.6582 82.9844 10.8779 82.9844 11.2588C82.9844 11.2881 82.9893 11.3271 82.999 11.376C83.0088 11.415 83.0137 11.4492 83.0137 11.4785C83.1309 12.3281 83.2383 13.124 83.3359 13.8662C83.4434 14.6084 83.5312 15.2725 83.5996 15.8584C83.6777 16.4346 83.7363 16.918 83.7754 17.3086C83.8242 17.6895 83.8486 17.9434 83.8486 18.0703C83.8486 18.4219 83.8145 18.7148 83.7461 18.9492C83.6777 19.1934 83.5654 19.3887 83.4092 19.5352C83.2529 19.6914 83.043 19.7988 82.7793 19.8574C82.5254 19.9258 82.2031 19.96 81.8125 19.96C81.4414 19.96 81.168 19.8721 80.9922 19.6963C80.8164 19.5205 80.7188 19.252 80.6992 18.8906C80.6406 17.7383 80.5479 16.5811 80.4209 15.4189C80.2939 14.2471 80.1475 13.0801 79.9814 11.918C79.8936 11.498 79.6738 11.2881 79.3223 11.2881C79.293 11.2881 79.2588 11.293 79.2197 11.3027C79.1807 11.3125 79.1465 11.3174 79.1172 11.3174C78.5117 11.4541 77.9404 11.5908 77.4033 11.7275C76.8662 11.8643 76.3633 12.0107 75.8945 12.167C75.6309 12.2549 75.3965 12.3184 75.1914 12.3574C74.9863 12.3867 74.8008 12.4014 74.6348 12.4014C74.4102 12.4014 74.2441 12.3037 74.1367 12.1084C74.0293 11.9033 73.9756 11.6494 73.9756 11.3467C73.9756 11.2393 73.9854 11.1172 74.0049 10.9805C74.0244 10.834 74.0635 10.6924 74.1221 10.5557C74.1709 10.4092 74.249 10.2773 74.3564 10.1602C74.4541 10.0332 74.5908 9.93066 74.7666 9.85254C75.1768 9.68652 75.7236 9.51562 76.4072 9.33984C77.0908 9.1543 77.8623 8.9834 78.7217 8.82715C78.917 8.77832 79.0684 8.7002 79.1758 8.59277C79.293 8.47559 79.3516 8.30469 79.3516 8.08008C79.3516 8.03125 79.3516 7.98242 79.3516 7.93359C79.3516 7.875 79.3418 7.81641 79.3223 7.75781C79.166 6.85938 79.0146 6.04395 78.8682 5.31152C78.7314 4.56934 78.6094 3.93457 78.502 3.40723C78.4043 2.87988 78.3262 2.46484 78.2676 2.16211C78.209 1.85937 78.1797 1.68359 78.1797 1.63477ZM98.4824 7.8457C98.2969 7.8457 98.082 7.87988 97.8379 7.94824C97.5938 8.00684 97.3398 8.08008 97.0762 8.16797C96.8125 8.24609 96.5488 8.31934 96.2852 8.3877C96.0312 8.44629 95.8018 8.47559 95.5967 8.47559C95.3818 8.47559 95.2109 8.44141 95.084 8.37305C94.9668 8.29492 94.8789 8.19727 94.8203 8.08008C94.7617 7.96289 94.7275 7.83594 94.7178 7.69922C94.708 7.5625 94.7031 7.43066 94.7031 7.30371C94.7031 6.93262 94.8105 6.62988 95.0254 6.39551C95.25 6.16113 95.5674 5.96582 95.9775 5.80957C96.3877 5.64355 96.8809 5.50684 97.457 5.39941C98.043 5.28223 98.7021 5.15527 99.4346 5.01855C100.587 4.80371 101.637 4.6377 102.584 4.52051C103.541 4.40332 104.449 4.32031 105.309 4.27148C106.178 4.21289 107.027 4.17871 107.857 4.16895C108.688 4.15918 109.562 4.1543 110.479 4.1543C110.753 4.1543 110.968 4.18848 111.124 4.25684C111.28 4.3252 111.393 4.41309 111.461 4.52051C111.539 4.62793 111.583 4.75 111.593 4.88672C111.612 5.02344 111.622 5.16016 111.622 5.29688C111.622 5.45312 111.598 5.62402 111.549 5.80957C111.51 5.98535 111.437 6.15137 111.329 6.30762C111.231 6.4541 111.095 6.57617 110.919 6.67383C110.753 6.77148 110.548 6.82031 110.304 6.82031H109.132C108.663 6.82031 108.165 6.8252 107.638 6.83496C107.11 6.83496 106.588 6.84473 106.07 6.86426C105.553 6.87402 105.055 6.89355 104.576 6.92285C104.107 6.95215 103.688 6.99609 103.316 7.05469C102.955 7.10352 102.667 7.16699 102.452 7.24512C102.237 7.32324 102.13 7.4209 102.13 7.53809C102.13 7.65527 102.174 7.85059 102.262 8.12402C102.35 8.39746 102.457 8.69531 102.584 9.01758C102.711 9.33008 102.838 9.64258 102.965 9.95508C103.102 10.2578 103.214 10.5117 103.302 10.7168C103.38 10.8828 103.468 10.9951 103.565 11.0537C103.663 11.1123 103.795 11.1416 103.961 11.1416C104.361 11.1416 104.771 11.1172 105.191 11.0684C105.611 11.0195 106.031 10.9658 106.451 10.9072C106.881 10.8389 107.306 10.7803 107.726 10.7314C108.155 10.6826 108.58 10.6582 109 10.6582C109.234 10.6582 109.425 10.7021 109.571 10.79C109.728 10.8682 109.85 10.9707 109.938 11.0977C110.025 11.2148 110.084 11.3418 110.113 11.4785C110.152 11.6152 110.172 11.7324 110.172 11.8301C110.172 12.2695 110.035 12.6016 109.762 12.8262C109.488 13.041 109.117 13.2021 108.648 13.3096C108.18 13.417 107.633 13.4902 107.008 13.5293C106.393 13.5684 105.738 13.6221 105.045 13.6904L104.693 13.7197C104.566 13.7393 104.469 13.7832 104.4 13.8516C104.332 13.9199 104.298 14.0078 104.298 14.1152C104.298 14.1445 104.303 14.1689 104.312 14.1885C104.322 14.208 104.327 14.2324 104.327 14.2617C104.415 14.584 104.518 14.9453 104.635 15.3457C104.752 15.7363 104.859 16.127 104.957 16.5176C105.064 16.9082 105.152 17.2793 105.221 17.6309C105.289 17.9824 105.323 18.2705 105.323 18.4951C105.323 18.9443 105.152 19.2861 104.811 19.5205C104.479 19.7549 104.005 19.8721 103.39 19.8721C103.165 19.8721 102.945 19.8184 102.73 19.7109C102.525 19.6133 102.398 19.4277 102.35 19.1543C102.193 18.3535 102.018 17.5723 101.822 16.8105C101.627 16.0391 101.422 15.2725 101.207 14.5107C101.119 14.2471 100.948 14.1152 100.694 14.1152C100.401 14.1152 100.069 14.1055 99.6982 14.0859C99.3369 14.0664 98.9658 14.0273 98.585 13.9688C98.2041 13.9102 97.833 13.8369 97.4717 13.749C97.1201 13.6514 96.8027 13.5244 96.5195 13.3682C96.2461 13.2119 96.0215 13.0264 95.8457 12.8115C95.6797 12.5967 95.5967 12.3428 95.5967 12.0498C95.5967 11.8643 95.6406 11.6836 95.7285 11.5078C95.8164 11.3223 95.9287 11.1611 96.0654 11.0244C96.2021 10.8779 96.3486 10.7607 96.5049 10.6729C96.6709 10.585 96.8271 10.541 96.9736 10.541C97.1494 10.541 97.3398 10.585 97.5449 10.6729C97.75 10.7607 97.9697 10.8584 98.2041 10.9658C98.4385 11.0732 98.6875 11.1709 98.9512 11.2588C99.2246 11.3467 99.5176 11.3906 99.8301 11.3906C99.9863 11.3906 100.064 11.3076 100.064 11.1416C100.064 10.9854 100.035 10.7803 99.9766 10.5264C99.9277 10.2725 99.8594 10.0088 99.7715 9.73535C99.6836 9.45215 99.5811 9.17871 99.4639 8.91504C99.3564 8.6416 99.2393 8.41211 99.1123 8.22656C99.0342 8.10938 98.9512 8.0166 98.8633 7.94824C98.7852 7.87988 98.6582 7.8457 98.4824 7.8457ZM119.503 7.59668C119.142 7.59668 118.824 7.69434 118.551 7.88965C118.277 8.0752 118.043 8.33887 117.848 8.68066C117.652 9.0127 117.491 9.4082 117.364 9.86719C117.237 10.3164 117.135 10.8096 117.057 11.3467C116.979 11.8838 116.925 12.4453 116.896 13.0312C116.866 13.6172 116.852 14.208 116.852 14.8037C116.852 15.585 116.881 16.3564 116.939 17.1182C117.008 17.8701 117.042 18.5684 117.042 19.2129C117.042 19.6328 116.886 19.96 116.573 20.1943C116.261 20.4385 115.816 20.5605 115.24 20.5605C115.133 20.5605 115.011 20.5508 114.874 20.5312C114.737 20.5117 114.605 20.4727 114.479 20.4141C114.361 20.3555 114.254 20.2725 114.156 20.165C114.068 20.0674 114.02 19.9307 114.01 19.7549C113.922 18.8955 113.795 18.0166 113.629 17.1182C113.463 16.2197 113.253 15.3262 112.999 14.4375C112.755 13.5391 112.457 12.6504 112.105 11.7715C111.764 10.8926 111.368 10.0332 110.919 9.19336C110.841 9.04688 110.772 8.91016 110.714 8.7832C110.665 8.65625 110.641 8.53418 110.641 8.41699C110.641 8.27051 110.704 8.11426 110.831 7.94824C110.968 7.77246 111.134 7.61133 111.329 7.46484C111.534 7.31836 111.754 7.20117 111.988 7.11328C112.232 7.01562 112.467 6.9668 112.691 6.9668C113.062 6.9668 113.39 7.22559 113.673 7.74316C113.956 8.25098 114.22 9.06641 114.464 10.1895C114.513 10.3848 114.552 10.5215 114.581 10.5996C114.61 10.6777 114.649 10.7168 114.698 10.7168C114.806 10.7168 114.874 10.5508 114.903 10.2188C115.021 9.29102 115.221 8.49512 115.504 7.83105C115.787 7.15723 116.139 6.60547 116.559 6.17578C116.988 5.73633 117.477 5.41406 118.023 5.20898C118.58 5.00391 119.19 4.90137 119.854 4.90137C120.235 4.90137 120.621 4.93555 121.012 5.00391C121.402 5.07227 121.754 5.1748 122.066 5.31152C122.379 5.44824 122.633 5.61426 122.828 5.80957C123.023 6.00488 123.121 6.22461 123.121 6.46875C123.121 6.64453 123.082 6.85449 123.004 7.09863C122.936 7.33301 122.843 7.5625 122.726 7.78711C122.608 8.00195 122.472 8.1875 122.315 8.34375C122.169 8.49023 122.018 8.56348 121.861 8.56348C121.686 8.56348 121.515 8.51465 121.349 8.41699C121.183 8.30957 121.002 8.19727 120.807 8.08008C120.621 7.96289 120.421 7.85547 120.206 7.75781C120.001 7.65039 119.767 7.59668 119.503 7.59668ZM122.389 13.6904C122.389 13.5244 122.408 13.3389 122.447 13.1338C122.486 12.9287 122.506 12.7041 122.506 12.46C122.506 12.2939 122.433 12.167 122.286 12.0791C122.149 11.9912 121.993 11.8936 121.817 11.7861C121.642 11.6787 121.48 11.542 121.334 11.376C121.197 11.21 121.129 10.9707 121.129 10.6582C121.129 10.4336 121.188 10.209 121.305 9.98438C121.432 9.75977 121.612 9.55469 121.847 9.36914C122.423 8.93945 123.019 8.55371 123.634 8.21191C124.259 7.87012 124.879 7.58203 125.494 7.34766C126.119 7.11328 126.734 6.93262 127.34 6.80566C127.945 6.67871 128.526 6.61523 129.083 6.61523C130.021 6.61523 130.899 6.79102 131.72 7.14258C132.55 7.48438 133.268 7.95801 133.873 8.56348C134.488 9.15918 134.972 9.8623 135.323 10.6729C135.685 11.4736 135.865 12.333 135.865 13.251C135.865 14.1494 135.675 15.0039 135.294 15.8145C134.923 16.6152 134.42 17.3184 133.785 17.9238C133.15 18.5293 132.403 19.0078 131.544 19.3594C130.694 19.7207 129.796 19.9014 128.849 19.9014C127.921 19.9014 127.062 19.7451 126.271 19.4326C125.479 19.1201 124.796 18.6904 124.22 18.1436C123.644 17.5869 123.194 16.9326 122.872 16.1807C122.55 15.4189 122.389 14.5889 122.389 13.6904ZM129.171 17.2646C129.581 17.2646 130.006 17.1816 130.445 17.0156C130.885 16.8496 131.285 16.6104 131.646 16.2979C132.018 15.9756 132.32 15.585 132.555 15.126C132.799 14.667 132.921 14.1494 132.921 13.5732C132.921 12.9873 132.813 12.4404 132.599 11.9326C132.384 11.4248 132.086 10.9854 131.705 10.6143C131.334 10.2334 130.89 9.93555 130.372 9.7207C129.864 9.50586 129.312 9.39844 128.717 9.39844C127.633 9.39844 126.803 9.68164 126.227 10.248C125.65 10.8047 125.362 11.6641 125.362 12.8262C125.362 13.4609 125.455 14.0518 125.641 14.5986C125.836 15.1357 126.104 15.6045 126.446 16.0049C126.788 16.3955 127.188 16.7031 127.647 16.9277C128.116 17.1523 128.624 17.2646 129.171 17.2646ZM139.088 19.1836C139.02 17.8848 138.907 16.6885 138.751 15.5947C138.604 14.4912 138.448 13.5293 138.282 12.709C138.126 11.8887 137.984 11.2246 137.857 10.7168C137.74 10.209 137.682 9.8916 137.682 9.76465C137.682 9.5791 137.75 9.39844 137.887 9.22266C138.033 9.04688 138.214 8.89551 138.429 8.76855C138.644 8.63184 138.873 8.52441 139.117 8.44629C139.371 8.36816 139.601 8.3291 139.806 8.3291C139.972 8.3291 140.113 8.3584 140.23 8.41699C140.357 8.47559 140.445 8.57324 140.494 8.70996C140.543 8.87598 140.587 9.05176 140.626 9.2373C140.675 9.41309 140.724 9.62793 140.772 9.88184C140.831 10.2432 140.909 10.4238 141.007 10.4238C141.114 10.4238 141.236 10.2627 141.373 9.94043C141.568 9.49121 141.778 9.12012 142.003 8.82715C142.228 8.53418 142.467 8.30469 142.721 8.13867C142.984 7.96289 143.253 7.84082 143.526 7.77246C143.81 7.7041 144.103 7.66992 144.405 7.66992C145.323 7.66992 146.1 8.03125 146.734 8.75391C147.379 9.47656 147.882 10.5215 148.243 11.8887C148.292 12.0449 148.336 12.1475 148.375 12.1963C148.414 12.2354 148.458 12.2549 148.507 12.2549C148.556 12.2549 148.604 12.2354 148.653 12.1963C148.712 12.1475 148.766 12.0547 148.814 11.918C149.049 11.2832 149.322 10.7461 149.635 10.3066C149.947 9.85742 150.27 9.49609 150.602 9.22266C150.943 8.93945 151.29 8.73438 151.642 8.60742C151.993 8.48047 152.33 8.41699 152.652 8.41699C153.248 8.41699 153.785 8.63672 154.264 9.07617C154.752 9.50586 155.182 10.1748 155.553 11.083C155.934 11.9814 156.261 13.124 156.534 14.5107C156.817 15.8877 157.052 17.5234 157.237 19.418C157.237 19.9453 157.076 20.3115 156.754 20.5166C156.432 20.7314 155.992 20.8389 155.436 20.8389C155.074 20.8389 154.791 20.7607 154.586 20.6045C154.381 20.4482 154.264 20.2432 154.234 19.9893C154.107 18.6318 153.966 17.4258 153.81 16.3711C153.663 15.3066 153.502 14.4131 153.326 13.6904C153.15 12.958 152.955 12.4014 152.74 12.0205C152.535 11.6396 152.306 11.4492 152.052 11.4492C151.925 11.4492 151.764 11.542 151.568 11.7275C151.383 11.9131 151.183 12.2549 150.968 12.7529C150.753 13.2412 150.528 13.915 150.294 14.7744C150.06 15.624 149.835 16.7129 149.62 18.041C149.562 18.4121 149.381 18.6953 149.078 18.8906C148.785 19.0859 148.424 19.1836 147.994 19.1836C147.496 19.1836 147.149 19.1055 146.954 18.9492C146.769 18.793 146.666 18.5293 146.646 18.1582C146.607 17.5137 146.539 16.874 146.441 16.2393C146.354 15.5947 146.241 14.9844 146.104 14.4082C145.968 13.8223 145.816 13.2852 145.65 12.7969C145.484 12.2988 145.309 11.8691 145.123 11.5078C144.938 11.1367 144.747 10.8486 144.552 10.6436C144.356 10.4385 144.166 10.3359 143.98 10.3359C143.736 10.3359 143.497 10.5068 143.263 10.8486C143.038 11.1904 142.833 11.6738 142.647 12.2988C142.472 12.9238 142.33 13.6758 142.223 14.5547C142.115 15.4336 142.062 16.415 142.062 17.499C142.062 17.6846 142.066 17.8701 142.076 18.0557C142.086 18.2314 142.091 18.417 142.091 18.6123C142.091 18.9053 142.042 19.1445 141.944 19.3301C141.856 19.5156 141.725 19.6621 141.549 19.7695C141.383 19.877 141.188 19.9502 140.963 19.9893C140.738 20.0283 140.494 20.0479 140.23 20.0479C139.986 20.0479 139.791 20.0283 139.645 19.9893C139.498 19.96 139.386 19.9111 139.308 19.8428C139.229 19.7744 139.176 19.6816 139.146 19.5645C139.117 19.457 139.098 19.3301 139.088 19.1836ZM23.7314 36.5605C23.7314 35.9355 24.0684 35.5547 24.7422 35.418L25.3721 35.3008C25.4404 35.2812 25.499 35.2715 25.5479 35.2715C25.6064 35.2715 25.6602 35.2715 25.709 35.2715C26.3047 35.2715 26.6562 35.6133 26.7637 36.2969C26.8027 36.6289 26.8516 37.0488 26.9102 37.5566C26.9688 38.0645 27.042 38.6211 27.1299 39.2266C27.2275 39.832 27.335 40.4668 27.4521 41.1309C27.5791 41.7949 27.7207 42.4492 27.877 43.0938C28.0332 43.7285 28.209 44.334 28.4043 44.9102C28.5996 45.4863 28.8193 45.9941 29.0635 46.4336C29.3076 46.873 29.5713 47.2246 29.8545 47.4883C30.1475 47.7422 30.4648 47.8691 30.8066 47.8691C31.0508 47.8691 31.2949 47.7959 31.5391 47.6494C31.793 47.5029 32.042 47.3125 32.2861 47.0781C32.5303 46.834 32.7646 46.5605 32.9893 46.2578C33.2139 45.9551 33.4189 45.6475 33.6045 45.335C33.79 45.0225 33.9561 44.7246 34.1025 44.4414C34.2588 44.1484 34.3809 43.8945 34.4688 43.6797C34.5273 43.4941 34.5566 43.3232 34.5566 43.167C34.5566 43.0889 34.5518 43.0107 34.542 42.9326C34.5322 42.8545 34.5176 42.7715 34.498 42.6836C34.3125 42.0781 34.1709 41.4727 34.0732 40.8672C33.9756 40.2617 33.9268 39.6074 33.9268 38.9043C33.9268 38.4941 33.9609 38.0889 34.0293 37.6885C34.0977 37.2881 34.2148 36.9219 34.3809 36.5898C34.4688 36.4141 34.6006 36.2627 34.7764 36.1357C34.9521 36.0088 35.1426 35.9062 35.3477 35.8281C35.5625 35.75 35.7822 35.6963 36.0068 35.667C36.2412 35.6279 36.4561 35.6084 36.6514 35.6084C36.8662 35.6084 37.0615 35.6523 37.2373 35.7402C37.4131 35.8184 37.5693 35.9551 37.7061 36.1504C37.9795 36.5215 38.1699 36.9463 38.2773 37.4248C38.3945 37.9033 38.4531 38.3867 38.4531 38.875C38.4531 39.4023 38.4043 39.9443 38.3066 40.501C38.209 41.0479 38.0918 41.5947 37.9551 42.1416C37.8867 42.2783 37.8525 42.4297 37.8525 42.5957C37.8525 42.6738 37.8623 42.7568 37.8818 42.8447C37.9111 42.9326 37.9453 43.0303 37.9844 43.1377C38.1602 43.5967 38.3652 44.0654 38.5996 44.5439C38.8438 45.0127 39.1221 45.4375 39.4346 45.8184C39.7471 46.1992 40.0986 46.5117 40.4893 46.7559C40.8799 47 41.3242 47.1221 41.8223 47.1221C42.2617 47.1221 42.6572 46.9365 43.0088 46.5654C43.3604 46.1943 43.6533 45.7256 43.8877 45.1592C44.1318 44.5928 44.3174 43.9775 44.4443 43.3135C44.5713 42.6396 44.6348 42 44.6348 41.3945C44.6348 40.75 44.6104 40.1152 44.5615 39.4902C44.5127 38.8652 44.4492 38.2891 44.3711 37.7617C44.3516 37.7129 44.3418 37.6641 44.3418 37.6152C44.3418 37.5664 44.3418 37.5176 44.3418 37.4688C44.3418 36.9121 44.6396 36.5312 45.2354 36.3262L45.8945 36.1064C46.0801 36.0479 46.251 36.0186 46.4072 36.0186C46.9248 36.0186 47.2373 36.3408 47.3447 36.9854C47.4521 37.5908 47.5352 38.1963 47.5938 38.8018C47.6621 39.4072 47.6963 40.0127 47.6963 40.6182C47.6963 41.9072 47.5449 43.1182 47.2422 44.251C46.9395 45.3838 46.5146 46.375 45.9678 47.2246C45.4307 48.0645 44.791 48.7285 44.0488 49.2168C43.3066 49.7051 42.4912 49.9492 41.6025 49.9492C40.7334 49.9492 39.8594 49.6904 38.9805 49.1729C38.1016 48.6455 37.3057 47.8105 36.5928 46.668C36.4561 46.4141 36.2998 46.2871 36.124 46.2871C35.958 46.2871 35.8066 46.4141 35.6699 46.668C35.3281 47.2734 34.9521 47.835 34.542 48.3525C34.1318 48.8604 33.6973 49.2998 33.2383 49.6709C32.7793 50.042 32.3008 50.3301 31.8027 50.5352C31.3047 50.7402 30.8018 50.8428 30.2939 50.8428C29.4736 50.8428 28.751 50.6182 28.126 50.1689C27.5107 49.7295 26.9736 49.1387 26.5146 48.3965C26.0654 47.6543 25.6846 46.8047 25.3721 45.8477C25.0596 44.8809 24.7959 43.8799 24.5811 42.8447C24.376 41.7998 24.2051 40.7549 24.0684 39.71C23.9414 38.665 23.8291 37.6885 23.7314 36.7803V36.5605ZM62.4473 46.3457C62.7305 46.1016 63.0088 45.9795 63.2822 45.9795C63.4385 45.9795 63.5801 46.0186 63.707 46.0967C63.834 46.1748 63.9756 46.2969 64.1318 46.4629C64.2783 46.6875 64.3809 46.873 64.4395 47.0195C64.5078 47.1562 64.542 47.293 64.542 47.4297C64.542 47.7227 64.3955 48.001 64.1025 48.2646C63.6338 48.6553 63.126 49.0068 62.5791 49.3193C62.0322 49.6221 61.4609 49.8809 60.8652 50.0957C60.2695 50.3105 59.6543 50.4717 59.0195 50.5791C58.3848 50.6963 57.7549 50.7549 57.1299 50.7549C56.3389 50.7549 55.5967 50.6523 54.9033 50.4473C54.21 50.252 53.5898 49.9688 53.043 49.5977C52.5059 49.2266 52.0518 48.7822 51.6807 48.2646C51.3096 47.7373 51.0459 47.1465 50.8896 46.4922C50.8018 46.2188 50.7188 46.043 50.6406 45.9648C50.5723 45.877 50.4551 45.833 50.2891 45.833C49.9277 45.833 49.6494 45.7451 49.4541 45.5693C49.2588 45.3936 49.1611 45.1396 49.1611 44.8076C49.1611 44.6709 49.1709 44.583 49.1904 44.5439L49.2197 44.251C49.2686 43.8994 49.3613 43.6455 49.498 43.4893C49.6445 43.333 49.8691 43.2549 50.1719 43.2549H50.3916C50.8018 43.2549 51.0898 43.0645 51.2559 42.6836C51.5586 42.0098 51.9443 41.3945 52.4131 40.8379C52.8818 40.2812 53.4092 39.8076 53.9951 39.417C54.5811 39.0166 55.2061 38.709 55.8701 38.4941C56.5439 38.2695 57.2275 38.1572 57.9209 38.1572C58.6436 38.1572 59.3174 38.2646 59.9424 38.4795C60.5771 38.6846 61.1289 38.9727 61.5977 39.3438C62.0664 39.7148 62.4326 40.1494 62.6963 40.6475C62.9697 41.1455 63.1064 41.6826 63.1064 42.2588C63.1064 42.6592 63.0283 43.0254 62.8721 43.3574C62.7158 43.6895 62.4912 43.9824 62.1982 44.2363C61.9053 44.4805 61.5488 44.6807 61.1289 44.8369C60.7188 44.9932 60.25 45.0957 59.7227 45.1445L54.6396 45.6572C54.4443 45.6572 54.2832 45.7061 54.1562 45.8037C54.0391 45.9014 53.9805 46.0332 53.9805 46.1992C53.9805 46.4531 54.0732 46.6973 54.2588 46.9316C54.4541 47.166 54.708 47.376 55.0205 47.5615C55.3428 47.7373 55.709 47.8789 56.1191 47.9863C56.5391 48.0938 56.9688 48.1475 57.4082 48.1475C57.8281 48.1475 58.2578 48.1084 58.6973 48.0303C59.1465 47.9424 59.5859 47.8203 60.0156 47.6641C60.4551 47.5078 60.8799 47.3223 61.29 47.1074C61.7002 46.8828 62.0859 46.6289 62.4473 46.3457ZM59.1807 42.5664C59.3271 42.5371 59.4541 42.4688 59.5615 42.3613C59.6689 42.2441 59.7227 42.1025 59.7227 41.9365C59.7227 41.79 59.6689 41.6533 59.5615 41.5264C59.4541 41.3994 59.3076 41.2871 59.1221 41.1895C58.9365 41.082 58.7217 40.999 58.4775 40.9404C58.2334 40.8818 57.9746 40.8525 57.7012 40.8525C57.3008 40.8525 56.8906 40.9111 56.4707 41.0283C56.0508 41.1455 55.6699 41.3018 55.3281 41.4971C54.9863 41.6826 54.708 41.8926 54.4932 42.127C54.2783 42.3516 54.1709 42.5762 54.1709 42.8008C54.1709 43.0254 54.3076 43.1377 54.5811 43.1377C54.7471 43.1377 55.0156 43.1182 55.3867 43.0791C55.7578 43.04 56.168 42.9961 56.6172 42.9473C57.0664 42.8887 57.5205 42.8252 57.9795 42.7568C58.4385 42.6885 58.8389 42.625 59.1807 42.5664ZM66.0654 46.1699C65.8799 43.8848 65.665 41.6143 65.4209 39.3584C65.1865 37.1025 64.8398 34.8516 64.3809 32.6055C64.3613 32.5273 64.3516 32.459 64.3516 32.4004C64.3516 32.332 64.3516 32.2686 64.3516 32.21C64.3516 31.9854 64.3955 31.79 64.4834 31.624C64.5811 31.458 64.708 31.3213 64.8643 31.2139C65.0205 31.0967 65.1963 31.0088 65.3916 30.9502C65.5967 30.8916 65.8115 30.8623 66.0361 30.8623C66.6318 30.8623 67.042 31.1406 67.2666 31.6973C67.3643 31.9805 67.4619 32.3857 67.5596 32.9131C67.667 33.4404 67.7744 34.0508 67.8818 34.7441C67.999 35.4375 68.1113 36.1992 68.2188 37.0293C68.3262 37.8496 68.4287 38.6943 68.5264 39.5635C68.5557 39.8076 68.6338 39.9297 68.7607 39.9297C68.8682 39.9297 68.9805 39.8564 69.0977 39.71C70.5234 37.835 72.2129 36.8975 74.166 36.8975C74.8984 36.8975 75.582 37.0586 76.2168 37.3809C76.8516 37.7031 77.4033 38.1426 77.8721 38.6992C78.3408 39.2559 78.707 39.915 78.9707 40.6768C79.2441 41.4385 79.3809 42.2588 79.3809 43.1377C79.3809 43.958 79.249 44.7197 78.9854 45.4229C78.7314 46.126 78.375 46.7314 77.916 47.2393C77.457 47.7471 76.9102 48.1475 76.2754 48.4404C75.6504 48.7236 74.9668 48.8652 74.2246 48.8652C73.3066 48.8652 72.4082 48.6895 71.5293 48.3379C70.6504 47.9766 69.8203 47.4932 69.0391 46.8877C68.9512 46.8096 68.8584 46.7705 68.7607 46.7705C68.6338 46.7705 68.5166 46.8389 68.4092 46.9756C68.2529 47.1514 68.0869 47.2686 67.9111 47.3271C67.7354 47.376 67.5205 47.4004 67.2666 47.4004C66.4951 47.4004 66.0947 46.9902 66.0654 46.1699ZM73.6533 39.6221C73.2627 39.6221 72.8721 39.7148 72.4814 39.9004C72.1006 40.0762 71.7393 40.3301 71.3975 40.6621C71.0557 40.9941 70.7383 41.3945 70.4453 41.8633C70.1621 42.3223 69.9229 42.835 69.7275 43.4014C69.708 43.4307 69.6934 43.4746 69.6836 43.5332C69.6738 43.5918 69.6689 43.6406 69.6689 43.6797C69.6689 43.8457 69.7275 43.9727 69.8447 44.0605C70.1963 44.3633 70.5576 44.6465 70.9287 44.9102C71.3096 45.1738 71.6855 45.4033 72.0566 45.5986C72.4277 45.7939 72.7939 45.9502 73.1553 46.0674C73.5166 46.1748 73.8535 46.2285 74.166 46.2285C74.8691 46.2285 75.4014 46.0234 75.7627 45.6133C76.1338 45.2031 76.3193 44.6074 76.3193 43.8262C76.3193 43.2207 76.251 42.6641 76.1143 42.1562C75.9775 41.6387 75.792 41.1943 75.5576 40.8232C75.3232 40.4424 75.04 40.1494 74.708 39.9443C74.3857 39.7295 74.0342 39.6221 73.6533 39.6221ZM89.708 33.3525C89.708 32.835 89.8545 32.4736 90.1475 32.2686C90.4404 32.0537 90.9238 31.9463 91.5977 31.9463C91.8418 31.9463 92.0469 31.9707 92.2129 32.0195C92.3887 32.0586 92.5352 32.1367 92.6523 32.2539C92.7793 32.3711 92.877 32.5273 92.9453 32.7227C93.0234 32.9082 93.0869 33.1475 93.1357 33.4404C93.2627 34.3096 93.3896 35.2227 93.5166 36.1797C93.6533 37.127 93.7803 38.0742 93.8975 39.0215C94.0244 39.959 94.1416 40.877 94.249 41.7754C94.3564 42.6641 94.4492 43.4941 94.5273 44.2656C94.6055 45.0273 94.6641 45.7061 94.7031 46.3018C94.752 46.8877 94.7764 47.3516 94.7764 47.6934C94.7764 48.0449 94.7422 48.3428 94.6738 48.5869C94.6152 48.8213 94.5127 49.0166 94.3662 49.1729C94.2197 49.3193 94.0244 49.4268 93.7803 49.4951C93.5361 49.5537 93.2383 49.583 92.8867 49.583C92.5449 49.583 92.2764 49.4951 92.0811 49.3193C91.8857 49.1338 91.7881 48.8604 91.7881 48.499C91.7881 48.167 91.7588 47.7275 91.7002 47.1807C91.6514 46.6338 91.583 46.0283 91.4951 45.3643C91.417 44.6904 91.3242 43.9775 91.2168 43.2256C91.1094 42.4639 90.9971 41.7021 90.8799 40.9404C90.8604 40.7939 90.8066 40.6963 90.7188 40.6475C90.6406 40.5889 90.5234 40.5596 90.3672 40.5596L86.5 40.9404C86.2949 40.9697 86.168 41.0527 86.1191 41.1895C86.0801 41.3262 86.0605 41.5166 86.0605 41.7607C86.0605 43.9189 86.1143 45.7744 86.2217 47.3271C86.3291 48.8799 86.4463 50.1836 86.5732 51.2383C86.71 52.3027 86.832 53.1377 86.9395 53.7432C87.0469 54.3584 87.1006 54.8027 87.1006 55.0762C87.1006 55.2812 87.0176 55.4668 86.8516 55.6328C86.6953 55.7988 86.4902 55.9404 86.2363 56.0576C85.9922 56.1748 85.7236 56.2627 85.4307 56.3213C85.1377 56.3896 84.8643 56.4238 84.6104 56.4238C84.3662 56.4238 84.1465 56.3799 83.9512 56.292C83.7656 56.2139 83.6582 56.0771 83.6289 55.8818C83.5312 55.1982 83.4482 54.4463 83.3799 53.626C83.3115 52.8154 83.2529 51.9121 83.2041 50.916C83.165 49.9297 83.1357 48.8506 83.1162 47.6787C83.0967 46.4971 83.0869 45.2031 83.0869 43.7969C83.0869 43.4355 83.0869 43.084 83.0869 42.7422C83.0869 42.4004 83.0967 42.0586 83.1162 41.7168C83.1162 41.4238 82.9551 41.2773 82.6328 41.2773L80.084 41.4824C79.8594 41.4629 79.6787 41.3164 79.542 41.043C79.4053 40.7695 79.3369 40.4668 79.3369 40.1348C79.3369 39.9785 79.3516 39.8271 79.3809 39.6807C79.4004 39.5244 79.4395 39.3877 79.498 39.2705C79.5566 39.1533 79.6299 39.0605 79.7178 38.9922C79.8057 38.9141 79.9082 38.875 80.0254 38.875C80.3867 38.875 80.8018 38.8652 81.2705 38.8457C81.7393 38.8164 82.2422 38.7871 82.7793 38.7578C83.0527 38.7285 83.2041 38.5674 83.2334 38.2744C83.3213 36.8584 83.4434 35.6377 83.5996 34.6123C83.7559 33.5869 83.9463 32.7227 84.1709 32.0195C84.3955 31.3066 84.6494 30.7305 84.9326 30.291C85.2256 29.8516 85.5479 29.5146 85.8994 29.2803C86.0068 29.2021 86.1338 29.124 86.2803 29.0459C86.4268 28.958 86.5635 28.9141 86.6904 28.9141C86.9346 28.9141 87.1885 28.9775 87.4521 29.1045C87.7256 29.2217 87.9746 29.3779 88.1992 29.5732C88.4336 29.7588 88.624 29.9736 88.7705 30.2178C88.917 30.4521 88.9902 30.6865 88.9902 30.9209C88.9902 31.0088 88.9707 31.082 88.9316 31.1406C88.8926 31.1895 88.8438 31.2383 88.7852 31.2871C88.4043 31.5703 88.0674 31.8877 87.7744 32.2393C87.4814 32.5908 87.2324 33.0205 87.0273 33.5283C86.8223 34.0361 86.6514 34.6465 86.5146 35.3594C86.3779 36.0723 86.2754 36.9316 86.207 37.9375C86.207 38.0938 86.2314 38.2109 86.2803 38.2891C86.3389 38.3574 86.4414 38.3916 86.5879 38.3916C86.7441 38.3916 86.959 38.377 87.2324 38.3477C87.5156 38.3184 87.8135 38.2842 88.126 38.2451C88.4385 38.1963 88.751 38.1475 89.0635 38.0986C89.3857 38.04 89.6641 37.9863 89.8984 37.9375C90.0742 37.9082 90.1865 37.8594 90.2354 37.791C90.2842 37.7129 90.3086 37.5859 90.3086 37.4102C90.3086 37.2734 90.2891 37.1025 90.25 36.8975C90.2207 36.6826 90.1816 36.4434 90.1328 36.1797C89.9961 35.3789 89.8887 34.7246 89.8105 34.2168C89.7422 33.6992 89.708 33.4111 89.708 33.3525ZM97.3105 44.6904C97.3105 44.5244 97.3301 44.3389 97.3691 44.1338C97.4082 43.9287 97.4277 43.7041 97.4277 43.46C97.4277 43.2939 97.3545 43.167 97.208 43.0791C97.0713 42.9912 96.915 42.8936 96.7393 42.7861C96.5635 42.6787 96.4023 42.542 96.2559 42.376C96.1191 42.21 96.0508 41.9707 96.0508 41.6582C96.0508 41.4336 96.1094 41.209 96.2266 40.9844C96.3535 40.7598 96.5342 40.5547 96.7686 40.3691C97.3447 39.9395 97.9404 39.5537 98.5557 39.2119C99.1807 38.8701 99.8008 38.582 100.416 38.3477C101.041 38.1133 101.656 37.9326 102.262 37.8057C102.867 37.6787 103.448 37.6152 104.005 37.6152C104.942 37.6152 105.821 37.791 106.642 38.1426C107.472 38.4844 108.189 38.958 108.795 39.5635C109.41 40.1592 109.894 40.8623 110.245 41.6729C110.606 42.4736 110.787 43.333 110.787 44.251C110.787 45.1494 110.597 46.0039 110.216 46.8145C109.845 47.6152 109.342 48.3184 108.707 48.9238C108.072 49.5293 107.325 50.0078 106.466 50.3594C105.616 50.7207 104.718 50.9014 103.771 50.9014C102.843 50.9014 101.983 50.7451 101.192 50.4326C100.401 50.1201 99.7178 49.6904 99.1416 49.1436C98.5654 48.5869 98.1162 47.9326 97.7939 47.1807C97.4717 46.4189 97.3105 45.5889 97.3105 44.6904ZM104.093 48.2646C104.503 48.2646 104.928 48.1816 105.367 48.0156C105.807 47.8496 106.207 47.6104 106.568 47.2979C106.939 46.9756 107.242 46.585 107.477 46.126C107.721 45.667 107.843 45.1494 107.843 44.5732C107.843 43.9873 107.735 43.4404 107.521 42.9326C107.306 42.4248 107.008 41.9854 106.627 41.6143C106.256 41.2334 105.812 40.9355 105.294 40.7207C104.786 40.5059 104.234 40.3984 103.639 40.3984C102.555 40.3984 101.725 40.6816 101.148 41.248C100.572 41.8047 100.284 42.6641 100.284 43.8262C100.284 44.4609 100.377 45.0518 100.562 45.5986C100.758 46.1357 101.026 46.6045 101.368 47.0049C101.71 47.3955 102.11 47.7031 102.569 47.9277C103.038 48.1523 103.546 48.2646 104.093 48.2646ZM122.022 43.2842C122.022 41.7412 122.208 40.5547 122.579 39.7246C122.95 38.8945 123.482 38.4795 124.176 38.4795C125.279 38.4795 125.831 39.4316 125.831 41.3359C125.831 42.0098 125.792 42.6445 125.714 43.2402C125.646 43.8359 125.543 44.4121 125.406 44.9688C125.387 45.0469 125.372 45.1201 125.362 45.1885C125.353 45.2568 125.348 45.3203 125.348 45.3789C125.348 45.584 125.387 45.7646 125.465 45.9209C125.953 47.1611 126.856 47.7812 128.175 47.7812C128.644 47.7812 129.083 47.6787 129.493 47.4736C129.903 47.2686 130.26 46.9902 130.562 46.6387C130.865 46.2773 131.1 45.8574 131.266 45.3789C131.441 44.9004 131.529 44.3828 131.529 43.8262C131.529 43.2012 131.456 42.6836 131.31 42.2734C131.163 41.8535 131.002 41.4971 130.826 41.2041C130.65 40.9014 130.489 40.6279 130.343 40.3838C130.196 40.1299 130.123 39.8467 130.123 39.5342C130.123 39.3877 130.187 39.2363 130.313 39.0801C130.45 38.9141 130.616 38.7627 130.812 38.626C131.017 38.4893 131.236 38.377 131.471 38.2891C131.715 38.2012 131.944 38.1572 132.159 38.1572C132.442 38.1572 132.721 38.3135 132.994 38.626C133.277 38.9385 133.526 39.3486 133.741 39.8564C133.966 40.3545 134.142 40.9258 134.269 41.5703C134.405 42.2148 134.474 42.8643 134.474 43.5186C134.474 44.4658 134.298 45.3594 133.946 46.1992C133.595 47.0391 133.116 47.7764 132.511 48.4111C131.905 49.0459 131.197 49.5488 130.387 49.9199C129.586 50.291 128.736 50.4766 127.838 50.4766C127.076 50.4766 126.397 50.3398 125.802 50.0664C125.216 49.8027 124.674 49.334 124.176 48.6602C124.098 48.5332 124.02 48.4453 123.941 48.3965C123.863 48.3477 123.785 48.3232 123.707 48.3232C123.609 48.3232 123.521 48.3477 123.443 48.3965C123.365 48.4453 123.282 48.5332 123.194 48.6602C122.53 49.5293 121.817 50.1494 121.056 50.5205C120.304 50.8916 119.474 51.0771 118.565 51.0771C117.56 51.0771 116.651 50.7988 115.841 50.2422C115.04 49.6953 114.356 48.9141 113.79 47.8984C113.224 46.8828 112.789 45.6523 112.486 44.207C112.184 42.752 112.032 41.126 112.032 39.3291C112.032 38.5967 112.062 37.9912 112.12 37.5127C112.179 37.0244 112.286 36.6436 112.442 36.3701C112.599 36.0869 112.804 35.8916 113.058 35.7842C113.312 35.667 113.639 35.6084 114.039 35.6084C114.459 35.6084 114.762 35.6914 114.947 35.8574C115.143 36.0137 115.24 36.2871 115.24 36.6777C115.24 36.9805 115.211 37.3223 115.152 37.7031C115.094 38.0742 115.064 38.3965 115.064 38.6699C115.064 40.0859 115.162 41.3896 115.357 42.5811C115.562 43.7725 115.841 44.7979 116.192 45.6572C116.554 46.5166 116.979 47.1855 117.467 47.6641C117.965 48.1426 118.512 48.3818 119.107 48.3818C120.436 48.3818 121.417 47.7031 122.052 46.3457C122.11 46.2383 122.149 46.1406 122.169 46.0527C122.188 45.9551 122.198 45.8525 122.198 45.7451C122.198 45.6865 122.198 45.6279 122.198 45.5693C122.198 45.501 122.188 45.4277 122.169 45.3496C122.12 44.9785 122.081 44.627 122.052 44.2949C122.032 43.9531 122.022 43.6162 122.022 43.2842Z" fill="#6B66DA"/>
</svg>
