<svg width="23" height="28" viewBox="0 0 23 28" fill="none" xmlns="http://www.w3.org/2000/svg">
<path fill-rule="evenodd" clip-rule="evenodd" d="M21.9531 7.54883C22.0547 7.83594 22.1094 8.14062 22.1094 8.44922V24.9121C22.1094 26.4062 20.8984 27.6172 19.4062 27.6172H3.17188C1.67969 27.6172 0.46875 26.4062 0.46875 24.9121V3.27148C0.46875 1.77734 1.67969 0.566406 3.17188 0.566406H14.2266C14.9453 0.566406 15.6328 0.851562 16.1406 1.35938L21.3203 6.53711C21.6094 6.82617 21.8203 7.17188 21.9531 7.54883ZM11.2891 24.0098C10.4609 24.0098 9.78906 23.3379 9.78906 22.5078V12.2891C9.78906 11.459 10.4609 10.7852 11.2891 10.7852C12.1172 10.7852 12.7891 11.459 12.7891 12.2891V22.5078C12.7891 23.3379 12.1172 24.0098 11.2891 24.0098ZM4.07812 22.5078C4.07812 23.1367 4.46094 23.6738 5.00781 23.8984C5.17969 23.9707 5.375 24.0098 5.57812 24.0098C6.40625 24.0098 7.07812 23.3379 7.07812 22.5078V15.8945C7.07812 15.0645 6.40625 14.3926 5.57812 14.3926C4.75 14.3926 4.07812 15.0645 4.07812 15.8945V22.5078ZM17 24.0098C16.1719 24.0098 15.5 23.3379 15.5 22.5078V18.2988C15.5 17.4688 16.1719 16.7969 17 16.7969C17.8281 16.7969 18.5 17.4688 18.5 18.2988V22.5078C18.5 23.3379 17.8281 24.0098 17 24.0098Z" fill="white"/>
</svg>
