<svg width="28" height="33" viewBox="0 0 28 33" fill="none" xmlns="http://www.w3.org/2000/svg">
<path fill-rule="evenodd" clip-rule="evenodd" d="M0.875 8.3166C0.875 7.15435 1.55947 6.10113 2.62153 5.62911L12.9149 1.05426C13.6754 0.716287 14.5433 0.716287 15.3039 1.05426L25.5973 5.62911C26.6592 6.10113 27.3438 7.15435 27.3438 8.3166V18.1693C27.3438 26.8107 18.0163 31.3068 15.0225 32.5271C14.4333 32.7674 13.7856 32.7674 13.1962 32.5271C10.2025 31.3068 0.875 26.8107 0.875 18.1693V8.3166ZM20.7266 11.552C21.4445 12.2699 21.4445 13.4337 20.7266 14.1515L13.9387 20.9394C13.2208 21.6573 12.057 21.6573 11.3391 20.9394L8.22743 17.8277C8.1377 17.738 8.05919 17.6414 7.99189 17.5393C7.52082 16.8258 7.59934 15.8564 8.22743 15.2283C8.94526 14.5104 10.1091 14.5104 10.8269 15.2283L12.6389 17.0402L18.127 11.552C18.8449 10.8342 20.0087 10.8342 20.7266 11.552Z" fill="white"/>
</svg>
