<svg width="113" height="23" viewBox="0 0 113 23" fill="none" xmlns="http://www.w3.org/2000/svg">
<path d="M3.9834 8.29199C3.79785 8.29199 3.58301 8.32617 3.33887 8.39453C3.09473 8.45312 2.84082 8.52637 2.57715 8.61426C2.31348 8.69238 2.0498 8.76562 1.78613 8.83398C1.53223 8.89258 1.30273 8.92188 1.09766 8.92188C0.882813 8.92188 0.711914 8.8877 0.584961 8.81934C0.467773 8.74121 0.379883 8.64355 0.321289 8.52637C0.262695 8.40918 0.228516 8.28223 0.21875 8.14551C0.208984 8.00879 0.204102 7.87695 0.204102 7.75C0.204102 7.37891 0.311523 7.07617 0.526367 6.8418C0.750977 6.60742 1.06836 6.41211 1.47852 6.25586C1.88867 6.08984 2.38184 5.95312 2.95801 5.8457C3.54395 5.72852 4.20312 5.60156 4.93555 5.46484C6.08789 5.25 7.1377 5.08398 8.08496 4.9668C9.04199 4.84961 9.9502 4.7666 10.8096 4.71777C11.6787 4.65918 12.5283 4.625 13.3584 4.61523C14.1885 4.60547 15.0625 4.60059 15.9805 4.60059C16.2539 4.60059 16.4688 4.63477 16.625 4.70312C16.7812 4.77148 16.8936 4.85937 16.9619 4.9668C17.04 5.07422 17.084 5.19629 17.0938 5.33301C17.1133 5.46973 17.123 5.60645 17.123 5.74316C17.123 5.89941 17.0986 6.07031 17.0498 6.25586C17.0107 6.43164 16.9375 6.59766 16.8301 6.75391C16.7324 6.90039 16.5957 7.02246 16.4199 7.12012C16.2539 7.21777 16.0488 7.2666 15.8047 7.2666H14.6328C14.1641 7.2666 13.666 7.27148 13.1387 7.28125C12.6113 7.28125 12.0889 7.29102 11.5713 7.31055C11.0537 7.32031 10.5557 7.33984 10.0771 7.36914C9.6084 7.39844 9.18848 7.44238 8.81738 7.50098C8.45605 7.5498 8.16797 7.61328 7.95312 7.69141C7.73828 7.76953 7.63086 7.86719 7.63086 7.98438C7.63086 8.10156 7.6748 8.29688 7.7627 8.57031C7.85059 8.84375 7.95801 9.1416 8.08496 9.46387C8.21191 9.77637 8.33887 10.0889 8.46582 10.4014C8.60254 10.7041 8.71484 10.958 8.80273 11.1631C8.88086 11.3291 8.96875 11.4414 9.06641 11.5C9.16406 11.5586 9.2959 11.5879 9.46191 11.5879C9.8623 11.5879 10.2725 11.5635 10.6924 11.5146C11.1123 11.4658 11.5322 11.4121 11.9521 11.3535C12.3818 11.2852 12.8066 11.2266 13.2266 11.1777C13.6562 11.1289 14.0811 11.1045 14.501 11.1045C14.7354 11.1045 14.9258 11.1484 15.0723 11.2363C15.2285 11.3145 15.3506 11.417 15.4385 11.5439C15.5264 11.6611 15.585 11.7881 15.6143 11.9248C15.6533 12.0615 15.6729 12.1787 15.6729 12.2764C15.6729 12.7158 15.5361 13.0479 15.2627 13.2725C14.9893 13.4873 14.6182 13.6484 14.1494 13.7559C13.6807 13.8633 13.1338 13.9365 12.5088 13.9756C11.8936 14.0146 11.2393 14.0684 10.5459 14.1367L10.1943 14.166C10.0674 14.1855 9.96973 14.2295 9.90137 14.2979C9.83301 14.3662 9.79883 14.4541 9.79883 14.5615C9.79883 14.5908 9.80371 14.6152 9.81348 14.6348C9.82324 14.6543 9.82812 14.6787 9.82812 14.708C9.91602 15.0303 10.0186 15.3916 10.1357 15.792C10.2529 16.1826 10.3604 16.5732 10.458 16.9639C10.5654 17.3545 10.6533 17.7256 10.7217 18.0771C10.79 18.4287 10.8242 18.7168 10.8242 18.9414C10.8242 19.3906 10.6533 19.7324 10.3115 19.9668C9.97949 20.2012 9.50586 20.3184 8.89063 20.3184C8.66602 20.3184 8.44629 20.2646 8.23145 20.1572C8.02637 20.0596 7.89941 19.874 7.85059 19.6006C7.69434 18.7998 7.51855 18.0186 7.32324 17.2568C7.12793 16.4854 6.92285 15.7188 6.70801 14.957C6.62012 14.6934 6.44922 14.5615 6.19531 14.5615C5.90234 14.5615 5.57031 14.5518 5.19922 14.5322C4.83789 14.5127 4.4668 14.4736 4.08594 14.415C3.70508 14.3564 3.33398 14.2832 2.97266 14.1953C2.62109 14.0977 2.30371 13.9707 2.02051 13.8145C1.74707 13.6582 1.52246 13.4727 1.34668 13.2578C1.18066 13.043 1.09766 12.7891 1.09766 12.4961C1.09766 12.3105 1.1416 12.1299 1.22949 11.9541C1.31738 11.7686 1.42969 11.6074 1.56641 11.4707C1.70313 11.3242 1.84961 11.207 2.00586 11.1191C2.17188 11.0312 2.32813 10.9873 2.47461 10.9873C2.65039 10.9873 2.84082 11.0312 3.0459 11.1191C3.25098 11.207 3.4707 11.3047 3.70508 11.4121C3.93945 11.5195 4.18848 11.6172 4.45215 11.7051C4.72559 11.793 5.01855 11.8369 5.33105 11.8369C5.4873 11.8369 5.56543 11.7539 5.56543 11.5879C5.56543 11.4316 5.53613 11.2266 5.47754 10.9727C5.42871 10.7188 5.36035 10.4551 5.27246 10.1816C5.18457 9.89844 5.08203 9.625 4.96484 9.36133C4.85742 9.08789 4.74023 8.8584 4.61328 8.67285C4.53516 8.55566 4.45215 8.46289 4.36426 8.39453C4.28613 8.32617 4.15918 8.29199 3.9834 8.29199ZM29.5303 15.792C29.8135 15.5479 30.0918 15.4258 30.3652 15.4258C30.5215 15.4258 30.6631 15.4648 30.79 15.543C30.917 15.6211 31.0586 15.7432 31.2148 15.9092C31.3613 16.1338 31.4639 16.3193 31.5225 16.4658C31.5908 16.6025 31.625 16.7393 31.625 16.876C31.625 17.1689 31.4785 17.4473 31.1855 17.7109C30.7168 18.1016 30.209 18.4531 29.6621 18.7656C29.1152 19.0684 28.5439 19.3271 27.9482 19.542C27.3525 19.7568 26.7373 19.918 26.1025 20.0254C25.4678 20.1426 24.8379 20.2012 24.2129 20.2012C23.4219 20.2012 22.6797 20.0986 21.9863 19.8936C21.293 19.6982 20.6729 19.415 20.126 19.0439C19.5889 18.6729 19.1348 18.2285 18.7637 17.7109C18.3926 17.1836 18.1289 16.5928 17.9727 15.9385C17.8848 15.665 17.8018 15.4893 17.7236 15.4111C17.6553 15.3232 17.5381 15.2793 17.3721 15.2793C17.0107 15.2793 16.7324 15.1914 16.5371 15.0156C16.3418 14.8398 16.2441 14.5859 16.2441 14.2539C16.2441 14.1172 16.2539 14.0293 16.2734 13.9902L16.3027 13.6973C16.3516 13.3457 16.4443 13.0918 16.5811 12.9355C16.7275 12.7793 16.9521 12.7012 17.2549 12.7012H17.4746C17.8848 12.7012 18.1729 12.5107 18.3389 12.1299C18.6416 11.4561 19.0273 10.8408 19.4961 10.2842C19.9648 9.72754 20.4922 9.25391 21.0781 8.86328C21.6641 8.46289 22.2891 8.15527 22.9531 7.94043C23.627 7.71582 24.3105 7.60352 25.0039 7.60352C25.7266 7.60352 26.4004 7.71094 27.0254 7.92578C27.6602 8.13086 28.2119 8.41895 28.6807 8.79004C29.1494 9.16113 29.5156 9.5957 29.7793 10.0937C30.0527 10.5918 30.1895 11.1289 30.1895 11.7051C30.1895 12.1055 30.1113 12.4717 29.9551 12.8037C29.7988 13.1357 29.5742 13.4287 29.2812 13.6826C28.9883 13.9268 28.6318 14.127 28.2119 14.2832C27.8018 14.4395 27.333 14.542 26.8057 14.5908L21.7227 15.1035C21.5273 15.1035 21.3662 15.1523 21.2393 15.25C21.1221 15.3477 21.0635 15.4795 21.0635 15.6455C21.0635 15.8994 21.1562 16.1436 21.3418 16.3779C21.5371 16.6123 21.791 16.8223 22.1035 17.0078C22.4258 17.1836 22.792 17.3252 23.2021 17.4326C23.6221 17.54 24.0518 17.5938 24.4912 17.5938C24.9111 17.5938 25.3408 17.5547 25.7803 17.4766C26.2295 17.3887 26.6689 17.2666 27.0986 17.1104C27.5381 16.9541 27.9629 16.7686 28.373 16.5537C28.7832 16.3291 29.1689 16.0752 29.5303 15.792ZM26.2637 12.0127C26.4102 11.9834 26.5371 11.915 26.6445 11.8076C26.752 11.6904 26.8057 11.5488 26.8057 11.3828C26.8057 11.2363 26.752 11.0996 26.6445 10.9727C26.5371 10.8457 26.3906 10.7334 26.2051 10.6357C26.0195 10.5283 25.8047 10.4453 25.5605 10.3867C25.3164 10.3281 25.0576 10.2988 24.7842 10.2988C24.3838 10.2988 23.9736 10.3574 23.5537 10.4746C23.1338 10.5918 22.7529 10.748 22.4111 10.9434C22.0693 11.1289 21.791 11.3389 21.5762 11.5732C21.3613 11.7979 21.2539 12.0225 21.2539 12.2471C21.2539 12.4717 21.3906 12.584 21.6641 12.584C21.8301 12.584 22.0986 12.5645 22.4697 12.5254C22.8408 12.4863 23.251 12.4424 23.7002 12.3936C24.1494 12.335 24.6035 12.2715 25.0625 12.2031C25.5215 12.1348 25.9219 12.0713 26.2637 12.0127ZM41.7617 6.19727C42.2988 6.19727 42.8164 6.28027 43.3145 6.44629C43.8125 6.6123 44.252 6.8418 44.6328 7.13477C45.0137 7.42773 45.3164 7.7793 45.541 8.18945C45.7754 8.59961 45.8926 9.05371 45.8926 9.55176C45.8926 9.75684 45.8438 9.95703 45.7461 10.1523C45.6582 10.3379 45.5361 10.5039 45.3799 10.6504C45.2236 10.7871 45.043 10.8994 44.8379 10.9873C44.6426 11.0654 44.4375 11.1045 44.2227 11.1045C44.2031 11.1045 44.1836 11.1094 44.1641 11.1191C44.1543 11.1191 44.1396 11.1191 44.1201 11.1191C44.1006 11.1289 44.0811 11.1338 44.0615 11.1338L44.1201 12.3057C44.1592 13.7021 44.3545 14.7227 44.7061 15.3672C45.0674 16.0117 45.5361 16.334 46.1123 16.334C46.3174 16.334 46.498 16.3145 46.6543 16.2754C46.8203 16.2363 46.9717 16.1924 47.1084 16.1436C47.2549 16.085 47.3916 16.0361 47.5186 15.9971C47.6455 15.958 47.7725 15.9385 47.8994 15.9385C48.124 15.9385 48.3193 16.0361 48.4854 16.2314C48.6611 16.4268 48.749 16.6611 48.749 16.9346C48.749 17.208 48.6416 17.4814 48.4268 17.7549C48.2217 18.0283 47.9482 18.2773 47.6064 18.502C47.2646 18.7168 46.8789 18.8926 46.4492 19.0293C46.0195 19.166 45.585 19.2344 45.1455 19.2344C44.3838 19.2344 43.7148 18.9219 43.1387 18.2969C42.5625 17.6621 42.1523 16.7344 41.9082 15.5137C41.8496 15.3184 41.7715 15.2207 41.6738 15.2207C41.5566 15.2207 41.4541 15.2793 41.3662 15.3965C40.3994 16.6172 39.3691 17.5352 38.2754 18.1504C37.1816 18.7559 36.1025 19.0586 35.0381 19.0586C34.54 19.0586 34.0908 18.9854 33.6904 18.8389C33.29 18.6924 32.9482 18.4873 32.665 18.2236C32.3916 17.9502 32.1768 17.623 32.0205 17.2422C31.874 16.8516 31.8008 16.417 31.8008 15.9385C31.8008 15.2646 31.9473 14.5566 32.2402 13.8145C32.543 13.0723 32.9482 12.3398 33.4561 11.6172C33.9639 10.8945 34.5498 10.2061 35.2139 9.55176C35.8877 8.89746 36.5908 8.32129 37.3232 7.82324C38.0654 7.3252 38.8174 6.92969 39.5791 6.63672C40.3408 6.34375 41.0684 6.19727 41.7617 6.19727ZM41.2783 11.2656C41.4541 10.9336 41.6152 10.6943 41.7617 10.5479C41.9082 10.3916 42.1182 10.2891 42.3916 10.2402C42.6064 10.2109 42.7139 10.1426 42.7139 10.0352C42.7139 9.95703 42.6846 9.87402 42.626 9.78613C42.4404 9.53223 42.2451 9.3125 42.04 9.12695C41.835 8.93164 41.5615 8.83398 41.2197 8.83398C40.8486 8.83398 40.4336 8.94141 39.9746 9.15625C39.5156 9.37109 39.0469 9.65918 38.5684 10.0205C38.0996 10.3721 37.6357 10.7773 37.1768 11.2363C36.7275 11.6855 36.3271 12.1494 35.9756 12.6279C35.624 13.1064 35.3408 13.5801 35.126 14.0488C34.9111 14.5176 34.8037 14.9375 34.8037 15.3086C34.8037 15.6406 34.8916 15.8994 35.0674 16.085C35.2529 16.2705 35.502 16.3633 35.8145 16.3633C36.6152 16.3633 37.4893 15.9385 38.4365 15.0889C39.3838 14.2393 40.3311 12.9648 41.2783 11.2656ZM50.5947 2.08105C50.5947 1.56348 50.7412 1.20215 51.0342 0.99707C51.3271 0.782227 51.8105 0.674805 52.4844 0.674805C52.7285 0.674805 52.9336 0.699219 53.0996 0.748047C53.2754 0.787109 53.4219 0.865234 53.5391 0.982422C53.666 1.09961 53.7637 1.25586 53.832 1.45117C53.9102 1.63672 53.9736 1.87598 54.0225 2.16895C54.1396 3.07715 54.2666 4.01465 54.4033 4.98145C54.5498 5.94824 54.7012 6.91992 54.8574 7.89648C54.916 8.33594 55.1455 8.55566 55.5459 8.55566C55.6533 8.55566 55.8291 8.5459 56.0732 8.52637C56.3271 8.49707 56.625 8.46777 56.9668 8.43848C57.3086 8.39941 57.6748 8.36035 58.0654 8.32129C58.4658 8.28223 58.8613 8.24805 59.252 8.21875C59.6523 8.17969 60.0283 8.15039 60.3799 8.13086C60.7412 8.10156 61.0586 8.08691 61.332 8.08691C61.5469 8.08691 61.7178 8.13086 61.8447 8.21875C61.9717 8.29687 62.0693 8.4043 62.1377 8.54102C62.2158 8.66797 62.2646 8.81445 62.2842 8.98047C62.3135 9.13672 62.3281 9.29785 62.3281 9.46387C62.3281 9.61035 62.2988 9.76172 62.2402 9.91797C62.1914 10.0742 62.1182 10.2158 62.0205 10.3428C61.9326 10.46 61.8203 10.5576 61.6836 10.6357C61.5469 10.7139 61.3906 10.7529 61.2148 10.7529C60.3652 10.7529 59.5059 10.7822 58.6367 10.8408C57.7773 10.8896 56.918 10.958 56.0586 11.0459C55.6191 11.1045 55.3994 11.3242 55.3994 11.7051C55.3994 11.7344 55.4043 11.7734 55.4141 11.8223C55.4238 11.8613 55.4287 11.8955 55.4287 11.9248C55.5459 12.7744 55.6533 13.5703 55.751 14.3125C55.8584 15.0547 55.9463 15.7187 56.0146 16.3047C56.0928 16.8809 56.1514 17.3643 56.1904 17.7549C56.2393 18.1357 56.2637 18.3896 56.2637 18.5166C56.2637 18.8682 56.2295 19.1611 56.1611 19.3955C56.0928 19.6396 55.9805 19.835 55.8242 19.9814C55.668 20.1377 55.458 20.2451 55.1943 20.3037C54.9404 20.3721 54.6182 20.4062 54.2275 20.4062C53.8564 20.4062 53.583 20.3184 53.4072 20.1426C53.2314 19.9668 53.1338 19.6982 53.1143 19.3369C53.0557 18.1846 52.9629 17.0273 52.8359 15.8652C52.709 14.6934 52.5625 13.5264 52.3965 12.3643C52.3086 11.9443 52.0889 11.7344 51.7373 11.7344C51.708 11.7344 51.6738 11.7393 51.6348 11.749C51.5957 11.7588 51.5615 11.7637 51.5322 11.7637C50.9268 11.9004 50.3555 12.0371 49.8184 12.1738C49.2812 12.3105 48.7783 12.457 48.3096 12.6133C48.0459 12.7012 47.8115 12.7646 47.6064 12.8037C47.4014 12.833 47.2158 12.8477 47.0498 12.8477C46.8252 12.8477 46.6592 12.75 46.5518 12.5547C46.4443 12.3496 46.3906 12.0957 46.3906 11.793C46.3906 11.6855 46.4004 11.5635 46.4199 11.4268C46.4395 11.2803 46.4785 11.1387 46.5371 11.002C46.5859 10.8555 46.6641 10.7236 46.7715 10.6064C46.8691 10.4795 47.0059 10.377 47.1816 10.2988C47.5918 10.1328 48.1387 9.96191 48.8223 9.78613C49.5059 9.60059 50.2773 9.42969 51.1367 9.27344C51.332 9.22461 51.4834 9.14648 51.5908 9.03906C51.708 8.92187 51.7666 8.75098 51.7666 8.52637C51.7666 8.47754 51.7666 8.42871 51.7666 8.37988C51.7666 8.32129 51.7568 8.2627 51.7373 8.2041C51.5811 7.30566 51.4297 6.49023 51.2832 5.75781C51.1465 5.01562 51.0244 4.38086 50.917 3.85352C50.8193 3.32617 50.7412 2.91113 50.6826 2.6084C50.624 2.30566 50.5947 2.12988 50.5947 2.08105ZM64.5547 13.8145C64.5547 15.123 64.7549 16.1338 65.1553 16.8467C65.5557 17.5596 66.1367 17.916 66.8984 17.916C67.377 17.916 67.8164 17.7744 68.2168 17.4912C68.627 17.208 68.9785 16.8125 69.2715 16.3047C69.5645 15.7969 69.7891 15.1963 69.9453 14.5029C70.1113 13.7998 70.1943 13.0381 70.1943 12.2178C70.1943 11.7197 70.1748 11.29 70.1357 10.9287C70.0967 10.5576 70.0527 10.2305 70.0039 9.94727C69.9648 9.6543 69.9258 9.39551 69.8867 9.1709C69.8477 8.94629 69.8281 8.73145 69.8281 8.52637C69.8281 8.21387 69.96 7.98926 70.2236 7.85254C70.4873 7.70605 70.9072 7.63281 71.4834 7.63281C72.2158 7.63281 72.7822 7.79883 73.1826 8.13086C73.5928 8.46289 73.7979 8.94629 73.7979 9.58105C73.7979 11.3096 73.627 12.8623 73.2852 14.2393C72.9531 15.6162 72.4697 16.7881 71.835 17.7549C71.21 18.7119 70.4482 19.4492 69.5498 19.9668C68.6514 20.4844 67.6455 20.7432 66.5322 20.7432C65.7412 20.7432 65.0088 20.5771 64.335 20.2451C63.6709 19.9229 63.0947 19.4687 62.6064 18.8828C62.1279 18.2871 61.752 17.584 61.4785 16.7734C61.2051 15.9531 61.0684 15.0547 61.0684 14.0781C61.0684 13.707 61.0781 13.3115 61.0977 12.8916C61.1172 12.4717 61.1465 12.0225 61.1855 11.5439C61.2246 11.0557 61.2734 10.5283 61.332 9.96191C61.4004 9.39551 61.4736 8.78027 61.5518 8.11621C61.5811 7.83301 61.7129 7.6084 61.9473 7.44238C62.1914 7.2666 62.499 7.17871 62.8701 7.17871C63.2021 7.17871 63.5146 7.21289 63.8076 7.28125C64.1006 7.34961 64.3496 7.44238 64.5547 7.55957C64.7695 7.67676 64.9355 7.81348 65.0527 7.96973C65.1797 8.12598 65.2432 8.29199 65.2432 8.46777C65.2432 8.64355 65.2041 8.92187 65.126 9.30273C65.0576 9.67383 64.9795 10.1035 64.8916 10.5918C64.8135 11.0703 64.7354 11.5928 64.6572 12.1592C64.5889 12.7158 64.5547 13.2676 64.5547 13.8145ZM83.5098 8.04297C83.1484 8.04297 82.8311 8.14062 82.5576 8.33594C82.2842 8.52148 82.0498 8.78516 81.8545 9.12695C81.6592 9.45898 81.498 9.85449 81.3711 10.3135C81.2441 10.7627 81.1416 11.2559 81.0635 11.793C80.9854 12.3301 80.9316 12.8916 80.9023 13.4775C80.873 14.0635 80.8584 14.6543 80.8584 15.25C80.8584 16.0312 80.8877 16.8027 80.9463 17.5645C81.0146 18.3164 81.0488 19.0146 81.0488 19.6592C81.0488 20.0791 80.8926 20.4062 80.5801 20.6406C80.2676 20.8848 79.8232 21.0068 79.2471 21.0068C79.1396 21.0068 79.0176 20.9971 78.8809 20.9775C78.7441 20.958 78.6123 20.9189 78.4854 20.8604C78.3682 20.8018 78.2607 20.7187 78.1631 20.6113C78.0752 20.5137 78.0264 20.377 78.0166 20.2012C77.9287 19.3418 77.8018 18.4629 77.6357 17.5645C77.4697 16.666 77.2598 15.7725 77.0059 14.8838C76.7617 13.9854 76.4639 13.0967 76.1123 12.2178C75.7705 11.3389 75.375 10.4795 74.9258 9.63965C74.8477 9.49316 74.7793 9.35645 74.7207 9.22949C74.6719 9.10254 74.6475 8.98047 74.6475 8.86328C74.6475 8.7168 74.7109 8.56055 74.8379 8.39453C74.9746 8.21875 75.1406 8.05762 75.3359 7.91113C75.541 7.76465 75.7607 7.64746 75.9951 7.55957C76.2393 7.46191 76.4736 7.41309 76.6982 7.41309C77.0693 7.41309 77.3965 7.67187 77.6797 8.18945C77.9629 8.69727 78.2266 9.5127 78.4707 10.6357C78.5195 10.8311 78.5586 10.9678 78.5879 11.0459C78.6172 11.124 78.6562 11.1631 78.7051 11.1631C78.8125 11.1631 78.8809 10.9971 78.9102 10.665C79.0273 9.7373 79.2275 8.94141 79.5107 8.27734C79.7939 7.60352 80.1455 7.05176 80.5654 6.62207C80.9951 6.18262 81.4834 5.86035 82.0303 5.65527C82.5869 5.4502 83.1973 5.34766 83.8613 5.34766C84.2422 5.34766 84.6279 5.38184 85.0186 5.4502C85.4092 5.51855 85.7607 5.62109 86.0732 5.75781C86.3857 5.89453 86.6396 6.06055 86.835 6.25586C87.0303 6.45117 87.1279 6.6709 87.1279 6.91504C87.1279 7.09082 87.0889 7.30078 87.0107 7.54492C86.9424 7.7793 86.8496 8.00879 86.7324 8.2334C86.6152 8.44824 86.4785 8.63379 86.3223 8.79004C86.1758 8.93652 86.0244 9.00977 85.8682 9.00977C85.6924 9.00977 85.5215 8.96094 85.3555 8.86328C85.1895 8.75586 85.0088 8.64355 84.8135 8.52637C84.6279 8.40918 84.4277 8.30176 84.2129 8.2041C84.0078 8.09668 83.7734 8.04297 83.5098 8.04297ZM98.6709 15.792C98.9541 15.5479 99.2324 15.4258 99.5059 15.4258C99.6621 15.4258 99.8037 15.4648 99.9307 15.543C100.058 15.6211 100.199 15.7432 100.355 15.9092C100.502 16.1338 100.604 16.3193 100.663 16.4658C100.731 16.6025 100.766 16.7393 100.766 16.876C100.766 17.1689 100.619 17.4473 100.326 17.7109C99.8574 18.1016 99.3496 18.4531 98.8027 18.7656C98.2559 19.0684 97.6846 19.3271 97.0889 19.542C96.4932 19.7568 95.8779 19.918 95.2432 20.0254C94.6084 20.1426 93.9785 20.2012 93.3535 20.2012C92.5625 20.2012 91.8203 20.0986 91.127 19.8936C90.4336 19.6982 89.8135 19.415 89.2666 19.0439C88.7295 18.6729 88.2754 18.2285 87.9043 17.7109C87.5332 17.1836 87.2695 16.5928 87.1133 15.9385C87.0254 15.665 86.9424 15.4893 86.8643 15.4111C86.7959 15.3232 86.6787 15.2793 86.5127 15.2793C86.1514 15.2793 85.873 15.1914 85.6777 15.0156C85.4824 14.8398 85.3848 14.5859 85.3848 14.2539C85.3848 14.1172 85.3945 14.0293 85.4141 13.9902L85.4434 13.6973C85.4922 13.3457 85.585 13.0918 85.7217 12.9355C85.8682 12.7793 86.0928 12.7012 86.3955 12.7012H86.6152C87.0254 12.7012 87.3135 12.5107 87.4795 12.1299C87.7822 11.4561 88.168 10.8408 88.6367 10.2842C89.1055 9.72754 89.6328 9.25391 90.2188 8.86328C90.8047 8.46289 91.4297 8.15527 92.0938 7.94043C92.7676 7.71582 93.4512 7.60352 94.1445 7.60352C94.8672 7.60352 95.541 7.71094 96.166 7.92578C96.8008 8.13086 97.3525 8.41895 97.8213 8.79004C98.29 9.16113 98.6562 9.5957 98.9199 10.0937C99.1934 10.5918 99.3301 11.1289 99.3301 11.7051C99.3301 12.1055 99.252 12.4717 99.0957 12.8037C98.9395 13.1357 98.7148 13.4287 98.4219 13.6826C98.1289 13.9268 97.7725 14.127 97.3525 14.2832C96.9424 14.4395 96.4736 14.542 95.9463 14.5908L90.8633 15.1035C90.668 15.1035 90.5068 15.1523 90.3799 15.25C90.2627 15.3477 90.2041 15.4795 90.2041 15.6455C90.2041 15.8994 90.2969 16.1436 90.4824 16.3779C90.6777 16.6123 90.9316 16.8223 91.2441 17.0078C91.5664 17.1836 91.9326 17.3252 92.3428 17.4326C92.7627 17.54 93.1924 17.5937 93.6318 17.5937C94.0518 17.5937 94.4814 17.5547 94.9209 17.4766C95.3701 17.3887 95.8096 17.2666 96.2393 17.1104C96.6787 16.9541 97.1035 16.7686 97.5137 16.5537C97.9238 16.3291 98.3096 16.0752 98.6709 15.792ZM95.4043 12.0127C95.5508 11.9834 95.6777 11.915 95.7852 11.8076C95.8926 11.6904 95.9463 11.5488 95.9463 11.3828C95.9463 11.2363 95.8926 11.0996 95.7852 10.9727C95.6777 10.8457 95.5312 10.7334 95.3457 10.6357C95.1602 10.5283 94.9453 10.4453 94.7012 10.3867C94.457 10.3281 94.1982 10.2988 93.9248 10.2988C93.5244 10.2988 93.1143 10.3574 92.6943 10.4746C92.2744 10.5918 91.8936 10.748 91.5518 10.9434C91.21 11.1289 90.9316 11.3389 90.7168 11.5732C90.502 11.7979 90.3945 12.0225 90.3945 12.2471C90.3945 12.4717 90.5312 12.584 90.8047 12.584C90.9707 12.584 91.2393 12.5645 91.6104 12.5254C91.9814 12.4863 92.3916 12.4424 92.8408 12.3936C93.29 12.335 93.7441 12.2715 94.2031 12.2031C94.6621 12.1348 95.0625 12.0713 95.4043 12.0127ZM105.351 6.28516C106.005 6.28516 106.679 6.37305 107.372 6.54883C108.065 6.71484 108.7 6.93457 109.276 7.20801C109.853 7.47168 110.326 7.76953 110.697 8.10156C111.068 8.43359 111.254 8.75586 111.254 9.06836C111.254 9.22461 111.186 9.40039 111.049 9.5957C110.912 9.78125 110.746 9.96191 110.551 10.1377C110.355 10.3037 110.141 10.4453 109.906 10.5625C109.682 10.6699 109.481 10.7236 109.306 10.7236C109.071 10.7236 108.808 10.626 108.515 10.4307C108.231 10.2354 107.914 10.0205 107.562 9.78613C107.221 9.54199 106.845 9.32227 106.435 9.12695C106.024 8.93164 105.58 8.83398 105.102 8.83398C104.789 8.83398 104.53 8.91211 104.325 9.06836C104.13 9.21484 104.032 9.4248 104.032 9.69824C104.032 9.94238 104.149 10.1914 104.384 10.4453C104.618 10.6895 104.926 10.9434 105.307 11.207C105.697 11.4707 106.137 11.749 106.625 12.042C107.113 12.335 107.611 12.6475 108.119 12.9795C108.637 13.3115 109.14 13.6729 109.628 14.0635C110.116 14.4541 110.551 14.8789 110.932 15.3379C111.322 15.7969 111.635 16.2998 111.869 16.8467C112.104 17.3838 112.221 17.9697 112.221 18.6045C112.221 19.1514 112.123 19.6494 111.928 20.0986C111.732 20.5479 111.454 20.9336 111.093 21.2559C110.731 21.5781 110.302 21.8271 109.804 22.0029C109.306 22.1787 108.759 22.2666 108.163 22.2666C107.411 22.2666 106.718 22.1494 106.083 21.915C105.448 21.6904 104.901 21.3779 104.442 20.9775C103.983 20.5771 103.622 20.0986 103.358 19.542C103.104 18.9854 102.978 18.375 102.978 17.7109C102.978 16.8516 103.129 16.2266 103.432 15.8359C103.744 15.4453 104.232 15.25 104.896 15.25C105.307 15.25 105.634 15.3281 105.878 15.4844C106.122 15.6406 106.244 15.8311 106.244 16.0557C106.244 16.1729 106.225 16.2949 106.186 16.4219C106.146 16.5391 106.103 16.666 106.054 16.8027C106.015 16.9297 105.976 17.0664 105.937 17.2129C105.907 17.3594 105.893 17.5059 105.893 17.6523C105.893 17.9062 105.951 18.1504 106.068 18.3848C106.186 18.6191 106.342 18.8242 106.537 19C106.742 19.1855 106.977 19.332 107.24 19.4395C107.504 19.5469 107.782 19.6006 108.075 19.6006C108.856 19.6006 109.247 19.2783 109.247 18.6338C109.247 18.126 109.047 17.6475 108.646 17.1982C108.246 16.7393 107.743 16.2949 107.138 15.8652C106.532 15.4258 105.878 14.9863 105.175 14.5469C104.481 14.1074 103.832 13.6484 103.227 13.1699C102.621 12.6914 102.118 12.1836 101.718 11.6465C101.317 11.0996 101.117 10.5088 101.117 9.87402C101.117 9.34668 101.225 8.86328 101.439 8.42383C101.664 7.98437 101.967 7.6084 102.348 7.2959C102.729 6.97363 103.173 6.72461 103.681 6.54883C104.198 6.37305 104.755 6.28516 105.351 6.28516Z" fill="#00C2FF"/>
</svg>
