<svg width="35" height="25" viewBox="0 0 35 25" fill="none" xmlns="http://www.w3.org/2000/svg">
<path fill-rule="evenodd" clip-rule="evenodd" d="M7.97802 24.901C4.05945 24.901 0.882812 21.7244 0.882812 17.8058C0.882812 14.3679 3.32793 11.501 6.57402 10.8496C6.87053 5.23698 11.5154 0.777344 17.2018 0.777344C21.8506 0.777344 25.8032 3.75788 27.253 7.91224C31.567 8.32826 34.9398 11.9636 34.9398 16.3868C34.9398 21.0891 31.1278 24.901 26.4256 24.901H7.97802ZM22.1684 10.7106C22.8612 11.4034 22.8612 12.5264 22.1684 13.2192L17.037 18.3506C16.3443 19.0432 15.2212 19.0432 14.5285 18.3506L12.2351 16.0573C11.5424 15.3645 11.5424 14.2415 12.2351 13.5487C12.9279 12.8559 14.051 12.8559 14.7437 13.5487L15.7827 14.5877L19.6598 10.7106C20.3526 10.0179 21.4757 10.0179 22.1684 10.7106Z" fill="white"/>
</svg>
