<svg width="19" height="18" viewBox="0 0 19 18" fill="none" xmlns="http://www.w3.org/2000/svg">
<path d="M9.00002 15.5C5.41015 15.5 2.5 12.5899 2.5 9C2.5 5.41015 5.41015 2.5 9.00002 2.5C11.1932 2.5 13.1326 3.5862 14.3098 5.25H12.1C11.4096 5.25 10.85 5.80964 10.85 6.5C10.85 7.1904 11.4096 7.75 12.1 7.75H17.35C17.6815 7.75 17.9994 7.6183 18.2339 7.3839C18.4683 7.1495 18.6 6.83152 18.6 6.5V1.25C18.6 0.55964 18.0403 0 17.35 0C16.6596 0 16.1 0.55964 16.1 1.25V3.46852C14.453 1.35746 11.885 0 9.00002 0C4.02944 0 0 4.02944 0 9C0 13.9706 4.02944 18 9.00002 18C12.8398 18 16.118 15.5953 17.4108 12.2097C17.6916 11.4742 17.097 10.75 16.3096 10.75H16.2108C15.6498 10.75 15.1687 11.1299 14.9404 11.6423C13.9279 13.9154 11.649 15.5 9.00002 15.5Z" fill="#267DFF"/>
</svg>
