<svg width="826" height="142" viewBox="0 0 826 142" fill="none" xmlns="http://www.w3.org/2000/svg">
<g filter="url(#filter0_b_1709_472)">
<path fill-rule="evenodd" clip-rule="evenodd" d="M572.51 107.179C564.868 107.179 558.304 105.676 552.817 102.672C547.331 99.6674 543.086 95.4546 540.081 90.0335C537.142 84.6124 535.672 78.277 535.672 71.0271C535.672 63.8425 537.175 57.5397 540.179 52.1186C543.184 46.6322 547.331 42.3541 552.621 39.2843C557.977 36.2146 564.182 34.6797 571.236 34.6797C577.049 34.6797 582.242 35.7247 586.814 37.8148C591.451 39.9048 595.174 42.7787 597.982 46.4363C600.856 50.0285 602.554 54.2086 603.077 58.9766H587.989C587.336 55.123 585.507 52.1186 582.503 49.9632C579.564 47.7425 575.873 46.6322 571.432 46.6322C567.317 46.6322 563.725 47.6119 560.655 49.5713C557.585 51.4655 555.201 54.2086 553.503 57.8009C551.805 61.3932 550.956 65.704 550.956 70.7332C550.956 75.9583 551.805 80.4323 553.503 84.1552C555.201 87.8128 557.683 90.6213 560.949 92.5808C564.28 94.4749 568.362 95.4219 573.195 95.4219C577.114 95.4219 580.445 94.9321 583.189 93.9524C585.469 93.1381 587.297 92.0531 588.675 90.6974V79.1587H573.098V67.5981H603.763V95.5199C599.974 99.3081 595.566 102.215 590.536 104.239C585.573 106.199 579.564 107.179 572.51 107.179ZM465.744 94.4422H453.791V47.416H465.744C470.904 47.416 475.247 48.3957 478.774 50.3551C482.366 52.3145 485.077 55.0251 486.906 58.4867C488.734 61.9484 489.649 65.9652 489.649 70.5372C489.649 75.1745 488.702 79.2893 486.808 82.8816C484.979 86.4739 482.268 89.3151 478.676 91.4051C475.149 93.4299 470.838 94.4422 465.744 94.4422ZM453.791 35.6594H465.744C473.647 35.6594 480.538 37.0963 486.416 39.9701C492.294 42.7787 496.833 46.8281 500.034 52.1186C503.3 57.3437 504.932 63.5486 504.932 70.7332C504.932 77.9177 503.3 84.1879 500.034 89.5437C496.768 94.8341 492.196 98.9489 486.318 101.888C480.505 104.762 473.68 106.199 465.842 106.199H453.791H447.913H438.704V35.6594H448.207H453.791ZM512.756 35.6594V106.199H527.844V35.6594H512.756ZM612.354 35.6594V106.199H627.442V35.6594H612.354ZM657.706 106.199V47.22H634.682V35.6594H665.25H695.817V47.22H672.793V106.199H657.706ZM714.494 35.6594L689.217 106.199H704.207L709.334 90.6213H735.84L740.946 106.199H756.622L731.345 35.6594H727.426H717.825H714.494ZM722.615 50.2743L713.204 78.8648H731.987L722.615 50.2743ZM763.904 106.199V35.6594H778.991V94.6382H812.889V106.199H778.991H770.958H763.904ZM351.674 104.534C355.984 106.297 360.687 107.179 365.782 107.179C371.529 107.179 376.722 106.069 381.359 103.848C385.997 101.627 389.817 98.4923 392.822 94.4428C395.826 90.328 397.753 85.5274 398.602 80.0409H383.711C382.731 85.0702 380.608 88.8584 377.342 91.4057C374.077 93.953 370.321 95.2266 366.076 95.2266C362.091 95.2266 358.564 94.2469 355.495 92.2874C352.425 90.2627 350.008 87.4215 348.245 83.7639C346.546 80.0409 345.697 75.6322 345.697 70.5376C345.697 65.5084 346.546 61.2303 348.245 57.7033C349.943 54.111 352.294 51.3678 355.299 49.4736C358.368 47.5795 361.895 46.6325 365.88 46.6325C370.386 46.6325 374.273 47.9388 377.538 50.5513C380.804 53.0986 382.861 56.8869 383.711 61.9161H398.406C397.753 56.4297 395.924 51.6617 392.92 47.6122C389.981 43.4974 386.16 40.3296 381.457 38.1089C376.82 35.8229 371.595 34.6799 365.782 34.6799C360.622 34.6799 355.887 35.5616 351.576 37.3251C347.265 39.0233 343.509 41.5053 340.309 44.771C337.174 47.9714 334.725 51.7597 332.961 56.1358C331.263 60.5118 330.414 65.3451 330.414 70.6356C330.414 75.9261 331.295 80.8247 333.059 85.3314C334.822 89.7728 337.272 93.6264 340.407 96.8921C343.607 100.158 347.363 102.705 351.674 104.534ZM96.5322 106.199V35.6596H103.586H111.62H146.302V47.2203H111.62V67.3046H144.049V78.8653H111.62V106.199H96.5322ZM144.502 106.199L169.779 35.6596H173.11H182.711H186.63L211.907 106.199H196.231L191.125 90.6219H164.619L159.492 106.199H144.502ZM168.489 78.8653L177.9 50.2746L187.271 78.8653H168.489ZM228.375 47.2203V106.199H243.463V47.2203H266.486V35.6596H205.352V47.2203H228.375ZM273.724 106.199V35.6596H280.778H288.812H325.061V47.2203H288.812V64.4634H322.808V75.8281H288.812V94.6388H326.237V106.199H288.812H280.778H273.724Z" fill="black"/>
</g>
<mask id="mask0_1709_472" style="mask-type:alpha" maskUnits="userSpaceOnUse" x="13" y="34" width="73" height="73">
<path d="M59.6079 35.6826H39.0553L25.0181 75.8586H63.2773L64.7237 79.998L64.7561 79.9861L73.842 105.991H84.1499L80.6408 95.9465H80.6639L77.1545 85.9027H77.1314L71.4764 69.7174V69.6511L70.1358 65.8146H38.8715L45.8902 45.7266H52.7494L56.2588 55.7706H66.6033L63.094 45.7266H63.1173L59.6079 35.6826Z" fill="#171F43"/>
<path d="M54.7881 85.9004H21.5309L14.5122 105.988H24.8564L28.3657 95.9442H58.2975L54.7881 85.9004Z" fill="#171F43"/>
<path fill-rule="evenodd" clip-rule="evenodd" d="M38.3805 34.6792H60.3L64.5111 46.732H64.4881L67.9974 56.776H55.5837L52.0746 46.732H46.5823L40.2656 64.8111H70.8281L72.4582 69.4766V69.5428L77.8235 84.8993H77.8466L82.058 96.952H82.0347L85.5441 106.996H73.1669L64.1793 81.2727L64.147 81.2849L62.6025 76.8641H23.6413L38.3805 34.6792ZM63.2842 75.8596L64.7306 79.999L64.763 79.9871L73.8489 105.992H84.1568L80.6477 95.9475H80.6708L77.1614 85.9037H77.1383L71.4832 69.7183V69.6521L70.1426 65.8155H38.8783L45.8971 45.7276H52.7563L56.2657 55.7716H66.6102L63.1008 45.7276H63.1242L59.6148 35.6836H39.0622L25.0249 75.8596H63.2842ZM55.4583 84.8993L59.6695 96.952H29.0357L25.5264 106.996H13.1133L20.8338 84.8993H55.4583ZM28.3504 95.9475H58.2822L54.7728 85.9037H21.5156L14.4969 105.992H24.8411L28.3504 95.9475Z" fill="#171F43"/>
</mask>
<g mask="url(#mask0_1709_472)">
<path d="M125.433 19.6196H-1.07275V130.104H125.433V19.6196Z" fill="black"/>
</g>
<defs>
<filter id="filter0_b_1709_472" x="79.6322" y="17.7797" width="750.157" height="106.3" filterUnits="userSpaceOnUse" color-interpolation-filters="sRGB">
<feFlood flood-opacity="0" result="BackgroundImageFix"/>
<feGaussianBlur in="BackgroundImageFix" stdDeviation="8.45"/>
<feComposite in2="SourceAlpha" operator="in" result="effect1_backgroundBlur_1709_472"/>
<feBlend mode="normal" in="SourceGraphic" in2="effect1_backgroundBlur_1709_472" result="shape"/>
</filter>
</defs>
</svg>
