<svg width="24" height="24" viewBox="0 0 24 24" fill="none" xmlns="http://www.w3.org/2000/svg">
<path d="M13.5212 5.8733L13.7834 5.60521L13.5212 5.8733L17.9353 10.1906H5.94437C5.21831 10.1906 4.625 10.7756 4.625 11.503C4.625 12.2305 5.21832 12.8155 5.94437 12.8155H17.9291L13.5212 17.1267C13.0009 17.6356 12.9946 18.4681 13.5074 18.9847C14.0186 19.4997 14.8525 19.5058 15.3712 18.9984L15.3712 18.9984L21.9103 12.6028C22.5299 11.9967 22.5299 11.0033 21.9103 10.3972L21.6481 10.6653L21.9103 10.3972L15.3712 4.00159C14.8525 3.4942 14.0187 3.50027 13.5075 4.01529C12.9946 4.53188 13.0009 5.36438 13.5212 5.8733Z" fill="white" stroke="white" stroke-width="0.75"/>
</svg>
