<svg width="876" height="142" viewBox="0 0 876 142" fill="none" xmlns="http://www.w3.org/2000/svg">
<mask id="path-1-outside-1_1705_452" maskUnits="userSpaceOnUse" x="-0.0820312" y="35.689" width="876" height="70" fill="black">
<rect fill="white" x="-0.0820312" y="35.689" width="876" height="70"/>
<path d="M0.917969 38.3097L17.0782 38.3063C20.7021 38.3056 27.7538 38.3041 33.0435 42.4165C36.8638 45.3539 39.1175 50.4464 39.1187 55.9311C39.1205 64.354 33.5386 67.7831 31.7758 68.7629C36.0854 69.4476 38.6322 71.3079 40.2976 72.8746C44.216 76.5955 45.0006 81.6883 45.0013 85.1162C45.0021 88.9359 43.9259 94.3229 39.4215 98.3394C34.5254 102.65 28.5512 103.631 22.8706 103.632L0.931786 103.636L0.917969 38.3097ZM13.6525 48.6888L13.656 65.4367L17.2799 65.4359C19.2387 65.4355 27.1719 65.238 27.1701 56.913C27.1688 50.9386 22.5651 48.6869 17.3743 48.688L13.6525 48.6888ZM13.6581 75.2308L13.6619 93.252L19.1466 93.2508C21.4972 93.2503 25.0231 93.1516 27.863 91.486C30.9967 89.6245 31.8775 86.4902 31.877 83.9437C31.8766 81.887 31.1902 78.3612 27.0763 76.5012C24.3337 75.2286 21.1016 75.2292 18.3593 75.2298L13.6581 75.2308Z"/>
<path d="M56.775 38.2979L69.5073 38.2952L69.5188 92.6525L89.6946 92.6482L89.697 103.618L56.7888 103.625L56.775 38.2979Z"/>
<path d="M142.955 103.606L137.174 89.8958L110.828 89.9014L105.052 103.614L91.2426 103.617L119.533 36.9135L129.132 36.9115L156.667 103.603L142.955 103.606ZM114.841 79.5188L133.45 79.5149L124.239 56.011L114.841 79.5188Z"/>
<path d="M187.14 38.2704L204.182 38.2667C213.29 38.2648 221.224 39.2426 228.472 44.6278C236.407 50.6005 241.012 60.0998 241.014 70.9713C241.017 81.8427 236.513 91.246 227.896 97.3202C220.258 102.709 213.108 103.592 203.999 103.593L187.154 103.597L187.14 38.2704ZM199.874 49.2371L199.884 92.6249L203.801 92.6241C207.033 92.6234 214.085 92.426 219.765 88.3113C224.955 84.5885 227.892 77.9279 227.89 70.974C227.889 64.1182 225.047 57.4588 219.855 53.5422C214.566 49.6257 208.102 49.2353 203.792 49.2362L199.874 49.2371Z"/>
<path d="M288.991 38.2488L288.993 49.2182L265.487 49.2232L265.49 63.8164L288.017 63.8116L288.019 74.781L265.493 74.7858L265.496 92.6111L289.002 92.6061L289.005 103.575L252.766 103.583L252.753 38.2565L288.991 38.2488Z"/>
<path d="M340.127 44.4083L333.468 53.1264C329.648 48.0343 325.142 47.5456 322.792 47.5461C315.936 47.5475 313.782 51.8574 313.783 55.1874C313.783 56.7544 314.273 58.2234 315.84 59.5943C317.408 61.0631 319.563 61.8461 323.676 63.3144C328.77 65.0762 333.569 66.8382 336.9 69.8736C339.839 72.5174 342.484 76.9242 342.485 83.5842C342.488 96.3165 333.283 105.035 319.768 105.038C307.721 105.041 300.668 97.6965 297.239 92.7023L305.562 84.7673C308.697 91.1328 314.672 93.4821 319.275 93.4811C325.054 93.4799 329.363 89.9531 329.362 84.4684C329.361 82.1179 328.577 80.2571 326.814 78.5925C324.365 76.3404 320.447 75.068 316.725 73.7955C313.297 72.621 309.183 71.0548 305.852 68.1173C303.697 66.2568 300.66 62.6337 300.659 55.9737C300.657 46.3754 307.119 36.7759 321.614 36.7728C325.728 36.7719 333.465 37.5538 340.127 44.4083Z"/>
<path d="M353.659 38.2351L366.391 38.2324L366.405 103.559L353.673 103.562L353.659 38.2351Z"/>
<path d="M414.413 79.5534L414.411 68.584L444.381 68.5777L444.381 70.2427C444.383 77.6862 443.209 85.3258 438.411 92.2807C430.676 103.448 419.413 105.017 412.46 105.018C392.284 105.023 378.177 91.314 378.173 70.9423C378.169 50.6685 392.661 36.7578 412.837 36.7535C431.446 36.7496 438.794 48.5009 440.851 52.1243L429.785 58.1011C428.414 55.6528 423.515 48.3083 412.741 48.3106C399.813 48.3133 391.295 58.5989 391.297 71.1354C391.299 81.2233 397.276 93.4646 412.653 93.4614C421.664 93.4595 429.89 89.5401 431.259 79.5498L414.413 79.5534Z"/>
<path d="M468.841 103.537L456.109 103.54L456.095 36.7444L464.909 36.7425L504.683 82.1787L504.674 38.2032L517.406 38.2005L517.42 104.8L508.606 104.802L468.832 59.366L468.841 103.537Z"/>
<path d="M588.297 79.5166L588.294 68.5472L618.264 68.5409L618.265 70.2059C618.266 77.6494 617.093 85.2891 612.295 92.2439C604.56 103.411 593.297 104.98 586.343 104.982C566.167 104.986 552.061 91.2772 552.057 70.9055C552.052 50.6317 566.545 36.721 586.721 36.7167C605.329 36.7128 612.677 48.4642 614.735 52.0875L603.669 58.0643C602.297 55.616 597.399 48.2715 586.625 48.2738C573.697 48.2765 565.178 58.5621 565.181 71.0986C565.183 81.1865 571.16 93.4279 586.537 93.4246C595.547 93.4227 603.773 89.5033 605.142 79.5131L588.297 79.5166Z"/>
<path d="M629.979 38.1767L648.881 38.1727C657.892 38.1708 662.496 40.5204 665.532 43.0662C670.528 47.2766 671.998 52.859 671.999 57.756C672.001 64.1222 669.456 69.7053 664.363 73.1344C662.699 74.31 660.348 75.3879 657.214 75.9762L677.592 103.493L661.725 103.497L644.286 77.2521L642.719 77.2525L642.725 103.501L629.992 103.503L629.979 38.1767ZM642.713 48.5557L642.717 68.2419L646.341 68.2411C648.79 68.2406 658.878 67.9446 658.876 58.3464C658.874 48.6503 648.883 48.5544 646.533 48.5549L642.713 48.5557Z"/>
<path d="M717.951 36.689C738.518 36.6846 752.821 50.981 752.825 70.863C752.829 90.745 738.533 104.95 717.965 104.954C697.398 104.958 683.095 90.7598 683.091 70.8778C683.087 50.9957 697.383 36.6933 717.951 36.689ZM717.963 93.3968C730.695 93.3941 739.704 84.0878 739.701 70.8658C739.698 57.6437 730.686 48.2433 717.953 48.246C705.221 48.2487 696.212 57.6529 696.215 70.875C696.218 84.097 705.23 93.3995 717.963 93.3968Z"/>
<path d="M764.552 38.1482L777.284 38.1455L777.293 79.1828C777.294 84.1778 778.96 87.2136 780.429 88.8783C782.29 91.1306 785.719 93.3825 790.812 93.3814C795.905 93.3803 799.332 91.127 801.193 88.8739C802.661 87.2086 804.326 84.1721 804.325 79.1771L804.316 38.1398L817.048 38.1371L817.057 78.0971C817.058 84.2673 816.08 90.5358 812.163 95.5316C807.463 101.703 799.237 104.937 790.814 104.938C782.391 104.94 774.164 101.71 769.461 95.5406C765.542 90.5465 764.562 84.2784 764.56 78.1082L764.552 38.1482Z"/>
<path d="M831.982 38.134L850.983 38.1299C858.328 38.1284 863.421 38.9108 868.221 43.1213C873.511 47.8213 874.884 54.1872 874.885 58.8884C874.885 61.4349 874.495 68.4867 869.501 73.4827C865.878 77.1073 860.492 79.2632 852.95 79.2648L844.723 79.2665L844.728 103.458L831.996 103.461L831.982 38.134ZM844.717 49.1007L844.721 68.2971L849.912 68.296C852.36 68.2955 855.494 68.2948 858.236 66.2375C860.586 64.3761 861.761 61.4376 861.76 58.5973C861.76 54.9735 859.996 52.5254 858.135 51.1546C855.49 49.2943 852.16 49.0991 849.124 49.0997L844.717 49.1007Z"/>
</mask>
<path d="M0.917969 38.3097L17.0782 38.3063C20.7021 38.3056 27.7538 38.3041 33.0435 42.4165C36.8638 45.3539 39.1175 50.4464 39.1187 55.9311C39.1205 64.354 33.5386 67.7831 31.7758 68.7629C36.0854 69.4476 38.6322 71.3079 40.2976 72.8746C44.216 76.5955 45.0006 81.6883 45.0013 85.1162C45.0021 88.9359 43.9259 94.3229 39.4215 98.3394C34.5254 102.65 28.5512 103.631 22.8706 103.632L0.931786 103.636L0.917969 38.3097ZM13.6525 48.6888L13.656 65.4367L17.2799 65.4359C19.2387 65.4355 27.1719 65.238 27.1701 56.913C27.1688 50.9386 22.5651 48.6869 17.3743 48.688L13.6525 48.6888ZM13.6581 75.2308L13.6619 93.252L19.1466 93.2508C21.4972 93.2503 25.0231 93.1516 27.863 91.486C30.9967 89.6245 31.8775 86.4902 31.877 83.9437C31.8766 81.887 31.1902 78.3612 27.0763 76.5012C24.3337 75.2286 21.1016 75.2292 18.3593 75.2298L13.6581 75.2308Z" fill="#191919"/>
<path d="M56.775 38.2979L69.5073 38.2952L69.5188 92.6525L89.6946 92.6482L89.697 103.618L56.7888 103.625L56.775 38.2979Z" fill="#191919"/>
<path d="M142.955 103.606L137.174 89.8958L110.828 89.9014L105.052 103.614L91.2426 103.617L119.533 36.9135L129.132 36.9115L156.667 103.603L142.955 103.606ZM114.841 79.5188L133.45 79.5149L124.239 56.011L114.841 79.5188Z" fill="#191919"/>
<path d="M187.14 38.2704L204.182 38.2667C213.29 38.2648 221.224 39.2426 228.472 44.6278C236.407 50.6005 241.012 60.0998 241.014 70.9713C241.017 81.8427 236.513 91.246 227.896 97.3202C220.258 102.709 213.108 103.592 203.999 103.593L187.154 103.597L187.14 38.2704ZM199.874 49.2371L199.884 92.6249L203.801 92.6241C207.033 92.6234 214.085 92.426 219.765 88.3113C224.955 84.5885 227.892 77.9279 227.89 70.974C227.889 64.1182 225.047 57.4588 219.855 53.5422C214.566 49.6257 208.102 49.2353 203.792 49.2362L199.874 49.2371Z" fill="#191919"/>
<path d="M288.991 38.2488L288.993 49.2182L265.487 49.2232L265.49 63.8164L288.017 63.8116L288.019 74.781L265.493 74.7858L265.496 92.6111L289.002 92.6061L289.005 103.575L252.766 103.583L252.753 38.2565L288.991 38.2488Z" fill="#191919"/>
<path d="M340.127 44.4083L333.468 53.1264C329.648 48.0343 325.142 47.5456 322.792 47.5461C315.936 47.5475 313.782 51.8574 313.783 55.1874C313.783 56.7544 314.273 58.2234 315.84 59.5943C317.408 61.0631 319.563 61.8461 323.676 63.3144C328.77 65.0762 333.569 66.8382 336.9 69.8736C339.839 72.5174 342.484 76.9242 342.485 83.5842C342.488 96.3165 333.283 105.035 319.768 105.038C307.721 105.041 300.668 97.6965 297.239 92.7023L305.562 84.7673C308.697 91.1328 314.672 93.4821 319.275 93.4811C325.054 93.4799 329.363 89.9531 329.362 84.4684C329.361 82.1179 328.577 80.2571 326.814 78.5925C324.365 76.3404 320.447 75.068 316.725 73.7955C313.297 72.621 309.183 71.0548 305.852 68.1173C303.697 66.2568 300.66 62.6337 300.659 55.9737C300.657 46.3754 307.119 36.7759 321.614 36.7728C325.728 36.7719 333.465 37.5538 340.127 44.4083Z" fill="#191919"/>
<path d="M353.659 38.2351L366.391 38.2324L366.405 103.559L353.673 103.562L353.659 38.2351Z" fill="#191919"/>
<path d="M414.413 79.5534L414.411 68.584L444.381 68.5777L444.381 70.2427C444.383 77.6862 443.209 85.3258 438.411 92.2807C430.676 103.448 419.413 105.017 412.46 105.018C392.284 105.023 378.177 91.314 378.173 70.9423C378.169 50.6685 392.661 36.7578 412.837 36.7535C431.446 36.7496 438.794 48.5009 440.851 52.1243L429.785 58.1011C428.414 55.6528 423.515 48.3083 412.741 48.3106C399.813 48.3133 391.295 58.5989 391.297 71.1354C391.299 81.2233 397.276 93.4646 412.653 93.4614C421.664 93.4595 429.89 89.5401 431.259 79.5498L414.413 79.5534Z" fill="#191919"/>
<path d="M468.841 103.537L456.109 103.54L456.095 36.7444L464.909 36.7425L504.683 82.1787L504.674 38.2032L517.406 38.2005L517.42 104.8L508.606 104.802L468.832 59.366L468.841 103.537Z" fill="#191919"/>
<path d="M588.297 79.5166L588.294 68.5472L618.264 68.5409L618.265 70.2059C618.266 77.6494 617.093 85.2891 612.295 92.2439C604.56 103.411 593.297 104.98 586.343 104.982C566.167 104.986 552.061 91.2772 552.057 70.9055C552.052 50.6317 566.545 36.721 586.721 36.7167C605.329 36.7128 612.677 48.4642 614.735 52.0875L603.669 58.0643C602.297 55.616 597.399 48.2715 586.625 48.2738C573.697 48.2765 565.178 58.5621 565.181 71.0986C565.183 81.1865 571.16 93.4279 586.537 93.4246C595.547 93.4227 603.773 89.5033 605.142 79.5131L588.297 79.5166Z" fill="#191919"/>
<path d="M629.979 38.1767L648.881 38.1727C657.892 38.1708 662.496 40.5204 665.532 43.0662C670.528 47.2766 671.998 52.859 671.999 57.756C672.001 64.1222 669.456 69.7053 664.363 73.1344C662.699 74.31 660.348 75.3879 657.214 75.9762L677.592 103.493L661.725 103.497L644.286 77.2521L642.719 77.2525L642.725 103.501L629.992 103.503L629.979 38.1767ZM642.713 48.5557L642.717 68.2419L646.341 68.2411C648.79 68.2406 658.878 67.9446 658.876 58.3464C658.874 48.6503 648.883 48.5544 646.533 48.5549L642.713 48.5557Z" fill="#191919"/>
<path d="M717.951 36.689C738.518 36.6846 752.821 50.981 752.825 70.863C752.829 90.745 738.533 104.95 717.965 104.954C697.398 104.958 683.095 90.7598 683.091 70.8778C683.087 50.9957 697.383 36.6933 717.951 36.689ZM717.963 93.3968C730.695 93.3941 739.704 84.0878 739.701 70.8658C739.698 57.6437 730.686 48.2433 717.953 48.246C705.221 48.2487 696.212 57.6529 696.215 70.875C696.218 84.097 705.23 93.3995 717.963 93.3968Z" fill="#191919"/>
<path d="M764.552 38.1482L777.284 38.1455L777.293 79.1828C777.294 84.1778 778.96 87.2136 780.429 88.8783C782.29 91.1306 785.719 93.3825 790.812 93.3814C795.905 93.3803 799.332 91.127 801.193 88.8739C802.661 87.2086 804.326 84.1721 804.325 79.1771L804.316 38.1398L817.048 38.1371L817.057 78.0971C817.058 84.2673 816.08 90.5358 812.163 95.5316C807.463 101.703 799.237 104.937 790.814 104.938C782.391 104.94 774.164 101.71 769.461 95.5406C765.542 90.5465 764.562 84.2784 764.56 78.1082L764.552 38.1482Z" fill="#191919"/>
<path d="M831.982 38.134L850.983 38.1299C858.328 38.1284 863.421 38.9108 868.221 43.1213C873.511 47.8213 874.884 54.1872 874.885 58.8884C874.885 61.4349 874.495 68.4867 869.501 73.4827C865.878 77.1073 860.492 79.2632 852.95 79.2648L844.723 79.2665L844.728 103.458L831.996 103.461L831.982 38.134ZM844.717 49.1007L844.721 68.2971L849.912 68.296C852.36 68.2955 855.494 68.2948 858.236 66.2375C860.586 64.3761 861.761 61.4376 861.76 58.5973C861.76 54.9735 859.996 52.5254 858.135 51.1546C855.49 49.2943 852.16 49.0991 849.124 49.0997L844.717 49.1007Z" fill="#191919"/>
<path d="M0.917969 38.3097L17.0782 38.3063C20.7021 38.3056 27.7538 38.3041 33.0435 42.4165C36.8638 45.3539 39.1175 50.4464 39.1187 55.9311C39.1205 64.354 33.5386 67.7831 31.7758 68.7629C36.0854 69.4476 38.6322 71.3079 40.2976 72.8746C44.216 76.5955 45.0006 81.6883 45.0013 85.1162C45.0021 88.9359 43.9259 94.3229 39.4215 98.3394C34.5254 102.65 28.5512 103.631 22.8706 103.632L0.931786 103.636L0.917969 38.3097ZM13.6525 48.6888L13.656 65.4367L17.2799 65.4359C19.2387 65.4355 27.1719 65.238 27.1701 56.913C27.1688 50.9386 22.5651 48.6869 17.3743 48.688L13.6525 48.6888ZM13.6581 75.2308L13.6619 93.252L19.1466 93.2508C21.4972 93.2503 25.0231 93.1516 27.863 91.486C30.9967 89.6245 31.8775 86.4902 31.877 83.9437C31.8766 81.887 31.1902 78.3612 27.0763 76.5012C24.3337 75.2286 21.1016 75.2292 18.3593 75.2298L13.6581 75.2308Z" stroke="#191919" stroke-width="0.5" mask="url(#path-1-outside-1_1705_452)"/>
<path d="M56.775 38.2979L69.5073 38.2952L69.5188 92.6525L89.6946 92.6482L89.697 103.618L56.7888 103.625L56.775 38.2979Z" stroke="#191919" stroke-width="0.5" mask="url(#path-1-outside-1_1705_452)"/>
<path d="M142.955 103.606L137.174 89.8958L110.828 89.9014L105.052 103.614L91.2426 103.617L119.533 36.9135L129.132 36.9115L156.667 103.603L142.955 103.606ZM114.841 79.5188L133.45 79.5149L124.239 56.011L114.841 79.5188Z" stroke="#191919" stroke-width="0.5" mask="url(#path-1-outside-1_1705_452)"/>
<path d="M187.14 38.2704L204.182 38.2667C213.29 38.2648 221.224 39.2426 228.472 44.6278C236.407 50.6005 241.012 60.0998 241.014 70.9713C241.017 81.8427 236.513 91.246 227.896 97.3202C220.258 102.709 213.108 103.592 203.999 103.593L187.154 103.597L187.14 38.2704ZM199.874 49.2371L199.884 92.6249L203.801 92.6241C207.033 92.6234 214.085 92.426 219.765 88.3113C224.955 84.5885 227.892 77.9279 227.89 70.974C227.889 64.1182 225.047 57.4588 219.855 53.5422C214.566 49.6257 208.102 49.2353 203.792 49.2362L199.874 49.2371Z" stroke="#191919" stroke-width="0.5" mask="url(#path-1-outside-1_1705_452)"/>
<path d="M288.991 38.2488L288.993 49.2182L265.487 49.2232L265.49 63.8164L288.017 63.8116L288.019 74.781L265.493 74.7858L265.496 92.6111L289.002 92.6061L289.005 103.575L252.766 103.583L252.753 38.2565L288.991 38.2488Z" stroke="#191919" stroke-width="0.5" mask="url(#path-1-outside-1_1705_452)"/>
<path d="M340.127 44.4083L333.468 53.1264C329.648 48.0343 325.142 47.5456 322.792 47.5461C315.936 47.5475 313.782 51.8574 313.783 55.1874C313.783 56.7544 314.273 58.2234 315.84 59.5943C317.408 61.0631 319.563 61.8461 323.676 63.3144C328.77 65.0762 333.569 66.8382 336.9 69.8736C339.839 72.5174 342.484 76.9242 342.485 83.5842C342.488 96.3165 333.283 105.035 319.768 105.038C307.721 105.041 300.668 97.6965 297.239 92.7023L305.562 84.7673C308.697 91.1328 314.672 93.4821 319.275 93.4811C325.054 93.4799 329.363 89.9531 329.362 84.4684C329.361 82.1179 328.577 80.2571 326.814 78.5925C324.365 76.3404 320.447 75.068 316.725 73.7955C313.297 72.621 309.183 71.0548 305.852 68.1173C303.697 66.2568 300.66 62.6337 300.659 55.9737C300.657 46.3754 307.119 36.7759 321.614 36.7728C325.728 36.7719 333.465 37.5538 340.127 44.4083Z" stroke="#191919" stroke-width="0.5" mask="url(#path-1-outside-1_1705_452)"/>
<path d="M353.659 38.2351L366.391 38.2324L366.405 103.559L353.673 103.562L353.659 38.2351Z" stroke="#191919" stroke-width="0.5" mask="url(#path-1-outside-1_1705_452)"/>
<path d="M414.413 79.5534L414.411 68.584L444.381 68.5777L444.381 70.2427C444.383 77.6862 443.209 85.3258 438.411 92.2807C430.676 103.448 419.413 105.017 412.46 105.018C392.284 105.023 378.177 91.314 378.173 70.9423C378.169 50.6685 392.661 36.7578 412.837 36.7535C431.446 36.7496 438.794 48.5009 440.851 52.1243L429.785 58.1011C428.414 55.6528 423.515 48.3083 412.741 48.3106C399.813 48.3133 391.295 58.5989 391.297 71.1354C391.299 81.2233 397.276 93.4646 412.653 93.4614C421.664 93.4595 429.89 89.5401 431.259 79.5498L414.413 79.5534Z" stroke="#191919" stroke-width="0.5" mask="url(#path-1-outside-1_1705_452)"/>
<path d="M468.841 103.537L456.109 103.54L456.095 36.7444L464.909 36.7425L504.683 82.1787L504.674 38.2032L517.406 38.2005L517.42 104.8L508.606 104.802L468.832 59.366L468.841 103.537Z" stroke="#191919" stroke-width="0.5" mask="url(#path-1-outside-1_1705_452)"/>
<path d="M588.297 79.5166L588.294 68.5472L618.264 68.5409L618.265 70.2059C618.266 77.6494 617.093 85.2891 612.295 92.2439C604.56 103.411 593.297 104.98 586.343 104.982C566.167 104.986 552.061 91.2772 552.057 70.9055C552.052 50.6317 566.545 36.721 586.721 36.7167C605.329 36.7128 612.677 48.4642 614.735 52.0875L603.669 58.0643C602.297 55.616 597.399 48.2715 586.625 48.2738C573.697 48.2765 565.178 58.5621 565.181 71.0986C565.183 81.1865 571.16 93.4279 586.537 93.4246C595.547 93.4227 603.773 89.5033 605.142 79.5131L588.297 79.5166Z" stroke="#191919" stroke-width="0.5" mask="url(#path-1-outside-1_1705_452)"/>
<path d="M629.979 38.1767L648.881 38.1727C657.892 38.1708 662.496 40.5204 665.532 43.0662C670.528 47.2766 671.998 52.859 671.999 57.756C672.001 64.1222 669.456 69.7053 664.363 73.1344C662.699 74.31 660.348 75.3879 657.214 75.9762L677.592 103.493L661.725 103.497L644.286 77.2521L642.719 77.2525L642.725 103.501L629.992 103.503L629.979 38.1767ZM642.713 48.5557L642.717 68.2419L646.341 68.2411C648.79 68.2406 658.878 67.9446 658.876 58.3464C658.874 48.6503 648.883 48.5544 646.533 48.5549L642.713 48.5557Z" stroke="#191919" stroke-width="0.5" mask="url(#path-1-outside-1_1705_452)"/>
<path d="M717.951 36.689C738.518 36.6846 752.821 50.981 752.825 70.863C752.829 90.745 738.533 104.95 717.965 104.954C697.398 104.958 683.095 90.7598 683.091 70.8778C683.087 50.9957 697.383 36.6933 717.951 36.689ZM717.963 93.3968C730.695 93.3941 739.704 84.0878 739.701 70.8658C739.698 57.6437 730.686 48.2433 717.953 48.246C705.221 48.2487 696.212 57.6529 696.215 70.875C696.218 84.097 705.23 93.3995 717.963 93.3968Z" stroke="#191919" stroke-width="0.5" mask="url(#path-1-outside-1_1705_452)"/>
<path d="M764.552 38.1482L777.284 38.1455L777.293 79.1828C777.294 84.1778 778.96 87.2136 780.429 88.8783C782.29 91.1306 785.719 93.3825 790.812 93.3814C795.905 93.3803 799.332 91.127 801.193 88.8739C802.661 87.2086 804.326 84.1721 804.325 79.1771L804.316 38.1398L817.048 38.1371L817.057 78.0971C817.058 84.2673 816.08 90.5358 812.163 95.5316C807.463 101.703 799.237 104.937 790.814 104.938C782.391 104.94 774.164 101.71 769.461 95.5406C765.542 90.5465 764.562 84.2784 764.56 78.1082L764.552 38.1482Z" stroke="#191919" stroke-width="0.5" mask="url(#path-1-outside-1_1705_452)"/>
<path d="M831.982 38.134L850.983 38.1299C858.328 38.1284 863.421 38.9108 868.221 43.1213C873.511 47.8213 874.884 54.1872 874.885 58.8884C874.885 61.4349 874.495 68.4867 869.501 73.4827C865.878 77.1073 860.492 79.2632 852.95 79.2648L844.723 79.2665L844.728 103.458L831.996 103.461L831.982 38.134ZM844.717 49.1007L844.721 68.2971L849.912 68.296C852.36 68.2955 855.494 68.2948 858.236 66.2375C860.586 64.3761 861.761 61.4376 861.76 58.5973C861.76 54.9735 859.996 52.5254 858.135 51.1546C855.49 49.2943 852.16 49.0991 849.124 49.0997L844.717 49.1007Z" stroke="#191919" stroke-width="0.5" mask="url(#path-1-outside-1_1705_452)"/>
</svg>
