<svg width="27" height="29" viewBox="0 0 27 29" fill="none" xmlns="http://www.w3.org/2000/svg">
<path d="M13.2891 16.2708C17.3396 16.2708 21.1837 15.5484 24.153 14.2289C24.9809 13.8608 25.7918 13.4238 26.5391 12.9068V14.7986C26.5391 18.0509 20.6069 20.6875 13.2891 20.6875C5.97129 20.6875 0.0390625 18.0509 0.0390625 14.7986V12.9068C0.786363 13.4238 1.5972 13.8608 2.42508 14.2289C5.39439 15.5484 9.23848 16.2708 13.2891 16.2708Z" fill="white"/>
<path d="M24.153 22.3261C24.9809 21.958 25.7918 21.5211 26.5391 21.004V22.8958C26.5391 26.1481 20.6069 28.7847 13.2891 28.7847C5.97129 28.7847 0.0390625 26.1481 0.0390625 22.8958V21.004C0.786363 21.5211 1.5972 21.958 2.42508 22.3261C5.39439 23.6456 9.23848 24.368 13.2891 24.368C17.3396 24.368 21.1837 23.6456 24.153 22.3261Z" fill="white"/>
<path d="M26.5391 6.70139C26.5391 9.95373 20.6069 12.5903 13.2891 12.5903C5.97129 12.5903 0.0390625 9.95373 0.0390625 6.70139C0.0390625 3.44904 5.97129 0.8125 13.2891 0.8125C20.6069 0.8125 26.5391 3.44904 26.5391 6.70139Z" fill="white"/>
</svg>
