<svg width="422" height="142" viewBox="0 0 422 142" fill="none" xmlns="http://www.w3.org/2000/svg">
<path d="M17.56 34.8014C13.3143 34.8014 9.87236 38.3392 9.87236 42.7033C9.87236 47.0674 13.3143 50.6052 17.56 50.6052C21.8057 50.6052 25.2476 47.0674 25.2476 42.7033C25.2476 38.3392 21.8057 34.8014 17.56 34.8014Z" fill="#191919"/>
<path d="M13.4599 66.4091C9.21421 66.4091 5.7723 69.947 5.7723 74.311C5.7723 78.6751 9.21421 82.213 13.4599 82.213C15.8258 82.213 17.9424 81.1141 19.3528 79.3861C20.4058 78.5177 21.7426 77.9986 23.1976 77.9986C24.6525 77.9986 25.9893 78.5177 27.0424 79.3861C28.3497 80.9886 30.2646 82.0494 32.4227 82.1955V82.213H61.1232V82.1955C61.2923 82.2073 61.4635 82.213 61.6357 82.213C65.8814 82.213 69.3233 78.6751 69.3233 74.311C69.3233 69.947 65.8814 66.4091 61.6357 66.4091C61.5571 66.4091 61.4785 66.4101 61.3999 66.4127C61.3069 66.4158 61.2148 66.4204 61.1232 66.4266V66.4091H32.4227V66.4266C30.2646 66.5727 28.3497 67.6335 27.0424 69.236C25.9893 70.1044 24.6525 70.6235 23.1976 70.6235C21.7426 70.6235 20.4058 70.1044 19.3528 69.236C17.9424 67.508 15.8258 66.4091 13.4599 66.4091Z" fill="#191919"/>
<path d="M36.5228 50.5877V50.6052H84.6985V50.5877C88.7055 50.3166 91.8737 46.8904 91.8737 42.7033C91.8737 38.5162 88.7055 35.09 84.6985 34.8189V34.8014H36.5228V34.8189C32.5158 35.09 29.3477 38.5162 29.3477 42.7033C29.3477 46.8904 32.5158 50.3166 36.5228 50.5877Z" fill="#191919"/>
<path d="M7.82233 113.821V113.803C3.81536 113.532 0.647217 110.106 0.647217 105.919C0.647217 101.732 3.81536 98.3054 7.82233 98.0343V98.0168H62.1482V98.0343C66.1552 98.3054 69.3233 101.732 69.3233 105.919C69.3233 110.106 66.1552 113.532 62.1482 113.803V113.821H7.82233Z" fill="#191919"/>
<path d="M136.909 51.0701C142.378 51.0701 147.462 52.1822 152.164 54.4064C156.865 56.6306 160.558 59.681 163.245 63.5575C165.963 67.4023 167.274 71.5966 167.178 76.1403C167.178 76.9983 167.082 77.9197 166.891 78.9048H118.968C119.671 82.3682 121.702 85.2279 125.06 87.4839C128.418 89.74 132.368 90.9633 136.909 91.1539C144.2 91.5035 149.957 89.8353 154.178 86.1494L165.643 89.6764C163.085 92.981 159.423 95.7454 154.658 97.9696C149.925 100.194 144.009 101.274 136.909 101.211C131.376 101.147 126.275 100.003 121.606 97.779C116.937 95.5547 113.243 92.5202 110.525 88.6755C107.807 84.8308 106.512 80.6524 106.639 76.1403C106.735 72.7087 107.583 69.4518 109.182 66.3696C110.813 63.2875 112.956 60.6343 115.61 58.41C118.296 56.154 121.478 54.3746 125.156 53.0719C128.866 51.7373 132.783 51.0701 136.909 51.0701ZM136.909 61.0791C132.975 61.0791 129.458 62.0482 126.355 63.9865C123.253 65.9248 121.047 68.4191 119.735 71.4695H154.274C153.155 68.4509 150.964 65.9724 147.702 64.0342C144.472 62.0641 140.875 61.0791 136.909 61.0791Z" fill="#191919"/>
<path d="M214.238 54.6924C218.427 57.1073 221.737 60.396 224.168 64.5584C226.598 68.7209 227.813 73.2647 227.813 78.1898V99.8761H215.437V76.188C215.437 72.0255 213.966 68.4985 211.024 65.607C208.113 62.6837 204.564 61.2221 200.374 61.2221C196.185 61.2221 192.619 62.6837 189.677 65.607C186.766 68.4985 185.311 72.0255 185.311 76.188V99.8761H173.127V78.1898C173.127 73.2647 174.342 68.7209 176.773 64.5584C179.203 60.396 182.513 57.1073 186.702 54.6924C190.924 52.2775 195.513 51.0701 200.47 51.0701C205.459 51.0701 210.048 52.2775 214.238 54.6924Z" fill="#191919"/>
<path d="M294.349 27.9062C294.317 33.1491 294.301 49.2271 294.301 76.1403C294.301 80.6524 292.941 84.8466 290.223 88.7232C287.537 92.5997 283.875 95.6501 279.238 97.8743C274.601 100.099 269.532 101.211 264.031 101.211C258.53 101.211 253.43 100.099 248.728 97.8743C244.027 95.6501 240.318 92.5997 237.599 88.7232C234.913 84.8466 233.618 80.6524 233.714 76.1403C233.906 69.0546 236.832 63.0968 242.492 58.267C248.153 53.4373 255.332 51.0224 264.031 51.0224C267.357 51.0224 270.667 51.5943 273.961 52.7382C277.255 53.8504 280.021 55.312 282.26 57.1232V27.9062H294.349ZM264.031 61.0791C259.01 61.0791 254.741 62.5566 251.223 65.5117C247.737 68.435 245.946 71.9779 245.85 76.1403C245.722 80.2393 247.449 83.7663 251.031 86.7214C254.645 89.6764 258.978 91.1539 264.031 91.1539C269.02 91.1539 273.257 89.6923 276.743 86.769C280.261 83.8457 282.084 80.3028 282.212 76.1403C282.308 72.0096 280.565 68.4667 276.983 65.5117C273.401 62.5566 269.084 61.0791 264.031 61.0791Z" fill="#191919"/>
<path d="M341.264 97.5883C337.074 100.003 332.485 101.211 327.496 101.211C322.539 101.211 317.95 100.003 313.729 97.5883C309.539 95.1734 306.229 91.8848 303.799 87.7223C301.368 83.5598 300.153 79.016 300.153 74.0909V52.4046H312.338V76.0927C312.338 80.2552 313.793 83.7981 316.703 86.7214C319.645 89.6129 323.211 91.0586 327.4 91.0586C331.59 91.0586 335.14 89.6129 338.05 86.7214C340.992 83.7981 342.463 80.2552 342.463 76.0927V52.4046H354.84V74.0909C354.84 79.016 353.624 83.5598 351.194 87.7223C348.763 91.8848 345.453 95.1734 341.264 97.5883Z" fill="#191919"/>
<path d="M391.057 51.0701C396.526 51.0701 401.611 52.1822 406.312 54.4064C411.013 56.6306 414.707 59.681 417.393 63.5575C420.112 67.4023 421.423 71.5966 421.327 76.1403C421.327 76.9983 421.231 77.9197 421.039 78.9048H373.116C373.82 82.3682 375.851 85.2279 379.209 87.4839C382.567 89.74 386.516 90.9633 391.057 91.1539C398.349 91.5035 404.105 89.8353 408.327 86.1494L419.792 89.6764C417.233 92.981 413.572 95.7454 408.806 97.9696C404.073 100.194 398.157 101.274 391.057 101.211C385.525 101.147 380.424 100.003 375.755 97.779C371.086 95.5547 367.392 92.5202 364.674 88.6755C361.955 84.8308 360.66 80.6524 360.788 76.1403C360.884 72.7087 361.731 69.4518 363.33 66.3696C364.961 63.2875 367.104 60.6343 369.758 58.41C372.445 56.154 375.627 54.3746 379.305 53.0719C383.014 51.7373 386.932 51.0701 391.057 51.0701ZM391.057 61.0791C387.124 61.0791 383.606 62.0482 380.504 63.9865C377.402 65.9248 375.195 68.4191 373.884 71.4695H408.423C407.303 68.4509 405.113 65.9724 401.851 64.0342C398.621 62.0641 395.023 61.0791 391.057 61.0791Z" fill="#191919"/>
</svg>
