<svg width="460" height="142" viewBox="0 0 460 142" fill="none" xmlns="http://www.w3.org/2000/svg">
<path d="M27.9875 79.4526L16.9975 79.5026C16.7871 79.5029 16.5799 79.5583 16.3959 79.6634C16.2119 79.7685 16.0575 79.9198 15.9475 80.1026L11.0175 88.2826C10.9541 88.3865 10.8593 88.467 10.7475 88.5122C10.6356 88.5573 10.5127 88.5644 10.3975 88.5326C10.1441 88.4593 9.97414 88.3159 9.88747 88.1026C6.9008 80.6959 3.93414 73.4259 0.987471 66.2926C0.962915 66.2342 0.950163 66.1715 0.949954 66.1081C0.949745 66.0448 0.962082 65.982 0.986253 65.9234C1.01042 65.8649 1.04595 65.8117 1.09078 65.7669C1.13562 65.7221 1.18887 65.6867 1.24747 65.6626L27.2275 54.8326C27.4827 54.727 27.7107 54.5641 27.8943 54.3562C28.078 54.1483 28.2124 53.9009 28.2875 53.6326C32.6875 37.7826 45.6775 27.3026 61.5975 23.6526C64.2908 23.0393 66.9608 22.5326 69.6075 22.1326C69.8541 22.0926 70.0108 22.1926 70.0775 22.4326L70.1575 22.7326C70.2041 22.8859 70.1508 22.9893 69.9975 23.0426C56.5175 27.7926 47.2675 37.6726 45.2675 51.8726C45.0675 53.2859 45.0341 54.7426 45.1675 56.2426C45.2008 56.6826 45.4408 56.9026 45.8875 56.9026L66.2275 56.8926C66.3198 56.8937 66.4104 56.9185 66.4904 56.9645C66.5703 57.0106 66.6369 57.0763 66.6833 57.1551C66.7298 57.234 66.7547 57.3232 66.7554 57.414C66.7561 57.5047 66.7327 57.5939 66.6875 57.6726C63.4475 63.5226 58.3375 68.8826 51.5175 69.7526C51.4682 69.7581 51.421 69.775 51.3794 69.802C51.3378 69.8289 51.303 69.8651 51.2778 69.9078C51.2526 69.9504 51.2376 69.9984 51.2341 70.0478C51.2306 70.0972 51.2386 70.1468 51.2575 70.1926L64.1275 102.013C64.1566 102.086 64.1674 102.166 64.1589 102.245C64.1504 102.324 64.1228 102.4 64.0785 102.466C64.0342 102.532 63.9746 102.586 63.9047 102.624C63.8349 102.661 63.7569 102.682 63.6775 102.683H17.9275C17.8142 102.683 17.7052 102.639 17.6232 102.561C17.5412 102.483 17.4926 102.376 17.4875 102.263C17.4808 101.969 17.5408 101.693 17.6675 101.433C20.8141 94.9193 24.3441 87.7359 28.2575 79.8826C28.2794 79.8369 28.2895 79.7864 28.2866 79.7357C28.2838 79.6851 28.2681 79.636 28.2412 79.5931C28.2142 79.5501 28.1768 79.5147 28.1324 79.4901C28.0881 79.4656 28.0382 79.4527 27.9875 79.4526Z" fill="#191919"/>
<path d="M145.987 73.4729C146.01 73.3841 146.013 73.2912 145.995 73.2013C145.977 73.1115 145.939 73.0271 145.884 72.9547C145.829 72.8823 145.759 72.8237 145.678 72.7835C145.597 72.7433 145.508 72.7226 145.417 72.7229L125.667 72.7429C125.274 72.7429 125.081 72.5495 125.087 72.1629L125.097 62.2329C125.097 61.6929 125.367 61.4229 125.907 61.4229H157.947C158.407 61.4229 158.671 61.6529 158.737 62.1129C160.967 77.8229 154.777 92.0628 139.807 98.1628C134.007 100.53 128.164 101.353 122.277 100.633C107.027 98.7729 95.1874 88.6829 91.5374 73.9629C89.2774 64.8162 90.3241 56.1062 94.6774 47.8328C101.187 35.4528 113.917 28.6329 127.877 29.2229C136.891 29.6029 144.687 33.0762 151.267 39.6429C151.654 40.0229 151.654 40.4062 151.267 40.7929L143.277 48.7829C142.931 49.1295 142.577 49.1362 142.217 48.8029C140.357 47.0729 138.217 45.2229 135.937 44.2029C122.327 38.1129 106.947 45.2628 104.117 59.8628C103.744 61.7762 103.621 64.0329 103.747 66.6329C104.267 77.1329 111.197 85.2629 121.177 87.3829C132.237 89.7329 142.907 84.8029 145.987 73.4729Z" fill="#191919"/>
<path d="M321.467 43.5728C315.407 48.5828 321.057 54.0028 326.417 55.9928C329.671 57.1994 332.937 58.4128 336.217 59.6328C342.797 62.0728 349.867 67.5228 351.257 74.6428C352.047 78.6728 352.108 84.4928 350.238 88.2928C345.278 98.3728 333.067 102.593 322.417 100.073C313.851 98.0394 307.678 92.2594 303.898 82.7328C303.444 81.5928 303.791 80.7961 304.937 80.3428L314.937 76.3428C315.069 76.2894 315.21 76.2641 315.352 76.2684C315.494 76.2726 315.633 76.3064 315.761 76.3676C315.889 76.4288 316.003 76.516 316.095 76.6236C316.188 76.7313 316.256 76.857 316.297 76.9928C318.637 84.8628 324.927 90.3428 333.227 87.1328C339.197 84.8228 340.757 78.1328 335.597 74.0128C333.397 72.2594 330.504 70.7928 326.917 69.6128C323.044 68.3328 319.541 66.8294 316.407 65.1028C300.637 56.4028 303.518 35.3828 320.338 30.2928C325.791 28.6394 331.204 28.7461 336.577 30.6128C342.584 32.6994 346.898 36.9628 349.518 43.4028C349.592 43.5901 349.59 43.7989 349.514 43.9853C349.437 44.1717 349.292 44.3213 349.107 44.4028L338.958 48.7828C338.772 48.8632 338.562 48.872 338.37 48.8074C338.178 48.7427 338.017 48.6093 337.917 48.4328C335.997 44.9928 334.008 42.0928 329.678 41.8828C326.878 41.7528 323.737 41.6828 321.467 43.5728Z" fill="#191919"/>
<path d="M287.958 52.222L297.418 52.202C297.543 52.202 297.668 52.2269 297.783 52.2752C297.899 52.3236 298.005 52.3945 298.093 52.4837C298.181 52.573 298.251 52.6789 298.298 52.7953C298.345 52.9118 298.369 53.0364 298.368 53.162L298.248 62.792C298.245 62.9652 298.175 63.1305 298.054 63.2522C297.932 63.3738 297.768 63.4419 297.598 63.442L287.488 63.372C287.451 63.3707 287.414 63.3769 287.38 63.3903C287.345 63.4036 287.314 63.4239 287.287 63.4499C287.26 63.4759 287.238 63.5071 287.223 63.5418C287.207 63.5765 287.199 63.6139 287.198 63.652C287.198 69.112 287.198 75.452 287.198 82.672C287.208 85.522 288.618 87.922 291.708 88.212C293.338 88.362 294.728 87.702 296.278 87.332C296.407 87.2985 296.545 87.3172 296.662 87.3843C296.78 87.4513 296.868 87.5615 296.908 87.692L300.078 97.802C300.211 98.222 300.074 98.5253 299.668 98.712C287.938 104.042 274.458 99.332 274.398 84.792C274.364 77.7386 274.368 70.7986 274.408 63.972C274.408 63.5586 274.204 63.3553 273.798 63.362L267.468 63.422C266.654 63.4286 266.248 63.0253 266.248 62.212V52.932C266.248 52.7437 266.322 52.5631 266.456 52.4299C266.589 52.2968 266.769 52.222 266.958 52.222L273.928 52.212C273.993 52.212 274.057 52.199 274.117 52.1737C274.178 52.1485 274.232 52.1115 274.278 52.0649C274.323 52.0184 274.359 51.9632 274.383 51.9025C274.407 51.8419 274.419 51.7771 274.418 51.712L274.358 38.892C274.356 38.7729 274.379 38.6548 274.423 38.5445C274.468 38.4341 274.534 38.3337 274.618 38.2491C274.701 38.1645 274.801 38.0973 274.911 38.0514C275.021 38.0056 275.139 37.982 275.258 37.982L286.188 37.962C286.332 37.9606 286.476 37.9882 286.61 38.043C286.744 38.0978 286.866 38.1788 286.968 38.2812C287.071 38.3836 287.152 38.5054 287.207 38.6394C287.261 38.7735 287.289 38.9171 287.288 39.062L287.198 51.452C287.191 51.9653 287.444 52.222 287.958 52.222Z" fill="#191919"/>
<path d="M189.172 100.951C182.622 101.02 176.312 98.42 171.63 93.7242C166.949 89.0283 164.279 82.6207 164.209 75.9112C164.174 72.5889 164.779 69.2925 165.988 66.2101C167.197 63.1277 168.987 60.3198 171.256 57.9466C173.525 55.5734 176.228 53.6814 179.211 52.3786C182.194 51.0758 185.399 50.3878 188.643 50.3539C195.193 50.2853 201.503 52.8849 206.185 57.5808C210.866 62.2767 213.536 68.6842 213.606 75.3938C213.641 78.716 213.037 82.0125 211.827 85.0948C210.618 88.1772 208.828 90.9851 206.559 93.3584C204.291 95.7316 201.587 97.6236 198.604 98.9263C195.621 100.229 192.416 100.917 189.172 100.951ZM188.754 88.662C190.296 88.6754 191.825 88.3528 193.255 87.7124C194.685 87.0721 195.988 86.1266 197.089 84.9299C198.189 83.7332 199.066 82.3088 199.67 80.738C200.274 79.1671 200.592 77.4807 200.607 75.7749C200.637 72.3298 199.429 69.0151 197.249 66.5599C195.069 64.1047 192.094 62.7101 188.981 62.683C187.439 62.6695 185.91 62.9921 184.48 63.6325C183.05 64.2728 181.747 65.2184 180.647 66.415C179.546 67.6117 178.669 69.0361 178.065 70.607C177.461 72.1778 177.143 73.8642 177.128 75.5701C177.098 79.0151 178.306 82.3298 180.486 84.785C182.667 87.2402 185.641 88.6348 188.754 88.662Z" fill="#191919"/>
<path d="M248.717 94.6522C248.717 94.0522 248.524 93.9822 248.137 94.4422C242.617 100.962 235.811 102.539 227.717 99.1722C213.937 93.4522 214.847 74.5122 228.827 69.7022C234.727 67.6689 241.054 67.8422 247.807 70.2222C247.917 70.2606 248.034 70.2712 248.149 70.253C248.263 70.2348 248.372 70.1885 248.464 70.1181C248.556 70.0476 248.629 69.9554 248.677 69.8497C248.725 69.7439 248.746 69.6279 248.737 69.5122C248.317 64.5022 244.367 61.6322 239.557 61.4322C235.331 61.2655 231.894 62.7422 229.247 65.8622C229.003 66.152 228.658 66.3394 228.28 66.3875C227.903 66.4356 227.52 66.341 227.207 66.1222L219.787 60.9322C219.662 60.8434 219.557 60.7293 219.478 60.5971C219.399 60.4649 219.349 60.3176 219.33 60.1643C219.311 60.0111 219.324 59.8553 219.369 59.7069C219.413 59.5585 219.487 59.4207 219.587 59.3022C226.327 51.3722 236.987 48.8422 246.897 51.4022C256.437 53.8755 261.247 60.3089 261.327 70.7022C261.414 80.5489 261.404 89.7622 261.297 98.3422C261.297 98.5093 261.231 98.6695 261.113 98.7877C260.995 98.9058 260.834 98.9722 260.667 98.9722L249.497 99.0122C249.291 99.0122 249.092 98.93 248.946 98.7837C248.8 98.6375 248.717 98.4391 248.717 98.2322V94.6522ZM248.617 81.0922C248.731 80.5322 248.527 80.1389 248.007 79.9122C244.037 78.1922 236.527 76.9622 232.947 80.0122C230.017 82.4922 229.937 86.8222 233.247 88.9622C235.347 90.3155 237.494 90.7455 239.687 90.2522C244.621 89.1522 247.597 86.0989 248.617 81.0922Z" fill="#191919"/>
<path d="M372.997 56.3423C373.597 55.1923 375.038 54.0623 376.128 53.3723C385.038 47.7423 395.777 50.8223 402.217 58.5023C413.257 71.6623 408.978 94.0923 391.828 99.8823C386.474 101.689 381.184 101.052 375.958 97.9723C374.888 97.3323 374.168 96.2123 373.388 95.2723C371.961 93.5456 371.487 93.7756 371.967 95.9623C372.307 97.5023 372.638 99.0523 372.638 100.592C372.638 106.612 372.641 112.766 372.648 119.052C372.648 119.185 372.596 119.312 372.504 119.406C372.412 119.5 372.287 119.552 372.158 119.552L360.158 119.602C360.038 119.602 359.924 119.555 359.839 119.47C359.755 119.386 359.708 119.272 359.708 119.152L359.688 52.9723C359.688 52.4856 359.931 52.2423 360.418 52.2423L370.978 52.2023C371.378 52.2023 371.588 52.3989 371.608 52.7923C371.668 53.8923 371.718 54.9856 371.758 56.0723C371.811 57.7389 372.224 57.8289 372.997 56.3423ZM383.397 88.622C384.958 88.6329 386.507 88.3087 387.954 87.668C389.401 87.0273 390.718 86.0826 391.831 84.8878C392.943 83.693 393.829 82.2716 394.438 80.7046C395.046 79.1376 395.365 77.4559 395.377 75.7553C395.389 74.0547 395.093 72.3686 394.507 70.7933C393.92 69.218 393.054 67.7844 391.959 66.5742C390.863 65.364 389.559 64.4009 388.121 63.7401C386.683 63.0792 385.139 62.7335 383.578 62.7226C382.017 62.7117 380.468 63.0358 379.021 63.6766C377.574 64.3173 376.257 65.262 375.144 66.4568C374.032 67.6516 373.146 69.073 372.537 70.64C371.929 72.2069 371.61 73.8887 371.598 75.5893C371.586 77.2899 371.882 78.9759 372.468 80.5512C373.055 82.1265 373.921 83.5602 375.016 84.7704C376.112 85.9806 377.416 86.9436 378.854 87.6045C380.292 88.2653 381.836 88.6111 383.397 88.622Z" fill="#191919"/>
<path d="M434.977 79.7122L445.617 52.4622C445.641 52.3988 445.684 52.344 445.739 52.3048C445.794 52.2656 445.86 52.2438 445.927 52.2422L459.587 52.2022C459.644 52.2012 459.699 52.2143 459.75 52.2402C459.8 52.2662 459.843 52.3042 459.874 52.3508C459.906 52.3974 459.926 52.4512 459.931 52.5073C459.937 52.5634 459.929 52.6201 459.907 52.6722L431.447 119.342C431.422 119.404 431.379 119.456 431.324 119.494C431.269 119.531 431.204 119.551 431.137 119.552L417.967 119.582C417.911 119.582 417.855 119.568 417.805 119.541C417.755 119.514 417.712 119.474 417.682 119.427C417.651 119.379 417.632 119.324 417.628 119.268C417.624 119.211 417.634 119.154 417.657 119.102L427.677 96.7422C427.697 96.6982 427.708 96.6505 427.708 96.6022C427.708 96.5539 427.697 96.5062 427.677 96.4622L408.667 52.6822C408.644 52.6304 408.634 52.5736 408.638 52.5169C408.642 52.4602 408.661 52.4055 408.692 52.3577C408.722 52.31 408.765 52.2707 408.815 52.2436C408.865 52.2164 408.921 52.2022 408.977 52.2022L422.907 52.2322C422.976 52.231 423.043 52.2504 423.1 52.2879C423.157 52.3254 423.201 52.3791 423.227 52.4422L434.347 79.7122C434.373 79.7749 434.416 79.8285 434.473 79.8663C434.529 79.9041 434.595 79.9242 434.662 79.9242C434.73 79.9242 434.796 79.9041 434.852 79.8663C434.908 79.8285 434.952 79.7749 434.977 79.7122Z" fill="#191919"/>
</svg>
