<svg width="123" height="44" viewBox="0 0 123 44" fill="none" xmlns="http://www.w3.org/2000/svg">
<path d="M10.1208 7.89648C10.1208 7.78906 10.0964 7.62793 10.0476 7.41309C9.99876 7.19824 9.94016 6.9541 9.8718 6.68066C9.80344 6.39746 9.72532 6.09961 9.63743 5.78711C9.54954 5.46484 9.47141 5.15234 9.40305 4.84961C9.33469 4.54688 9.2761 4.26367 9.22727 4C9.17844 3.73633 9.15403 3.5166 9.15403 3.34082C9.15403 3.11621 9.21751 2.93555 9.34446 2.79883C9.47141 2.65234 9.63255 2.54004 9.82786 2.46191C10.0232 2.38379 10.2331 2.33008 10.4577 2.30078C10.6824 2.27148 10.8972 2.25684 11.1023 2.25684C11.3562 2.25684 11.6003 2.33008 11.8347 2.47656C12.0788 2.61328 12.2449 2.8623 12.3327 3.22363C12.4402 3.60449 12.5281 3.99023 12.5964 4.38086C12.6745 4.76172 12.7429 5.1377 12.8015 5.50879C12.8601 5.87012 12.9138 6.22168 12.9626 6.56348C13.0212 6.90527 13.0798 7.22266 13.1384 7.51562C13.197 7.75 13.2702 7.93555 13.3581 8.07227C13.4558 8.20898 13.5681 8.31641 13.695 8.39453C13.8318 8.46289 13.9734 8.50684 14.1199 8.52637C14.2761 8.5459 14.4421 8.55566 14.6179 8.55566C14.8132 8.55566 15.0232 8.53613 15.2478 8.49707C15.4724 8.45801 15.6921 8.43848 15.907 8.43848C16.0437 8.43848 16.1755 8.46289 16.3025 8.51172C16.4392 8.55078 16.5613 8.62891 16.6687 8.74609C16.7761 8.85352 16.8591 9.00488 16.9177 9.2002C16.9861 9.39551 17.0202 9.64453 17.0202 9.94727C17.0202 10.2012 16.9714 10.416 16.8738 10.5918C16.7761 10.7578 16.5906 10.8701 16.3171 10.9287L15.7898 11.0459C15.6238 11.0752 15.4675 11.0996 15.321 11.1191C15.1843 11.1289 15.0085 11.1436 14.7937 11.1631C14.3347 11.2119 14.1052 11.4121 14.1052 11.7637C14.1052 11.793 14.1247 11.9248 14.1638 12.1592C14.2029 12.3936 14.2517 12.6865 14.3103 13.0381C14.3786 13.3799 14.4519 13.7607 14.53 14.1807C14.6081 14.5908 14.6814 14.9863 14.7497 15.3672C14.8279 15.748 14.8962 16.0898 14.9548 16.3926C15.0134 16.6855 15.0574 16.8955 15.0866 17.0225C15.1355 17.2373 15.1745 17.4033 15.2038 17.5205C15.2331 17.6377 15.2478 17.7988 15.2478 18.0039C15.2478 18.1602 15.2038 18.3164 15.1159 18.4727C15.0281 18.6191 14.8962 18.751 14.7204 18.8682C14.5544 18.9854 14.3493 19.0781 14.1052 19.1465C13.8611 19.2246 13.5827 19.2637 13.2702 19.2637C12.9284 19.2637 12.6794 19.1611 12.5232 18.9561C12.3767 18.7412 12.2741 18.4971 12.2156 18.2236C12.0886 17.7158 11.9665 17.1934 11.8493 16.6562C11.7419 16.1191 11.6345 15.5869 11.5271 15.0596C11.4294 14.5322 11.3318 14.0195 11.2341 13.5215C11.1462 13.0137 11.0632 12.5303 10.9851 12.0713C10.9363 11.8564 10.8484 11.7002 10.7214 11.6025C10.5945 11.4951 10.4333 11.4414 10.238 11.4414C9.57395 11.4414 8.90501 11.4658 8.23118 11.5146C7.56712 11.5537 6.91282 11.5879 6.26829 11.6172C6.04368 11.6367 5.8679 11.71 5.74094 11.8369C5.61399 11.9639 5.55051 12.1299 5.55051 12.335C5.55051 12.7939 5.5554 13.248 5.56516 13.6973C5.57493 14.1465 5.57981 14.6055 5.57981 15.0742C5.57981 15.6113 5.57005 16.1631 5.55051 16.7295C5.54075 17.2959 5.52122 17.8428 5.49192 18.3701C5.47239 18.5654 5.4138 18.7266 5.31614 18.8535C5.22825 18.9805 5.11106 19.083 4.96458 19.1611C4.82786 19.2393 4.66673 19.293 4.48118 19.3223C4.3054 19.3516 4.12473 19.3662 3.93919 19.3662C3.4802 19.3662 3.12376 19.2881 2.86985 19.1318C2.61594 18.9854 2.48899 18.7314 2.48899 18.3701C2.48899 17.8232 2.50364 17.252 2.53294 16.6562C2.56223 16.0605 2.57688 15.46 2.57688 14.8545C2.57688 14.4443 2.572 14.0488 2.56223 13.668C2.55247 13.2773 2.54758 12.877 2.54758 12.4668C2.54758 12.2812 2.50364 12.1445 2.41575 12.0566C2.33762 11.959 2.23997 11.8809 2.12278 11.8223C2.00559 11.7637 1.87376 11.71 1.72727 11.6611C1.58079 11.6025 1.44895 11.5195 1.33176 11.4121C1.21458 11.3047 1.11204 11.1484 1.02415 10.9434C0.946022 10.7383 0.90696 10.4551 0.90696 10.0938C0.90696 9.89844 0.941139 9.74707 1.0095 9.63965C1.08762 9.52246 1.1804 9.42969 1.28782 9.36133C1.40501 9.29297 1.52708 9.23926 1.65403 9.2002C1.78098 9.15137 1.89817 9.09277 2.00559 9.02441C2.12278 8.95605 2.21555 8.87305 2.28391 8.77539C2.36204 8.66797 2.4011 8.5166 2.4011 8.32129C2.4011 8.2041 2.39622 8.06738 2.38645 7.91113C2.37669 7.74512 2.36692 7.58887 2.35715 7.44238C2.34739 7.2959 2.33762 7.16895 2.32786 7.06152C2.31809 6.94434 2.31321 6.86621 2.31321 6.82715C2.31321 6.49512 2.35715 6.23145 2.44505 6.03613C2.5427 5.83105 2.65989 5.67969 2.79661 5.58203C2.93333 5.47461 3.08469 5.40625 3.25071 5.37695C3.42649 5.33789 3.59251 5.31836 3.74876 5.31836C4.33469 5.31836 4.73997 5.43066 4.96458 5.65527C5.19895 5.87012 5.3259 6.1875 5.34544 6.60742L5.40403 8.14551C5.42356 8.37988 5.48704 8.56055 5.59446 8.6875C5.70188 8.80469 5.87766 8.86328 6.1218 8.86328L9.447 8.74609C9.7302 8.72656 9.91087 8.64844 9.98899 8.51172C10.0769 8.375 10.1208 8.16992 10.1208 7.89648ZM18.3386 14.1367C18.3386 13.9707 18.3581 13.7852 18.3972 13.5801C18.4363 13.375 18.4558 13.1504 18.4558 12.9062C18.4558 12.7402 18.3825 12.6133 18.2361 12.5254C18.0993 12.4375 17.9431 12.3398 17.7673 12.2324C17.5915 12.125 17.4304 11.9883 17.2839 11.8223C17.1472 11.6562 17.0788 11.417 17.0788 11.1045C17.0788 10.8799 17.1374 10.6553 17.2546 10.4307C17.3816 10.2061 17.5622 10.001 17.7966 9.81543C18.3728 9.38574 18.9685 9 19.5837 8.6582C20.2087 8.31641 20.8288 8.02832 21.4441 7.79395C22.0691 7.55957 22.6843 7.37891 23.2898 7.25195C23.8952 7.125 24.4763 7.06152 25.0329 7.06152C25.9704 7.06152 26.8493 7.2373 27.6697 7.58887C28.4997 7.93066 29.2175 8.4043 29.823 9.00977C30.4382 9.60547 30.9216 10.3086 31.2732 11.1191C31.6345 11.9199 31.8152 12.7793 31.8152 13.6973C31.8152 14.5957 31.6247 15.4502 31.2439 16.2607C30.8728 17.0615 30.3699 17.7646 29.7351 18.3701C29.1003 18.9756 28.3532 19.4541 27.4939 19.8057C26.6443 20.167 25.7458 20.3477 24.7986 20.3477C23.8708 20.3477 23.0115 20.1914 22.2204 19.8789C21.4294 19.5664 20.7458 19.1367 20.1697 18.5898C19.5935 18.0332 19.1443 17.3789 18.822 16.627C18.4997 15.8652 18.3386 15.0352 18.3386 14.1367ZM25.1208 17.7109C25.531 17.7109 25.9558 17.6279 26.3952 17.4619C26.8347 17.2959 27.2351 17.0566 27.5964 16.7441C27.9675 16.4219 28.2702 16.0312 28.5046 15.5723C28.7488 15.1133 28.8708 14.5957 28.8708 14.0195C28.8708 13.4336 28.7634 12.8867 28.5486 12.3789C28.3337 11.8711 28.0359 11.4316 27.655 11.0605C27.2839 10.6797 26.8396 10.3818 26.322 10.167C25.8142 9.95215 25.2624 9.84473 24.6667 9.84473C23.5827 9.84473 22.7527 10.1279 22.1765 10.6943C21.6003 11.251 21.3122 12.1104 21.3122 13.2725C21.3122 13.9072 21.405 14.498 21.5906 15.0449C21.7859 15.582 22.0544 16.0508 22.3962 16.4512C22.738 16.8418 23.1384 17.1494 23.5974 17.374C24.0661 17.5986 24.574 17.7109 25.1208 17.7109ZM37.3816 6.28516C38.0359 6.28516 38.7097 6.37305 39.4031 6.54883C40.0964 6.71484 40.7312 6.93457 41.3074 7.20801C41.8835 7.47168 42.3572 7.76953 42.7282 8.10156C43.0993 8.43359 43.2849 8.75586 43.2849 9.06836C43.2849 9.22461 43.2165 9.40039 43.0798 9.5957C42.9431 9.78125 42.7771 9.96191 42.5818 10.1377C42.3865 10.3037 42.1716 10.4453 41.9372 10.5625C41.7126 10.6699 41.5124 10.7236 41.3366 10.7236C41.1023 10.7236 40.8386 10.626 40.5456 10.4307C40.2624 10.2354 39.945 10.0205 39.5935 9.78613C39.2517 9.54199 38.8757 9.32227 38.4656 9.12695C38.0554 8.93164 37.6111 8.83398 37.1325 8.83398C36.82 8.83398 36.5613 8.91211 36.3562 9.06836C36.1609 9.21484 36.0632 9.4248 36.0632 9.69824C36.0632 9.94238 36.1804 10.1914 36.4148 10.4453C36.6491 10.6895 36.9568 10.9434 37.3376 11.207C37.7282 11.4707 38.1677 11.749 38.656 12.042C39.1443 12.335 39.6423 12.6475 40.1501 12.9795C40.6677 13.3115 41.1706 13.6729 41.6589 14.0635C42.1472 14.4541 42.5818 14.8789 42.9626 15.3379C43.3532 15.7969 43.6657 16.2998 43.9001 16.8467C44.1345 17.3838 44.2517 17.9697 44.2517 18.6045C44.2517 19.1514 44.154 19.6494 43.9587 20.0986C43.7634 20.5479 43.4851 20.9336 43.1238 21.2559C42.7624 21.5781 42.3327 21.8271 41.8347 22.0029C41.3366 22.1787 40.7898 22.2666 40.1941 22.2666C39.4421 22.2666 38.7488 22.1494 38.114 21.915C37.4792 21.6904 36.9324 21.3779 36.4734 20.9775C36.0144 20.5771 35.6531 20.0986 35.3894 19.542C35.1355 18.9854 35.0085 18.375 35.0085 17.7109C35.0085 16.8516 35.1599 16.2266 35.4626 15.8359C35.7751 15.4453 36.2634 15.25 36.9275 15.25C37.3376 15.25 37.6648 15.3281 37.9089 15.4844C38.1531 15.6406 38.2751 15.8311 38.2751 16.0557C38.2751 16.1729 38.2556 16.2949 38.2165 16.4219C38.1775 16.5391 38.1335 16.666 38.0847 16.8027C38.0456 16.9297 38.0066 17.0664 37.9675 17.2129C37.9382 17.3594 37.9236 17.5059 37.9236 17.6523C37.9236 17.9062 37.9822 18.1504 38.0993 18.3848C38.2165 18.6191 38.3728 18.8242 38.5681 19C38.7732 19.1855 39.0075 19.332 39.2712 19.4395C39.5349 19.5469 39.8132 19.6006 40.1062 19.6006C40.8874 19.6006 41.2781 19.2783 41.2781 18.6338C41.2781 18.126 41.0779 17.6475 40.6775 17.1982C40.2771 16.7393 39.7741 16.2949 39.1687 15.8652C38.5632 15.4258 37.9089 14.9863 37.2058 14.5469C36.5124 14.1074 35.863 13.6484 35.2575 13.1699C34.6521 12.6914 34.1491 12.1836 33.7488 11.6465C33.3484 11.0996 33.1482 10.5088 33.1482 9.87402C33.1482 9.34668 33.2556 8.86328 33.4704 8.42383C33.695 7.98437 33.9978 7.6084 34.3786 7.2959C34.7595 6.97363 35.2038 6.72461 35.7116 6.54883C36.2292 6.37305 36.7859 6.28516 37.3816 6.28516ZM46.1413 2.08105C46.1413 1.56348 46.2878 1.20215 46.5808 0.99707C46.8738 0.782227 47.3572 0.674805 48.031 0.674805C48.2751 0.674805 48.4802 0.699219 48.6462 0.748047C48.822 0.787109 48.9685 0.865234 49.0857 0.982422C49.2126 1.09961 49.3103 1.25586 49.3786 1.45117C49.4568 1.63672 49.5202 1.87598 49.5691 2.16895C49.6863 3.07715 49.8132 4.01465 49.9499 4.98145C50.0964 5.94824 50.2478 6.91992 50.404 7.89648C50.4626 8.33594 50.6921 8.55566 51.0925 8.55566C51.1999 8.55566 51.3757 8.5459 51.6199 8.52637C51.8738 8.49707 52.1716 8.46777 52.5134 8.43848C52.8552 8.39941 53.2214 8.36035 53.612 8.32129C54.0124 8.28223 54.4079 8.24805 54.7986 8.21875C55.199 8.17969 55.5749 8.15039 55.9265 8.13086C56.2878 8.10156 56.6052 8.08691 56.8786 8.08691C57.0935 8.08691 57.2644 8.13086 57.3913 8.21875C57.5183 8.29687 57.6159 8.4043 57.6843 8.54102C57.7624 8.66797 57.8113 8.81445 57.8308 8.98047C57.8601 9.13672 57.8747 9.29785 57.8747 9.46387C57.8747 9.61035 57.8454 9.76172 57.7868 9.91797C57.738 10.0742 57.6648 10.2158 57.5671 10.3428C57.4792 10.46 57.3669 10.5576 57.2302 10.6357C57.0935 10.7139 56.9372 10.7529 56.7615 10.7529C55.9118 10.7529 55.0525 10.7822 54.1833 10.8408C53.324 10.8896 52.4646 10.958 51.6052 11.0459C51.1657 11.1045 50.946 11.3242 50.946 11.7051C50.946 11.7344 50.9509 11.7734 50.9607 11.8223C50.9704 11.8613 50.9753 11.8955 50.9753 11.9248C51.0925 12.7744 51.1999 13.5703 51.2976 14.3125C51.405 15.0547 51.4929 15.7187 51.5613 16.3047C51.6394 16.8809 51.698 17.3643 51.737 17.7549C51.7859 18.1357 51.8103 18.3896 51.8103 18.5166C51.8103 18.8682 51.7761 19.1611 51.7077 19.3955C51.6394 19.6396 51.5271 19.835 51.3708 19.9814C51.2146 20.1377 51.0046 20.2451 50.7409 20.3037C50.487 20.3721 50.1648 20.4062 49.7741 20.4062C49.4031 20.4062 49.1296 20.3184 48.9538 20.1426C48.7781 19.9668 48.6804 19.6982 48.6609 19.3369C48.6023 18.1846 48.5095 17.0273 48.3825 15.8652C48.2556 14.6934 48.1091 13.5264 47.9431 12.3643C47.8552 11.9443 47.6355 11.7344 47.2839 11.7344C47.2546 11.7344 47.2204 11.7393 47.1814 11.749C47.1423 11.7588 47.1081 11.7637 47.0788 11.7637C46.4734 11.9004 45.9021 12.0371 45.365 12.1738C44.8279 12.3105 44.3249 12.457 43.8562 12.6133C43.5925 12.7012 43.3581 12.7646 43.1531 12.8037C42.948 12.833 42.7624 12.8477 42.5964 12.8477C42.3718 12.8477 42.2058 12.75 42.0984 12.5547C41.9909 12.3496 41.9372 12.0957 41.9372 11.793C41.9372 11.6855 41.947 11.5635 41.9665 11.4268C41.9861 11.2803 42.0251 11.1387 42.0837 11.002C42.1325 10.8555 42.2107 10.7236 42.3181 10.6064C42.4157 10.4795 42.5525 10.377 42.7282 10.2988C43.1384 10.1328 43.6853 9.96191 44.3689 9.78613C45.0525 9.60059 45.824 9.42969 46.6833 9.27344C46.8786 9.22461 47.03 9.14648 47.1374 9.03906C47.2546 8.92187 47.3132 8.75098 47.3132 8.52637C47.3132 8.47754 47.3132 8.42871 47.3132 8.37988C47.3132 8.32129 47.3034 8.2627 47.2839 8.2041C47.1277 7.30566 46.9763 6.49023 46.8298 5.75781C46.6931 5.01562 46.571 4.38086 46.4636 3.85352C46.3659 3.32617 46.2878 2.91113 46.2292 2.6084C46.1706 2.30566 46.1413 2.12988 46.1413 2.08105ZM63.4118 6.00684C63.4118 5.38184 63.7488 5.00098 64.4226 4.86426L65.0525 4.74707C65.1208 4.72754 65.1794 4.71777 65.2282 4.71777C65.2868 4.71777 65.3406 4.71777 65.3894 4.71777C65.9851 4.71777 66.3366 5.05957 66.4441 5.74316C66.4831 6.0752 66.532 6.49512 66.5906 7.00293C66.6491 7.51074 66.7224 8.06738 66.8103 8.67285C66.9079 9.27832 67.0154 9.91309 67.1325 10.5771C67.2595 11.2412 67.4011 11.8955 67.5574 12.54C67.7136 13.1748 67.8894 13.7803 68.0847 14.3564C68.28 14.9326 68.4997 15.4404 68.7439 15.8799C68.988 16.3193 69.2517 16.6709 69.5349 16.9346C69.8279 17.1885 70.1452 17.3154 70.487 17.3154C70.7312 17.3154 70.9753 17.2422 71.2195 17.0957C71.4734 16.9492 71.7224 16.7588 71.9665 16.5244C72.2107 16.2803 72.445 16.0068 72.6697 15.7041C72.8943 15.4014 73.0993 15.0937 73.2849 14.7812C73.4704 14.4687 73.6365 14.1709 73.7829 13.8877C73.9392 13.5947 74.0613 13.3408 74.1491 13.126C74.2077 12.9404 74.237 12.7695 74.237 12.6133C74.237 12.5352 74.2322 12.457 74.2224 12.3789C74.2126 12.3008 74.198 12.2178 74.1784 12.1299C73.9929 11.5244 73.8513 10.9189 73.7536 10.3135C73.656 9.70801 73.6072 9.05371 73.6072 8.35059C73.6072 7.94043 73.6413 7.53516 73.7097 7.13477C73.7781 6.73437 73.8952 6.36816 74.0613 6.03613C74.1491 5.86035 74.281 5.70898 74.4568 5.58203C74.6325 5.45508 74.823 5.35254 75.0281 5.27441C75.2429 5.19629 75.4626 5.14258 75.6872 5.11328C75.9216 5.07422 76.1365 5.05469 76.3318 5.05469C76.5466 5.05469 76.7419 5.09863 76.9177 5.18652C77.0935 5.26465 77.2497 5.40137 77.3865 5.59668C77.6599 5.96777 77.8503 6.39258 77.9577 6.87109C78.0749 7.34961 78.1335 7.83301 78.1335 8.32129C78.1335 8.84863 78.0847 9.39062 77.987 9.94727C77.8894 10.4941 77.7722 11.041 77.6355 11.5879C77.5671 11.7246 77.5329 11.876 77.5329 12.042C77.5329 12.1201 77.5427 12.2031 77.5622 12.291C77.5915 12.3789 77.6257 12.4766 77.6648 12.584C77.8406 13.043 78.0456 13.5117 78.28 13.9902C78.5241 14.459 78.8025 14.8838 79.115 15.2646C79.4275 15.6455 79.779 15.958 80.1697 16.2021C80.5603 16.4463 81.0046 16.5684 81.5027 16.5684C81.9421 16.5684 82.3376 16.3828 82.6892 16.0117C83.0407 15.6406 83.3337 15.1719 83.5681 14.6055C83.8122 14.0391 83.9978 13.4238 84.1247 12.7598C84.2517 12.0859 84.3152 11.4463 84.3152 10.8408C84.3152 10.1963 84.2907 9.56152 84.2419 8.93652C84.1931 8.31152 84.1296 7.73535 84.0515 7.20801C84.032 7.15918 84.0222 7.11035 84.0222 7.06152C84.0222 7.0127 84.0222 6.96387 84.0222 6.91504C84.0222 6.3584 84.32 5.97754 84.9157 5.77246L85.5749 5.55273C85.7605 5.49414 85.9314 5.46484 86.0876 5.46484C86.6052 5.46484 86.9177 5.78711 87.0251 6.43164C87.1325 7.03711 87.2156 7.64258 87.2741 8.24805C87.3425 8.85352 87.3767 9.45898 87.3767 10.0645C87.3767 11.3535 87.2253 12.5645 86.9226 13.6973C86.6199 14.8301 86.195 15.8213 85.6482 16.6709C85.1111 17.5107 84.4714 18.1748 83.7292 18.6631C82.987 19.1514 82.1716 19.3955 81.2829 19.3955C80.4138 19.3955 79.5398 19.1367 78.6609 18.6191C77.782 18.0918 76.9861 17.2568 76.2732 16.1143C76.1365 15.8604 75.9802 15.7334 75.8044 15.7334C75.6384 15.7334 75.487 15.8604 75.3503 16.1143C75.0085 16.7197 74.6325 17.2812 74.2224 17.7988C73.8122 18.3066 73.3777 18.7461 72.9187 19.1172C72.4597 19.4883 71.9812 19.7764 71.4831 19.9814C70.9851 20.1865 70.4822 20.2891 69.9743 20.2891C69.154 20.2891 68.4314 20.0645 67.8064 19.6152C67.1911 19.1758 66.654 18.585 66.195 17.8428C65.7458 17.1006 65.365 16.251 65.0525 15.2939C64.74 14.3271 64.4763 13.3262 64.2615 12.291C64.0564 11.2461 63.8855 10.2012 63.7488 9.15625C63.6218 8.11133 63.5095 7.13477 63.4118 6.22656V6.00684ZM91.8591 4.05859C91.5759 4.05859 91.3074 4.01953 91.0534 3.94141C90.8093 3.85352 90.5945 3.73633 90.4089 3.58984C90.2331 3.43359 90.0915 3.25293 89.9841 3.04785C89.8767 2.84277 89.823 2.61816 89.823 2.37402C89.823 1.96387 89.9841 1.63184 90.3064 1.37793C90.6384 1.12402 91.0779 0.99707 91.6247 0.99707C91.8786 0.99707 92.1228 1.0459 92.3572 1.14355C92.5915 1.23145 92.7966 1.35352 92.9724 1.50977C93.1579 1.66602 93.3044 1.85156 93.4118 2.06641C93.5193 2.27148 93.573 2.48633 93.573 2.71094C93.573 3.13086 93.4167 3.46289 93.1042 3.70703C92.8015 3.94141 92.3865 4.05859 91.8591 4.05859ZM89.8523 8.52637C89.8523 8.18457 89.9988 7.90625 90.2917 7.69141C90.5945 7.4668 90.99 7.35449 91.4782 7.35449C92.3572 7.35449 92.8259 7.65723 92.8845 8.2627C92.9236 8.68262 92.9626 9.15625 93.0017 9.68359C93.0505 10.2109 93.0945 10.7725 93.1335 11.3682C93.1824 11.9541 93.2214 12.5645 93.2507 13.1992C93.2898 13.8242 93.324 14.4443 93.3532 15.0596C93.3825 15.665 93.407 16.251 93.4265 16.8174C93.446 17.3838 93.4558 17.9014 93.4558 18.3701C93.4558 18.8584 93.28 19.2246 92.9284 19.4687C92.5866 19.7129 92.0837 19.835 91.4197 19.835C91.1169 19.835 90.8777 19.7617 90.7019 19.6152C90.5359 19.4785 90.4529 19.2734 90.4529 19C90.4529 17.6523 90.4187 16.3926 90.3503 15.2207C90.2917 14.0391 90.2234 12.9893 90.1452 12.0713C90.0769 11.1533 90.0085 10.3916 89.9402 9.78613C89.8816 9.1709 89.8523 8.75098 89.8523 8.52637ZM97.5281 2.08105C97.5281 1.56348 97.6745 1.20215 97.9675 0.99707C98.2605 0.782227 98.7439 0.674805 99.4177 0.674805C99.6618 0.674805 99.8669 0.699219 100.033 0.748047C100.209 0.787109 100.355 0.865234 100.472 0.982422C100.599 1.09961 100.697 1.25586 100.765 1.45117C100.843 1.63672 100.907 1.87598 100.956 2.16895C101.073 3.07715 101.2 4.01465 101.337 4.98145C101.483 5.94824 101.634 6.91992 101.791 7.89648C101.849 8.33594 102.079 8.55566 102.479 8.55566C102.587 8.55566 102.762 8.5459 103.007 8.52637C103.26 8.49707 103.558 8.46777 103.9 8.43848C104.242 8.39941 104.608 8.36035 104.999 8.32129C105.399 8.28223 105.795 8.24805 106.185 8.21875C106.586 8.17969 106.962 8.15039 107.313 8.13086C107.675 8.10156 107.992 8.08691 108.265 8.08691C108.48 8.08691 108.651 8.13086 108.778 8.21875C108.905 8.29687 109.003 8.4043 109.071 8.54102C109.149 8.66797 109.198 8.81445 109.218 8.98047C109.247 9.13672 109.261 9.29785 109.261 9.46387C109.261 9.61035 109.232 9.76172 109.174 9.91797C109.125 10.0742 109.051 10.2158 108.954 10.3428C108.866 10.46 108.754 10.5576 108.617 10.6357C108.48 10.7139 108.324 10.7529 108.148 10.7529C107.299 10.7529 106.439 10.7822 105.57 10.8408C104.711 10.8896 103.851 10.958 102.992 11.0459C102.552 11.1045 102.333 11.3242 102.333 11.7051C102.333 11.7344 102.338 11.7734 102.347 11.8223C102.357 11.8613 102.362 11.8955 102.362 11.9248C102.479 12.7744 102.587 13.5703 102.684 14.3125C102.792 15.0547 102.88 15.7187 102.948 16.3047C103.026 16.8809 103.085 17.3643 103.124 17.7549C103.173 18.1357 103.197 18.3896 103.197 18.5166C103.197 18.8682 103.163 19.1611 103.094 19.3955C103.026 19.6396 102.914 19.835 102.758 19.9814C102.601 20.1377 102.391 20.2451 102.128 20.3037C101.874 20.3721 101.551 20.4062 101.161 20.4062C100.79 20.4062 100.516 20.3184 100.341 20.1426C100.165 19.9668 100.067 19.6982 100.048 19.3369C99.989 18.1846 99.8962 17.0273 99.7693 15.8652C99.6423 14.6934 99.4958 13.5264 99.3298 12.3643C99.2419 11.9443 99.0222 11.7344 98.6706 11.7344C98.6413 11.7344 98.6072 11.7393 98.5681 11.749C98.529 11.7588 98.4949 11.7637 98.4656 11.7637C97.8601 11.9004 97.2888 12.0371 96.7517 12.1738C96.2146 12.3105 95.7116 12.457 95.2429 12.6133C94.9792 12.7012 94.7449 12.7646 94.5398 12.8037C94.3347 12.833 94.1491 12.8477 93.9831 12.8477C93.7585 12.8477 93.5925 12.75 93.4851 12.5547C93.3777 12.3496 93.324 12.0957 93.324 11.793C93.324 11.6855 93.3337 11.5635 93.3532 11.4268C93.3728 11.2803 93.4118 11.1387 93.4704 11.002C93.5193 10.8555 93.5974 10.7236 93.7048 10.6064C93.8025 10.4795 93.9392 10.377 94.115 10.2988C94.5251 10.1328 95.072 9.96191 95.7556 9.78613C96.4392 9.60059 97.2107 9.42969 98.07 9.27344C98.2654 9.22461 98.4167 9.14648 98.5241 9.03906C98.6413 8.92187 98.6999 8.75098 98.6999 8.52637C98.6999 8.47754 98.6999 8.42871 98.6999 8.37988C98.6999 8.32129 98.6902 8.2627 98.6706 8.2041C98.5144 7.30566 98.363 6.49023 98.2165 5.75781C98.0798 5.01562 97.9577 4.38086 97.8503 3.85352C97.7527 3.32617 97.6745 2.91113 97.6159 2.6084C97.5574 2.30566 97.5281 2.12988 97.5281 2.08105ZM108.002 4.89355C108.002 3.83887 108.685 3.31152 110.052 3.31152C110.287 3.31152 110.492 3.375 110.668 3.50195C110.843 3.62891 110.946 3.80469 110.975 4.0293C111.063 4.625 111.141 5.21582 111.21 5.80176C111.278 6.3877 111.342 7.04687 111.4 7.7793C111.468 8.50195 111.532 9.3418 111.591 10.2988C111.659 11.2461 111.732 12.3789 111.81 13.6973C111.81 13.834 111.83 13.9316 111.869 13.9902C111.918 14.0488 111.971 14.0781 112.03 14.0781C112.118 14.0781 112.206 13.9902 112.294 13.8145C112.626 13.082 112.997 12.4277 113.407 11.8516C113.817 11.2656 114.257 10.7725 114.725 10.3721C115.194 9.96191 115.687 9.6543 116.205 9.44922C116.732 9.23437 117.269 9.12695 117.816 9.12695C118.539 9.12695 119.193 9.33203 119.779 9.74219C120.365 10.1523 120.863 10.7334 121.273 11.4854C121.683 12.2373 122.001 13.1504 122.225 14.2246C122.45 15.2891 122.562 16.4805 122.562 17.7988C122.562 18.1602 122.533 18.458 122.474 18.6924C122.426 18.917 122.338 19.0977 122.211 19.2344C122.084 19.3711 121.908 19.4639 121.683 19.5127C121.459 19.5713 121.18 19.6006 120.848 19.6006C120.389 19.6006 120.057 19.5127 119.852 19.3369C119.657 19.1611 119.559 18.8877 119.559 18.5166C119.559 17.5986 119.496 16.7344 119.369 15.9238C119.252 15.1035 119.086 14.3857 118.871 13.7705C118.656 13.1553 118.402 12.667 118.109 12.3057C117.826 11.9443 117.518 11.7637 117.186 11.7637C116.434 11.7637 115.682 12.374 114.93 13.5947C114.188 14.8154 113.412 16.6562 112.601 19.1172C112.523 19.3418 112.435 19.5273 112.338 19.6738C112.24 19.8203 112.123 19.9375 111.986 20.0254C111.859 20.1133 111.703 20.1719 111.517 20.2012C111.332 20.2402 111.112 20.2598 110.858 20.2598C110.341 20.2598 109.969 20.1621 109.745 19.9668C109.53 19.7715 109.413 19.4492 109.393 19C109.335 17.3008 109.227 15.6797 109.071 14.1367C108.925 12.584 108.768 11.1826 108.602 9.93262C108.446 8.67285 108.304 7.6084 108.177 6.73926C108.06 5.86035 108.002 5.24512 108.002 4.89355ZM32.9431 36.3965C32.9138 36.3965 32.865 36.4014 32.7966 36.4111C32.738 36.4209 32.6697 36.4307 32.5915 36.4404C32.5232 36.4502 32.4548 36.46 32.3865 36.4697C32.3181 36.4795 32.2644 36.4844 32.2253 36.4844C31.9519 36.4844 31.7126 36.3721 31.5075 36.1475C31.3025 35.9131 31.1999 35.6055 31.1999 35.2246C31.1999 34.9707 31.2829 34.7266 31.449 34.4922C31.615 34.2578 31.8738 34.0625 32.2253 33.9062C32.3327 33.8574 32.4157 33.8037 32.4743 33.7451C32.5427 33.6768 32.5769 33.584 32.5769 33.4668C32.5769 33.1543 32.5671 32.8223 32.5476 32.4707C32.5378 32.1094 32.5183 31.6895 32.489 31.2109C32.4792 31.1133 32.445 31.0205 32.3865 30.9326C32.3376 30.8447 32.279 30.7471 32.2107 30.6396C32.1521 30.5225 32.0984 30.3955 32.0495 30.2588C32.0007 30.1221 31.9763 29.9512 31.9763 29.7461C31.9763 29.5605 32.0007 29.3506 32.0495 29.1162C32.1081 28.8721 32.2204 28.6475 32.3865 28.4424C32.5622 28.2275 32.8015 28.0518 33.1042 27.915C33.4167 27.7686 33.822 27.6953 34.32 27.6953C34.5251 27.6953 34.696 27.7148 34.8327 27.7539C34.9695 27.793 35.0866 27.8418 35.1843 27.9004C35.2917 27.9492 35.3845 27.9932 35.4626 28.0322C35.5505 28.0713 35.6384 28.0908 35.7263 28.0908C35.8825 28.0908 36.195 28.0615 36.6638 28.0029C37.1325 27.9443 37.6941 27.8613 38.3484 27.7539C39.0124 27.6465 39.74 27.5244 40.531 27.3877C41.3318 27.251 42.1423 27.1045 42.9626 26.9482C43.7829 26.7822 44.5837 26.6162 45.365 26.4502C46.1462 26.2842 46.8542 26.123 47.489 25.9668C47.6843 25.918 47.8552 25.8936 48.0017 25.8936C48.2068 25.8936 48.3679 25.9424 48.4851 26.04C48.612 26.1279 48.7048 26.2402 48.7634 26.377C48.822 26.5137 48.8562 26.6699 48.8659 26.8457C48.8855 27.0117 48.8952 27.168 48.8952 27.3145C48.8952 27.5684 48.8074 27.8076 48.6316 28.0322C48.4656 28.2471 48.1872 28.418 47.7966 28.5449C46.8298 28.8281 45.8532 29.0771 44.8669 29.292C43.8904 29.4971 42.904 29.6875 41.9079 29.8633C40.9118 30.0293 39.9109 30.1807 38.905 30.3174C37.8991 30.4541 36.8982 30.5908 35.9021 30.7275C35.7654 30.7471 35.6628 30.8008 35.5945 30.8887C35.5261 30.9668 35.4919 31.0742 35.4919 31.2109V31.8115C35.4919 31.9775 35.4968 32.1484 35.5066 32.3242C35.5163 32.5 35.5359 32.6611 35.5652 32.8076C35.6042 32.9541 35.6531 33.0762 35.7116 33.1738C35.7702 33.2617 35.8484 33.3057 35.946 33.3057C36.1804 33.3057 36.5417 33.2568 37.03 33.1592C37.5281 33.0615 38.0847 32.9443 38.6999 32.8076C39.3249 32.6611 39.9743 32.5049 40.6482 32.3389C41.3318 32.1631 41.9763 32.0068 42.5818 31.8701C43.1872 31.7236 43.7195 31.6016 44.1784 31.5039C44.6374 31.4062 44.9597 31.3574 45.1452 31.3574C45.4187 31.3574 45.6238 31.46 45.7605 31.665C45.907 31.8604 46.0046 32.1094 46.0534 32.4121C46.0534 32.4609 46.0583 32.5049 46.0681 32.5439C46.0779 32.583 46.0827 32.627 46.0827 32.6758C46.0827 32.959 45.9949 33.2227 45.8191 33.4668C45.6531 33.7012 45.3503 33.877 44.9109 33.9941C44.7937 34.0332 44.5593 34.0967 44.2077 34.1846C43.8562 34.2627 43.4411 34.3604 42.9626 34.4775C42.4841 34.585 41.9665 34.7021 41.4099 34.8291C40.8532 34.9561 40.3064 35.083 39.7693 35.21C39.2322 35.3271 38.7292 35.4443 38.2605 35.5615C37.8015 35.6689 37.4255 35.7568 37.1325 35.8252C36.8689 35.8936 36.7077 35.9473 36.6491 35.9863C36.6003 36.0254 36.5759 36.0742 36.5759 36.1328C36.5954 36.3477 36.7029 36.5479 36.8982 36.7334C37.1032 36.9189 37.3572 37.0898 37.6599 37.2461C37.9724 37.4023 38.3191 37.5439 38.6999 37.6709C39.0906 37.7979 39.4909 37.9053 39.9011 37.9932C40.321 38.0713 40.7312 38.1348 41.1316 38.1836C41.532 38.2324 41.9031 38.2568 42.2449 38.2568C42.3913 38.2568 42.6013 38.2568 42.8747 38.2568C43.1482 38.2568 43.446 38.252 43.7683 38.2422C44.1003 38.2227 44.4372 38.1982 44.779 38.1689C45.1306 38.1396 45.4431 38.1006 45.7165 38.0518C45.9997 37.9932 46.2292 37.9248 46.405 37.8467C46.5906 37.7588 46.6833 37.6562 46.6833 37.5391C46.6833 37.4316 46.6443 37.3193 46.5661 37.2021C46.4978 37.085 46.4636 36.958 46.4636 36.8213C46.4636 36.626 46.5173 36.4355 46.6247 36.25C46.7322 36.0547 46.8689 35.8838 47.0349 35.7373C47.2107 35.5811 47.406 35.459 47.6208 35.3711C47.8454 35.2734 48.07 35.2246 48.2947 35.2246C48.5779 35.2246 48.8366 35.2832 49.071 35.4004C49.3054 35.5078 49.5056 35.6543 49.6716 35.8398C49.8474 36.0156 49.9792 36.2207 50.0671 36.4551C50.1648 36.6895 50.2136 36.9287 50.2136 37.1729C50.2136 37.8174 49.9743 38.374 49.4958 38.8428C49.0271 39.3115 48.4118 39.6973 47.6501 40C46.8884 40.3125 46.029 40.542 45.072 40.6885C44.115 40.8447 43.1531 40.9229 42.1863 40.9229C41.0534 40.9229 40.0183 40.8447 39.0808 40.6885C38.1433 40.542 37.3034 40.3027 36.5613 39.9707C35.8191 39.6387 35.1794 39.209 34.6423 38.6816C34.1052 38.1445 33.6657 37.4951 33.324 36.7334C33.2068 36.5088 33.0798 36.3965 32.9431 36.3965ZM59.7058 27.1973C60.2429 27.1973 60.7605 27.2803 61.2585 27.4463C61.7566 27.6123 62.196 27.8418 62.5769 28.1348C62.9577 28.4277 63.2605 28.7793 63.4851 29.1895C63.7195 29.5996 63.8366 30.0537 63.8366 30.5518C63.8366 30.7568 63.7878 30.957 63.6902 31.1523C63.6023 31.3379 63.4802 31.5039 63.324 31.6504C63.1677 31.7871 62.987 31.8994 62.782 31.9873C62.5866 32.0654 62.3816 32.1045 62.1667 32.1045C62.1472 32.1045 62.1277 32.1094 62.1081 32.1191C62.0984 32.1191 62.0837 32.1191 62.0642 32.1191C62.0447 32.1289 62.0251 32.1338 62.0056 32.1338L62.0642 33.3057C62.1032 34.7021 62.2986 35.7227 62.6501 36.3672C63.0115 37.0117 63.4802 37.334 64.0564 37.334C64.2615 37.334 64.4421 37.3145 64.5984 37.2754C64.7644 37.2363 64.9157 37.1924 65.0525 37.1436C65.199 37.085 65.3357 37.0361 65.4626 36.9971C65.5896 36.958 65.7165 36.9385 65.8435 36.9385C66.0681 36.9385 66.2634 37.0361 66.4294 37.2314C66.6052 37.4268 66.6931 37.6611 66.6931 37.9346C66.6931 38.208 66.5857 38.4814 66.3708 38.7549C66.1657 39.0283 65.8923 39.2773 65.5505 39.502C65.2087 39.7168 64.823 39.8926 64.3933 40.0293C63.9636 40.166 63.529 40.2344 63.0896 40.2344C62.3279 40.2344 61.6589 39.9219 61.0827 39.2969C60.5066 38.6621 60.0964 37.7344 59.8523 36.5137C59.7937 36.3184 59.7156 36.2207 59.6179 36.2207C59.5007 36.2207 59.3982 36.2793 59.3103 36.3965C58.3435 37.6172 57.3132 38.5352 56.2195 39.1504C55.1257 39.7559 54.0466 40.0586 52.9822 40.0586C52.4841 40.0586 52.0349 39.9854 51.6345 39.8389C51.2341 39.6924 50.8923 39.4873 50.6091 39.2236C50.3357 38.9502 50.1208 38.623 49.9646 38.2422C49.8181 37.8516 49.7449 37.417 49.7449 36.9385C49.7449 36.2646 49.8913 35.5566 50.1843 34.8145C50.487 34.0723 50.8923 33.3398 51.4001 32.6172C51.9079 31.8945 52.4939 31.2061 53.1579 30.5518C53.8318 29.8975 54.5349 29.3213 55.2673 28.8232C56.0095 28.3252 56.7615 27.9297 57.5232 27.6367C58.2849 27.3437 59.0124 27.1973 59.7058 27.1973ZM59.2224 32.2656C59.3982 31.9336 59.5593 31.6943 59.7058 31.5479C59.8523 31.3916 60.0622 31.2891 60.3357 31.2402C60.5505 31.2109 60.6579 31.1426 60.6579 31.0352C60.6579 30.957 60.6286 30.874 60.57 30.7861C60.3845 30.5322 60.1892 30.3125 59.9841 30.127C59.779 29.9316 59.5056 29.834 59.1638 29.834C58.7927 29.834 58.3777 29.9414 57.9187 30.1562C57.4597 30.3711 56.9909 30.6592 56.5124 31.0205C56.0437 31.3721 55.5798 31.7773 55.1208 32.2363C54.6716 32.6855 54.2712 33.1494 53.9197 33.6279C53.5681 34.1064 53.2849 34.5801 53.07 35.0488C52.8552 35.5176 52.7478 35.9375 52.7478 36.3086C52.7478 36.6406 52.8357 36.8994 53.0115 37.085C53.197 37.2705 53.446 37.3633 53.7585 37.3633C54.5593 37.3633 55.4333 36.9385 56.3806 36.0889C57.3279 35.2393 58.2751 33.9648 59.2224 32.2656ZM70.824 27.2852C71.4782 27.2852 72.1521 27.373 72.8454 27.5488C73.5388 27.7148 74.1736 27.9346 74.7497 28.208C75.3259 28.4717 75.7995 28.7695 76.1706 29.1016C76.5417 29.4336 76.7273 29.7559 76.7273 30.0684C76.7273 30.2246 76.6589 30.4004 76.5222 30.5957C76.3855 30.7812 76.2195 30.9619 76.0241 31.1377C75.8288 31.3037 75.614 31.4453 75.3796 31.5625C75.155 31.6699 74.9548 31.7236 74.779 31.7236C74.5447 31.7236 74.281 31.626 73.988 31.4307C73.7048 31.2354 73.3874 31.0205 73.0359 30.7861C72.6941 30.542 72.3181 30.3223 71.9079 30.127C71.4978 29.9316 71.0534 29.834 70.5749 29.834C70.2624 29.834 70.0036 29.9121 69.7986 30.0684C69.6032 30.2148 69.5056 30.4248 69.5056 30.6982C69.5056 30.9424 69.6228 31.1914 69.8572 31.4453C70.0915 31.6895 70.3991 31.9434 70.78 32.207C71.1706 32.4707 71.6101 32.749 72.0984 33.042C72.5866 33.335 73.0847 33.6475 73.5925 33.9795C74.1101 34.3115 74.613 34.6729 75.1013 35.0635C75.5896 35.4541 76.0241 35.8789 76.405 36.3379C76.7956 36.7969 77.1081 37.2998 77.3425 37.8467C77.5769 38.3838 77.6941 38.9697 77.6941 39.6045C77.6941 40.1514 77.5964 40.6494 77.4011 41.0986C77.2058 41.5479 76.9275 41.9336 76.5661 42.2559C76.2048 42.5781 75.7751 42.8271 75.2771 43.0029C74.779 43.1787 74.2322 43.2666 73.6365 43.2666C72.8845 43.2666 72.1911 43.1494 71.5564 42.915C70.9216 42.6904 70.3747 42.3779 69.9157 41.9775C69.4568 41.5771 69.0954 41.0986 68.8318 40.542C68.5779 39.9854 68.4509 39.375 68.4509 38.7109C68.4509 37.8516 68.6023 37.2266 68.905 36.8359C69.2175 36.4453 69.7058 36.25 70.3699 36.25C70.78 36.25 71.1072 36.3281 71.3513 36.4844C71.5954 36.6406 71.7175 36.8311 71.7175 37.0557C71.7175 37.1729 71.698 37.2949 71.6589 37.4219C71.6199 37.5391 71.5759 37.666 71.5271 37.8027C71.488 37.9297 71.449 38.0664 71.4099 38.2129C71.3806 38.3594 71.3659 38.5059 71.3659 38.6523C71.3659 38.9062 71.4245 39.1504 71.5417 39.3848C71.6589 39.6191 71.8152 39.8242 72.0105 40C72.2156 40.1855 72.4499 40.332 72.7136 40.4395C72.9773 40.5469 73.2556 40.6006 73.5486 40.6006C74.3298 40.6006 74.7204 40.2783 74.7204 39.6338C74.7204 39.126 74.5202 38.6475 74.1199 38.1982C73.7195 37.7393 73.2165 37.2949 72.6111 36.8652C72.0056 36.4258 71.3513 35.9863 70.6482 35.5469C69.9548 35.1074 69.3054 34.6484 68.6999 34.1699C68.0945 33.6914 67.5915 33.1836 67.1911 32.6465C66.7907 32.0996 66.5906 31.5088 66.5906 30.874C66.5906 30.3467 66.698 29.8633 66.9128 29.4238C67.1374 28.9844 67.4402 28.6084 67.821 28.2959C68.2019 27.9736 68.6462 27.7246 69.154 27.5488C69.6716 27.373 70.2282 27.2852 70.824 27.2852ZM90.6872 36.792C90.9704 36.5479 91.2488 36.4258 91.5222 36.4258C91.6784 36.4258 91.82 36.4648 91.947 36.543C92.074 36.6211 92.2156 36.7432 92.3718 36.9092C92.5183 37.1338 92.6208 37.3193 92.6794 37.4658C92.7478 37.6025 92.782 37.7393 92.782 37.876C92.782 38.1689 92.6355 38.4473 92.3425 38.7109C91.8738 39.1016 91.3659 39.4531 90.8191 39.7656C90.2722 40.0684 89.7009 40.3271 89.1052 40.542C88.5095 40.7568 87.8943 40.918 87.2595 41.0254C86.6247 41.1426 85.9949 41.2012 85.3699 41.2012C84.5788 41.2012 83.8366 41.0986 83.1433 40.8936C82.4499 40.6982 81.8298 40.415 81.2829 40.0439C80.7458 39.6729 80.2917 39.2285 79.9206 38.7109C79.5495 38.1836 79.2859 37.5928 79.1296 36.9385C79.0417 36.665 78.9587 36.4893 78.8806 36.4111C78.8122 36.3232 78.695 36.2793 78.529 36.2793C78.1677 36.2793 77.8894 36.1914 77.6941 36.0156C77.4988 35.8398 77.4011 35.5859 77.4011 35.2539C77.4011 35.1172 77.4109 35.0293 77.4304 34.9902L77.4597 34.6973C77.5085 34.3457 77.6013 34.0918 77.738 33.9355C77.8845 33.7793 78.1091 33.7012 78.4118 33.7012H78.6316C79.0417 33.7012 79.3298 33.5107 79.4958 33.1299C79.7986 32.4561 80.1843 31.8408 80.6531 31.2842C81.1218 30.7275 81.6491 30.2539 82.2351 29.8633C82.821 29.4629 83.446 29.1553 84.1101 28.9404C84.7839 28.7158 85.4675 28.6035 86.1609 28.6035C86.8835 28.6035 87.5574 28.7109 88.1824 28.9258C88.8171 29.1309 89.3689 29.4189 89.8376 29.79C90.3064 30.1611 90.6726 30.5957 90.9363 31.0937C91.2097 31.5918 91.3464 32.1289 91.3464 32.7051C91.3464 33.1055 91.2683 33.4717 91.112 33.8037C90.9558 34.1357 90.7312 34.4287 90.4382 34.6826C90.1452 34.9268 89.7888 35.127 89.3689 35.2832C88.9587 35.4395 88.49 35.542 87.9626 35.5908L82.8796 36.1035C82.6843 36.1035 82.5232 36.1523 82.3962 36.25C82.279 36.3477 82.2204 36.4795 82.2204 36.6455C82.2204 36.8994 82.3132 37.1436 82.4988 37.3779C82.6941 37.6123 82.948 37.8223 83.2605 38.0078C83.5827 38.1836 83.949 38.3252 84.3591 38.4326C84.779 38.54 85.2087 38.5937 85.6482 38.5937C86.0681 38.5937 86.4978 38.5547 86.9372 38.4766C87.3865 38.3887 87.8259 38.2666 88.2556 38.1104C88.695 37.9541 89.1199 37.7686 89.53 37.5537C89.9402 37.3291 90.3259 37.0752 90.6872 36.792ZM87.4206 33.0127C87.5671 32.9834 87.6941 32.915 87.8015 32.8076C87.9089 32.6904 87.9626 32.5488 87.9626 32.3828C87.9626 32.2363 87.9089 32.0996 87.8015 31.9727C87.6941 31.8457 87.5476 31.7334 87.362 31.6357C87.1765 31.5283 86.9616 31.4453 86.7175 31.3867C86.4734 31.3281 86.2146 31.2988 85.9411 31.2988C85.5407 31.2988 85.1306 31.3574 84.7107 31.4746C84.2907 31.5918 83.9099 31.748 83.5681 31.9434C83.2263 32.1289 82.948 32.3389 82.7331 32.5732C82.5183 32.7979 82.4109 33.0225 82.4109 33.2471C82.4109 33.4717 82.5476 33.584 82.821 33.584C82.987 33.584 83.2556 33.5645 83.6267 33.5254C83.9978 33.4863 84.4079 33.4424 84.8572 33.3936C85.3064 33.335 85.7605 33.2715 86.2195 33.2031C86.6784 33.1348 87.0788 33.0713 87.4206 33.0127Z" fill="#4378FF"/>
</svg>
