<svg width="458" height="142" viewBox="0 0 458 142" fill="none" xmlns="http://www.w3.org/2000/svg">
<path fill-rule="evenodd" clip-rule="evenodd" d="M17.306 45.9668H36.3438L17.306 26.3633V45.9668ZM0.933472 26.9514H11.5946V53.2201L61.2835 104.385H86.7941V115.363H0.933472V26.9514ZM62.616 51.8479H18.4483L62.616 97.328V51.8479ZM86.6038 98.7003H68.3274V79.8809L86.6038 98.7003ZM133.794 55.5339C131.375 55.5339 129.386 54.8185 127.828 53.3885C126.322 51.9033 125.57 50.0881 125.57 47.9429C125.57 45.7426 126.322 43.9274 127.828 42.4973C129.386 41.0121 131.375 40.2695 133.794 40.2695C136.159 40.2695 138.095 41.0121 139.6 42.4973C141.159 43.9274 141.938 45.7426 141.938 47.9429C141.938 50.0881 141.159 51.9033 139.6 53.3885C138.095 54.8185 136.159 55.5339 133.794 55.5339ZM140.648 60.3193V106.36H126.86V60.3193H140.648ZM176.443 59.8242C181.711 59.8242 185.904 61.5845 189.022 65.1047C192.193 68.5701 193.779 73.3558 193.779 79.4615V106.36H180.071V81.3592C180.071 78.2789 179.292 75.8859 177.733 74.1808C176.174 72.4756 174.078 71.6231 171.444 71.6231C168.81 71.6231 166.713 72.4756 165.154 74.1808C163.595 75.8859 162.816 78.2789 162.816 81.3592V106.36H149.028V60.3193H162.816V66.425C164.213 64.3896 166.095 62.7946 168.46 61.6395C170.826 60.4294 173.486 59.8242 176.443 59.8242ZM226.825 106.36V94.3957H221.906C220.401 94.3957 219.326 94.0931 218.681 93.4879C218.036 92.883 217.713 91.8929 217.713 90.5175V72.0356H226.744V60.3193H217.713V49.098H203.925V60.3193H198.442V72.0356H203.925V90.3526C203.925 96.0183 205.322 100.116 208.118 102.647C210.913 105.122 214.81 106.36 219.81 106.36H226.825ZM275.305 82.5968C275.305 83.9171 275.224 85.2921 275.063 86.7222H243.858C244.073 89.5825 244.96 91.7827 246.519 93.323C248.132 94.8082 250.094 95.5508 252.405 95.5508C255.846 95.5508 258.238 94.0656 259.582 91.0952H274.257C273.504 94.1207 272.134 96.8435 270.145 99.2637C268.21 101.684 265.764 103.582 262.807 104.957C259.851 106.332 256.544 107.02 252.889 107.02C248.481 107.02 244.557 106.057 241.117 104.132C237.676 102.207 234.989 99.4562 233.053 95.8809C231.118 92.3053 230.151 88.1248 230.151 83.3394C230.151 78.5537 231.091 74.3735 232.973 70.7979C234.908 67.2226 237.596 64.4722 241.036 62.5471C244.477 60.6219 248.427 59.6593 252.889 59.6593C257.243 59.6593 261.114 60.5943 264.5 62.4645C267.887 64.3349 270.521 67.0026 272.402 70.4681C274.337 73.9332 275.305 77.9763 275.305 82.5968ZM261.194 78.8839C261.194 76.4636 260.388 74.5384 258.775 73.1083C257.163 71.6782 255.147 70.9629 252.728 70.9629C250.416 70.9629 248.454 71.6507 246.842 73.0257C245.283 74.4008 244.315 76.3535 243.939 78.8839H261.194ZM300.803 62.052C298.382 63.4821 296.366 65.4624 294.754 67.9928V60.3193H280.966V106.36H294.754V84.9895C294.754 81.1942 295.615 78.5537 297.335 77.0688C299.055 75.5285 301.634 74.7584 305.077 74.7584H308.866V59.8242C305.908 59.8242 303.221 60.5668 300.803 62.052ZM336.421 72.0356H329.001V106.36H315.214V72.0356H310.214V60.3193H315.214V58.999C315.214 53.3335 316.801 49.043 319.972 46.1277C323.143 43.1574 327.794 41.6722 333.92 41.6722C334.942 41.6722 335.696 41.6997 336.178 41.7547V53.7185C333.544 53.5535 331.691 53.9386 330.616 54.8736C329.539 55.8087 329.001 57.4866 329.001 59.9068V60.3193H336.421V72.0356ZM349.835 104.132C353.383 106.057 357.36 107.02 361.767 107.02C366.176 107.02 370.153 106.057 373.701 104.132C377.302 102.207 380.124 99.4562 382.168 95.8809C384.265 92.2503 385.312 88.07 385.312 83.3394C385.312 78.6088 384.29 74.4558 382.249 70.8805C380.205 67.2502 377.41 64.4722 373.862 62.5471C370.314 60.6219 366.337 59.6593 361.927 59.6593C357.521 59.6593 353.544 60.6219 349.996 62.5471C346.448 64.4722 343.653 67.2502 341.609 70.8805C339.568 74.4558 338.546 78.6088 338.546 83.3394C338.546 88.1248 339.54 92.3053 341.529 95.8809C343.57 99.4562 346.34 102.207 349.835 104.132ZM368.461 91.8378C366.633 93.8181 364.401 94.8082 361.767 94.8082C359.133 94.8082 356.928 93.8181 355.156 91.8378C353.436 89.8576 352.574 87.0248 352.574 83.3394C352.574 79.5989 353.463 76.7662 355.236 74.841C357.011 72.8608 359.241 71.8706 361.927 71.8706C364.561 71.8706 366.766 72.8608 368.542 74.841C370.37 76.8213 371.281 79.654 371.281 83.3394C371.281 87.0248 370.342 89.8576 368.461 91.8378ZM404.802 45.3026V106.36H391.015V45.3026H404.802ZM413.02 70.7979C411.3 74.3735 410.441 78.5265 410.441 83.2568C410.441 87.9874 411.3 92.1679 413.02 95.7983C414.795 99.3736 417.186 102.152 420.196 104.132C423.207 106.057 426.567 107.02 430.275 107.02C433.449 107.02 436.216 106.36 438.582 105.039C441 103.719 442.855 101.959 444.146 99.7588V106.36H457.933V45.3026H444.146V66.6725C442.747 64.5273 440.811 62.8221 438.341 61.5569C435.92 60.2918 433.233 59.6593 430.275 59.6593C426.567 59.6593 423.207 60.6219 420.196 62.5471C417.186 64.4722 414.795 67.2226 413.02 70.7979ZM441.243 75.006C443.177 77.0413 444.146 79.8189 444.146 83.3394C444.146 86.8596 443.177 89.6376 441.243 91.6729C439.36 93.7079 437.05 94.7256 434.308 94.7256C431.566 94.7256 429.228 93.7079 427.292 91.6729C425.412 89.5825 424.47 86.7773 424.47 83.2568C424.47 79.7366 425.412 76.9862 427.292 75.006C429.228 72.9706 431.566 71.953 434.308 71.953C437.05 71.953 439.36 72.9706 441.243 75.006Z" fill="#191919"/>
</svg>
