<svg width="403" height="142" viewBox="0 0 403 142" fill="none" xmlns="http://www.w3.org/2000/svg">
<path fill-rule="evenodd" clip-rule="evenodd" d="M8.48847 21.1274C0.834961 29.2227 0.834961 41.9363 0.834961 67.3633V74.3633C0.834961 99.7903 0.834961 112.504 8.48847 120.599C8.84821 120.98 9.21854 121.35 9.59905 121.71C17.6944 129.363 30.4079 129.363 55.835 129.363C81.262 129.363 93.9755 129.363 102.071 121.71C102.451 121.35 102.822 120.98 103.181 120.599C110.835 112.504 110.835 99.7903 110.835 74.3633V67.3633C110.835 41.9363 110.835 29.2227 103.181 21.1274C102.822 20.7469 102.451 20.3765 102.071 20.0168C93.9755 12.3633 81.262 12.3633 55.835 12.3633C30.4079 12.3633 17.6944 12.3633 9.59905 20.0168C9.21854 20.3765 8.84821 20.7469 8.48847 21.1274ZM31.0244 37.8633C31.0244 36.7587 31.9198 35.8633 33.0244 35.8633H40.5244C47.428 35.8633 53.0244 41.4597 53.0244 48.3633V101.863C53.0244 104.072 51.2336 105.863 49.0244 105.863H42.0244C35.9493 105.863 31.0244 100.938 31.0244 94.8633V37.8633ZM81.0244 80.8633C82.6813 80.8633 84.0244 82.2064 84.0244 83.8633V93.3633C84.0244 100.267 78.428 105.863 71.5244 105.863H60.0244C58.3676 105.863 57.0244 104.52 57.0244 102.863V83.8633C57.0244 82.2064 58.3676 80.8633 60.0244 80.8633H81.0244Z" fill="#191919"/>
<path d="M152.957 97.2095V38.3063H167.23V97.2095H152.957ZM155.455 97.2095V85.1611H190.424V97.2095H155.455Z" fill="#191919"/>
<path d="M217.822 98.459C213.064 98.459 208.901 97.5368 205.332 95.6923C201.764 93.8479 198.969 91.0812 196.947 87.3923C194.984 83.7034 194.003 79.0923 194.003 73.559C194.003 67.9661 195.014 63.355 197.036 59.7256C199.058 56.0963 201.853 53.3891 205.422 51.6041C209.049 49.7597 213.183 48.8375 217.822 48.8375C222.579 48.8375 226.742 49.7597 230.311 51.6041C233.938 53.4486 236.734 56.1855 238.696 59.8149C240.718 63.4443 241.729 68.0256 241.729 73.559C241.729 79.2708 240.689 83.9712 238.607 87.6601C236.525 91.3489 233.671 94.0859 230.043 95.8708C226.475 97.5963 222.401 98.459 217.822 98.459ZM218.178 88.017C219.546 88.017 220.765 87.7791 221.836 87.3031C222.966 86.8271 223.917 86.0834 224.691 85.0719C225.523 84.0604 226.177 82.692 226.653 80.9665C227.129 79.1816 227.367 77.0396 227.367 74.5407C227.367 71.8038 227.099 69.5131 226.564 67.6687C226.029 65.8242 225.315 64.307 224.423 63.117C223.531 61.9271 222.49 61.0941 221.301 60.6181C220.111 60.0826 218.803 59.8149 217.376 59.8149C216.127 59.8149 214.937 60.0529 213.807 60.5289C212.737 60.9454 211.785 61.6891 210.953 62.7601C210.179 63.7715 209.555 65.1697 209.079 66.9547C208.603 68.6801 208.366 70.8518 208.366 73.4697C208.366 76.1472 208.603 78.4378 209.079 80.3418C209.614 82.1862 210.328 83.6737 211.22 84.8041C212.172 85.9346 213.212 86.7676 214.342 87.3031C215.532 87.7791 216.811 88.017 218.178 88.017Z" fill="#191919"/>
<path d="M268.197 113.363C263.083 113.363 258.89 112.947 255.619 112.114C252.408 111.34 250.029 110.18 248.483 108.633C246.936 107.086 246.163 105.182 246.163 102.921C246.163 100.244 247.234 98.0425 249.375 96.317C251.516 94.5916 254.638 93.6099 258.741 93.3719V91.5869C255.589 91.5869 253.151 91.2597 251.426 90.6052C249.702 89.8912 248.839 88.6418 248.839 86.8568C248.839 85.1909 249.672 83.7034 251.337 82.3945C253.062 81.026 255.827 80.0145 259.634 79.3601V77.6644C256.065 77.2479 253.24 75.9687 251.159 73.8267C249.077 71.6848 248.037 68.9181 248.037 65.5267C248.037 62.5518 248.869 59.8744 250.534 57.4945C252.2 55.055 254.668 53.1213 257.939 51.6934C261.21 50.2654 265.283 49.5515 270.16 49.5515H293.979V60.3504L279.259 58.2977V60.3504C283.184 60.8859 285.95 61.8378 287.556 63.2063C289.221 64.5153 290.053 66.2705 290.053 68.4719C290.053 70.8518 289.251 72.964 287.645 74.8084C286.099 76.6529 283.868 78.1106 280.954 79.1816C278.04 80.193 274.531 80.6988 270.428 80.6988C269.655 80.6988 268.792 80.669 267.841 80.6095C266.949 80.55 265.462 80.4013 263.38 80.1633C262.429 80.9368 261.685 81.5912 261.15 82.1267C260.674 82.6622 260.436 83.1679 260.436 83.6439C260.436 84.0009 260.585 84.2984 260.882 84.5364C261.18 84.7149 261.596 84.8636 262.131 84.9826C262.667 85.1016 263.261 85.1611 263.916 85.1611H277.743C278.932 85.1611 280.478 85.2504 282.382 85.4289C284.344 85.5479 286.277 85.9941 288.18 86.7676C290.083 87.5411 291.689 88.7905 292.997 90.516C294.365 92.1819 295.049 94.5916 295.049 97.745C295.049 101.255 294.068 104.171 292.105 106.491C290.143 108.812 287.169 110.537 283.184 111.668C279.259 112.798 274.264 113.363 268.197 113.363ZM269.803 101.85C273.193 101.85 275.81 101.672 277.654 101.315C279.497 101.017 280.776 100.482 281.489 99.7084C282.203 98.9945 282.56 98.0722 282.56 96.9418C282.56 95.9303 282.352 95.1271 281.935 94.5321C281.519 93.9371 280.984 93.5206 280.33 93.2826C279.676 93.0446 278.992 92.8959 278.278 92.8364C277.624 92.7769 277.059 92.7472 276.583 92.7472H265.521C263.38 92.8662 261.804 93.4016 260.793 94.3536C259.842 95.3056 259.366 96.4658 259.366 97.8343C259.366 98.9052 259.723 99.7382 260.436 100.333C261.15 100.928 262.25 101.315 263.737 101.493C265.283 101.731 267.305 101.85 269.803 101.85ZM269.536 73.3805C271.914 73.3805 273.699 72.726 274.888 71.417C276.137 70.0486 276.761 68.3231 276.761 66.2407C276.761 63.9798 276.137 62.1353 274.888 60.7074C273.639 59.2794 271.855 58.5654 269.536 58.5654C267.216 58.5654 265.402 59.2794 264.094 60.7074C262.786 62.1353 262.131 63.9798 262.131 66.2407C262.131 67.6092 262.399 68.8586 262.934 69.9891C263.529 71.0601 264.362 71.893 265.432 72.488C266.562 73.083 267.93 73.3805 269.536 73.3805Z" fill="#191919"/>
<path d="M302.348 97.2095V50.0869H316.621V97.2095H302.348ZM309.574 43.8396C306.838 43.8396 304.727 43.2744 303.24 42.1439C301.813 41.0135 301.099 39.3773 301.099 37.2353C301.099 34.9744 301.813 33.2787 303.24 32.1482C304.727 30.9583 306.838 30.3633 309.574 30.3633C312.369 30.3633 314.48 30.9583 315.908 32.1482C317.335 33.2787 318.049 34.9744 318.049 37.2353C318.049 39.3773 317.335 41.0135 315.908 42.1439C314.48 43.2744 312.369 43.8396 309.574 43.8396Z" fill="#191919"/>
<path d="M345.375 98.3697C342.758 98.3697 340.439 98.0127 338.417 97.2988C336.454 96.6443 334.789 95.5733 333.421 94.0859C332.053 92.5984 331.012 90.6945 330.299 88.374C329.644 86.0536 329.317 83.2572 329.317 79.9848V61.2429H322.984L323.162 50.2654H327.355C329.496 50.2654 331.042 49.9382 331.994 49.2837C333.005 48.6292 333.659 47.4393 333.956 45.7138L335.027 39.7342H343.055V50.0869H354.117V61.6891H343.055V79.1816C343.055 81.502 343.62 83.0787 344.75 83.9117C345.94 84.7446 347.337 85.1611 348.943 85.1611C350.014 85.1611 351.025 85.0421 351.976 84.8041C352.928 84.5661 353.731 84.2687 354.385 83.9117V97.031C352.601 97.626 350.935 97.983 349.389 98.102C347.902 98.2805 346.564 98.3697 345.375 98.3697Z" fill="#191919"/>
<path d="M381.547 98.459C378.336 98.459 375.451 98.1615 372.894 97.5665C370.337 96.9715 368.136 96.1088 366.293 94.9783C364.449 93.7884 362.962 92.3902 361.832 90.7837C360.702 89.1773 359.959 87.3923 359.602 85.4289L370.575 81.3235C370.931 82.3945 371.586 83.4654 372.537 84.5364C373.489 85.6074 374.767 86.4998 376.373 87.2138C378.038 87.8683 380.06 88.1955 382.439 88.1955C384.699 88.1955 386.483 87.8683 387.792 87.2138C389.1 86.4998 389.754 85.4884 389.754 84.1794C389.754 83.2274 389.368 82.454 388.595 81.859C387.881 81.264 386.781 80.7285 385.294 80.2525C383.867 79.7765 382.082 79.3303 379.941 78.9138C377.681 78.3783 375.422 77.7834 373.162 77.1289C370.902 76.4744 368.79 75.6117 366.828 74.5407C364.925 73.4102 363.379 71.9525 362.189 70.1676C361 68.3826 360.405 66.1515 360.405 63.474C360.405 60.4991 361.178 57.9407 362.724 55.7988C364.271 53.6568 366.531 51.9611 369.504 50.7117C372.537 49.4622 376.224 48.8375 380.566 48.8375C384.432 48.8375 387.851 49.373 390.825 50.4439C393.798 51.4554 396.237 52.9429 398.14 54.9063C400.043 56.8102 401.292 59.1604 401.887 61.9568L390.29 65.5267C390.052 64.2773 389.516 63.1765 388.684 62.2246C387.851 61.2131 386.751 60.4694 385.383 59.9934C384.075 59.4579 382.469 59.1902 380.566 59.1902C378.365 59.1902 376.67 59.5472 375.481 60.2611C374.292 60.9751 373.697 61.8973 373.697 63.0278C373.697 63.9798 374.083 64.783 374.857 65.4375C375.689 66.0325 376.879 66.5679 378.425 67.0439C380.031 67.4604 381.904 67.9067 384.045 68.3826C386.364 68.8586 388.624 69.4239 390.825 70.0783C393.085 70.7328 395.136 71.5955 396.98 72.6665C398.824 73.7375 400.281 75.1357 401.351 76.8611C402.422 78.5271 402.957 80.669 402.957 83.2869C402.957 86.3808 402.124 89.088 400.459 91.4084C398.853 93.6694 396.445 95.4246 393.233 96.674C390.081 97.864 386.186 98.459 381.547 98.459Z" fill="#191919"/>
</svg>
