<svg width="166" height="142" viewBox="0 0 166 142" fill="none" xmlns="http://www.w3.org/2000/svg">
<path d="M29.9126 88.082V53.3609L65.4005 18.0105C65.5197 17.8921 65.6809 17.8257 65.8489 17.8257C66.017 17.8257 66.1782 17.8921 66.2974 18.0105L83.3469 35.06C83.535 35.2433 83.7231 35.2433 83.9111 35.06L101.011 18.0467C101.06 17.9981 101.117 17.9596 101.18 17.9333C101.244 17.907 101.312 17.8935 101.38 17.8935C101.449 17.8935 101.517 17.907 101.58 17.9333C101.643 17.9596 101.701 17.9981 101.749 18.0467L136.007 52.2759C136.12 52.3881 136.209 52.5213 136.27 52.6678C136.331 52.8143 136.362 52.9712 136.362 53.1294L136.369 88.7258C136.369 89.0537 136.253 89.3358 136.022 89.5721L101.872 123.729C101.763 123.839 101.614 123.901 101.458 123.901C101.302 123.901 101.152 123.839 101.04 123.729L83.6724 106.397C83.6251 106.351 83.5615 106.325 83.4952 106.325C83.4289 106.325 83.3653 106.351 83.318 106.397L66.1238 123.678C65.902 123.895 65.6826 123.895 65.4656 123.678L29.9126 88.082ZM66.3658 53.5656C66.2426 53.442 66.0753 53.3723 65.9007 53.372C65.7262 53.3717 65.5586 53.4408 65.435 53.564L48.5776 70.3627C48.4539 70.4859 48.3843 70.6532 48.384 70.8278C48.3836 71.0024 48.4527 71.1699 48.5759 71.2936L65.4767 88.2534C65.5999 88.3771 65.7672 88.4467 65.9418 88.447C66.1164 88.4473 66.2839 88.3783 66.4076 88.255L83.265 71.4564C83.3886 71.3332 83.4583 71.1659 83.4586 70.9913C83.4589 70.8167 83.3898 70.6492 83.2666 70.5255L66.3658 53.5656ZM118.849 70.7913C118.867 70.7738 118.88 70.7531 118.89 70.7303C118.899 70.7074 118.904 70.683 118.904 70.6583C118.904 70.6336 118.899 70.6091 118.89 70.5863C118.88 70.5635 118.866 70.5428 118.849 70.5254L101.602 53.3386C101.585 53.3212 101.564 53.3074 101.541 53.298C101.518 53.2886 101.494 53.2838 101.469 53.2838C101.444 53.2839 101.42 53.2888 101.397 53.2983C101.374 53.3078 101.353 53.3216 101.336 53.3391L83.8533 70.8831C83.8358 70.9006 83.822 70.9213 83.8126 70.9441C83.8032 70.967 83.7984 70.9914 83.7984 71.0161C83.7984 71.0408 83.8033 71.0653 83.8128 71.0881C83.8223 71.1109 83.8362 71.1316 83.8537 71.149L101.1 88.3358C101.118 88.3532 101.139 88.367 101.162 88.3764C101.184 88.3858 101.209 88.3906 101.234 88.3906C101.258 88.3906 101.283 88.3856 101.306 88.3761C101.328 88.3667 101.349 88.3528 101.366 88.3353L118.849 70.7913Z" fill="#161616"/>
</svg>
