<svg width="478" height="143" viewBox="0 0 478 143" fill="none" xmlns="http://www.w3.org/2000/svg">
<path fill-rule="evenodd" clip-rule="evenodd" d="M6.96729 60.6476C6.96729 46.9167 13.7532 34.7722 24.1513 27.3923V19.1341C9.72928 27.3356 0 42.8527 0 60.6476C0 84.7573 17.8671 104.691 41.0655 107.903C53.6738 109.22 64.4505 113.212 75.1357 124.06L80.448 118.398C67.4618 107.054 60.1378 103.562 41.8952 100.977C22.1518 98.1743 6.96729 81.1843 6.96729 60.6476" fill="#191919"/>
<path fill-rule="evenodd" clip-rule="evenodd" d="M51.6641 80.4104C60.9589 78.5327 68.0116 70.267 68.0116 60.4314V40.0529H61.1622V60.4314C61.1622 67.8529 55.0707 73.9505 47.6553 73.9505C40.2429 73.9505 34.1529 67.8529 34.1529 60.4314V40.0529H27.3013V60.4314C27.3013 70.618 34.8655 79.116 44.6454 80.5859C45.0497 87.863 49.0487 94.4591 55.308 98.1812C66.3287 104.73 75.9756 100.89 83.8603 91.6811C90.9998 83.3382 95.3125 72.5017 95.3125 60.6545C95.3125 42.8596 85.5839 27.3425 71.1635 19.141V27.3985C81.5585 34.7761 88.3459 46.9236 88.3459 60.6545C88.3459 70.823 84.6235 80.1214 78.4685 87.2623C72.8403 93.7866 66.8048 96.4745 59.0297 91.8551C54.9143 89.4101 52.1878 85.1705 51.6641 80.4104" fill="#191919"/>
<path fill-rule="evenodd" clip-rule="evenodd" d="M45.0374 13.3404H50.2886V18.7155H55.6584V23.9718H50.2886V29.3462H45.0374V23.9718H39.6699V18.7155H45.0374V13.3404Z" fill="#191919"/>
<path fill-rule="evenodd" clip-rule="evenodd" d="M66.4407 16.7884C65.6298 11.5101 62.626 6.93015 58.4049 4.01072C58.1441 2.21171 56.5973 0.83029 54.73 0.83029C52.6791 0.83029 51.0151 2.49615 51.0151 4.55163C51.0151 6.60408 52.6791 8.27072 54.73 8.27072C55.3965 8.27072 56.0192 8.0952 56.561 7.78729C58.9754 9.60522 60.8245 12.1419 61.7872 15.0704C62.2633 16.5221 62.521 18.07 62.521 19.6708V22.7158V32.9123V38.6929H66.6606V32.9123V24.6177V19.6708C66.6606 18.6926 66.585 17.728 66.4407 16.7884Z" fill="#191919"/>
<path fill-rule="evenodd" clip-rule="evenodd" d="M82.3188 118.291L75.106 125.973L82.8932 133.304C82.637 135.888 83.5362 138.56 85.5781 140.48C89.0579 143.754 94.5297 143.588 97.8018 140.101C101.075 136.616 100.907 131.136 97.4239 127.862C95.3897 125.942 92.6708 125.207 90.106 125.622L82.3188 118.291V118.291ZM87.1461 130.072C89.4078 127.664 93.1899 127.545 95.593 129.811C97.9983 132.076 98.1162 135.86 95.8544 138.265C93.595 140.673 89.8106 140.79 87.4068 138.528C85.0022 136.264 84.8851 132.479 87.1461 130.072" fill="#191919"/>
<path fill-rule="evenodd" clip-rule="evenodd" d="M28.6592 32.9123V38.6929H32.7972V19.6708C32.7972 18.07 33.0557 16.5221 33.5333 15.0704C34.4945 12.1419 36.3451 9.60522 38.758 7.78729C39.3006 8.0952 39.9255 8.27072 40.5905 8.27072C42.6429 8.27072 44.3054 6.60408 44.3054 4.55163C44.3054 2.49615 42.6429 0.83029 40.5905 0.83029C38.721 0.83029 37.1748 2.21171 36.9149 4.01072C32.6907 6.93015 29.6907 11.5101 28.8791 16.7884C28.7348 17.728 28.6592 18.6926 28.6592 19.6708V24.6177V32.9123Z" fill="#191919"/>
<path d="M164.2 35.046V68.4796C164.2 78.4828 159.037 84.5706 149.96 84.5706C140.882 84.5706 134.886 78.9848 134.886 68.4796V35.046H123.977V68.4796C123.977 86.0707 135.885 94.5737 149.876 94.5737C164.533 94.5737 175.109 85.7371 175.109 68.4796V35.046H164.2Z" fill="#191919"/>
<path d="M183.342 52.2126V93.3135H193.502V71.6377C193.502 64.0516 198.416 61.2147 203.744 61.2147C207.078 61.2147 208.993 62.1336 211.075 63.8833L215.655 55.0476C213.406 52.7949 209.325 51.1284 205.079 51.1284C200.915 51.1284 196.667 51.878 193.502 56.9647L192.754 52.2126H183.342" fill="#191919"/>
<path d="M274.29 67.9786C275.789 62.6423 280.285 59.9727 285.782 59.9727C291.611 59.9727 295.776 62.6423 296.442 67.9786H274.29V67.9786ZM238.231 60.1411C232.317 60.1411 227.488 64.5594 227.488 71.7295C227.488 78.9006 232.317 83.1507 238.231 83.1507C252.407 83.1507 252.156 60.1411 238.231 60.1411ZM248.639 50.8855H258.801C258.801 67.4864 258.801 74.9511 258.801 91.5558C258.801 113.934 227.64 113.939 218.65 102.232C221.257 99.1663 222.305 97.8158 224.734 94.8742C225.495 95.6424 228.013 97.353 229.066 97.9401C236.173 101.917 248.639 101.488 248.639 91.5558C248.639 89.4596 248.619 92.4874 248.475 89.7033C242.494 94.1901 230.985 92.8348 225.027 88.5417C220.164 85.0354 217.41 79.2617 217.41 71.7295C217.41 58.8914 226.738 50.8855 238.231 50.8855C241.964 50.8855 245.539 52.0236 248.639 53.9515V50.8855V50.8855ZM306.187 76.3974C307.766 59.4707 299.19 50.9717 285.448 50.9717C272.124 50.9717 263.632 59.9727 263.632 72.4791C263.632 85.6529 272.042 94.4074 286.2 94.4074C292.443 94.4074 299.524 92.2379 303.855 87.7373L297.358 81.3158C295.027 83.7349 290.112 85.1519 286.364 85.1519C279.203 85.1519 274.79 81.4871 274.124 76.3974H306.187" fill="#191919"/>
<path d="M354.4 93.3135V71.7208C354.4 58.7976 346.655 51.5452 336.995 51.5452C331.833 51.5452 327.668 53.6287 323.504 57.7153L322.839 52.1275H313.762V93.3135H323.837V72.3051C323.837 66.0519 328.084 60.7988 334.33 60.7988C340.825 60.7988 344.24 65.5499 344.24 71.8031V93.3135H354.4Z" fill="#191919"/>
<path d="M365.564 41.7096V52.2979H357.903V61.0514H365.564V78.8089C365.564 89.0636 371.397 94.1493 380.305 93.8156C383.387 93.7325 385.802 93.2324 388.716 92.0659L385.885 83.3956C384.385 84.1452 382.555 84.6453 380.973 84.6453C377.809 84.6453 375.642 82.7272 375.642 78.8089V61.0514H387.051V52.2979H375.727V40.6253L365.564 41.7096" fill="#191919"/>
<path d="M406.369 93.3135V34.8701H395.462V93.3135H406.369" fill="#191919"/>
<path d="M460.516 74.3152L453.689 67.4826L445.975 75.2047L452.846 82.0842C450.34 83.3808 447.37 84.1402 443.93 84.1402C431.273 84.1402 424.944 73.8866 424.775 64.2973C424.609 54.4596 430.189 43.4543 443.93 43.4543C457.672 43.4543 462.586 53.6258 463.002 63.0467C463.16 66.873 462.332 70.8549 460.516 74.3152V74.3152ZM443.93 33.5334C423.444 33.5334 413.866 48.7906 413.951 64.0458C414.034 79.2209 423.193 94.3127 443.93 94.3127C450.51 94.3127 456.089 92.8115 460.502 89.9775L460.619 89.865L469.446 98.6987L477.156 90.9786L468.481 82.2917C472.184 76.8859 473.91 70.0094 473.827 63.3804C473.578 48.3737 464.416 33.5334 443.93 33.5334" fill="#191919"/>
</svg>
