<svg width="161" height="59" viewBox="0 0 161 59" fill="none" xmlns="http://www.w3.org/2000/svg">
<path d="M0.425781 5.00684C0.425781 4.38184 0.762695 4.00098 1.43652 3.86426L2.06641 3.74707C2.13477 3.72754 2.19336 3.71777 2.24219 3.71777C2.30078 3.71777 2.35449 3.71777 2.40332 3.71777C2.99902 3.71777 3.35059 4.05957 3.45801 4.74316C3.49707 5.0752 3.5459 5.49512 3.60449 6.00293C3.66309 6.51074 3.73633 7.06738 3.82422 7.67285C3.92188 8.27832 4.0293 8.91309 4.14648 9.57715C4.27344 10.2412 4.41504 10.8955 4.57129 11.54C4.72754 12.1748 4.90332 12.7803 5.09863 13.3564C5.29395 13.9326 5.51367 14.4404 5.75781 14.8799C6.00195 15.3193 6.26562 15.6709 6.54883 15.9346C6.8418 16.1885 7.15918 16.3154 7.50098 16.3154C7.74512 16.3154 7.98926 16.2422 8.2334 16.0957C8.4873 15.9492 8.73633 15.7588 8.98047 15.5244C9.22461 15.2803 9.45898 15.0068 9.68359 14.7041C9.9082 14.4014 10.1133 14.0938 10.2988 13.7812C10.4844 13.4688 10.6504 13.1709 10.7969 12.8877C10.9531 12.5947 11.0752 12.3408 11.1631 12.126C11.2217 11.9404 11.251 11.7695 11.251 11.6133C11.251 11.5352 11.2461 11.457 11.2363 11.3789C11.2266 11.3008 11.2119 11.2178 11.1924 11.1299C11.0068 10.5244 10.8652 9.91895 10.7676 9.31348C10.6699 8.70801 10.6211 8.05371 10.6211 7.35059C10.6211 6.94043 10.6553 6.53516 10.7236 6.13477C10.792 5.73438 10.9092 5.36816 11.0752 5.03613C11.1631 4.86035 11.2949 4.70898 11.4707 4.58203C11.6465 4.45508 11.8369 4.35254 12.042 4.27441C12.2568 4.19629 12.4766 4.14258 12.7012 4.11328C12.9355 4.07422 13.1504 4.05469 13.3457 4.05469C13.5605 4.05469 13.7559 4.09863 13.9316 4.18652C14.1074 4.26465 14.2637 4.40137 14.4004 4.59668C14.6738 4.96777 14.8643 5.39258 14.9717 5.87109C15.0889 6.34961 15.1475 6.83301 15.1475 7.32129C15.1475 7.84863 15.0986 8.39062 15.001 8.94727C14.9033 9.49414 14.7861 10.041 14.6494 10.5879C14.5811 10.7246 14.5469 10.876 14.5469 11.042C14.5469 11.1201 14.5566 11.2031 14.5762 11.291C14.6055 11.3789 14.6396 11.4766 14.6787 11.584C14.8545 12.043 15.0596 12.5117 15.2939 12.9902C15.5381 13.459 15.8164 13.8838 16.1289 14.2646C16.4414 14.6455 16.793 14.958 17.1836 15.2021C17.5742 15.4463 18.0186 15.5684 18.5166 15.5684C18.9561 15.5684 19.3516 15.3828 19.7031 15.0117C20.0547 14.6406 20.3477 14.1719 20.582 13.6055C20.8262 13.0391 21.0117 12.4238 21.1387 11.7598C21.2656 11.0859 21.3291 10.4463 21.3291 9.84082C21.3291 9.19629 21.3047 8.56152 21.2559 7.93652C21.207 7.31152 21.1436 6.73535 21.0654 6.20801C21.0459 6.15918 21.0361 6.11035 21.0361 6.06152C21.0361 6.0127 21.0361 5.96387 21.0361 5.91504C21.0361 5.3584 21.334 4.97754 21.9297 4.77246L22.5889 4.55273C22.7744 4.49414 22.9453 4.46484 23.1016 4.46484C23.6191 4.46484 23.9316 4.78711 24.0391 5.43164C24.1465 6.03711 24.2295 6.64258 24.2881 7.24805C24.3564 7.85352 24.3906 8.45898 24.3906 9.06445C24.3906 10.3535 24.2393 11.5645 23.9365 12.6973C23.6338 13.8301 23.209 14.8213 22.6621 15.6709C22.125 16.5107 21.4854 17.1748 20.7432 17.6631C20.001 18.1514 19.1855 18.3955 18.2969 18.3955C17.4277 18.3955 16.5537 18.1367 15.6748 17.6191C14.7959 17.0918 14 16.2568 13.2871 15.1143C13.1504 14.8604 12.9941 14.7334 12.8184 14.7334C12.6523 14.7334 12.501 14.8604 12.3643 15.1143C12.0225 15.7197 11.6465 16.2812 11.2363 16.7988C10.8262 17.3066 10.3916 17.7461 9.93262 18.1172C9.47363 18.4883 8.99512 18.7764 8.49707 18.9814C7.99902 19.1865 7.49609 19.2891 6.98828 19.2891C6.16797 19.2891 5.44531 19.0645 4.82031 18.6152C4.20508 18.1758 3.66797 17.585 3.20898 16.8428C2.75977 16.1006 2.37891 15.251 2.06641 14.2939C1.75391 13.3271 1.49023 12.3262 1.27539 11.291C1.07031 10.2461 0.899414 9.20117 0.762695 8.15625C0.635742 7.11133 0.523438 6.13477 0.425781 5.22656V5.00684ZM39.1416 14.792C39.4248 14.5479 39.7031 14.4258 39.9766 14.4258C40.1328 14.4258 40.2744 14.4648 40.4014 14.543C40.5283 14.6211 40.6699 14.7432 40.8262 14.9092C40.9727 15.1338 41.0752 15.3193 41.1338 15.4658C41.2021 15.6025 41.2363 15.7393 41.2363 15.876C41.2363 16.1689 41.0898 16.4473 40.7969 16.7109C40.3281 17.1016 39.8203 17.4531 39.2734 17.7656C38.7266 18.0684 38.1553 18.3271 37.5596 18.542C36.9639 18.7568 36.3486 18.918 35.7139 19.0254C35.0791 19.1426 34.4492 19.2012 33.8242 19.2012C33.0332 19.2012 32.291 19.0986 31.5977 18.8936C30.9043 18.6982 30.2842 18.415 29.7373 18.0439C29.2002 17.6729 28.7461 17.2285 28.375 16.7109C28.0039 16.1836 27.7402 15.5928 27.584 14.9385C27.4961 14.665 27.4131 14.4893 27.335 14.4111C27.2666 14.3232 27.1494 14.2793 26.9834 14.2793C26.6221 14.2793 26.3438 14.1914 26.1484 14.0156C25.9531 13.8398 25.8555 13.5859 25.8555 13.2539C25.8555 13.1172 25.8652 13.0293 25.8848 12.9902L25.9141 12.6973C25.9629 12.3457 26.0557 12.0918 26.1924 11.9355C26.3389 11.7793 26.5635 11.7012 26.8662 11.7012H27.0859C27.4961 11.7012 27.7842 11.5107 27.9502 11.1299C28.2529 10.4561 28.6387 9.84082 29.1074 9.28418C29.5762 8.72754 30.1035 8.25391 30.6895 7.86328C31.2754 7.46289 31.9004 7.15527 32.5645 6.94043C33.2383 6.71582 33.9219 6.60352 34.6152 6.60352C35.3379 6.60352 36.0117 6.71094 36.6367 6.92578C37.2715 7.13086 37.8232 7.41895 38.292 7.79004C38.7607 8.16113 39.127 8.5957 39.3906 9.09375C39.6641 9.5918 39.8008 10.1289 39.8008 10.7051C39.8008 11.1055 39.7227 11.4717 39.5664 11.8037C39.4102 12.1357 39.1855 12.4287 38.8926 12.6826C38.5996 12.9268 38.2432 13.127 37.8232 13.2832C37.4131 13.4395 36.9443 13.542 36.417 13.5908L31.334 14.1035C31.1387 14.1035 30.9775 14.1523 30.8506 14.25C30.7334 14.3477 30.6748 14.4795 30.6748 14.6455C30.6748 14.8994 30.7676 15.1436 30.9531 15.3779C31.1484 15.6123 31.4023 15.8223 31.7148 16.0078C32.0371 16.1836 32.4033 16.3252 32.8135 16.4326C33.2334 16.54 33.6631 16.5938 34.1025 16.5938C34.5225 16.5938 34.9521 16.5547 35.3916 16.4766C35.8408 16.3887 36.2803 16.2666 36.71 16.1104C37.1494 15.9541 37.5742 15.7686 37.9844 15.5537C38.3945 15.3291 38.7803 15.0752 39.1416 14.792ZM35.875 11.0127C36.0215 10.9834 36.1484 10.915 36.2559 10.8076C36.3633 10.6904 36.417 10.5488 36.417 10.3828C36.417 10.2363 36.3633 10.0996 36.2559 9.97266C36.1484 9.8457 36.002 9.7334 35.8164 9.63574C35.6309 9.52832 35.416 9.44531 35.1719 9.38672C34.9277 9.32812 34.6689 9.29883 34.3955 9.29883C33.9951 9.29883 33.585 9.35742 33.165 9.47461C32.7451 9.5918 32.3643 9.74805 32.0225 9.94336C31.6807 10.1289 31.4023 10.3389 31.1875 10.5732C30.9727 10.7979 30.8652 11.0225 30.8652 11.2471C30.8652 11.4717 31.002 11.584 31.2754 11.584C31.4414 11.584 31.71 11.5645 32.0811 11.5254C32.4521 11.4863 32.8623 11.4424 33.3115 11.3936C33.7607 11.335 34.2148 11.2715 34.6738 11.2031C35.1328 11.1348 35.5332 11.0713 35.875 11.0127ZM58.4922 5.19727C59.0293 5.19727 59.5469 5.28027 60.0449 5.44629C60.543 5.6123 60.9824 5.8418 61.3633 6.13477C61.7441 6.42773 62.0469 6.7793 62.2715 7.18945C62.5059 7.59961 62.623 8.05371 62.623 8.55176C62.623 8.75684 62.5742 8.95703 62.4766 9.15234C62.3887 9.33789 62.2666 9.50391 62.1104 9.65039C61.9541 9.78711 61.7734 9.89941 61.5684 9.9873C61.373 10.0654 61.168 10.1045 60.9531 10.1045C60.9336 10.1045 60.9141 10.1094 60.8945 10.1191C60.8848 10.1191 60.8701 10.1191 60.8506 10.1191C60.8311 10.1289 60.8115 10.1338 60.792 10.1338L60.8506 11.3057C60.8896 12.7021 61.085 13.7227 61.4365 14.3672C61.7979 15.0117 62.2666 15.334 62.8428 15.334C63.0479 15.334 63.2285 15.3145 63.3848 15.2754C63.5508 15.2363 63.7021 15.1924 63.8389 15.1436C63.9854 15.085 64.1221 15.0361 64.249 14.9971C64.376 14.958 64.5029 14.9385 64.6299 14.9385C64.8545 14.9385 65.0498 15.0361 65.2158 15.2314C65.3916 15.4268 65.4795 15.6611 65.4795 15.9346C65.4795 16.208 65.3721 16.4814 65.1572 16.7549C64.9521 17.0283 64.6787 17.2773 64.3369 17.502C63.9951 17.7168 63.6094 17.8926 63.1797 18.0293C62.75 18.166 62.3154 18.2344 61.876 18.2344C61.1143 18.2344 60.4453 17.9219 59.8691 17.2969C59.293 16.6621 58.8828 15.7344 58.6387 14.5137C58.5801 14.3184 58.502 14.2207 58.4043 14.2207C58.2871 14.2207 58.1846 14.2793 58.0967 14.3965C57.1299 15.6172 56.0996 16.5352 55.0059 17.1504C53.9121 17.7559 52.833 18.0586 51.7686 18.0586C51.2705 18.0586 50.8213 17.9854 50.4209 17.8389C50.0205 17.6924 49.6787 17.4873 49.3955 17.2236C49.1221 16.9502 48.9072 16.623 48.751 16.2422C48.6045 15.8516 48.5312 15.417 48.5312 14.9385C48.5312 14.2646 48.6777 13.5566 48.9707 12.8145C49.2734 12.0723 49.6787 11.3398 50.1865 10.6172C50.6943 9.89453 51.2803 9.20605 51.9443 8.55176C52.6182 7.89746 53.3213 7.32129 54.0537 6.82324C54.7959 6.3252 55.5479 5.92969 56.3096 5.63672C57.0713 5.34375 57.7988 5.19727 58.4922 5.19727ZM58.0088 10.2656C58.1846 9.93359 58.3457 9.69434 58.4922 9.54785C58.6387 9.3916 58.8486 9.28906 59.1221 9.24023C59.3369 9.21094 59.4443 9.14258 59.4443 9.03516C59.4443 8.95703 59.415 8.87402 59.3564 8.78613C59.1709 8.53223 58.9756 8.3125 58.7705 8.12695C58.5654 7.93164 58.292 7.83398 57.9502 7.83398C57.5791 7.83398 57.1641 7.94141 56.7051 8.15625C56.2461 8.37109 55.7773 8.65918 55.2988 9.02051C54.8301 9.37207 54.3662 9.77734 53.9072 10.2363C53.458 10.6855 53.0576 11.1494 52.7061 11.6279C52.3545 12.1064 52.0713 12.5801 51.8564 13.0488C51.6416 13.5176 51.5342 13.9375 51.5342 14.3086C51.5342 14.6406 51.6221 14.8994 51.7979 15.085C51.9834 15.2705 52.2324 15.3633 52.5449 15.3633C53.3457 15.3633 54.2197 14.9385 55.167 14.0889C56.1143 13.2393 57.0615 11.9648 58.0088 10.2656ZM73.9023 7.04297C73.541 7.04297 73.2236 7.14062 72.9502 7.33594C72.6768 7.52148 72.4424 7.78516 72.2471 8.12695C72.0518 8.45898 71.8906 8.85449 71.7637 9.31348C71.6367 9.7627 71.5342 10.2559 71.4561 10.793C71.3779 11.3301 71.3242 11.8916 71.2949 12.4775C71.2656 13.0635 71.251 13.6543 71.251 14.25C71.251 15.0312 71.2803 15.8027 71.3389 16.5645C71.4072 17.3164 71.4414 18.0146 71.4414 18.6592C71.4414 19.0791 71.2852 19.4062 70.9727 19.6406C70.6602 19.8848 70.2158 20.0068 69.6396 20.0068C69.5322 20.0068 69.4102 19.9971 69.2734 19.9775C69.1367 19.958 69.0049 19.9189 68.8779 19.8604C68.7607 19.8018 68.6533 19.7188 68.5557 19.6113C68.4678 19.5137 68.4189 19.377 68.4092 19.2012C68.3213 18.3418 68.1943 17.4629 68.0283 16.5645C67.8623 15.666 67.6523 14.7725 67.3984 13.8838C67.1543 12.9854 66.8564 12.0967 66.5049 11.2178C66.1631 10.3389 65.7676 9.47949 65.3184 8.63965C65.2402 8.49316 65.1719 8.35645 65.1133 8.22949C65.0645 8.10254 65.04 7.98047 65.04 7.86328C65.04 7.7168 65.1035 7.56055 65.2305 7.39453C65.3672 7.21875 65.5332 7.05762 65.7285 6.91113C65.9336 6.76465 66.1533 6.64746 66.3877 6.55957C66.6318 6.46191 66.8662 6.41309 67.0908 6.41309C67.4619 6.41309 67.7891 6.67188 68.0723 7.18945C68.3555 7.69727 68.6191 8.5127 68.8633 9.63574C68.9121 9.83105 68.9512 9.96777 68.9805 10.0459C69.0098 10.124 69.0488 10.1631 69.0977 10.1631C69.2051 10.1631 69.2734 9.99707 69.3027 9.66504C69.4199 8.7373 69.6201 7.94141 69.9033 7.27734C70.1865 6.60352 70.5381 6.05176 70.958 5.62207C71.3877 5.18262 71.876 4.86035 72.4229 4.65527C72.9795 4.4502 73.5898 4.34766 74.2539 4.34766C74.6348 4.34766 75.0205 4.38184 75.4111 4.4502C75.8018 4.51855 76.1533 4.62109 76.4658 4.75781C76.7783 4.89453 77.0322 5.06055 77.2275 5.25586C77.4229 5.45117 77.5205 5.6709 77.5205 5.91504C77.5205 6.09082 77.4814 6.30078 77.4033 6.54492C77.335 6.7793 77.2422 7.00879 77.125 7.2334C77.0078 7.44824 76.8711 7.63379 76.7148 7.79004C76.5684 7.93652 76.417 8.00977 76.2607 8.00977C76.085 8.00977 75.9141 7.96094 75.748 7.86328C75.582 7.75586 75.4014 7.64355 75.2061 7.52637C75.0205 7.40918 74.8203 7.30176 74.6055 7.2041C74.4004 7.09668 74.166 7.04297 73.9023 7.04297ZM89.0635 14.792C89.3467 14.5479 89.625 14.4258 89.8984 14.4258C90.0547 14.4258 90.1963 14.4648 90.3232 14.543C90.4502 14.6211 90.5918 14.7432 90.748 14.9092C90.8945 15.1338 90.9971 15.3193 91.0557 15.4658C91.124 15.6025 91.1582 15.7393 91.1582 15.876C91.1582 16.1689 91.0117 16.4473 90.7188 16.7109C90.25 17.1016 89.7422 17.4531 89.1953 17.7656C88.6484 18.0684 88.0771 18.3271 87.4814 18.542C86.8857 18.7568 86.2705 18.918 85.6357 19.0254C85.001 19.1426 84.3711 19.2012 83.7461 19.2012C82.9551 19.2012 82.2129 19.0986 81.5195 18.8936C80.8262 18.6982 80.2061 18.415 79.6592 18.0439C79.1221 17.6729 78.668 17.2285 78.2969 16.7109C77.9258 16.1836 77.6621 15.5928 77.5059 14.9385C77.418 14.665 77.335 14.4893 77.2568 14.4111C77.1885 14.3232 77.0713 14.2793 76.9053 14.2793C76.5439 14.2793 76.2656 14.1914 76.0703 14.0156C75.875 13.8398 75.7773 13.5859 75.7773 13.2539C75.7773 13.1172 75.7871 13.0293 75.8066 12.9902L75.8359 12.6973C75.8848 12.3457 75.9775 12.0918 76.1143 11.9355C76.2607 11.7793 76.4854 11.7012 76.7881 11.7012H77.0078C77.418 11.7012 77.7061 11.5107 77.8721 11.1299C78.1748 10.4561 78.5605 9.84082 79.0293 9.28418C79.498 8.72754 80.0254 8.25391 80.6113 7.86328C81.1973 7.46289 81.8223 7.15527 82.4863 6.94043C83.1602 6.71582 83.8438 6.60352 84.5371 6.60352C85.2598 6.60352 85.9336 6.71094 86.5586 6.92578C87.1934 7.13086 87.7451 7.41895 88.2139 7.79004C88.6826 8.16113 89.0488 8.5957 89.3125 9.09375C89.5859 9.5918 89.7227 10.1289 89.7227 10.7051C89.7227 11.1055 89.6445 11.4717 89.4883 11.8037C89.332 12.1357 89.1074 12.4287 88.8145 12.6826C88.5215 12.9268 88.165 13.127 87.7451 13.2832C87.335 13.4395 86.8662 13.542 86.3389 13.5908L81.2559 14.1035C81.0605 14.1035 80.8994 14.1523 80.7725 14.25C80.6553 14.3477 80.5967 14.4795 80.5967 14.6455C80.5967 14.8994 80.6895 15.1436 80.875 15.3779C81.0703 15.6123 81.3242 15.8223 81.6367 16.0078C81.959 16.1836 82.3252 16.3252 82.7354 16.4326C83.1553 16.54 83.585 16.5938 84.0244 16.5938C84.4443 16.5938 84.874 16.5547 85.3135 16.4766C85.7627 16.3887 86.2021 16.2666 86.6318 16.1104C87.0713 15.9541 87.4961 15.7686 87.9062 15.5537C88.3164 15.3291 88.7021 15.0752 89.0635 14.792ZM85.7969 11.0127C85.9434 10.9834 86.0703 10.915 86.1777 10.8076C86.2852 10.6904 86.3389 10.5488 86.3389 10.3828C86.3389 10.2363 86.2852 10.0996 86.1777 9.97266C86.0703 9.8457 85.9238 9.7334 85.7383 9.63574C85.5527 9.52832 85.3379 9.44531 85.0938 9.38672C84.8496 9.32812 84.5908 9.29883 84.3174 9.29883C83.917 9.29883 83.5068 9.35742 83.0869 9.47461C82.667 9.5918 82.2861 9.74805 81.9443 9.94336C81.6025 10.1289 81.3242 10.3389 81.1094 10.5732C80.8945 10.7979 80.7871 11.0225 80.7871 11.2471C80.7871 11.4717 80.9238 11.584 81.1973 11.584C81.3633 11.584 81.6318 11.5645 82.0029 11.5254C82.374 11.4863 82.7842 11.4424 83.2334 11.3936C83.6826 11.335 84.1367 11.2715 84.5957 11.2031C85.0547 11.1348 85.4551 11.0713 85.7969 11.0127ZM106.964 6.57422C107.433 6.57422 107.877 6.61328 108.297 6.69141C108.717 6.75977 109.098 6.83789 109.439 6.92578C109.781 7.00391 110.074 7.08203 110.318 7.16016C110.562 7.22852 110.738 7.2627 110.846 7.2627C110.934 7.2627 111.017 7.21875 111.095 7.13086C111.173 7.0332 111.271 6.93066 111.388 6.82324C111.505 6.71582 111.661 6.61816 111.856 6.53027C112.052 6.43262 112.311 6.38379 112.633 6.38379C113.004 6.38379 113.297 6.48145 113.512 6.67676C113.727 6.8623 113.834 7.09668 113.834 7.37988C113.834 10.9541 113.712 13.9912 113.468 16.4912C113.224 18.9814 112.828 21.0078 112.281 22.5703C111.734 24.1328 111.026 25.2656 110.157 25.9688C109.288 26.6719 108.233 27.0234 106.993 27.0234C106.427 27.0234 105.836 26.8965 105.221 26.6426C104.615 26.3887 104.059 26.0615 103.551 25.6611C103.043 25.2705 102.623 24.8359 102.291 24.3574C101.969 23.8789 101.808 23.4199 101.808 22.9805C101.808 22.834 101.886 22.6631 102.042 22.4678C102.198 22.2725 102.389 22.082 102.613 21.8965C102.838 21.7109 103.072 21.5547 103.316 21.4277C103.561 21.3008 103.771 21.2373 103.946 21.2373C104.132 21.2373 104.288 21.3105 104.415 21.457C104.542 21.6133 104.659 21.8037 104.767 22.0283C104.884 22.2529 105.001 22.4971 105.118 22.7607C105.235 23.0342 105.382 23.2832 105.558 23.5078C105.733 23.7324 105.948 23.918 106.202 24.0645C106.456 24.2207 106.773 24.2988 107.154 24.2988C109.283 24.2988 110.533 21.0469 110.904 14.543C110.904 14.25 110.821 14.1035 110.655 14.1035C110.519 14.1035 110.411 14.1719 110.333 14.3086C109.415 15.5488 108.341 16.4814 107.11 17.1064C105.89 17.7217 104.532 18.0293 103.038 18.0293C102.345 18.0293 101.705 17.9268 101.119 17.7217C100.533 17.5068 100.025 17.2139 99.5957 16.8428C99.1758 16.4619 98.8486 16.0127 98.6143 15.4951C98.3799 14.9678 98.2627 14.3916 98.2627 13.7666C98.2627 13.1514 98.3701 12.5459 98.585 11.9502C98.8096 11.3447 99.1172 10.7783 99.5078 10.251C99.9082 9.71387 100.382 9.2207 100.929 8.77148C101.476 8.32227 102.071 7.93652 102.716 7.61426C103.36 7.28223 104.039 7.02832 104.752 6.85254C105.475 6.66699 106.212 6.57422 106.964 6.57422ZM103.492 15.334C104.83 15.334 106.056 14.9141 107.169 14.0742C108.282 13.2246 109.234 11.9941 110.025 10.3828C110.045 10.3242 110.06 10.2803 110.069 10.251C110.079 10.2119 110.084 10.1729 110.084 10.1338C110.084 10.0361 109.981 9.93359 109.776 9.82617C109.571 9.71875 109.303 9.62598 108.971 9.54785C108.639 9.46973 108.258 9.40625 107.828 9.35742C107.408 9.29883 106.983 9.26953 106.554 9.26953C105.86 9.26953 105.191 9.38672 104.547 9.62109C103.902 9.85547 103.331 10.168 102.833 10.5586C102.335 10.9492 101.935 11.3936 101.632 11.8916C101.329 12.3896 101.178 12.9072 101.178 13.4443C101.178 14.0205 101.388 14.4795 101.808 14.8213C102.237 15.1631 102.799 15.334 103.492 15.334ZM126.095 7.29199C126.134 7.31152 126.192 7.32129 126.271 7.32129C126.485 7.32129 126.593 7.17969 126.593 6.89648V2.34082C126.593 1.76465 126.72 1.35449 126.974 1.11035C127.237 0.866211 127.672 0.744141 128.277 0.744141C128.893 0.744141 129.327 0.871094 129.581 1.125C129.835 1.37891 129.962 1.81348 129.962 2.42871C129.962 2.66309 129.947 3.00977 129.918 3.46875C129.889 3.91797 129.854 4.43066 129.815 5.00684C129.786 5.58301 129.757 6.20312 129.728 6.86719C129.698 7.52148 129.684 8.1709 129.684 8.81543C129.684 9.81152 129.752 10.6709 129.889 11.3936C130.025 12.1162 130.221 12.7168 130.475 13.1953C130.729 13.6641 131.031 14.0156 131.383 14.25C131.734 14.4746 132.13 14.5869 132.569 14.5869C132.813 14.5869 133.033 14.5576 133.229 14.499C133.434 14.4307 133.673 14.3965 133.946 14.3965C134.142 14.3965 134.303 14.499 134.43 14.7041C134.566 14.8994 134.635 15.1387 134.635 15.4219C134.635 15.6758 134.557 15.915 134.4 16.1396C134.254 16.3643 134.049 16.5596 133.785 16.7256C133.531 16.8916 133.233 17.0234 132.892 17.1211C132.55 17.209 132.193 17.2529 131.822 17.2529C131.021 17.2529 130.289 17.0088 129.625 16.5205C128.961 16.0225 128.463 15.2656 128.131 14.25C128.102 14.0938 128.053 14.0156 127.984 14.0156C127.906 14.0156 127.843 14.0938 127.794 14.25C127.53 14.9629 127.184 15.6074 126.754 16.1836C126.334 16.75 125.841 17.2383 125.274 17.6484C124.718 18.0488 124.103 18.3564 123.429 18.5713C122.765 18.7861 122.062 18.8936 121.319 18.8936C120.538 18.8936 119.82 18.7617 119.166 18.498C118.521 18.2441 117.965 17.8877 117.496 17.4287C117.027 16.96 116.661 16.4131 116.397 15.7881C116.134 15.1533 116.002 14.4697 116.002 13.7373C116.002 12.7998 116.197 11.916 116.588 11.0859C116.979 10.2559 117.506 9.5332 118.17 8.91797C118.844 8.29297 119.625 7.7998 120.514 7.43848C121.402 7.07715 122.35 6.89648 123.355 6.89648C123.766 6.89648 124.2 6.93066 124.659 6.99902C125.118 7.05762 125.597 7.15527 126.095 7.29199ZM121.891 16.2568C122.447 16.2568 122.94 16.1348 123.37 15.8906C123.81 15.6465 124.195 15.3389 124.527 14.9678C124.869 14.5869 125.157 14.1719 125.392 13.7227C125.626 13.2637 125.816 12.8193 125.963 12.3896C126.109 11.96 126.217 11.5742 126.285 11.2324C126.354 10.8906 126.388 10.6465 126.388 10.5C126.388 10.3926 126.358 10.2998 126.3 10.2217C126.241 10.1338 126.153 10.0654 126.036 10.0166C125.772 9.94824 125.499 9.88965 125.216 9.84082C124.933 9.78223 124.654 9.7334 124.381 9.69434C124.107 9.65527 123.844 9.62598 123.59 9.60645C123.346 9.58691 123.121 9.57715 122.916 9.57715C122.33 9.57715 121.798 9.66504 121.319 9.84082C120.841 10.0166 120.431 10.2656 120.089 10.5879C119.757 10.9102 119.498 11.2959 119.312 11.7451C119.127 12.1846 119.034 12.668 119.034 13.1953C119.034 13.6641 119.103 14.0889 119.239 14.4697C119.386 14.8408 119.581 15.1582 119.825 15.4219C120.079 15.6855 120.382 15.8906 120.733 16.0371C121.085 16.1836 121.471 16.2568 121.891 16.2568ZM132.452 7.77539C132.452 7.39453 132.623 7.10645 132.965 6.91113C133.307 6.70605 133.795 6.60352 134.43 6.60352C134.576 6.60352 134.708 6.62305 134.825 6.66211C134.942 6.70117 135.045 6.7793 135.133 6.89648C135.23 7.00391 135.318 7.15527 135.396 7.35059C135.475 7.5459 135.553 7.79492 135.631 8.09766C135.709 8.43945 135.787 8.61035 135.865 8.61035C135.934 8.61035 136.017 8.46875 136.114 8.18555C136.29 7.62891 136.52 7.14551 136.803 6.73535C137.096 6.31543 137.423 5.96875 137.784 5.69531C138.146 5.41211 138.536 5.20215 138.956 5.06543C139.386 4.92871 139.835 4.86035 140.304 4.86035C141.251 4.86035 142.135 5.04102 142.955 5.40234C143.775 5.75391 144.483 6.24707 145.079 6.88184C145.675 7.50684 146.144 8.24902 146.485 9.1084C146.827 9.95801 146.998 10.8809 146.998 11.877C146.998 12.9316 146.812 13.9082 146.441 14.8066C146.08 15.7051 145.572 16.4814 144.918 17.1357C144.264 17.7803 143.482 18.2832 142.574 18.6445C141.676 19.0156 140.689 19.2012 139.615 19.2012L138.868 19.1719C138.429 19.1719 138.209 19.4209 138.209 19.9189L138.956 26.6426C138.946 26.8086 138.888 26.96 138.78 27.0967C138.683 27.2432 138.546 27.3701 138.37 27.4775C138.204 27.585 138.004 27.668 137.77 27.7266C137.545 27.7852 137.311 27.8145 137.066 27.8145C136.363 27.8145 135.982 27.585 135.924 27.126C135.719 25.3486 135.489 23.6592 135.235 22.0576C134.991 20.4561 134.737 18.9668 134.474 17.5898C134.22 16.2031 133.971 14.9434 133.727 13.8105C133.482 12.6777 133.263 11.6914 133.067 10.8516C132.882 10.0117 132.735 9.32812 132.628 8.80078C132.511 8.27344 132.452 7.93164 132.452 7.77539ZM137.213 11.6426C137.213 12.2773 137.237 12.9072 137.286 13.5322C137.335 14.1475 137.413 14.8164 137.521 15.5391C137.579 15.9785 137.818 16.2275 138.238 16.2861C138.492 16.3447 138.775 16.4033 139.088 16.4619C139.41 16.5107 139.679 16.5352 139.894 16.5352C140.519 16.5352 141.085 16.4424 141.593 16.2568C142.101 16.0713 142.535 15.8076 142.896 15.4658C143.258 15.1143 143.536 14.6992 143.731 14.2207C143.927 13.7422 144.024 13.21 144.024 12.624C144.024 11.9111 143.927 11.2471 143.731 10.6318C143.536 10.0068 143.268 9.46484 142.926 9.00586C142.594 8.54688 142.198 8.18555 141.739 7.92188C141.29 7.6582 140.802 7.52637 140.274 7.52637C139.815 7.52637 139.396 7.62891 139.015 7.83398C138.644 8.0293 138.321 8.30762 138.048 8.66895C137.784 9.02051 137.579 9.4502 137.433 9.95801C137.286 10.4658 137.213 11.0273 137.213 11.6426ZM156.578 7.04297C156.217 7.04297 155.899 7.14062 155.626 7.33594C155.353 7.52148 155.118 7.78516 154.923 8.12695C154.728 8.45898 154.566 8.85449 154.439 9.31348C154.312 9.7627 154.21 10.2559 154.132 10.793C154.054 11.3301 154 11.8916 153.971 12.4775C153.941 13.0635 153.927 13.6543 153.927 14.25C153.927 15.0312 153.956 15.8027 154.015 16.5645C154.083 17.3164 154.117 18.0146 154.117 18.6592C154.117 19.0791 153.961 19.4062 153.648 19.6406C153.336 19.8848 152.892 20.0068 152.315 20.0068C152.208 20.0068 152.086 19.9971 151.949 19.9775C151.812 19.958 151.681 19.9189 151.554 19.8604C151.437 19.8018 151.329 19.7188 151.231 19.6113C151.144 19.5137 151.095 19.377 151.085 19.2012C150.997 18.3418 150.87 17.4629 150.704 16.5645C150.538 15.666 150.328 14.7725 150.074 13.8838C149.83 12.9854 149.532 12.0967 149.181 11.2178C148.839 10.3389 148.443 9.47949 147.994 8.63965C147.916 8.49316 147.848 8.35645 147.789 8.22949C147.74 8.10254 147.716 7.98047 147.716 7.86328C147.716 7.7168 147.779 7.56055 147.906 7.39453C148.043 7.21875 148.209 7.05762 148.404 6.91113C148.609 6.76465 148.829 6.64746 149.063 6.55957C149.308 6.46191 149.542 6.41309 149.767 6.41309C150.138 6.41309 150.465 6.67188 150.748 7.18945C151.031 7.69727 151.295 8.5127 151.539 9.63574C151.588 9.83105 151.627 9.96777 151.656 10.0459C151.686 10.124 151.725 10.1631 151.773 10.1631C151.881 10.1631 151.949 9.99707 151.979 9.66504C152.096 8.7373 152.296 7.94141 152.579 7.27734C152.862 6.60352 153.214 6.05176 153.634 5.62207C154.063 5.18262 154.552 4.86035 155.099 4.65527C155.655 4.4502 156.266 4.34766 156.93 4.34766C157.311 4.34766 157.696 4.38184 158.087 4.4502C158.478 4.51855 158.829 4.62109 159.142 4.75781C159.454 4.89453 159.708 5.06055 159.903 5.25586C160.099 5.45117 160.196 5.6709 160.196 5.91504C160.196 6.09082 160.157 6.30078 160.079 6.54492C160.011 6.7793 159.918 7.00879 159.801 7.2334C159.684 7.44824 159.547 7.63379 159.391 7.79004C159.244 7.93652 159.093 8.00977 158.937 8.00977C158.761 8.00977 158.59 7.96094 158.424 7.86328C158.258 7.75586 158.077 7.64355 157.882 7.52637C157.696 7.40918 157.496 7.30176 157.281 7.2041C157.076 7.09668 156.842 7.04297 156.578 7.04297ZM22.501 36.915C23.0088 36.915 23.502 36.9883 23.9805 37.1348C24.459 37.2812 24.8789 37.4814 25.2402 37.7354C25.6113 37.9795 25.9092 38.2627 26.1338 38.585C26.3584 38.8975 26.4707 39.2197 26.4707 39.5518C26.4707 39.7666 26.4268 39.9766 26.3389 40.1816C26.251 40.377 26.1338 40.5527 25.9873 40.709C25.8408 40.8555 25.6748 40.9775 25.4893 41.0752C25.3037 41.1631 25.1084 41.207 24.9033 41.207C24.6787 41.207 24.4736 41.124 24.2881 40.958C24.1025 40.7822 23.9023 40.5918 23.6875 40.3867C23.4824 40.1719 23.248 39.9814 22.9844 39.8154C22.7305 39.6396 22.4229 39.5518 22.0615 39.5518C21.71 39.5518 21.3926 39.6348 21.1094 39.8008C20.8262 39.9668 20.5869 40.2012 20.3916 40.5039C20.2061 40.7969 20.0596 41.1484 19.9521 41.5586C19.8545 41.959 19.8057 42.3984 19.8057 42.877C19.8057 44.2441 20.0645 45.2891 20.582 46.0117C21.0996 46.7246 21.8418 47.0811 22.8086 47.0811C23.2676 47.0811 23.6582 47.0078 23.9805 46.8613C24.3125 46.7148 24.6006 46.5537 24.8447 46.3779C25.0986 46.2021 25.3281 46.041 25.5332 45.8945C25.7383 45.748 25.9482 45.6748 26.1631 45.6748C26.2803 45.6748 26.3975 45.7139 26.5146 45.792C26.6318 45.8604 26.7344 45.9531 26.8223 46.0703C26.9199 46.1777 26.998 46.2998 27.0566 46.4365C27.125 46.5732 27.1592 46.71 27.1592 46.8467C27.1592 47.1689 26.998 47.501 26.6758 47.8428C26.3633 48.1846 25.958 48.4971 25.46 48.7803C24.9619 49.0537 24.4053 49.2783 23.79 49.4541C23.1846 49.6299 22.5938 49.7178 22.0176 49.7178C21.2461 49.7178 20.5381 49.5664 19.8936 49.2637C19.249 48.9707 18.6924 48.5605 18.2236 48.0332C17.7549 47.4961 17.3887 46.8564 17.125 46.1143C16.8711 45.3721 16.7441 44.5518 16.7441 43.6533C16.7441 42.6768 16.8857 41.7783 17.1689 40.958C17.4619 40.1377 17.8623 39.4297 18.3701 38.834C18.8877 38.2285 19.498 37.7598 20.2012 37.4277C20.9043 37.0859 21.6709 36.915 22.501 36.915ZM27.7158 44.1367C27.7158 43.9707 27.7354 43.7852 27.7744 43.5801C27.8135 43.375 27.833 43.1504 27.833 42.9062C27.833 42.7402 27.7598 42.6133 27.6133 42.5254C27.4766 42.4375 27.3203 42.3398 27.1445 42.2324C26.9688 42.125 26.8076 41.9883 26.6611 41.8223C26.5244 41.6562 26.4561 41.417 26.4561 41.1045C26.4561 40.8799 26.5146 40.6553 26.6318 40.4307C26.7588 40.2061 26.9395 40.001 27.1738 39.8154C27.75 39.3857 28.3457 39 28.9609 38.6582C29.5859 38.3164 30.2061 38.0283 30.8213 37.7939C31.4463 37.5596 32.0615 37.3789 32.667 37.252C33.2725 37.125 33.8535 37.0615 34.4102 37.0615C35.3477 37.0615 36.2266 37.2373 37.0469 37.5889C37.877 37.9307 38.5947 38.4043 39.2002 39.0098C39.8154 39.6055 40.2988 40.3086 40.6504 41.1191C41.0117 41.9199 41.1924 42.7793 41.1924 43.6973C41.1924 44.5957 41.002 45.4502 40.6211 46.2607C40.25 47.0615 39.7471 47.7646 39.1123 48.3701C38.4775 48.9756 37.7305 49.4541 36.8711 49.8057C36.0215 50.167 35.123 50.3477 34.1758 50.3477C33.248 50.3477 32.3887 50.1914 31.5977 49.8789C30.8066 49.5664 30.123 49.1367 29.5469 48.5898C28.9707 48.0332 28.5215 47.3789 28.1992 46.627C27.877 45.8652 27.7158 45.0352 27.7158 44.1367ZM34.498 47.7109C34.9082 47.7109 35.333 47.6279 35.7725 47.4619C36.2119 47.2959 36.6123 47.0566 36.9736 46.7441C37.3447 46.4219 37.6475 46.0312 37.8818 45.5723C38.126 45.1133 38.248 44.5957 38.248 44.0195C38.248 43.4336 38.1406 42.8867 37.9258 42.3789C37.7109 41.8711 37.4131 41.4316 37.0322 41.0605C36.6611 40.6797 36.2168 40.3818 35.6992 40.167C35.1914 39.9521 34.6396 39.8447 34.0439 39.8447C32.96 39.8447 32.1299 40.1279 31.5537 40.6943C30.9775 41.251 30.6895 42.1104 30.6895 43.2725C30.6895 43.9072 30.7822 44.498 30.9678 45.0449C31.1631 45.582 31.4316 46.0508 31.7734 46.4512C32.1152 46.8418 32.5156 47.1494 32.9746 47.374C33.4434 47.5986 33.9512 47.7109 34.498 47.7109ZM44.415 49.6299C44.3467 48.3311 44.2344 47.1348 44.0781 46.041C43.9316 44.9375 43.7754 43.9756 43.6094 43.1553C43.4531 42.335 43.3115 41.6709 43.1846 41.1631C43.0674 40.6553 43.0088 40.3379 43.0088 40.2109C43.0088 40.0254 43.0771 39.8447 43.2139 39.6689C43.3604 39.4932 43.541 39.3418 43.7559 39.2148C43.9707 39.0781 44.2002 38.9707 44.4443 38.8926C44.6982 38.8145 44.9277 38.7754 45.1328 38.7754C45.2988 38.7754 45.4404 38.8047 45.5576 38.8633C45.6846 38.9219 45.7725 39.0195 45.8213 39.1562C45.8701 39.3223 45.9141 39.498 45.9531 39.6836C46.002 39.8594 46.0508 40.0742 46.0996 40.3281C46.1582 40.6895 46.2363 40.8701 46.334 40.8701C46.4414 40.8701 46.5635 40.709 46.7002 40.3867C46.8955 39.9375 47.1055 39.5664 47.3301 39.2734C47.5547 38.9805 47.7939 38.751 48.0479 38.585C48.3115 38.4092 48.5801 38.2871 48.8535 38.2188C49.1367 38.1504 49.4297 38.1162 49.7324 38.1162C50.6504 38.1162 51.4268 38.4775 52.0615 39.2002C52.7061 39.9229 53.209 40.9678 53.5703 42.335C53.6191 42.4912 53.6631 42.5938 53.7021 42.6426C53.7412 42.6816 53.7852 42.7012 53.834 42.7012C53.8828 42.7012 53.9316 42.6816 53.9805 42.6426C54.0391 42.5938 54.0928 42.501 54.1416 42.3643C54.376 41.7295 54.6494 41.1924 54.9619 40.7529C55.2744 40.3037 55.5967 39.9424 55.9287 39.6689C56.2705 39.3857 56.6172 39.1807 56.9688 39.0537C57.3203 38.9268 57.6572 38.8633 57.9795 38.8633C58.5752 38.8633 59.1123 39.083 59.5908 39.5225C60.0791 39.9521 60.5088 40.6211 60.8799 41.5293C61.2607 42.4277 61.5879 43.5703 61.8613 44.957C62.1445 46.334 62.3789 47.9697 62.5645 49.8643C62.5645 50.3916 62.4033 50.7578 62.0811 50.9629C61.7588 51.1777 61.3193 51.2852 60.7627 51.2852C60.4014 51.2852 60.1182 51.207 59.9131 51.0508C59.708 50.8945 59.5908 50.6895 59.5615 50.4355C59.4346 49.0781 59.293 47.8721 59.1367 46.8174C58.9902 45.7529 58.8291 44.8594 58.6533 44.1367C58.4775 43.4043 58.2822 42.8477 58.0674 42.4668C57.8623 42.0859 57.6328 41.8955 57.3789 41.8955C57.252 41.8955 57.0908 41.9883 56.8955 42.1738C56.71 42.3594 56.5098 42.7012 56.2949 43.1992C56.0801 43.6875 55.8555 44.3613 55.6211 45.2207C55.3867 46.0703 55.1621 47.1592 54.9473 48.4873C54.8887 48.8584 54.708 49.1416 54.4053 49.3369C54.1123 49.5322 53.751 49.6299 53.3213 49.6299C52.8232 49.6299 52.4766 49.5518 52.2812 49.3955C52.0957 49.2393 51.9932 48.9756 51.9736 48.6045C51.9346 47.96 51.8662 47.3203 51.7686 46.6855C51.6807 46.041 51.5684 45.4307 51.4316 44.8545C51.2949 44.2686 51.1436 43.7314 50.9775 43.2432C50.8115 42.7451 50.6357 42.3154 50.4502 41.9541C50.2646 41.583 50.0742 41.2949 49.8789 41.0898C49.6836 40.8848 49.4932 40.7822 49.3076 40.7822C49.0635 40.7822 48.8242 40.9531 48.5898 41.2949C48.3652 41.6367 48.1602 42.1201 47.9746 42.7451C47.7988 43.3701 47.6572 44.1221 47.5498 45.001C47.4424 45.8799 47.3887 46.8613 47.3887 47.9453C47.3887 48.1309 47.3936 48.3164 47.4033 48.502C47.4131 48.6777 47.418 48.8633 47.418 49.0586C47.418 49.3516 47.3691 49.5908 47.2715 49.7764C47.1836 49.9619 47.0518 50.1084 46.876 50.2158C46.71 50.3232 46.5146 50.3965 46.29 50.4355C46.0654 50.4746 45.8213 50.4941 45.5576 50.4941C45.3135 50.4941 45.1182 50.4746 44.9717 50.4355C44.8252 50.4062 44.7129 50.3574 44.6348 50.2891C44.5566 50.2207 44.5029 50.1279 44.4736 50.0107C44.4443 49.9033 44.4248 49.7764 44.415 49.6299ZM62.9893 38.7754C62.9893 38.3945 63.1602 38.1064 63.502 37.9111C63.8438 37.7061 64.332 37.6035 64.9668 37.6035C65.1133 37.6035 65.2451 37.623 65.3623 37.6621C65.4795 37.7012 65.582 37.7793 65.6699 37.8965C65.7676 38.0039 65.8555 38.1553 65.9336 38.3506C66.0117 38.5459 66.0898 38.7949 66.168 39.0977C66.2461 39.4395 66.3242 39.6104 66.4023 39.6104C66.4707 39.6104 66.5537 39.4688 66.6514 39.1855C66.8271 38.6289 67.0566 38.1455 67.3398 37.7354C67.6328 37.3154 67.96 36.9688 68.3213 36.6953C68.6826 36.4121 69.0732 36.2021 69.4932 36.0654C69.9229 35.9287 70.3721 35.8604 70.8408 35.8604C71.7881 35.8604 72.6719 36.041 73.4922 36.4023C74.3125 36.7539 75.0205 37.2471 75.6162 37.8818C76.2119 38.5068 76.6807 39.249 77.0225 40.1084C77.3643 40.958 77.5352 41.8809 77.5352 42.877C77.5352 43.9316 77.3496 44.9082 76.9785 45.8066C76.6172 46.7051 76.1094 47.4814 75.4551 48.1357C74.8008 48.7803 74.0195 49.2832 73.1113 49.6445C72.2129 50.0156 71.2266 50.2012 70.1523 50.2012L69.4053 50.1719C68.9658 50.1719 68.7461 50.4209 68.7461 50.9189L69.4932 57.6426C69.4834 57.8086 69.4248 57.96 69.3174 58.0967C69.2197 58.2432 69.083 58.3701 68.9072 58.4775C68.7412 58.585 68.541 58.668 68.3066 58.7266C68.082 58.7852 67.8477 58.8145 67.6035 58.8145C66.9004 58.8145 66.5195 58.585 66.4609 58.126C66.2559 56.3486 66.0264 54.6592 65.7725 53.0576C65.5283 51.4561 65.2744 49.9668 65.0107 48.5898C64.7568 47.2031 64.5078 45.9434 64.2637 44.8105C64.0195 43.6777 63.7998 42.6914 63.6045 41.8516C63.4189 41.0117 63.2725 40.3281 63.165 39.8008C63.0479 39.2734 62.9893 38.9316 62.9893 38.7754ZM67.75 42.6426C67.75 43.2773 67.7744 43.9072 67.8232 44.5322C67.8721 45.1475 67.9502 45.8164 68.0576 46.5391C68.1162 46.9785 68.3555 47.2275 68.7754 47.2861C69.0293 47.3447 69.3125 47.4033 69.625 47.4619C69.9473 47.5107 70.2158 47.5352 70.4307 47.5352C71.0557 47.5352 71.6221 47.4424 72.1299 47.2568C72.6377 47.0713 73.0723 46.8076 73.4336 46.4658C73.7949 46.1143 74.0732 45.6992 74.2686 45.2207C74.4639 44.7422 74.5615 44.21 74.5615 43.624C74.5615 42.9111 74.4639 42.2471 74.2686 41.6318C74.0732 41.0068 73.8047 40.4648 73.4629 40.0059C73.1309 39.5469 72.7354 39.1855 72.2764 38.9219C71.8271 38.6582 71.3389 38.5264 70.8115 38.5264C70.3525 38.5264 69.9326 38.6289 69.5518 38.834C69.1807 39.0293 68.8584 39.3076 68.585 39.6689C68.3213 40.0205 68.1162 40.4502 67.9697 40.958C67.8232 41.4658 67.75 42.0273 67.75 42.6426ZM78.3848 32.3154C78.3848 31.8076 78.5312 31.4463 78.8242 31.2314C79.1172 31.0166 79.6006 30.9092 80.2744 30.9092C80.5088 30.9092 80.7139 30.9336 80.8896 30.9824C81.0654 31.0312 81.2119 31.1143 81.3291 31.2314C81.4463 31.3389 81.5391 31.4902 81.6074 31.6855C81.6855 31.8711 81.749 32.1104 81.7979 32.4033C81.9248 33.2725 82.0518 34.1855 82.1787 35.1426C82.3154 36.0898 82.4424 37.0371 82.5596 37.9844C82.6865 38.9219 82.8037 39.8398 82.9111 40.7383C83.0186 41.627 83.1113 42.457 83.1895 43.2285C83.2773 43.9902 83.3408 44.6689 83.3799 45.2646C83.4287 45.8506 83.4531 46.3145 83.4531 46.6562C83.4531 47.0078 83.4189 47.3057 83.3506 47.5498C83.292 47.7939 83.1846 47.9893 83.0283 48.1357C82.8818 48.2822 82.6865 48.3896 82.4424 48.458C82.208 48.5166 81.915 48.5459 81.5635 48.5459C81.2217 48.5459 80.9482 48.458 80.7432 48.2822C80.5479 48.1064 80.4502 47.8379 80.4502 47.4766C80.4502 47.1055 80.4209 46.6123 80.3623 45.9971C80.3037 45.3721 80.2256 44.6787 80.1279 43.917C80.0303 43.1553 79.918 42.3447 79.791 41.4854C79.6738 40.626 79.5469 39.7764 79.4102 38.9365C79.2832 38.0967 79.1562 37.291 79.0293 36.5195C78.9121 35.7383 78.8047 35.0498 78.707 34.4541C78.6094 33.8486 78.5312 33.3555 78.4727 32.9746C78.4141 32.584 78.3848 32.3643 78.3848 32.3154ZM87.9941 34.0586C87.7109 34.0586 87.4424 34.0195 87.1885 33.9414C86.9443 33.8535 86.7295 33.7363 86.5439 33.5898C86.3682 33.4336 86.2266 33.2529 86.1191 33.0479C86.0117 32.8428 85.958 32.6182 85.958 32.374C85.958 31.9639 86.1191 31.6318 86.4414 31.3779C86.7734 31.124 87.2129 30.9971 87.7598 30.9971C88.0137 30.9971 88.2578 31.0459 88.4922 31.1436C88.7266 31.2314 88.9316 31.3535 89.1074 31.5098C89.293 31.666 89.4395 31.8516 89.5469 32.0664C89.6543 32.2715 89.708 32.4863 89.708 32.7109C89.708 33.1309 89.5518 33.4629 89.2393 33.707C88.9365 33.9414 88.5215 34.0586 87.9941 34.0586ZM85.9873 38.5264C85.9873 38.1846 86.1338 37.9062 86.4268 37.6914C86.7295 37.4668 87.125 37.3545 87.6133 37.3545C88.4922 37.3545 88.9609 37.6572 89.0195 38.2627C89.0586 38.6826 89.0977 39.1562 89.1367 39.6836C89.1855 40.2109 89.2295 40.7725 89.2686 41.3682C89.3174 41.9541 89.3564 42.5645 89.3857 43.1992C89.4248 43.8242 89.459 44.4443 89.4883 45.0596C89.5176 45.665 89.542 46.251 89.5615 46.8174C89.5811 47.3838 89.5908 47.9014 89.5908 48.3701C89.5908 48.8584 89.415 49.2246 89.0635 49.4688C88.7217 49.7129 88.2188 49.835 87.5547 49.835C87.252 49.835 87.0127 49.7617 86.8369 49.6152C86.6709 49.4785 86.5879 49.2734 86.5879 49C86.5879 47.6523 86.5537 46.3926 86.4854 45.2207C86.4268 44.0391 86.3584 42.9893 86.2803 42.0713C86.2119 41.1533 86.1436 40.3916 86.0752 39.7861C86.0166 39.1709 85.9873 38.751 85.9873 38.5264ZM101.5 36.1973C102.037 36.1973 102.555 36.2803 103.053 36.4463C103.551 36.6123 103.99 36.8418 104.371 37.1348C104.752 37.4277 105.055 37.7793 105.279 38.1895C105.514 38.5996 105.631 39.0537 105.631 39.5518C105.631 39.7568 105.582 39.957 105.484 40.1523C105.396 40.3379 105.274 40.5039 105.118 40.6504C104.962 40.7871 104.781 40.8994 104.576 40.9873C104.381 41.0654 104.176 41.1045 103.961 41.1045C103.941 41.1045 103.922 41.1094 103.902 41.1191C103.893 41.1191 103.878 41.1191 103.858 41.1191C103.839 41.1289 103.819 41.1338 103.8 41.1338L103.858 42.3057C103.897 43.7021 104.093 44.7227 104.444 45.3672C104.806 46.0117 105.274 46.334 105.851 46.334C106.056 46.334 106.236 46.3145 106.393 46.2754C106.559 46.2363 106.71 46.1924 106.847 46.1436C106.993 46.085 107.13 46.0361 107.257 45.9971C107.384 45.958 107.511 45.9385 107.638 45.9385C107.862 45.9385 108.058 46.0361 108.224 46.2314C108.399 46.4268 108.487 46.6611 108.487 46.9346C108.487 47.208 108.38 47.4814 108.165 47.7549C107.96 48.0283 107.687 48.2773 107.345 48.502C107.003 48.7168 106.617 48.8926 106.188 49.0293C105.758 49.166 105.323 49.2344 104.884 49.2344C104.122 49.2344 103.453 48.9219 102.877 48.2969C102.301 47.6621 101.891 46.7344 101.646 45.5137C101.588 45.3184 101.51 45.2207 101.412 45.2207C101.295 45.2207 101.192 45.2793 101.104 45.3965C100.138 46.6172 99.1074 47.5352 98.0137 48.1504C96.9199 48.7559 95.8408 49.0586 94.7764 49.0586C94.2783 49.0586 93.8291 48.9854 93.4287 48.8389C93.0283 48.6924 92.6865 48.4873 92.4033 48.2236C92.1299 47.9502 91.915 47.623 91.7588 47.2422C91.6123 46.8516 91.5391 46.417 91.5391 45.9385C91.5391 45.2646 91.6855 44.5566 91.9785 43.8145C92.2812 43.0723 92.6865 42.3398 93.1943 41.6172C93.7021 40.8945 94.2881 40.2061 94.9521 39.5518C95.626 38.8975 96.3291 38.3213 97.0615 37.8232C97.8037 37.3252 98.5557 36.9297 99.3174 36.6367C100.079 36.3438 100.807 36.1973 101.5 36.1973ZM101.017 41.2656C101.192 40.9336 101.354 40.6943 101.5 40.5479C101.646 40.3916 101.856 40.2891 102.13 40.2402C102.345 40.2109 102.452 40.1426 102.452 40.0352C102.452 39.957 102.423 39.874 102.364 39.7861C102.179 39.5322 101.983 39.3125 101.778 39.127C101.573 38.9316 101.3 38.834 100.958 38.834C100.587 38.834 100.172 38.9414 99.7129 39.1562C99.2539 39.3711 98.7852 39.6592 98.3066 40.0205C97.8379 40.3721 97.374 40.7773 96.915 41.2363C96.4658 41.6855 96.0654 42.1494 95.7139 42.6279C95.3623 43.1064 95.0791 43.5801 94.8643 44.0488C94.6494 44.5176 94.542 44.9375 94.542 45.3086C94.542 45.6406 94.6299 45.8994 94.8057 46.085C94.9912 46.2705 95.2402 46.3633 95.5527 46.3633C96.3535 46.3633 97.2275 45.9385 98.1748 45.0889C99.1221 44.2393 100.069 42.9648 101.017 41.2656ZM109.22 37.1787C109.22 37.0322 109.283 36.8906 109.41 36.7539C109.537 36.6074 109.703 36.4805 109.908 36.373C110.113 36.2559 110.343 36.1631 110.597 36.0947C110.86 36.0166 111.124 35.9775 111.388 35.9775C111.534 35.9775 111.656 36.0166 111.754 36.0947C111.861 36.1729 111.954 36.3242 112.032 36.5488C112.11 36.7637 112.179 37.0713 112.237 37.4717C112.306 37.8623 112.369 38.375 112.428 39.0098C112.467 39.2051 112.501 39.3564 112.53 39.4639C112.569 39.5615 112.618 39.6104 112.677 39.6104C112.765 39.6104 112.853 39.459 112.94 39.1562C113.653 37.0957 114.684 36.0654 116.031 36.0654C116.656 36.0654 117.223 36.2607 117.73 36.6514C118.248 37.042 118.727 37.6816 119.166 38.5703C119.615 39.4492 120.04 40.6113 120.44 42.0566C120.841 43.4922 121.241 45.2646 121.642 47.374C121.661 47.4814 121.676 47.5791 121.686 47.667C121.695 47.7549 121.7 47.8379 121.7 47.916C121.7 48.1406 121.646 48.3359 121.539 48.502C121.441 48.6582 121.31 48.79 121.144 48.8975C120.978 48.9951 120.792 49.0684 120.587 49.1172C120.382 49.1758 120.177 49.2051 119.972 49.2051C119.562 49.2051 119.264 49.1611 119.078 49.0732C118.902 48.9854 118.79 48.8193 118.741 48.5752C118.458 47.0908 118.18 45.7725 117.906 44.6201C117.643 43.4678 117.379 42.501 117.115 41.7197C116.861 40.9287 116.607 40.3281 116.354 39.918C116.1 39.5078 115.846 39.3027 115.592 39.3027C115.338 39.3027 115.099 39.4639 114.874 39.7861C114.659 40.0986 114.449 40.5918 114.244 41.2656C114.039 41.9395 113.839 42.7939 113.644 43.8291C113.458 44.8643 113.277 46.0996 113.102 47.5352C113.053 47.9258 112.857 48.2383 112.516 48.4727C112.174 48.707 111.739 48.8242 111.212 48.8242C110.86 48.8242 110.592 48.751 110.406 48.6045C110.221 48.458 110.118 48.2578 110.099 48.0039C110.011 45.9727 109.913 44.3027 109.806 42.9941C109.708 41.6758 109.615 40.6211 109.527 39.8301C109.439 39.0293 109.366 38.4336 109.308 38.043C109.249 37.6523 109.22 37.3643 109.22 37.1787ZM124.601 32.0811C124.601 31.5635 124.747 31.2021 125.04 30.9971C125.333 30.7822 125.816 30.6748 126.49 30.6748C126.734 30.6748 126.939 30.6992 127.105 30.748C127.281 30.7871 127.428 30.8652 127.545 30.9824C127.672 31.0996 127.77 31.2559 127.838 31.4512C127.916 31.6367 127.979 31.876 128.028 32.1689C128.146 33.0771 128.272 34.0146 128.409 34.9814C128.556 35.9482 128.707 36.9199 128.863 37.8965C128.922 38.3359 129.151 38.5557 129.552 38.5557C129.659 38.5557 129.835 38.5459 130.079 38.5264C130.333 38.4971 130.631 38.4678 130.973 38.4385C131.314 38.3994 131.681 38.3604 132.071 38.3213C132.472 38.2822 132.867 38.248 133.258 38.2188C133.658 38.1797 134.034 38.1504 134.386 38.1309C134.747 38.1016 135.064 38.0869 135.338 38.0869C135.553 38.0869 135.724 38.1309 135.851 38.2188C135.978 38.2969 136.075 38.4043 136.144 38.541C136.222 38.668 136.271 38.8145 136.29 38.9805C136.319 39.1367 136.334 39.2979 136.334 39.4639C136.334 39.6104 136.305 39.7617 136.246 39.918C136.197 40.0742 136.124 40.2158 136.026 40.3428C135.938 40.46 135.826 40.5576 135.689 40.6357C135.553 40.7139 135.396 40.7529 135.221 40.7529C134.371 40.7529 133.512 40.7822 132.643 40.8408C131.783 40.8896 130.924 40.958 130.064 41.0459C129.625 41.1045 129.405 41.3242 129.405 41.7051C129.405 41.7344 129.41 41.7734 129.42 41.8223C129.43 41.8613 129.435 41.8955 129.435 41.9248C129.552 42.7744 129.659 43.5703 129.757 44.3125C129.864 45.0547 129.952 45.7188 130.021 46.3047C130.099 46.8809 130.157 47.3643 130.196 47.7549C130.245 48.1357 130.27 48.3896 130.27 48.5166C130.27 48.8682 130.235 49.1611 130.167 49.3955C130.099 49.6396 129.986 49.835 129.83 49.9814C129.674 50.1377 129.464 50.2451 129.2 50.3037C128.946 50.3721 128.624 50.4062 128.233 50.4062C127.862 50.4062 127.589 50.3184 127.413 50.1426C127.237 49.9668 127.14 49.6982 127.12 49.3369C127.062 48.1846 126.969 47.0273 126.842 45.8652C126.715 44.6934 126.568 43.5264 126.402 42.3643C126.314 41.9443 126.095 41.7344 125.743 41.7344C125.714 41.7344 125.68 41.7393 125.641 41.749C125.602 41.7588 125.567 41.7637 125.538 41.7637C124.933 41.9004 124.361 42.0371 123.824 42.1738C123.287 42.3105 122.784 42.457 122.315 42.6133C122.052 42.7012 121.817 42.7646 121.612 42.8037C121.407 42.833 121.222 42.8477 121.056 42.8477C120.831 42.8477 120.665 42.75 120.558 42.5547C120.45 42.3496 120.396 42.0957 120.396 41.793C120.396 41.6855 120.406 41.5635 120.426 41.4268C120.445 41.2803 120.484 41.1387 120.543 41.002C120.592 40.8555 120.67 40.7236 120.777 40.6064C120.875 40.4795 121.012 40.377 121.188 40.2988C121.598 40.1328 122.145 39.9619 122.828 39.7861C123.512 39.6006 124.283 39.4297 125.143 39.2734C125.338 39.2246 125.489 39.1465 125.597 39.0391C125.714 38.9219 125.772 38.751 125.772 38.5264C125.772 38.4775 125.772 38.4287 125.772 38.3799C125.772 38.3213 125.763 38.2627 125.743 38.2041C125.587 37.3057 125.436 36.4902 125.289 35.7578C125.152 35.0156 125.03 34.3809 124.923 33.8535C124.825 33.3262 124.747 32.9111 124.688 32.6084C124.63 32.3057 124.601 32.1299 124.601 32.0811ZM135.265 32.1982C135.226 32.0615 135.191 31.9395 135.162 31.832C135.143 31.7246 135.133 31.6172 135.133 31.5098C135.133 31.2363 135.216 31.0068 135.382 30.8213C135.558 30.6357 135.816 30.543 136.158 30.543C137.672 30.543 138.502 30.9043 138.648 31.627C138.824 32.5449 138.985 33.4678 139.132 34.3955C139.278 35.3232 139.405 36.2656 139.513 37.2227C139.63 38.1699 139.718 39.1367 139.776 40.123C139.845 41.0996 139.879 42.1006 139.879 43.126C139.879 43.3213 139.869 43.5117 139.85 43.6973C139.83 43.873 139.791 44.0342 139.732 44.1807C139.674 44.3174 139.591 44.4297 139.483 44.5176C139.386 44.6055 139.249 44.6494 139.073 44.6494L137.843 44.4736C137.589 44.4443 137.408 44.3711 137.301 44.2539C137.203 44.127 137.145 43.9512 137.125 43.7266C137.047 41.9395 136.852 40.0693 136.539 38.1162C136.227 36.1631 135.802 34.1904 135.265 32.1982ZM138.282 50.2305C137.999 50.2305 137.73 50.1865 137.477 50.0986C137.232 50.0205 137.018 49.9033 136.832 49.7471C136.656 49.6006 136.515 49.4248 136.407 49.2197C136.3 49.0146 136.246 48.79 136.246 48.5459C136.246 48.1357 136.407 47.8037 136.729 47.5498C137.062 47.2959 137.501 47.1689 138.048 47.1689C138.302 47.1689 138.546 47.2178 138.78 47.3154C139.015 47.4033 139.22 47.5254 139.396 47.6816C139.581 47.8379 139.728 48.0234 139.835 48.2383C139.942 48.4434 139.996 48.6582 139.996 48.8828C139.996 49.3027 139.84 49.6299 139.527 49.8643C139.225 50.1084 138.81 50.2305 138.282 50.2305Z" fill="#34A7FB"/>
</svg>
