<svg width="84" height="28" viewBox="0 0 84 28" fill="none" xmlns="http://www.w3.org/2000/svg">
<path d="M2.30168 5.28C1.96168 5.04 1.79168 4.66 1.79168 4.14C1.79168 4.04 1.81168 3.87 1.85168 3.63C1.99168 3.03 2.26168 2.47 2.66168 1.95C3.08168 1.41 3.56168 0.979999 4.10168 0.659999C4.52168 0.419999 4.94168 0.299999 5.36168 0.299999C5.80168 0.299999 6.14168 0.449998 6.38168 0.749998C6.56168 0.989999 6.65168 1.28 6.65168 1.62C6.65168 1.92 6.56168 2.3 6.38168 2.76C6.18168 3.32 5.87168 3.83 5.45168 4.29C5.05168 4.75 4.59168 5.1 4.07168 5.34C3.65168 5.54 3.28168 5.61 2.96168 5.55C2.66168 5.51 2.44168 5.42 2.30168 5.28ZM4.85168 22.59C4.85168 22.73 4.82168 22.89 4.76168 23.07C4.72168 23.25 4.69168 23.38 4.67168 23.46L4.61168 23.64C4.41168 24.38 4.05168 25.08 3.53168 25.74C3.01168 26.4 2.36168 26.73 1.58168 26.73C1.50168 26.73 1.44168 26.72 1.40168 26.7C1.08168 26.66 0.82168 26.54 0.62168 26.34C0.32168 25.98 0.17168 25.42 0.17168 24.66C0.17168 24.38 0.19168 24.06 0.23168 23.7C0.21168 23.64 0.21168 23.58 0.23168 23.52C0.23168 23.44 0.23168 23.39 0.23168 23.37C0.29168 21.95 0.50168 20.02 0.86168 17.58L0.98168 16.65C1.18168 15.29 1.31168 14.27 1.37168 13.59L1.49168 12.24C1.49168 12.1 1.50168 11.99 1.52168 11.91C1.56168 11.63 1.57168 11.45 1.55168 11.37C1.53168 11.35 1.52168 11.33 1.52168 11.31C1.52168 11.27 1.51168 11.24 1.49168 11.22C1.37168 11.06 1.31168 10.85 1.31168 10.59C1.31168 10.27 1.34168 9.95 1.40168 9.63C1.42168 9.57 1.43168 9.47 1.43168 9.33C1.57168 8.41 1.96168 7.62 2.60168 6.96C3.26168 6.3 3.88168 5.97 4.46168 5.97C4.68168 5.97 4.89168 6.02 5.09168 6.12C5.59168 6.38 5.84168 6.93 5.84168 7.77C5.80168 8.33 5.78168 8.75 5.78168 9.03L5.75168 9.81L5.66168 11.46C5.64168 12.5 5.58168 13.56 5.48168 14.64C5.46168 15.04 5.34168 16.36 5.12168 18.6L5.03168 19.53L4.97168 20.13L4.79168 21.78C4.77168 21.86 4.76168 21.93 4.76168 21.99C4.78168 22.03 4.79168 22.08 4.79168 22.14C4.83168 22.24 4.84168 22.32 4.82168 22.38L4.85168 22.59ZM17.9216 8.82C17.4416 12.46 17.2016 15.89 17.2016 19.11C17.2016 20.67 17.2616 22.25 17.3816 23.85C17.4216 23.97 17.4416 24.07 17.4416 24.15C17.4416 24.21 17.4216 24.3 17.3816 24.42C17.3816 24.44 17.3716 24.45 17.3516 24.45V24.51C17.2316 24.85 16.9516 25.15 16.5116 25.41C16.0716 25.65 15.6016 25.79 15.1016 25.83C14.3016 25.91 13.8216 25.7 13.6616 25.2C12.9616 23.32 11.8516 20.72 10.3316 17.4L9.9716 16.56C9.8116 19.06 9.7116 21.73 9.6716 24.57C9.6716 24.99 9.3916 25.37 8.8316 25.71C8.2716 26.03 7.7016 26.19 7.1216 26.19C6.7616 26.19 6.4716 26.12 6.2516 25.98C6.0316 25.84 5.9316 25.61 5.9516 25.29C6.0716 19.85 6.4616 14.7 7.1216 9.84L7.1516 9.72C7.1116 9.28 7.3816 8.88 7.9616 8.52C8.5416 8.16 9.1216 7.98 9.7016 7.98C10.3016 7.98 10.6716 8.18 10.8116 8.58C11.4516 10.32 12.4016 12.56 13.6616 15.3C13.7816 13.42 13.9916 11.51 14.2916 9.57C14.3516 9.17 14.6716 8.82 15.2516 8.52C15.8316 8.2 16.4016 8.04 16.9616 8.04C17.6816 8.04 18.0016 8.3 17.9216 8.82ZM44.8457 14.73C45.0457 14.25 45.1457 13.8 45.1457 13.38C45.1457 12.08 44.1557 11.43 42.1757 11.43C41.2557 11.43 40.2557 11.57 39.1757 11.85C38.1157 12.11 37.2757 12.4 36.6557 12.72C35.5757 13.26 34.7757 13.79 34.2557 14.31C33.7557 14.81 33.4957 15.52 33.4757 16.44C33.4557 17.84 33.4157 19.07 33.3557 20.13C33.2957 21.17 33.1857 22.2 33.0257 23.22C35.4457 22.32 37.6857 21.18 39.7457 19.8C41.1057 18.9 42.2057 18.08 43.0457 17.34C43.8857 16.58 44.4857 15.71 44.8457 14.73ZM33.8357 8.22C33.8357 8.52 33.8157 9.01 33.7757 9.69C33.7357 10.09 33.7157 10.41 33.7157 10.65L35.0057 8.97C35.7257 8.03 36.2757 7.3 36.6557 6.78C37.0357 6.24 37.3857 5.66 37.7057 5.04C37.0057 5.2 36.3857 5.38 35.8457 5.58C35.3057 5.76 34.8157 6 34.3757 6.3C34.1357 6.48 33.9657 6.63 33.8657 6.75C33.7857 6.87 33.7457 7 33.7457 7.14C33.7457 7.26 33.7557 7.42 33.7757 7.62C33.8157 7.82 33.8357 8.02 33.8357 8.22ZM45.2057 7.41C46.2857 7.59 47.0757 8.01 47.5757 8.67C48.0957 9.33 48.3557 10.15 48.3557 11.13C48.3557 11.85 48.2057 12.69 47.9057 13.65C47.1257 16.11 45.3457 18.56 42.5657 21C40.3857 22.86 37.9657 24.47 35.3057 25.83C34.4457 26.29 33.4657 26.75 32.3657 27.21C31.2657 27.67 30.3257 27.9 29.5457 27.9C28.9457 27.9 28.5457 27.72 28.3457 27.36C28.2657 27.22 28.2257 27.06 28.2257 26.88C28.2257 26.64 28.2857 26.42 28.4057 26.22C28.5257 26 28.7157 25.7 28.9757 25.32C29.2757 24.92 29.4657 24.62 29.5457 24.42C29.7257 23.9 29.8157 23.18 29.8157 22.26V21.54C29.8157 21.38 29.8057 21.19 29.7857 20.97C29.7857 20.75 29.7957 20.51 29.8157 20.25C29.9757 18.09 30.0857 16.47 30.1457 15.39C30.1457 15.11 30.1557 14.87 30.1757 14.67C30.1957 14.45 30.2157 14.26 30.2357 14.1C30.2557 13.9 30.2757 13.65 30.2957 13.35C30.3157 13.05 30.3257 12.7 30.3257 12.3C30.3257 11.88 30.2957 11.48 30.2357 11.1C30.1557 10.58 30.0357 10.19 29.8757 9.93C29.8557 9.87 29.7557 9.76 29.5757 9.6C29.4157 9.42 29.3257 9.29 29.3057 9.21C29.2857 9.13 29.2757 9.02 29.2757 8.88C29.2757 8.22 29.6557 7.29 30.4157 6.09C30.6357 5.75 30.8557 5.46 31.0757 5.22C31.2957 4.98 31.5357 4.81 31.7957 4.71C31.8757 4.67 32.0057 4.65 32.1857 4.65C32.2457 4.65 32.3257 4.65 32.4257 4.65C32.5457 4.65 32.6357 4.64 32.6957 4.62C32.9157 4.54 33.1357 4.39 33.3557 4.17C33.5957 3.95 33.7357 3.82 33.7757 3.78C33.9957 3.56 34.2057 3.38 34.4057 3.24C35.0457 2.78 35.8857 2.3 36.9257 1.8C37.9657 1.3 38.8557 1.05 39.5957 1.05C40.3157 1.05 40.7757 1.34 40.9757 1.92C41.0557 2.14 41.0957 2.38 41.0957 2.64C41.0957 3.4 40.8357 4.23 40.3157 5.13C39.7957 6.01 39.1157 7 38.2757 8.1C38.1557 8.28 37.9557 8.56 37.6757 8.94C39.8357 7.84 41.8757 7.29 43.7957 7.29C44.3157 7.29 44.7857 7.33 45.2057 7.41ZM60.8453 22.77C61.1453 22.87 61.2953 23.05 61.2953 23.31C61.2953 23.63 61.1053 23.98 60.7253 24.36C60.3053 24.78 59.7653 24.99 59.1053 24.99C58.7853 24.99 58.5153 24.95 58.2953 24.87C57.2353 24.53 56.2753 24.36 55.4153 24.36C53.9153 24.36 52.3853 24.84 50.8253 25.8C50.5653 25.98 50.2453 26.13 49.8653 26.25C49.5053 26.35 49.1653 26.4 48.8453 26.4C48.5453 26.4 48.3053 26.35 48.1253 26.25C47.9453 26.13 47.8553 25.95 47.8553 25.71C47.8553 25.57 47.8753 25.45 47.9153 25.35C48.4953 23.73 48.9553 22.27 49.2953 20.97C49.6553 19.67 49.8953 18.35 50.0153 17.01C50.1953 15.21 50.2853 13.89 50.2853 13.05C50.2853 10.83 49.8553 9.13 48.9953 7.95C48.8953 7.83 48.8453 7.67 48.8453 7.47C48.8453 7.07 49.1253 6.7 49.6853 6.36C50.2453 6 50.7953 5.82 51.3353 5.82C51.6953 5.82 51.9553 5.9 52.1153 6.06C52.3753 6.16 52.5453 6.32 52.6253 6.54C53.1253 7.86 53.8153 8.98 54.6953 9.9C55.5753 10.8 56.6153 11.25 57.8153 11.25C58.0353 11.25 58.3653 11.21 58.8053 11.13C59.0853 11.09 59.2653 11.07 59.3453 11.07C59.6853 11.07 59.9353 11.15 60.0953 11.31C60.2753 11.45 60.3653 11.65 60.3653 11.91C60.3653 12.19 60.2453 12.47 60.0053 12.75C59.7853 13.03 59.4853 13.23 59.1053 13.35C58.2853 13.63 57.4653 13.77 56.6453 13.77C55.6653 13.77 54.7253 13.57 53.8253 13.17C53.7853 14.29 53.7353 15.13 53.6753 15.69L53.4653 17.58C54.2453 17.44 55.0253 17.32 55.8053 17.22L56.2253 17.19C57.0253 17.19 57.4253 17.46 57.4253 18C57.4253 18.36 57.2253 18.68 56.8253 18.96C56.4253 19.24 56.0153 19.42 55.5953 19.5C54.9753 19.62 54.1253 19.75 53.0453 19.89C52.8253 20.87 52.5853 21.79 52.3253 22.65C53.6453 22.17 54.9853 21.93 56.3453 21.93C57.8453 21.93 59.3453 22.21 60.8453 22.77ZM69.264 8.07C69.684 8.03 70.004 8.08 70.224 8.22C70.464 8.36 70.714 8.63 70.974 9.03C71.134 9.29 71.214 9.51 71.214 9.69C71.214 10.13 70.934 10.39 70.374 10.47L69.324 10.59C68.344 10.73 67.824 10.8 67.764 10.8C67.424 14 67.154 16.78 66.954 19.14C66.754 21.5 66.624 23.83 66.564 26.13C66.544 26.41 66.424 26.62 66.204 26.76C66.004 26.9 65.734 26.97 65.394 26.97C64.794 26.97 64.194 26.81 63.594 26.49C63.014 26.15 62.734 25.77 62.754 25.35C62.814 23.23 62.934 21.07 63.114 18.87C63.294 16.65 63.534 14.08 63.834 11.16L61.944 11.4C61.664 11.42 61.444 11.41 61.284 11.37C61.144 11.31 61.004 11.19 60.864 11.01C60.724 10.83 60.584 10.63 60.444 10.41C60.284 10.19 60.204 9.97 60.204 9.75C60.204 9.57 60.274 9.41 60.414 9.27C60.554 9.13 60.764 9.04 61.044 9C61.484 8.94 61.994 8.87 62.574 8.79L64.104 8.58L64.644 3.39C64.704 2.83 65.114 2.55 65.874 2.55C66.474 2.55 67.054 2.72 67.614 3.06C68.194 3.38 68.464 3.75 68.424 4.17L68.034 8.19C68.594 8.15 69.004 8.11 69.264 8.07ZM75.7778 16.83L75.5378 17.43L77.6378 19.2L77.4278 18.33C77.2878 17.77 77.0078 16.58 76.5878 14.76L75.7778 16.83ZM79.1978 8.07C79.4778 9.81 79.8278 11.58 80.2478 13.38C80.6878 15.16 81.2178 17.21 81.8378 19.53C82.4178 21.73 82.7978 23.19 82.9778 23.91C82.9978 23.97 83.0078 24.06 83.0078 24.18C83.0078 24.66 82.7378 25.08 82.1978 25.44C81.6578 25.78 81.0978 25.95 80.5178 25.95C80.0378 25.95 79.6678 25.82 79.4078 25.56C78.8278 24.94 78.2178 24.35 77.5778 23.79C76.9378 23.23 76.0978 22.54 75.0578 21.72L74.0678 20.91C73.2278 22.71 72.5778 24.04 72.1178 24.9C71.9778 25.2 71.6078 25.48 71.0078 25.74C70.4278 25.98 69.8878 26.1 69.3878 26.1C68.8278 26.1 68.5478 25.92 68.5478 25.56C68.5478 25.46 68.5778 25.34 68.6378 25.2C69.2378 23.72 69.9478 22.02 70.7678 20.1L71.3978 18.57C70.8978 18.07 70.6478 17.82 70.6478 17.82C70.5078 17.68 70.4378 17.52 70.4378 17.34C70.4378 17 70.6578 16.68 71.0978 16.38C71.5378 16.06 72.0278 15.85 72.5678 15.75C73.5278 13.45 74.4278 11.11 75.2678 8.73C75.3478 8.45 75.5978 8.21 76.0178 8.01C76.4578 7.79 76.9178 7.65 77.3978 7.59C77.7378 7.49 78.0278 7.44 78.2678 7.44C78.8278 7.44 79.1378 7.65 79.1978 8.07Z" fill="#00C2FF"/>
</svg>
