<svg width="326" height="90" viewBox="0 0 326 90" fill="none" xmlns="http://www.w3.org/2000/svg">
<path fill-rule="evenodd" clip-rule="evenodd" d="M174.269 18.2017C174.721 17.1936 174.269 16.0104 173.261 15.559C122.534 -7.15452 87.2104 -1.98721 62.6536 11.9134C40.4553 24.479 27.3314 44.0598 19.6822 55.4723C18.9257 56.6011 18.2227 57.6499 17.5698 58.6041C17.0771 59.3242 16.5095 60.1244 15.9 60.9839C14.4054 63.0911 12.6584 65.5543 11.1441 68.0641C9.01849 71.5872 7.09564 75.5923 6.87034 79.4228C6.82796 80.1434 6.65249 80.8845 6.43836 81.6573C6.40931 81.7621 6.37647 81.8767 6.34163 81.9983C6.16783 82.6047 5.94417 83.3852 5.89159 84C5.87594 84.1831 5.86331 84.4516 5.9046 84.7597C5.77334 84.475 5.62061 84.0733 5.46361 83.5226C4.81678 81.2537 4.42676 77.7032 4.2162 73.685C3.89193 67.4967 4.00883 60.6782 4.0782 56.6315C4.09845 55.4506 4.11465 54.5058 4.11465 53.8815C4.11467 52.7769 3.21925 51.8815 2.11469 51.8815C1.01012 51.8815 0.114669 52.7769 0.114657 53.8814C0.114648 54.4343 0.0995369 55.3094 0.080291 56.4241C0.0111041 60.4313 -0.111542 67.5351 0.221683 73.8943C0.433531 77.9372 0.836164 81.8807 1.61687 84.6192C1.98974 85.9272 2.54149 87.3165 3.48125 88.2177C3.99908 88.7142 4.7033 89.1266 5.58152 89.1954C6.4456 89.2631 7.21549 88.9774 7.83994 88.58C8.87595 87.9207 10.4822 86.9444 12.3322 85.8434C12.7623 85.6561 13.2173 85.4604 13.6908 85.2568C15.532 84.4648 17.6533 83.5524 19.6844 82.5416C22.397 81.1917 25.1826 79.5576 27.1619 77.5783C27.2146 77.5256 27.2898 77.4466 27.3678 77.3473C27.4266 77.2723 27.584 77.0662 27.6946 76.7651C27.7924 76.4987 28.031 75.6263 27.3827 74.8097C26.8209 74.102 26.0512 74.0548 25.8884 74.0471C25.4866 74.0278 25.1511 74.137 25.0812 74.1598C25.078 74.1608 25.0753 74.1617 25.0732 74.1624C24.9409 74.2045 24.8138 74.2548 24.7089 74.2989C24.3033 74.4692 23.7083 74.7688 23.0314 75.1258C21.642 75.8585 19.6406 76.9761 17.4741 78.2143C15.1915 79.5188 12.6969 80.9736 10.5027 82.2776C10.4691 82.2923 10.4357 82.3069 10.4024 82.3215C10.6018 81.5623 10.8057 80.6401 10.8634 79.6577C11.0284 76.8522 12.5044 73.5525 14.569 70.1305C16.0035 67.7529 17.5983 65.5051 19.0612 63.4431C19.6974 62.5463 20.3087 61.6847 20.871 60.8628C21.535 59.8924 22.2436 58.8366 23.0003 57.7091C30.6733 46.2764 43.2972 27.4667 64.6241 15.3944C87.8912 2.22383 121.853 -3.07672 171.626 19.2098C172.635 19.6612 173.818 19.2098 174.269 18.2017Z" fill="#1C1C1C"/>
<path d="M108.852 59.3619C108.983 59.4963 109.282 59.7862 109.75 60.2317C110.241 60.6753 110.638 61.1382 110.94 61.6205C111.264 62.077 111.443 62.5325 111.478 62.9872C111.522 63.5615 111.348 64.1165 110.956 64.6521C110.48 65.3387 109.858 65.7115 109.093 65.7704C108.758 65.7962 108.383 65.7769 107.969 65.7124C107.555 65.648 107.287 65.6084 107.165 65.5937C105.246 65.3563 103.029 65.3342 100.517 65.5275C98.5785 65.6767 96.528 65.9307 94.3651 66.2897C94.1755 66.3283 93.9022 66.3734 93.5451 66.425C93.188 66.4765 92.8659 66.5134 92.5787 66.5354C91.7173 66.6017 91.0132 66.5235 90.4665 66.3008C89.9419 66.0523 89.651 65.5571 89.594 64.8153C89.5608 64.3846 89.6096 63.9235 89.7403 63.432C89.8691 62.9166 90.0744 62.2991 90.356 61.5793L90.621 60.8007C90.9119 59.8877 91.2551 59.1873 91.6509 58.6995C92.0448 58.1878 92.6366 57.9016 93.4262 57.8408C94.0723 57.7911 94.5914 57.9678 94.9835 58.3709C95.3977 58.7483 95.6287 59.248 95.6765 59.8702C95.7097 60.3009 95.6351 60.7399 95.4529 61.1872C96.9531 60.9755 98.6604 60.796 100.575 60.6487C101.699 60.5622 102.55 60.5088 103.126 60.4885C100.711 57.8821 98.9106 55.9144 97.7252 54.5854L95.0082 51.6532C94.5886 51.2041 94.237 50.858 93.9535 50.6151C92.989 49.6542 92.2517 48.8324 91.7419 48.1495C91.2301 47.4426 90.9448 46.7064 90.8859 45.9406C90.8307 45.2227 91.0377 44.6291 91.5071 44.1597C91.9986 43.6646 92.583 43.2826 93.2604 43.0138C93.9598 42.7193 94.8397 42.423 95.8999 42.1247L97.3826 41.6857C99.2362 41.0617 101.153 40.4809 103.134 39.9434C103.3 39.9066 103.63 39.821 104.125 39.6866C104.922 39.4086 105.632 39.2457 106.254 39.1979C107.044 39.1371 107.658 39.3064 108.098 39.7059C108.564 40.1274 108.815 40.5774 108.852 41.056C108.887 41.5107 108.779 41.9764 108.526 42.4531C108.298 42.928 107.913 43.5594 107.372 44.3473C106.721 45.2639 106.315 45.933 106.155 46.3546C105.895 47.0485 105.603 47.6366 105.279 48.1189C104.979 48.5993 104.614 48.8561 104.183 48.8893C103.872 48.9132 103.552 48.8175 103.222 48.6021C102.867 48.3647 102.672 48.0186 102.637 47.564C102.611 47.229 102.656 46.8765 102.772 46.5065C102.91 46.1107 103.039 45.7518 103.159 45.4296C103.302 45.1057 103.395 44.906 103.438 44.8305C102.234 45.1398 100.459 45.6975 98.1144 46.5038C97.8346 46.6216 97.2603 46.8222 96.3915 47.1057L101.08 51.7277C105.087 55.6318 107.678 58.1765 108.852 59.3619Z" fill="black"/>
<path d="M119.628 54.3807L119.396 55.1207L122.071 57.0451L121.74 56.0235C121.521 55.3664 121.076 53.9684 120.406 51.8294L119.628 54.3807ZM122.913 43.5848C123.408 45.6409 123.99 47.7264 124.658 49.8414C125.349 51.9306 126.171 54.3346 127.127 57.0533C128.023 59.6321 128.612 61.344 128.894 62.1889C128.923 62.2588 128.944 62.3656 128.955 62.5092C128.999 63.0835 128.715 63.6108 128.102 64.0913C127.487 64.5478 126.832 64.8027 126.138 64.8561C125.564 64.9003 125.11 64.7788 124.774 64.4917C124.023 63.8033 123.239 63.1535 122.422 62.5424C121.605 61.9313 120.536 61.183 119.216 60.2977L117.957 59.4197C117.118 61.6506 116.463 63.3018 115.992 64.3731C115.852 64.7449 115.435 65.114 114.741 65.4803C114.069 65.8208 113.434 66.0141 112.836 66.0601C112.166 66.1117 111.814 65.9221 111.781 65.4914C111.772 65.3717 111.797 65.2254 111.855 65.0524C112.437 63.2264 113.13 61.127 113.934 58.7543L114.547 56.8657C113.903 56.3135 113.581 56.0374 113.581 56.0374C113.401 55.8828 113.302 55.6978 113.286 55.4824C113.254 55.0757 113.488 54.6725 113.987 54.2731C114.484 53.8497 115.051 53.5534 115.688 53.384C116.625 50.5438 117.486 47.6612 118.272 44.7363C118.342 44.3939 118.619 44.0837 119.103 43.8058C119.609 43.5021 120.147 43.2922 120.715 43.1762C121.113 43.0253 121.455 42.9388 121.743 42.9167C122.413 42.8651 122.803 43.0879 122.913 43.5848Z" fill="black"/>
<path d="M142.974 40.4166C143.222 40.205 143.533 40.0126 143.904 39.8396C144.276 39.6665 144.63 39.5671 144.965 39.5414C145.228 39.5211 145.473 39.5745 145.699 39.7015C146.001 39.8708 146.165 40.123 146.191 40.458C146.222 40.8648 146.059 41.2504 145.702 41.6149C144.609 42.7341 143.749 44.076 143.123 45.6406C142.519 47.1794 141.941 49.0533 141.389 51.2622C140.675 54.1816 139.87 58.1069 138.973 63.0382C138.885 63.4542 138.511 63.9162 137.853 64.4243C137.192 64.9084 136.562 65.1734 135.964 65.2195C135.437 65.26 135.073 65.0593 134.871 64.6176C132.157 58.4475 130.439 51.5992 129.715 44.0725C129.653 43.5718 129.975 43.0656 130.682 42.5539C131.412 42.0403 132.113 41.7578 132.783 41.7062C133.477 41.6528 133.844 41.8893 133.885 42.4158C134.225 46.8427 135.053 51.184 136.367 55.4397C136.827 53.2861 137.287 51.4454 137.747 49.9176C138.373 47.7271 139.072 45.856 139.843 44.3043C140.612 42.7286 141.656 41.4327 142.974 40.4166Z" fill="black"/>
<path d="M160.601 58.3774C160.969 58.4694 161.165 58.671 161.189 58.9821C161.218 59.3649 161.023 59.8012 160.604 60.2908C160.14 60.832 159.513 61.133 158.723 61.1937C158.341 61.2232 158.014 61.2002 157.743 61.1247C156.444 60.8155 155.279 60.7005 154.25 60.7796C152.456 60.9177 150.669 61.6328 148.891 62.9251C148.597 63.1644 148.228 63.3733 147.784 63.5518C147.363 63.7046 146.96 63.7957 146.577 63.8252C146.219 63.8528 145.927 63.8151 145.702 63.712C145.476 63.585 145.352 63.3779 145.329 63.0908C145.317 62.9233 145.329 62.7778 145.368 62.6545C145.913 60.6629 146.329 58.8737 146.616 57.287C146.927 55.6984 147.093 54.097 147.113 52.4827C147.163 50.3125 147.149 48.7249 147.071 47.7198C146.867 45.0637 146.196 43.0693 145.059 41.7366C144.928 41.6023 144.853 41.4154 144.835 41.1761C144.798 40.6975 145.099 40.2291 145.738 39.7707C146.375 39.2885 147.016 39.0225 147.662 38.9728C148.093 38.9396 148.411 39.0114 148.618 39.1881C148.938 39.2838 149.156 39.4596 149.272 39.7155C149.992 41.2488 150.92 42.5253 152.058 43.545C153.194 44.5408 154.479 44.9835 155.915 44.8731C156.178 44.8528 156.57 44.7746 157.089 44.6383C157.42 44.5647 157.633 44.5242 157.729 44.5168C158.136 44.4856 158.442 44.5583 158.649 44.735C158.877 44.8859 159.003 45.1169 159.027 45.428C159.053 45.763 158.935 46.1091 158.673 46.4662C158.436 46.8214 158.095 47.0883 157.652 47.2669C156.697 47.6774 155.728 47.9204 154.747 47.9958C153.575 48.0861 152.432 47.9333 151.318 47.5376C151.373 48.8813 151.391 49.8909 151.37 50.5665L151.293 52.8471C152.214 52.6078 153.136 52.3924 154.06 52.201L154.56 52.1264C155.517 52.0528 156.02 52.339 156.07 52.9851C156.103 53.4158 155.893 53.8171 155.44 54.1889C154.988 54.5608 154.514 54.8139 154.018 54.9482C153.288 55.1489 152.283 55.3827 151.003 55.6496C150.83 56.8424 150.628 57.9652 150.396 59.0181C151.931 58.3223 153.512 57.9118 155.139 57.7866C156.934 57.6485 158.755 57.8455 160.601 58.3774Z" fill="black"/>
<path d="M188.085 37.4154C188.164 37.8185 188.308 38.4452 188.518 39.2956C188.921 41.094 189.225 42.539 189.429 43.6305C189.632 44.6981 189.776 45.7943 189.863 46.9189C189.975 48.3786 189.943 49.8374 189.766 51.2953C189.413 53.5851 188.597 55.3448 187.32 56.5745C186.805 57.0715 186.221 57.4654 185.569 57.7562C184.918 58.0471 184.075 58.3526 183.04 58.6729C182.593 58.8036 182.229 58.9159 181.947 59.0098C181.641 59.1055 181.373 59.2104 181.141 59.3246C180.907 59.4148 180.696 59.4912 180.508 59.5538C179.314 59.9827 178.387 60.2947 177.728 60.4898C177.093 60.6831 176.452 60.8046 175.806 60.8543C175.088 60.9095 174.564 60.8175 174.233 60.5782C173.925 60.3371 173.753 59.9772 173.716 59.4986C173.681 59.044 173.756 58.4485 173.94 57.7122C174.03 57.3201 174.24 56.4495 174.569 55.1002C175.156 52.7202 175.602 50.688 175.906 49.0038C176.231 47.2937 176.413 45.5828 176.449 43.8709C175.984 44.3882 175.547 44.6624 175.141 44.6937C174.806 44.7195 174.507 44.5861 174.243 44.2934C173.978 43.9768 173.766 43.5599 173.606 43.0426C173.506 42.6892 173.443 42.333 173.415 41.9741C173.339 40.993 173.513 39.8002 173.934 38.3957C174.221 37.4349 174.707 36.3985 175.392 35.2867C176.099 34.1492 176.811 33.5528 177.529 33.4975C178.079 33.4552 178.585 33.7653 179.045 34.428C179.667 35.3189 180.043 36.6138 180.174 38.3128C180.25 39.2939 180.251 40.2566 180.18 41.2009C180.132 42.1433 180.024 43.4033 179.857 44.9808C179.518 48.0879 178.799 51.7298 177.7 55.9064C178.321 55.8346 178.937 55.715 179.55 55.5474C180.185 55.3542 180.982 55.0762 181.941 54.7136L182.819 54.3933C182.983 54.3325 183.301 54.2359 183.772 54.1033C184.433 53.9322 184.985 53.7573 185.429 53.5787C185.872 53.4002 186.169 53.1968 186.32 52.9685C186.492 52.6906 186.55 52.1926 186.494 51.4748C186.465 51.0919 186.349 50.3667 186.146 49.299C186.047 48.9456 185.988 48.6493 185.97 48.41C185.81 47.2669 185.48 45.6434 184.981 43.5395C184.941 43.3259 184.808 42.8547 184.584 42.1258C184.131 40.6201 183.872 39.4485 183.808 38.611C183.708 37.3188 183.952 36.265 184.539 35.4495C185.103 34.6359 185.635 34.2098 186.138 34.1711C186.975 34.1067 187.624 35.1881 188.085 37.4154Z" fill="black"/>
<path d="M202.372 48.5923C202.661 47.6554 202.773 46.7682 202.709 45.9306C202.624 44.8299 202.244 43.9565 201.568 43.3104C200.55 42.2814 198.942 41.8756 196.745 42.0928C196.605 45.9068 196.62 50.4911 196.792 55.8457C198.1 55.0229 199.248 53.9838 200.235 52.7284C201.22 51.4491 201.932 50.0704 202.372 48.5923ZM196.888 39.2655C197.15 39.2213 197.555 39.178 198.106 39.1357C201.025 38.9111 203.258 39.4614 204.804 40.7867C205.962 41.7568 206.604 43.0673 206.731 44.7185C206.798 45.5799 206.685 46.6236 206.395 47.8495C205.778 50.1596 204.618 52.2829 202.913 54.2194C201.207 56.1319 199.205 57.6459 196.908 58.7614C197 61.2096 197.092 63.3448 197.184 65.1671C197.278 67.0133 197.36 68.5476 197.43 69.7698C197.63 72.691 197.784 75.6279 197.891 78.5804C197.906 79.0848 197.581 79.5551 196.916 79.9913C196.252 80.4276 195.561 80.6733 194.843 80.7286C194.005 80.793 193.563 80.5141 193.515 79.892L193.33 77.0177C193.282 76.0826 193.145 73.8305 192.918 70.2614C192.716 66.6904 192.567 63.3559 192.473 60.258C191.833 60.3795 191.202 60.4642 190.579 60.512C190.125 60.547 189.784 60.501 189.558 60.374C189.307 60.2488 189.173 60.0666 189.155 59.8273C189.122 59.3966 189.386 58.9189 189.947 58.3943C190.485 57.8715 191.052 57.5871 191.651 57.5411C191.986 57.5153 192.224 57.4849 192.366 57.45C192.233 52.2849 192.26 47.3122 192.446 42.5319C192.271 42.4491 192.175 42.3 192.158 42.0846C192.136 41.7974 192.266 41.4505 192.548 41.0437C192.537 40.9001 192.542 40.659 192.564 40.3203C192.597 39.8122 192.947 39.352 193.614 38.9397C194.278 38.5035 194.933 38.2605 195.579 38.2108C195.986 38.1795 196.304 38.2393 196.532 38.3902C196.784 38.5393 196.899 38.7832 196.877 39.1219L196.888 39.2655Z" fill="black"/>
<path d="M230.207 35.33C230.706 35.2435 231.093 35.2738 231.369 35.4211C231.669 35.5665 231.993 35.8665 232.341 36.3212C232.557 36.6175 232.673 36.8734 232.689 37.0888C232.73 37.6152 232.419 37.9521 231.756 38.0993L230.511 38.3396C229.351 38.5973 228.735 38.7289 228.664 38.7344C228.551 42.5944 228.484 45.9454 228.462 48.7875C228.44 51.6296 228.499 54.4293 228.639 57.1867C228.641 57.5235 228.517 57.7858 228.266 57.9736C228.04 58.1595 227.723 58.2681 227.316 58.2994C226.598 58.3546 225.866 58.2184 225.119 57.8908C224.393 57.5374 224.023 57.1085 224.009 56.6041C223.885 54.0621 223.83 51.4667 223.843 48.8179C223.854 46.1452 223.904 43.0482 223.995 39.5269L221.755 39.988C221.422 40.0377 221.158 40.046 220.963 40.0129C220.79 39.954 220.611 39.8233 220.427 39.6208C220.243 39.4184 220.057 39.192 219.869 38.9416C219.658 38.6931 219.542 38.4373 219.522 38.174C219.505 37.9587 219.574 37.7608 219.729 37.5804C219.883 37.4 220.126 37.273 220.458 37.1994C220.979 37.0871 221.582 36.9564 222.269 36.8073L224.08 36.4152L224.248 30.1558C224.269 29.4803 224.733 29.1075 225.643 29.0376C226.361 28.9823 227.07 29.1323 227.772 29.4876C228.495 29.8171 228.852 30.2349 228.843 30.7411L228.746 35.5868C229.413 35.4874 229.9 35.4018 230.207 35.33Z" fill="black"/>
<path d="M242.222 48.1982C242.673 46.8637 242.846 45.5144 242.741 44.1505C242.659 43.0736 242.392 42.1073 241.941 41.2513C241.512 40.3696 240.88 39.672 240.047 39.1585C239.491 38.8161 238.973 38.6633 238.495 38.7001C238.303 38.7149 238.068 38.7811 237.788 38.899C238.011 38.9781 238.131 39.1373 238.15 39.3766C238.161 39.5202 238.126 39.6914 238.045 39.8902C237.575 40.9854 237.233 42.1672 237.018 43.4354C236.8 44.6797 236.74 45.9241 236.835 47.1684C236.946 48.6041 237.266 49.9515 237.796 51.2106C238.139 51.9064 238.481 52.4457 238.824 52.8286C238.98 52.985 239.133 53.0936 239.282 53.1544C239.939 52.6224 240.51 51.9045 240.994 51.0007C241.502 50.0951 241.911 49.1609 242.222 48.1982ZM240.751 35.6381C241.941 35.7872 242.986 36.2243 243.884 36.9496C244.783 37.6748 245.49 38.5832 246.008 39.6747C246.523 40.7423 246.827 41.8743 246.919 43.0708C247.028 44.4826 246.864 45.9515 246.427 47.4775C245.991 49.0035 245.342 50.4254 244.481 51.7434C243.62 53.0613 242.63 54.1244 241.513 54.9325C240.464 55.6872 239.413 56.105 238.36 56.186C237.307 56.267 236.361 56.0149 235.521 55.4295C234.682 54.8442 234.036 53.9551 233.583 52.7624C233.081 51.5493 232.769 50.1651 232.65 48.6097C232.578 47.6765 232.58 46.7616 232.655 45.8652C232.491 45.926 232.242 45.9692 231.907 45.995C231.093 46.0576 230.665 45.8137 230.623 45.2633C230.608 45.0719 230.62 44.9145 230.659 44.7912C231.298 42.4553 232.366 40.3873 233.864 38.587C235.385 36.761 237.21 35.7661 239.34 35.6022C239.651 35.5783 240.121 35.5902 240.751 35.6381Z" fill="black"/>
<path d="M280.351 49.1642C280.669 49.236 280.847 49.5112 280.884 49.9897C280.917 50.4205 280.8 50.935 280.533 51.5332C280.29 52.1296 279.97 52.6597 279.572 53.1236C279.173 53.5635 278.758 53.8001 278.327 53.8332C278.255 53.8387 278.122 53.8249 277.927 53.7918C275.733 53.1181 273.14 52.8963 270.149 53.1265C267.78 53.3087 264.847 53.8352 261.352 54.7059C261.282 54.7354 261.175 54.7556 261.032 54.7667C260.505 54.8072 260.221 54.5522 260.179 54.0019C260.147 53.5951 260.23 53.1073 260.427 52.5385C260.624 51.9697 260.818 51.5215 261.01 51.1938L273.025 31.8551C272.315 31.6931 271.625 31.6379 270.955 31.6895C269.663 31.7889 268.312 32.2298 266.904 33.0121C265.84 33.5754 264.857 34.2528 263.955 35.0443C263.052 35.8119 262.524 36.6227 262.373 37.4768C262.272 38.0382 262.018 38.6475 261.611 39.3047C261.205 39.9618 260.765 40.3447 260.292 40.4533C259.914 40.5545 259.622 40.5168 259.416 40.3401C259.232 40.1376 259.126 39.8569 259.099 39.498C259.08 39.2587 259.098 39.0166 259.151 38.7718C259.473 37.0139 260.312 35.2404 261.666 33.4512C263.021 31.662 264.651 30.1645 266.556 28.9588C268.483 27.7274 270.416 27.0371 272.354 26.888C274.006 26.7609 275.509 27.0545 276.863 27.7687C277.042 27.8994 277.173 28.0337 277.255 28.1718C277.338 28.3098 277.386 28.4626 277.399 28.6301C277.406 28.7258 277.395 28.8952 277.366 29.1382C277.303 29.5763 277.158 30.0328 276.93 30.5077C276.725 30.9807 276.469 31.3977 276.159 31.7584C271.274 39.5963 267.622 45.4737 265.204 49.3908C267.569 48.8478 269.733 48.5008 271.695 48.3498C274.949 48.0994 277.835 48.3709 280.351 49.1642Z" fill="black"/>
<path d="M284.914 27.9436C285.612 26.9993 286.432 26.2381 287.374 25.6601C288.315 25.0582 289.3 24.7177 290.329 24.6385C292.052 24.506 293.684 25.0664 295.224 26.3199C297.512 28.214 298.784 30.8241 299.04 34.1503C299.152 35.61 299.051 37.1102 298.736 38.6508C298.444 40.1658 297.989 41.6089 297.373 42.9802C297.192 43.4515 296.869 44.1022 296.403 44.9323L297.168 45.9567C297.251 46.0947 297.3 46.2595 297.315 46.4509C297.35 46.9056 297.201 47.4707 296.867 48.1462C296.558 48.8199 296.184 49.4264 295.744 49.9658C295.302 50.4812 294.913 50.7518 294.578 50.7775C294.411 50.7904 294.273 50.7168 294.164 50.5567C294.081 50.4186 293.974 50.2704 293.841 50.1121C293.707 49.9299 293.559 49.7247 293.397 49.4964C291.285 52.09 289.321 53.4568 287.502 53.5967C286.88 53.6446 286.307 53.5562 285.784 53.3317C283.92 52.5604 282.847 50.3442 282.565 46.683C282.512 45.9891 282.485 44.8598 282.485 43.2952C282.466 39.9267 282.661 36.9751 283.067 34.4404L282.615 33.717L281.366 31.5744C281.311 31.4824 281.276 31.3407 281.262 31.1492C281.227 30.6946 281.376 30.1295 281.709 29.4539C282.04 28.7545 282.427 28.147 282.868 27.6316C283.332 27.0904 283.72 26.8079 284.031 26.784C284.174 26.7729 284.288 26.8364 284.37 26.9745C284.455 27.1364 284.54 27.2984 284.624 27.4604C284.733 27.6205 284.83 27.7816 284.914 27.9436ZM288.493 48.1767C289.331 47.7993 290.158 47.1339 290.975 46.1804C289.578 44.29 288.185 42.291 286.795 40.1834C286.795 40.8092 286.785 41.3035 286.764 41.6661C286.79 42.627 286.823 43.3706 286.864 43.897C286.95 45.0217 287.123 46.0074 287.38 46.8542C287.48 47.2076 287.573 47.4772 287.659 47.6631C287.77 47.8472 287.929 48.0396 288.137 48.2402C288.135 48.2163 288.171 48.2135 288.245 48.2319C288.316 48.2264 288.399 48.208 288.493 48.1767ZM287.515 32.1846C289.481 35.2107 291.595 38.2736 293.855 41.3733C294.608 39.5823 294.924 37.9091 294.805 36.3537C294.733 35.4204 294.508 34.5351 294.131 33.6975C293.693 32.6962 292.974 31.8007 291.975 31.011C290.975 30.2214 290.044 29.8597 289.183 29.926C288.657 29.9665 288.195 30.2187 287.797 30.6825L287.703 31.3397C287.705 31.3636 287.695 31.3885 287.673 31.4142L287.67 31.3783C287.67 31.3783 287.661 31.4151 287.642 31.4888C287.646 31.5366 287.629 31.6222 287.59 31.7456L287.515 32.1846Z" fill="black"/>
<path d="M302.317 40.3251C301.957 39.7029 301.747 39.009 301.688 38.2432C301.629 37.4775 301.738 36.7108 302.016 35.9433C302.294 35.1757 302.709 34.4698 303.262 33.8255C303.085 33.7187 302.989 33.5696 302.974 33.3782C302.969 33.3064 303.005 33.1472 303.082 32.9005C303.261 32.4054 303.639 32.0032 304.217 31.6939C304.795 31.3847 305.392 31.1702 306.009 31.0506C306.151 31.0156 306.377 30.9862 306.688 30.9622C307.956 30.8646 309.129 31.0874 310.206 31.6304C311.306 32.1715 312.069 33.0035 312.492 34.1263C312.67 34.5699 312.778 35.031 312.815 35.5096C312.892 36.5147 312.68 37.5059 312.177 38.4833C311.673 39.4368 310.974 40.2127 310.082 40.8109C309.511 41.2159 308.887 41.5527 308.21 41.8215C307.554 42.0645 306.904 42.2108 306.257 42.2605C305.444 42.3231 304.688 42.2007 303.991 41.8933C303.317 41.5841 302.759 41.0614 302.317 40.3251ZM307.806 38.9279C308.033 38.4291 308.124 37.8925 308.08 37.3182C308.037 36.7678 307.877 36.2506 307.599 35.7665C307.345 35.2805 307.002 34.8857 306.569 34.582C306.345 35.1048 306.257 35.6892 306.307 36.3353C306.333 36.6703 306.395 37.0025 306.492 37.332C306.558 37.5676 306.726 37.8677 306.995 38.2321C307.232 38.5027 307.383 38.7438 307.447 38.9555L307.746 39.077L307.806 38.9279ZM305.357 49.3344C307.627 46.2954 310.38 42.497 313.616 37.9394C316.023 34.5045 317.936 31.83 319.353 29.9156C319.55 29.6597 319.976 29.4103 320.631 29.1673C321.309 28.8986 321.935 28.7421 322.509 28.6979C323.179 28.6464 323.526 28.7761 323.55 29.0872C323.557 29.1829 323.508 29.3311 323.404 29.5317C321.856 31.9376 320.119 34.5505 318.194 37.3705C316.268 40.1905 314.372 42.924 312.506 45.571L309.483 49.9197C309.245 50.275 308.882 50.5557 308.392 50.7619C307.926 50.9662 307.43 51.0886 306.904 51.1291C306.377 51.1696 305.928 51.1199 305.556 50.98C305.208 50.8383 305.022 50.5999 304.996 50.2649C304.977 50.0256 305.098 49.7155 305.357 49.3344ZM324.152 48.1773C323.581 48.8952 322.836 49.5302 321.916 50.0824C321.019 50.6328 320.116 50.943 319.207 51.013C317.963 51.1087 316.958 50.7166 316.192 49.8368C315.505 49.0471 315.118 48.078 315.029 46.9294C314.971 46.1637 315.042 45.3758 315.245 44.5659C315.469 43.7302 315.77 42.9488 316.148 42.2217C316.508 41.5922 317.085 41.1145 317.879 40.7887C318.84 40.1371 319.799 39.7745 320.756 39.7008C322.12 39.5959 323.25 40.0505 324.146 41.0647C324.91 41.9207 325.337 42.9349 325.428 44.1074C325.481 44.8014 325.391 45.5064 325.157 46.2224C324.947 46.9366 324.612 47.5882 324.152 48.1773ZM320.687 46.783C320.761 46.4885 320.784 46.1617 320.756 45.8028C320.734 45.5156 320.676 45.2313 320.582 44.9496C320.554 44.9036 320.468 44.7177 320.322 44.3919C320.177 44.0661 319.997 43.755 319.781 43.4587C319.662 44.0937 319.621 44.6625 319.66 45.165C319.709 45.8111 319.848 46.3661 320.077 46.8299C320.163 47.0158 320.286 47.199 320.444 47.3794L320.687 46.783Z" fill="black"/>
</svg>
