<svg width="229" height="23" viewBox="0 0 229 23" fill="none" xmlns="http://www.w3.org/2000/svg">
<path d="M3.55273 12.9941C3.55273 13.5801 3.69434 14.127 3.97754 14.6348C4.27051 15.1328 4.65137 15.5723 5.12012 15.9531C5.58887 16.3242 6.12598 16.6172 6.73145 16.832C7.33691 17.0371 7.95703 17.1396 8.5918 17.1396C8.78711 17.1396 8.9873 17.125 9.19238 17.0957C9.39746 17.0566 9.58301 16.9932 9.74902 16.9053C9.91504 16.8174 10.0518 16.7051 10.1592 16.5684C10.2666 16.4219 10.3203 16.2412 10.3203 16.0264C10.3203 15.6162 10.1738 15.2109 9.88086 14.8105C9.59766 14.4102 9.22168 14.0146 8.75293 13.624C8.28418 13.2236 7.74707 12.8281 7.1416 12.4375C6.53613 12.0371 5.9209 11.6416 5.2959 11.251C4.6709 10.8604 4.05566 10.4697 3.4502 10.0791C2.84473 9.67871 2.30762 9.2832 1.83887 8.89258C1.37012 8.49219 0.989258 8.0918 0.696289 7.69141C0.413086 7.28125 0.271484 6.87109 0.271484 6.46094C0.271484 6.07031 0.369141 5.70898 0.564453 5.37695C0.769531 5.03516 1.03809 4.72754 1.37012 4.4541C1.70215 4.18066 2.08789 3.93652 2.52734 3.72168C2.9668 3.50684 3.42578 3.32617 3.9043 3.17969C4.38281 3.0332 4.86133 2.92578 5.33984 2.85742C5.82812 2.7793 6.29199 2.74023 6.73145 2.74023C7.05371 2.74023 7.40527 2.75 7.78613 2.76953C8.17676 2.7793 8.53809 2.82324 8.87012 2.90137C9.21191 2.96973 9.49512 3.07715 9.71973 3.22363C9.94434 3.37012 10.0566 3.58008 10.0566 3.85352C10.0566 3.94141 10.042 4.05371 10.0127 4.19043C9.9834 4.31738 9.90039 4.53223 9.76367 4.83496C9.62695 5.11816 9.46582 5.33301 9.28027 5.47949C9.10449 5.61621 8.875 5.68457 8.5918 5.68457C8.19141 5.68457 7.7666 5.64062 7.31738 5.55273C6.87793 5.45508 6.43359 5.40625 5.98438 5.40625C5.74023 5.40625 5.49121 5.4209 5.2373 5.4502C4.99316 5.46973 4.76855 5.51367 4.56348 5.58203C4.3584 5.64062 4.19238 5.7334 4.06543 5.86035C3.93848 5.97754 3.875 6.12891 3.875 6.31445C3.875 6.5 4.00684 6.70996 4.27051 6.94434C4.54395 7.17871 4.90039 7.4375 5.33984 7.7207C5.78906 8.00391 6.29688 8.31641 6.86328 8.6582C7.42969 8.99023 8.00586 9.35156 8.5918 9.74219C9.1875 10.123 9.76855 10.5332 10.335 10.9727C10.9014 11.4023 11.4043 11.8613 11.8438 12.3496C12.293 12.8281 12.6494 13.3359 12.9131 13.873C13.1865 14.4102 13.3232 14.9668 13.3232 15.543C13.3232 16.2461 13.1621 16.8662 12.8398 17.4033C12.5176 17.9404 12.1025 18.3896 11.5947 18.751C11.0869 19.1123 10.5254 19.3809 9.91016 19.5566C9.29492 19.7422 8.69434 19.835 8.1084 19.835C7.5127 19.835 6.90723 19.7617 6.29199 19.6152C5.68652 19.4785 5.10059 19.2783 4.53418 19.0146C3.96777 18.7607 3.43555 18.4531 2.9375 18.0918C2.44922 17.7207 2.02441 17.3105 1.66309 16.8613C1.30176 16.4023 1.01367 15.9092 0.798828 15.3818C0.59375 14.8545 0.491211 14.3027 0.491211 13.7266C0.491211 13.4824 0.505859 13.2383 0.535156 12.9941C0.574219 12.7402 0.637695 12.5205 0.725586 12.335C0.813477 12.1396 0.935547 11.9834 1.0918 11.8662C1.24805 11.7393 1.44824 11.6758 1.69238 11.6758C1.77051 11.6758 1.8584 11.6855 1.95605 11.7051C2.05371 11.7148 2.22461 11.7588 2.46875 11.8369C2.75195 11.9248 3.00098 12.0664 3.21582 12.2617C3.44043 12.4473 3.55273 12.6914 3.55273 12.9941ZM27.0049 15.792C27.2881 15.5479 27.5664 15.4258 27.8398 15.4258C27.9961 15.4258 28.1377 15.4648 28.2646 15.543C28.3916 15.6211 28.5332 15.7432 28.6895 15.9092C28.8359 16.1338 28.9385 16.3193 28.9971 16.4658C29.0654 16.6025 29.0996 16.7393 29.0996 16.876C29.0996 17.1689 28.9531 17.4473 28.6602 17.7109C28.1914 18.1016 27.6836 18.4531 27.1367 18.7656C26.5898 19.0684 26.0186 19.3271 25.4229 19.542C24.8271 19.7568 24.2119 19.918 23.5771 20.0254C22.9424 20.1426 22.3125 20.2012 21.6875 20.2012C20.8965 20.2012 20.1543 20.0986 19.4609 19.8936C18.7676 19.6982 18.1475 19.415 17.6006 19.0439C17.0635 18.6729 16.6094 18.2285 16.2383 17.7109C15.8672 17.1836 15.6035 16.5928 15.4473 15.9385C15.3594 15.665 15.2764 15.4893 15.1982 15.4111C15.1299 15.3232 15.0127 15.2793 14.8467 15.2793C14.4854 15.2793 14.207 15.1914 14.0117 15.0156C13.8164 14.8398 13.7188 14.5859 13.7188 14.2539C13.7188 14.1172 13.7285 14.0293 13.748 13.9902L13.7773 13.6973C13.8262 13.3457 13.9189 13.0918 14.0557 12.9355C14.2021 12.7793 14.4268 12.7012 14.7295 12.7012H14.9492C15.3594 12.7012 15.6475 12.5107 15.8135 12.1299C16.1162 11.4561 16.502 10.8408 16.9707 10.2842C17.4395 9.72754 17.9668 9.25391 18.5527 8.86328C19.1387 8.46289 19.7637 8.15527 20.4277 7.94043C21.1016 7.71582 21.7852 7.60352 22.4785 7.60352C23.2012 7.60352 23.875 7.71094 24.5 7.92578C25.1348 8.13086 25.6865 8.41895 26.1553 8.79004C26.624 9.16113 26.9902 9.5957 27.2539 10.0937C27.5273 10.5918 27.6641 11.1289 27.6641 11.7051C27.6641 12.1055 27.5859 12.4717 27.4297 12.8037C27.2734 13.1357 27.0488 13.4287 26.7559 13.6826C26.4629 13.9268 26.1064 14.127 25.6865 14.2832C25.2764 14.4395 24.8076 14.542 24.2803 14.5908L19.1973 15.1035C19.002 15.1035 18.8408 15.1523 18.7139 15.25C18.5967 15.3477 18.5381 15.4795 18.5381 15.6455C18.5381 15.8994 18.6309 16.1436 18.8164 16.3779C19.0117 16.6123 19.2656 16.8223 19.5781 17.0078C19.9004 17.1836 20.2666 17.3252 20.6768 17.4326C21.0967 17.54 21.5264 17.5938 21.9658 17.5938C22.3857 17.5938 22.8154 17.5547 23.2549 17.4766C23.7041 17.3887 24.1436 17.2666 24.5732 17.1104C25.0127 16.9541 25.4375 16.7686 25.8477 16.5537C26.2578 16.3291 26.6436 16.0752 27.0049 15.792ZM23.7383 12.0127C23.8848 11.9834 24.0117 11.915 24.1191 11.8076C24.2266 11.6904 24.2803 11.5488 24.2803 11.3828C24.2803 11.2363 24.2266 11.0996 24.1191 10.9727C24.0117 10.8457 23.8652 10.7334 23.6797 10.6357C23.4941 10.5283 23.2793 10.4453 23.0352 10.3867C22.791 10.3281 22.5322 10.2988 22.2588 10.2988C21.8584 10.2988 21.4482 10.3574 21.0283 10.4746C20.6084 10.5918 20.2275 10.748 19.8857 10.9434C19.5439 11.1289 19.2656 11.3389 19.0508 11.5732C18.8359 11.7979 18.7285 12.0225 18.7285 12.2471C18.7285 12.4717 18.8652 12.584 19.1387 12.584C19.3047 12.584 19.5732 12.5645 19.9443 12.5254C20.3154 12.4863 20.7256 12.4424 21.1748 12.3936C21.624 12.335 22.0781 12.2715 22.5371 12.2031C22.9961 12.1348 23.3965 12.0713 23.7383 12.0127ZM39.2363 6.19727C39.7734 6.19727 40.291 6.28027 40.7891 6.44629C41.2871 6.6123 41.7266 6.8418 42.1074 7.13477C42.4883 7.42773 42.791 7.7793 43.0156 8.18945C43.25 8.59961 43.3672 9.05371 43.3672 9.55176C43.3672 9.75684 43.3184 9.95703 43.2207 10.1523C43.1328 10.3379 43.0107 10.5039 42.8545 10.6504C42.6982 10.7871 42.5176 10.8994 42.3125 10.9873C42.1172 11.0654 41.9121 11.1045 41.6973 11.1045C41.6777 11.1045 41.6582 11.1094 41.6387 11.1191C41.6289 11.1191 41.6143 11.1191 41.5947 11.1191C41.5752 11.1289 41.5557 11.1338 41.5361 11.1338L41.5947 12.3057C41.6338 13.7021 41.8291 14.7227 42.1807 15.3672C42.542 16.0117 43.0107 16.334 43.5869 16.334C43.792 16.334 43.9727 16.3145 44.1289 16.2754C44.2949 16.2363 44.4463 16.1924 44.583 16.1436C44.7295 16.085 44.8662 16.0361 44.9932 15.9971C45.1201 15.958 45.2471 15.9385 45.374 15.9385C45.5986 15.9385 45.7939 16.0361 45.96 16.2314C46.1357 16.4268 46.2236 16.6611 46.2236 16.9346C46.2236 17.208 46.1162 17.4814 45.9014 17.7549C45.6963 18.0283 45.4229 18.2773 45.0811 18.502C44.7393 18.7168 44.3535 18.8926 43.9238 19.0293C43.4941 19.166 43.0596 19.2344 42.6201 19.2344C41.8584 19.2344 41.1895 18.9219 40.6133 18.2969C40.0371 17.6621 39.627 16.7344 39.3828 15.5137C39.3242 15.3184 39.2461 15.2207 39.1484 15.2207C39.0312 15.2207 38.9287 15.2793 38.8408 15.3965C37.874 16.6172 36.8438 17.5352 35.75 18.1504C34.6562 18.7559 33.5771 19.0586 32.5127 19.0586C32.0146 19.0586 31.5654 18.9854 31.165 18.8389C30.7646 18.6924 30.4229 18.4873 30.1396 18.2236C29.8662 17.9502 29.6514 17.623 29.4951 17.2422C29.3486 16.8516 29.2754 16.417 29.2754 15.9385C29.2754 15.2646 29.4219 14.5566 29.7148 13.8145C30.0176 13.0723 30.4229 12.3398 30.9307 11.6172C31.4385 10.8945 32.0244 10.2061 32.6885 9.55176C33.3623 8.89746 34.0654 8.32129 34.7979 7.82324C35.54 7.3252 36.292 6.92969 37.0537 6.63672C37.8154 6.34375 38.543 6.19727 39.2363 6.19727ZM38.7529 11.2656C38.9287 10.9336 39.0898 10.6943 39.2363 10.5479C39.3828 10.3916 39.5928 10.2891 39.8662 10.2402C40.0811 10.2109 40.1885 10.1426 40.1885 10.0352C40.1885 9.95703 40.1592 9.87402 40.1006 9.78613C39.915 9.53223 39.7197 9.3125 39.5146 9.12695C39.3096 8.93164 39.0361 8.83398 38.6943 8.83398C38.3232 8.83398 37.9082 8.94141 37.4492 9.15625C36.9902 9.37109 36.5215 9.65918 36.043 10.0205C35.5742 10.3721 35.1104 10.7773 34.6514 11.2363C34.2021 11.6855 33.8018 12.1494 33.4502 12.6279C33.0986 13.1064 32.8154 13.5801 32.6006 14.0488C32.3857 14.5176 32.2783 14.9375 32.2783 15.3086C32.2783 15.6406 32.3662 15.8994 32.542 16.085C32.7275 16.2705 32.9766 16.3633 33.2891 16.3633C34.0898 16.3633 34.9639 15.9385 35.9111 15.0889C36.8584 14.2393 37.8057 12.9648 38.7529 11.2656ZM48.0107 19.6299C47.9424 18.3311 47.8301 17.1348 47.6738 16.041C47.5273 14.9375 47.3711 13.9756 47.2051 13.1553C47.0488 12.335 46.9072 11.6709 46.7803 11.1631C46.6631 10.6553 46.6045 10.3379 46.6045 10.2109C46.6045 10.0254 46.6729 9.84473 46.8096 9.66895C46.9561 9.49316 47.1367 9.3418 47.3516 9.21484C47.5664 9.07812 47.7959 8.9707 48.04 8.89258C48.2939 8.81445 48.5234 8.77539 48.7285 8.77539C48.8945 8.77539 49.0361 8.80469 49.1533 8.86328C49.2803 8.92187 49.3682 9.01953 49.417 9.15625C49.4658 9.32227 49.5098 9.49805 49.5488 9.68359C49.5977 9.85937 49.6465 10.0742 49.6953 10.3281C49.7539 10.6895 49.832 10.8701 49.9297 10.8701C50.0371 10.8701 50.1592 10.709 50.2959 10.3867C50.4912 9.9375 50.7012 9.56641 50.9258 9.27344C51.1504 8.98047 51.3896 8.75098 51.6436 8.58496C51.9072 8.40918 52.1758 8.28711 52.4492 8.21875C52.7324 8.15039 53.0254 8.11621 53.3281 8.11621C54.2461 8.11621 55.0225 8.47754 55.6572 9.2002C56.3018 9.92285 56.8047 10.9678 57.166 12.335C57.2148 12.4912 57.2588 12.5937 57.2979 12.6426C57.3369 12.6816 57.3809 12.7012 57.4297 12.7012C57.4785 12.7012 57.5273 12.6816 57.5762 12.6426C57.6348 12.5937 57.6885 12.501 57.7373 12.3643C57.9717 11.7295 58.2451 11.1924 58.5576 10.7529C58.8701 10.3037 59.1924 9.94238 59.5244 9.66895C59.8662 9.38574 60.2129 9.18066 60.5645 9.05371C60.916 8.92676 61.2529 8.86328 61.5752 8.86328C62.1709 8.86328 62.708 9.08301 63.1865 9.52246C63.6748 9.95215 64.1045 10.6211 64.4756 11.5293C64.8564 12.4277 65.1836 13.5703 65.457 14.957C65.7402 16.334 65.9746 17.9697 66.1602 19.8643C66.1602 20.3916 65.999 20.7578 65.6768 20.9629C65.3545 21.1777 64.915 21.2852 64.3584 21.2852C63.9971 21.2852 63.7139 21.207 63.5088 21.0508C63.3037 20.8945 63.1865 20.6895 63.1572 20.4355C63.0303 19.0781 62.8887 17.8721 62.7324 16.8174C62.5859 15.7529 62.4248 14.8594 62.249 14.1367C62.0732 13.4043 61.8779 12.8477 61.6631 12.4668C61.458 12.0859 61.2285 11.8955 60.9746 11.8955C60.8477 11.8955 60.6865 11.9883 60.4912 12.1738C60.3057 12.3594 60.1055 12.7012 59.8906 13.1992C59.6758 13.6875 59.4512 14.3613 59.2168 15.2207C58.9824 16.0703 58.7578 17.1592 58.543 18.4873C58.4844 18.8584 58.3037 19.1416 58.001 19.3369C57.708 19.5322 57.3467 19.6299 56.917 19.6299C56.4189 19.6299 56.0723 19.5518 55.877 19.3955C55.6914 19.2393 55.5889 18.9756 55.5693 18.6045C55.5303 17.96 55.4619 17.3203 55.3643 16.6855C55.2764 16.041 55.1641 15.4307 55.0273 14.8545C54.8906 14.2686 54.7393 13.7314 54.5732 13.2432C54.4072 12.7451 54.2314 12.3154 54.0459 11.9541C53.8604 11.583 53.6699 11.2949 53.4746 11.0898C53.2793 10.8848 53.0889 10.7822 52.9033 10.7822C52.6592 10.7822 52.4199 10.9531 52.1855 11.2949C51.9609 11.6367 51.7559 12.1201 51.5703 12.7451C51.3945 13.3701 51.2529 14.1221 51.1455 15.001C51.0381 15.8799 50.9844 16.8613 50.9844 17.9453C50.9844 18.1309 50.9893 18.3164 50.999 18.502C51.0088 18.6777 51.0137 18.8633 51.0137 19.0586C51.0137 19.3516 50.9648 19.5908 50.8672 19.7764C50.7793 19.9619 50.6475 20.1084 50.4717 20.2158C50.3057 20.3232 50.1104 20.3965 49.8857 20.4355C49.6611 20.4746 49.417 20.4941 49.1533 20.4941C48.9092 20.4941 48.7139 20.4746 48.5674 20.4355C48.4209 20.4062 48.3086 20.3574 48.2305 20.2891C48.1523 20.2207 48.0986 20.1279 48.0693 20.0107C48.04 19.9033 48.0205 19.7764 48.0107 19.6299ZM67.2148 2.31543C67.2148 1.80762 67.3613 1.44629 67.6543 1.23145C67.9473 1.0166 68.4307 0.90918 69.1045 0.90918C69.3389 0.90918 69.5439 0.933594 69.7197 0.982422C69.8955 1.03125 70.042 1.11426 70.1592 1.23145C70.2764 1.33887 70.3691 1.49023 70.4375 1.68555C70.5156 1.87109 70.5791 2.11035 70.6279 2.40332C70.7549 3.27246 70.8818 4.18555 71.0088 5.14258C71.1455 6.08984 71.2725 7.03711 71.3896 7.98437C71.5166 8.92187 71.6338 9.83984 71.7412 10.7383C71.8486 11.627 71.9414 12.457 72.0195 13.2285C72.1074 13.9902 72.1709 14.6689 72.21 15.2646C72.2588 15.8506 72.2832 16.3145 72.2832 16.6562C72.2832 17.0078 72.249 17.3057 72.1807 17.5498C72.1221 17.7939 72.0146 17.9893 71.8584 18.1357C71.7119 18.2822 71.5166 18.3896 71.2725 18.458C71.0381 18.5166 70.7451 18.5459 70.3936 18.5459C70.0518 18.5459 69.7783 18.458 69.5732 18.2822C69.3779 18.1064 69.2803 17.8379 69.2803 17.4766C69.2803 17.1055 69.251 16.6123 69.1924 15.9971C69.1338 15.3721 69.0557 14.6787 68.958 13.917C68.8604 13.1553 68.748 12.3447 68.6211 11.4854C68.5039 10.626 68.377 9.77637 68.2402 8.93652C68.1133 8.09668 67.9863 7.29102 67.8594 6.51953C67.7422 5.73828 67.6348 5.0498 67.5371 4.4541C67.4395 3.84863 67.3613 3.35547 67.3027 2.97461C67.2441 2.58398 67.2148 2.36426 67.2148 2.31543ZM87.0928 15.792C87.376 15.5479 87.6543 15.4258 87.9277 15.4258C88.084 15.4258 88.2256 15.4648 88.3525 15.543C88.4795 15.6211 88.6211 15.7432 88.7773 15.9092C88.9238 16.1338 89.0264 16.3193 89.085 16.4658C89.1533 16.6025 89.1875 16.7393 89.1875 16.876C89.1875 17.1689 89.041 17.4473 88.748 17.7109C88.2793 18.1016 87.7715 18.4531 87.2246 18.7656C86.6777 19.0684 86.1064 19.3271 85.5107 19.542C84.915 19.7568 84.2998 19.918 83.665 20.0254C83.0303 20.1426 82.4004 20.2012 81.7754 20.2012C80.9844 20.2012 80.2422 20.0986 79.5488 19.8936C78.8555 19.6982 78.2354 19.415 77.6885 19.0439C77.1514 18.6729 76.6973 18.2285 76.3262 17.7109C75.9551 17.1836 75.6914 16.5928 75.5352 15.9385C75.4473 15.665 75.3643 15.4893 75.2861 15.4111C75.2178 15.3232 75.1006 15.2793 74.9346 15.2793C74.5732 15.2793 74.2949 15.1914 74.0996 15.0156C73.9043 14.8398 73.8066 14.5859 73.8066 14.2539C73.8066 14.1172 73.8164 14.0293 73.8359 13.9902L73.8652 13.6973C73.9141 13.3457 74.0068 13.0918 74.1436 12.9355C74.29 12.7793 74.5146 12.7012 74.8174 12.7012H75.0371C75.4473 12.7012 75.7354 12.5107 75.9014 12.1299C76.2041 11.4561 76.5898 10.8408 77.0586 10.2842C77.5273 9.72754 78.0547 9.25391 78.6406 8.86328C79.2266 8.46289 79.8516 8.15527 80.5156 7.94043C81.1895 7.71582 81.873 7.60352 82.5664 7.60352C83.2891 7.60352 83.9629 7.71094 84.5879 7.92578C85.2227 8.13086 85.7744 8.41895 86.2432 8.79004C86.7119 9.16113 87.0781 9.5957 87.3418 10.0937C87.6152 10.5918 87.752 11.1289 87.752 11.7051C87.752 12.1055 87.6738 12.4717 87.5176 12.8037C87.3613 13.1357 87.1367 13.4287 86.8438 13.6826C86.5508 13.9268 86.1943 14.127 85.7744 14.2832C85.3643 14.4395 84.8955 14.542 84.3682 14.5908L79.2852 15.1035C79.0898 15.1035 78.9287 15.1523 78.8018 15.25C78.6846 15.3477 78.626 15.4795 78.626 15.6455C78.626 15.8994 78.7188 16.1436 78.9043 16.3779C79.0996 16.6123 79.3535 16.8223 79.666 17.0078C79.9883 17.1836 80.3545 17.3252 80.7646 17.4326C81.1846 17.54 81.6143 17.5937 82.0537 17.5937C82.4736 17.5937 82.9033 17.5547 83.3428 17.4766C83.792 17.3887 84.2314 17.2666 84.6611 17.1104C85.1006 16.9541 85.5254 16.7686 85.9355 16.5537C86.3457 16.3291 86.7314 16.0752 87.0928 15.792ZM83.8262 12.0127C83.9727 11.9834 84.0996 11.915 84.207 11.8076C84.3145 11.6904 84.3682 11.5488 84.3682 11.3828C84.3682 11.2363 84.3145 11.0996 84.207 10.9727C84.0996 10.8457 83.9531 10.7334 83.7676 10.6357C83.582 10.5283 83.3672 10.4453 83.123 10.3867C82.8789 10.3281 82.6201 10.2988 82.3467 10.2988C81.9463 10.2988 81.5361 10.3574 81.1162 10.4746C80.6963 10.5918 80.3154 10.748 79.9736 10.9434C79.6318 11.1289 79.3535 11.3389 79.1387 11.5732C78.9238 11.7979 78.8164 12.0225 78.8164 12.2471C78.8164 12.4717 78.9531 12.584 79.2266 12.584C79.3926 12.584 79.6611 12.5645 80.0322 12.5254C80.4033 12.4863 80.8135 12.4424 81.2627 12.3936C81.7119 12.335 82.166 12.2715 82.625 12.2031C83.084 12.1348 83.4844 12.0713 83.8262 12.0127ZM93.7725 6.28516C94.4268 6.28516 95.1006 6.37305 95.7939 6.54883C96.4873 6.71484 97.1221 6.93457 97.6982 7.20801C98.2744 7.47168 98.748 7.76953 99.1191 8.10156C99.4902 8.43359 99.6758 8.75586 99.6758 9.06836C99.6758 9.22461 99.6074 9.40039 99.4707 9.5957C99.334 9.78125 99.168 9.96191 98.9727 10.1377C98.7773 10.3037 98.5625 10.4453 98.3281 10.5625C98.1035 10.6699 97.9033 10.7236 97.7275 10.7236C97.4932 10.7236 97.2295 10.626 96.9365 10.4307C96.6533 10.2354 96.3359 10.0205 95.9844 9.78613C95.6426 9.54199 95.2666 9.32227 94.8564 9.12695C94.4463 8.93164 94.002 8.83398 93.5234 8.83398C93.2109 8.83398 92.9521 8.91211 92.7471 9.06836C92.5518 9.21484 92.4541 9.4248 92.4541 9.69824C92.4541 9.94238 92.5713 10.1914 92.8057 10.4453C93.04 10.6895 93.3477 10.9434 93.7285 11.207C94.1191 11.4707 94.5586 11.749 95.0469 12.042C95.5352 12.335 96.0332 12.6475 96.541 12.9795C97.0586 13.3115 97.5615 13.6729 98.0498 14.0635C98.5381 14.4541 98.9727 14.8789 99.3535 15.3379C99.7441 15.7969 100.057 16.2998 100.291 16.8467C100.525 17.3838 100.643 17.9697 100.643 18.6045C100.643 19.1514 100.545 19.6494 100.35 20.0986C100.154 20.5479 99.876 20.9336 99.5146 21.2559C99.1533 21.5781 98.7236 21.8271 98.2256 22.0029C97.7275 22.1787 97.1807 22.2666 96.585 22.2666C95.833 22.2666 95.1396 22.1494 94.5049 21.915C93.8701 21.6904 93.3232 21.3779 92.8643 20.9775C92.4053 20.5771 92.0439 20.0986 91.7803 19.542C91.5264 18.9854 91.3994 18.375 91.3994 17.7109C91.3994 16.8516 91.5508 16.2266 91.8535 15.8359C92.166 15.4453 92.6543 15.25 93.3184 15.25C93.7285 15.25 94.0557 15.3281 94.2998 15.4844C94.5439 15.6406 94.666 15.8311 94.666 16.0557C94.666 16.1729 94.6465 16.2949 94.6074 16.4219C94.5684 16.5391 94.5244 16.666 94.4756 16.8027C94.4365 16.9297 94.3975 17.0664 94.3584 17.2129C94.3291 17.3594 94.3145 17.5059 94.3145 17.6523C94.3145 17.9062 94.373 18.1504 94.4902 18.3848C94.6074 18.6191 94.7637 18.8242 94.959 19C95.1641 19.1855 95.3984 19.332 95.6621 19.4395C95.9258 19.5469 96.2041 19.6006 96.4971 19.6006C97.2783 19.6006 97.6689 19.2783 97.6689 18.6338C97.6689 18.126 97.4688 17.6475 97.0684 17.1982C96.668 16.7393 96.165 16.2949 95.5596 15.8652C94.9541 15.4258 94.2998 14.9863 93.5967 14.5469C92.9033 14.1074 92.2539 13.6484 91.6484 13.1699C91.043 12.6914 90.54 12.1836 90.1396 11.6465C89.7393 11.0996 89.5391 10.5088 89.5391 9.87402C89.5391 9.34668 89.6465 8.86328 89.8613 8.42383C90.0859 7.98437 90.3887 7.6084 90.7695 7.2959C91.1504 6.97363 91.5947 6.72461 92.1025 6.54883C92.6201 6.37305 93.1768 6.28516 93.7725 6.28516ZM104.817 6.28516C105.472 6.28516 106.146 6.37305 106.839 6.54883C107.532 6.71484 108.167 6.93457 108.743 7.20801C109.319 7.47168 109.793 7.76953 110.164 8.10156C110.535 8.43359 110.721 8.75586 110.721 9.06836C110.721 9.22461 110.652 9.40039 110.516 9.5957C110.379 9.78125 110.213 9.96191 110.018 10.1377C109.822 10.3037 109.607 10.4453 109.373 10.5625C109.148 10.6699 108.948 10.7236 108.772 10.7236C108.538 10.7236 108.274 10.626 107.981 10.4307C107.698 10.2354 107.381 10.0205 107.029 9.78613C106.688 9.54199 106.312 9.32227 105.901 9.12695C105.491 8.93164 105.047 8.83398 104.568 8.83398C104.256 8.83398 103.997 8.91211 103.792 9.06836C103.597 9.21484 103.499 9.4248 103.499 9.69824C103.499 9.94238 103.616 10.1914 103.851 10.4453C104.085 10.6895 104.393 10.9434 104.773 11.207C105.164 11.4707 105.604 11.749 106.092 12.042C106.58 12.335 107.078 12.6475 107.586 12.9795C108.104 13.3115 108.606 13.6729 109.095 14.0635C109.583 14.4541 110.018 14.8789 110.398 15.3379C110.789 15.7969 111.102 16.2998 111.336 16.8467C111.57 17.3838 111.688 17.9697 111.688 18.6045C111.688 19.1514 111.59 19.6494 111.395 20.0986C111.199 20.5479 110.921 20.9336 110.56 21.2559C110.198 21.5781 109.769 21.8271 109.271 22.0029C108.772 22.1787 108.226 22.2666 107.63 22.2666C106.878 22.2666 106.185 22.1494 105.55 21.915C104.915 21.6904 104.368 21.3779 103.909 20.9775C103.45 20.5771 103.089 20.0986 102.825 19.542C102.571 18.9854 102.444 18.375 102.444 17.7109C102.444 16.8516 102.596 16.2266 102.898 15.8359C103.211 15.4453 103.699 15.25 104.363 15.25C104.773 15.25 105.101 15.3281 105.345 15.4844C105.589 15.6406 105.711 15.8311 105.711 16.0557C105.711 16.1729 105.691 16.2949 105.652 16.4219C105.613 16.5391 105.569 16.666 105.521 16.8027C105.481 16.9297 105.442 17.0664 105.403 17.2129C105.374 17.3594 105.359 17.5059 105.359 17.6523C105.359 17.9062 105.418 18.1504 105.535 18.3848C105.652 18.6191 105.809 18.8242 106.004 19C106.209 19.1855 106.443 19.332 106.707 19.4395C106.971 19.5469 107.249 19.6006 107.542 19.6006C108.323 19.6006 108.714 19.2783 108.714 18.6338C108.714 18.126 108.514 17.6475 108.113 17.1982C107.713 16.7393 107.21 16.2949 106.604 15.8652C105.999 15.4258 105.345 14.9863 104.642 14.5469C103.948 14.1074 103.299 13.6484 102.693 13.1699C102.088 12.6914 101.585 12.1836 101.185 11.6465C100.784 11.0996 100.584 10.5088 100.584 9.87402C100.584 9.34668 100.691 8.86328 100.906 8.42383C101.131 7.98437 101.434 7.6084 101.814 7.2959C102.195 6.97363 102.64 6.72461 103.147 6.54883C103.665 6.37305 104.222 6.28516 104.817 6.28516ZM121.634 8.29199C121.448 8.29199 121.233 8.32617 120.989 8.39453C120.745 8.45312 120.491 8.52637 120.228 8.61426C119.964 8.69238 119.7 8.76562 119.437 8.83398C119.183 8.89258 118.953 8.92187 118.748 8.92187C118.533 8.92187 118.362 8.8877 118.235 8.81934C118.118 8.74121 118.03 8.64355 117.972 8.52637C117.913 8.40918 117.879 8.28223 117.869 8.14551C117.859 8.00879 117.854 7.87695 117.854 7.75C117.854 7.37891 117.962 7.07617 118.177 6.8418C118.401 6.60742 118.719 6.41211 119.129 6.25586C119.539 6.08984 120.032 5.95312 120.608 5.8457C121.194 5.72852 121.854 5.60156 122.586 5.46484C123.738 5.25 124.788 5.08398 125.735 4.9668C126.692 4.84961 127.601 4.7666 128.46 4.71777C129.329 4.65918 130.179 4.625 131.009 4.61523C131.839 4.60547 132.713 4.60059 133.631 4.60059C133.904 4.60059 134.119 4.63477 134.275 4.70312C134.432 4.77148 134.544 4.85937 134.612 4.9668C134.69 5.07422 134.734 5.19629 134.744 5.33301C134.764 5.46973 134.773 5.60645 134.773 5.74316C134.773 5.89941 134.749 6.07031 134.7 6.25586C134.661 6.43164 134.588 6.59766 134.48 6.75391C134.383 6.90039 134.246 7.02246 134.07 7.12012C133.904 7.21777 133.699 7.2666 133.455 7.2666H132.283C131.814 7.2666 131.316 7.27148 130.789 7.28125C130.262 7.28125 129.739 7.29102 129.222 7.31055C128.704 7.32031 128.206 7.33984 127.728 7.36914C127.259 7.39844 126.839 7.44238 126.468 7.50098C126.106 7.5498 125.818 7.61328 125.604 7.69141C125.389 7.76953 125.281 7.86719 125.281 7.98437C125.281 8.10156 125.325 8.29687 125.413 8.57031C125.501 8.84375 125.608 9.1416 125.735 9.46387C125.862 9.77637 125.989 10.0889 126.116 10.4014C126.253 10.7041 126.365 10.958 126.453 11.1631C126.531 11.3291 126.619 11.4414 126.717 11.5C126.814 11.5586 126.946 11.5879 127.112 11.5879C127.513 11.5879 127.923 11.5635 128.343 11.5146C128.763 11.4658 129.183 11.4121 129.603 11.3535C130.032 11.2852 130.457 11.2266 130.877 11.1777C131.307 11.1289 131.731 11.1045 132.151 11.1045C132.386 11.1045 132.576 11.1484 132.723 11.2363C132.879 11.3145 133.001 11.417 133.089 11.5439C133.177 11.6611 133.235 11.7881 133.265 11.9248C133.304 12.0615 133.323 12.1787 133.323 12.2764C133.323 12.7158 133.187 13.0479 132.913 13.2725C132.64 13.4873 132.269 13.6484 131.8 13.7559C131.331 13.8633 130.784 13.9365 130.159 13.9756C129.544 14.0146 128.89 14.0684 128.196 14.1367L127.845 14.166C127.718 14.1855 127.62 14.2295 127.552 14.2979C127.483 14.3662 127.449 14.4541 127.449 14.5615C127.449 14.5908 127.454 14.6152 127.464 14.6348C127.474 14.6543 127.479 14.6787 127.479 14.708C127.566 15.0303 127.669 15.3916 127.786 15.792C127.903 16.1826 128.011 16.5732 128.108 16.9639C128.216 17.3545 128.304 17.7256 128.372 18.0771C128.44 18.4287 128.475 18.7168 128.475 18.9414C128.475 19.3906 128.304 19.7324 127.962 19.9668C127.63 20.2012 127.156 20.3184 126.541 20.3184C126.316 20.3184 126.097 20.2646 125.882 20.1572C125.677 20.0596 125.55 19.874 125.501 19.6006C125.345 18.7998 125.169 18.0186 124.974 17.2568C124.778 16.4854 124.573 15.7187 124.358 14.957C124.271 14.6934 124.1 14.5615 123.846 14.5615C123.553 14.5615 123.221 14.5518 122.85 14.5322C122.488 14.5127 122.117 14.4736 121.736 14.415C121.355 14.3564 120.984 14.2832 120.623 14.1953C120.271 14.0977 119.954 13.9707 119.671 13.8145C119.397 13.6582 119.173 13.4727 118.997 13.2578C118.831 13.043 118.748 12.7891 118.748 12.4961C118.748 12.3105 118.792 12.1299 118.88 11.9541C118.968 11.7686 119.08 11.6074 119.217 11.4707C119.354 11.3242 119.5 11.207 119.656 11.1191C119.822 11.0312 119.979 10.9873 120.125 10.9873C120.301 10.9873 120.491 11.0312 120.696 11.1191C120.901 11.207 121.121 11.3047 121.355 11.4121C121.59 11.5195 121.839 11.6172 122.103 11.7051C122.376 11.793 122.669 11.8369 122.981 11.8369C123.138 11.8369 123.216 11.7539 123.216 11.5879C123.216 11.4316 123.187 11.2266 123.128 10.9727C123.079 10.7187 123.011 10.4551 122.923 10.1816C122.835 9.89844 122.732 9.625 122.615 9.36133C122.508 9.08789 122.391 8.8584 122.264 8.67285C122.186 8.55566 122.103 8.46289 122.015 8.39453C121.937 8.32617 121.81 8.29199 121.634 8.29199ZM142.654 8.04297C142.293 8.04297 141.976 8.14062 141.702 8.33594C141.429 8.52148 141.194 8.78516 140.999 9.12695C140.804 9.45898 140.643 9.85449 140.516 10.3135C140.389 10.7627 140.286 11.2559 140.208 11.793C140.13 12.3301 140.076 12.8916 140.047 13.4775C140.018 14.0635 140.003 14.6543 140.003 15.25C140.003 16.0312 140.032 16.8027 140.091 17.5645C140.159 18.3164 140.193 19.0146 140.193 19.6592C140.193 20.0791 140.037 20.4062 139.725 20.6406C139.412 20.8848 138.968 21.0068 138.392 21.0068C138.284 21.0068 138.162 20.9971 138.025 20.9775C137.889 20.958 137.757 20.9189 137.63 20.8604C137.513 20.8018 137.405 20.7187 137.308 20.6113C137.22 20.5137 137.171 20.377 137.161 20.2012C137.073 19.3418 136.946 18.4629 136.78 17.5645C136.614 16.666 136.404 15.7725 136.15 14.8838C135.906 13.9854 135.608 13.0967 135.257 12.2178C134.915 11.3389 134.52 10.4795 134.07 9.63965C133.992 9.49316 133.924 9.35645 133.865 9.22949C133.816 9.10254 133.792 8.98047 133.792 8.86328C133.792 8.7168 133.855 8.56055 133.982 8.39453C134.119 8.21875 134.285 8.05762 134.48 7.91113C134.686 7.76465 134.905 7.64746 135.14 7.55957C135.384 7.46191 135.618 7.41309 135.843 7.41309C136.214 7.41309 136.541 7.67187 136.824 8.18945C137.107 8.69727 137.371 9.5127 137.615 10.6357C137.664 10.8311 137.703 10.9678 137.732 11.0459C137.762 11.124 137.801 11.1631 137.85 11.1631C137.957 11.1631 138.025 10.9971 138.055 10.665C138.172 9.7373 138.372 8.94141 138.655 8.27734C138.938 7.60352 139.29 7.05176 139.71 6.62207C140.14 6.18262 140.628 5.86035 141.175 5.65527C141.731 5.4502 142.342 5.34766 143.006 5.34766C143.387 5.34766 143.772 5.38184 144.163 5.4502C144.554 5.51855 144.905 5.62109 145.218 5.75781C145.53 5.89453 145.784 6.06055 145.979 6.25586C146.175 6.45117 146.272 6.6709 146.272 6.91504C146.272 7.09082 146.233 7.30078 146.155 7.54492C146.087 7.7793 145.994 8.00879 145.877 8.2334C145.76 8.44824 145.623 8.63379 145.467 8.79004C145.32 8.93652 145.169 9.00977 145.013 9.00977C144.837 9.00977 144.666 8.96094 144.5 8.86328C144.334 8.75586 144.153 8.64355 143.958 8.52637C143.772 8.40918 143.572 8.30176 143.357 8.2041C143.152 8.09668 142.918 8.04297 142.654 8.04297ZM157.815 15.792C158.099 15.5479 158.377 15.4258 158.65 15.4258C158.807 15.4258 158.948 15.4648 159.075 15.543C159.202 15.6211 159.344 15.7432 159.5 15.9092C159.646 16.1338 159.749 16.3193 159.808 16.4658C159.876 16.6025 159.91 16.7393 159.91 16.876C159.91 17.1689 159.764 17.4473 159.471 17.7109C159.002 18.1016 158.494 18.4531 157.947 18.7656C157.4 19.0684 156.829 19.3271 156.233 19.542C155.638 19.7568 155.022 19.918 154.388 20.0254C153.753 20.1426 153.123 20.2012 152.498 20.2012C151.707 20.2012 150.965 20.0986 150.271 19.8936C149.578 19.6982 148.958 19.415 148.411 19.0439C147.874 18.6729 147.42 18.2285 147.049 17.7109C146.678 17.1836 146.414 16.5928 146.258 15.9385C146.17 15.665 146.087 15.4893 146.009 15.4111C145.94 15.3232 145.823 15.2793 145.657 15.2793C145.296 15.2793 145.018 15.1914 144.822 15.0156C144.627 14.8398 144.529 14.5859 144.529 14.2539C144.529 14.1172 144.539 14.0293 144.559 13.9902L144.588 13.6973C144.637 13.3457 144.729 13.0918 144.866 12.9355C145.013 12.7793 145.237 12.7012 145.54 12.7012H145.76C146.17 12.7012 146.458 12.5107 146.624 12.1299C146.927 11.4561 147.312 10.8408 147.781 10.2842C148.25 9.72754 148.777 9.25391 149.363 8.86328C149.949 8.46289 150.574 8.15527 151.238 7.94043C151.912 7.71582 152.596 7.60352 153.289 7.60352C154.012 7.60352 154.686 7.71094 155.311 7.92578C155.945 8.13086 156.497 8.41895 156.966 8.79004C157.435 9.16113 157.801 9.5957 158.064 10.0937C158.338 10.5918 158.475 11.1289 158.475 11.7051C158.475 12.1055 158.396 12.4717 158.24 12.8037C158.084 13.1357 157.859 13.4287 157.566 13.6826C157.273 13.9268 156.917 14.127 156.497 14.2832C156.087 14.4395 155.618 14.542 155.091 14.5908L150.008 15.1035C149.812 15.1035 149.651 15.1523 149.524 15.25C149.407 15.3477 149.349 15.4795 149.349 15.6455C149.349 15.8994 149.441 16.1436 149.627 16.3779C149.822 16.6123 150.076 16.8223 150.389 17.0078C150.711 17.1836 151.077 17.3252 151.487 17.4326C151.907 17.54 152.337 17.5937 152.776 17.5937C153.196 17.5937 153.626 17.5547 154.065 17.4766C154.515 17.3887 154.954 17.2666 155.384 17.1104C155.823 16.9541 156.248 16.7686 156.658 16.5537C157.068 16.3291 157.454 16.0752 157.815 15.792ZM154.549 12.0127C154.695 11.9834 154.822 11.915 154.93 11.8076C155.037 11.6904 155.091 11.5488 155.091 11.3828C155.091 11.2363 155.037 11.0996 154.93 10.9727C154.822 10.8457 154.676 10.7334 154.49 10.6357C154.305 10.5283 154.09 10.4453 153.846 10.3867C153.602 10.3281 153.343 10.2988 153.069 10.2988C152.669 10.2988 152.259 10.3574 151.839 10.4746C151.419 10.5918 151.038 10.748 150.696 10.9434C150.354 11.1289 150.076 11.3389 149.861 11.5732C149.646 11.7979 149.539 12.0225 149.539 12.2471C149.539 12.4717 149.676 12.584 149.949 12.584C150.115 12.584 150.384 12.5645 150.755 12.5254C151.126 12.4863 151.536 12.4424 151.985 12.3936C152.435 12.335 152.889 12.2715 153.348 12.2031C153.807 12.1348 154.207 12.0713 154.549 12.0127ZM173.313 15.792C173.597 15.5479 173.875 15.4258 174.148 15.4258C174.305 15.4258 174.446 15.4648 174.573 15.543C174.7 15.6211 174.842 15.7432 174.998 15.9092C175.145 16.1338 175.247 16.3193 175.306 16.4658C175.374 16.6025 175.408 16.7393 175.408 16.876C175.408 17.1689 175.262 17.4473 174.969 17.7109C174.5 18.1016 173.992 18.4531 173.445 18.7656C172.898 19.0684 172.327 19.3271 171.731 19.542C171.136 19.7568 170.521 19.918 169.886 20.0254C169.251 20.1426 168.621 20.2012 167.996 20.2012C167.205 20.2012 166.463 20.0986 165.77 19.8936C165.076 19.6982 164.456 19.415 163.909 19.0439C163.372 18.6729 162.918 18.2285 162.547 17.7109C162.176 17.1836 161.912 16.5928 161.756 15.9385C161.668 15.665 161.585 15.4893 161.507 15.4111C161.438 15.3232 161.321 15.2793 161.155 15.2793C160.794 15.2793 160.516 15.1914 160.32 15.0156C160.125 14.8398 160.027 14.5859 160.027 14.2539C160.027 14.1172 160.037 14.0293 160.057 13.9902L160.086 13.6973C160.135 13.3457 160.228 13.0918 160.364 12.9355C160.511 12.7793 160.735 12.7012 161.038 12.7012H161.258C161.668 12.7012 161.956 12.5107 162.122 12.1299C162.425 11.4561 162.811 10.8408 163.279 10.2842C163.748 9.72754 164.275 9.25391 164.861 8.86328C165.447 8.46289 166.072 8.15527 166.736 7.94043C167.41 7.71582 168.094 7.60352 168.787 7.60352C169.51 7.60352 170.184 7.71094 170.809 7.92578C171.443 8.13086 171.995 8.41895 172.464 8.79004C172.933 9.16113 173.299 9.5957 173.562 10.0937C173.836 10.5918 173.973 11.1289 173.973 11.7051C173.973 12.1055 173.895 12.4717 173.738 12.8037C173.582 13.1357 173.357 13.4287 173.064 13.6826C172.771 13.9268 172.415 14.127 171.995 14.2832C171.585 14.4395 171.116 14.542 170.589 14.5908L165.506 15.1035C165.311 15.1035 165.149 15.1523 165.022 15.25C164.905 15.3477 164.847 15.4795 164.847 15.6455C164.847 15.8994 164.939 16.1436 165.125 16.3779C165.32 16.6123 165.574 16.8223 165.887 17.0078C166.209 17.1836 166.575 17.3252 166.985 17.4326C167.405 17.54 167.835 17.5937 168.274 17.5937C168.694 17.5937 169.124 17.5547 169.563 17.4766C170.013 17.3887 170.452 17.2666 170.882 17.1104C171.321 16.9541 171.746 16.7686 172.156 16.5537C172.566 16.3291 172.952 16.0752 173.313 15.792ZM170.047 12.0127C170.193 11.9834 170.32 11.915 170.428 11.8076C170.535 11.6904 170.589 11.5488 170.589 11.3828C170.589 11.2363 170.535 11.0996 170.428 10.9727C170.32 10.8457 170.174 10.7334 169.988 10.6357C169.803 10.5283 169.588 10.4453 169.344 10.3867C169.1 10.3281 168.841 10.2988 168.567 10.2988C168.167 10.2988 167.757 10.3574 167.337 10.4746C166.917 10.5918 166.536 10.748 166.194 10.9434C165.853 11.1289 165.574 11.3389 165.359 11.5732C165.145 11.7979 165.037 12.0225 165.037 12.2471C165.037 12.4717 165.174 12.584 165.447 12.584C165.613 12.584 165.882 12.5645 166.253 12.5254C166.624 12.4863 167.034 12.4424 167.483 12.3936C167.933 12.335 168.387 12.2715 168.846 12.2031C169.305 12.1348 169.705 12.0713 170.047 12.0127ZM186.146 8.29199C186.185 8.31152 186.243 8.32129 186.321 8.32129C186.536 8.32129 186.644 8.17969 186.644 7.89648V3.34082C186.644 2.76465 186.771 2.35449 187.024 2.11035C187.288 1.86621 187.723 1.74414 188.328 1.74414C188.943 1.74414 189.378 1.87109 189.632 2.125C189.886 2.37891 190.013 2.81348 190.013 3.42871C190.013 3.66309 189.998 4.00977 189.969 4.46875C189.939 4.91797 189.905 5.43066 189.866 6.00684C189.837 6.58301 189.808 7.20312 189.778 7.86719C189.749 8.52148 189.734 9.1709 189.734 9.81543C189.734 10.8115 189.803 11.6709 189.939 12.3936C190.076 13.1162 190.271 13.7168 190.525 14.1953C190.779 14.6641 191.082 15.0156 191.434 15.25C191.785 15.4746 192.181 15.5869 192.62 15.5869C192.864 15.5869 193.084 15.5576 193.279 15.499C193.484 15.4307 193.724 15.3965 193.997 15.3965C194.192 15.3965 194.354 15.499 194.48 15.7041C194.617 15.8994 194.686 16.1387 194.686 16.4219C194.686 16.6758 194.607 16.915 194.451 17.1396C194.305 17.3643 194.1 17.5596 193.836 17.7256C193.582 17.8916 193.284 18.0234 192.942 18.1211C192.601 18.209 192.244 18.2529 191.873 18.2529C191.072 18.2529 190.34 18.0088 189.676 17.5205C189.012 17.0225 188.514 16.2656 188.182 15.25C188.152 15.0937 188.104 15.0156 188.035 15.0156C187.957 15.0156 187.894 15.0937 187.845 15.25C187.581 15.9629 187.234 16.6074 186.805 17.1836C186.385 17.75 185.892 18.2383 185.325 18.6484C184.769 19.0488 184.153 19.3564 183.479 19.5713C182.815 19.7861 182.112 19.8936 181.37 19.8936C180.589 19.8936 179.871 19.7617 179.217 19.498C178.572 19.2441 178.016 18.8877 177.547 18.4287C177.078 17.96 176.712 17.4131 176.448 16.7881C176.185 16.1533 176.053 15.4697 176.053 14.7373C176.053 13.7998 176.248 12.916 176.639 12.0859C177.029 11.2559 177.557 10.5332 178.221 9.91797C178.895 9.29297 179.676 8.7998 180.564 8.43848C181.453 8.07715 182.4 7.89648 183.406 7.89648C183.816 7.89648 184.251 7.93066 184.71 7.99902C185.169 8.05762 185.647 8.15527 186.146 8.29199ZM181.941 17.2568C182.498 17.2568 182.991 17.1348 183.421 16.8906C183.86 16.6465 184.246 16.3389 184.578 15.9678C184.92 15.5869 185.208 15.1719 185.442 14.7227C185.677 14.2637 185.867 13.8193 186.014 13.3896C186.16 12.96 186.268 12.5742 186.336 12.2324C186.404 11.8906 186.438 11.6465 186.438 11.5C186.438 11.3926 186.409 11.2998 186.351 11.2217C186.292 11.1338 186.204 11.0654 186.087 11.0166C185.823 10.9482 185.55 10.8896 185.267 10.8408C184.983 10.7822 184.705 10.7334 184.432 10.6943C184.158 10.6553 183.895 10.626 183.641 10.6064C183.396 10.5869 183.172 10.5771 182.967 10.5771C182.381 10.5771 181.849 10.665 181.37 10.8408C180.892 11.0166 180.481 11.2656 180.14 11.5879C179.808 11.9102 179.549 12.2959 179.363 12.7451C179.178 13.1846 179.085 13.668 179.085 14.1953C179.085 14.6641 179.153 15.0889 179.29 15.4697C179.437 15.8408 179.632 16.1582 179.876 16.4219C180.13 16.6855 180.433 16.8906 180.784 17.0371C181.136 17.1836 181.521 17.2568 181.941 17.2568ZM194.114 14.1367C194.114 13.9707 194.134 13.7852 194.173 13.5801C194.212 13.375 194.231 13.1504 194.231 12.9062C194.231 12.7402 194.158 12.6133 194.012 12.5254C193.875 12.4375 193.719 12.3398 193.543 12.2324C193.367 12.125 193.206 11.9883 193.06 11.8223C192.923 11.6562 192.854 11.417 192.854 11.1045C192.854 10.8799 192.913 10.6553 193.03 10.4307C193.157 10.2061 193.338 10.001 193.572 9.81543C194.148 9.38574 194.744 9 195.359 8.6582C195.984 8.31641 196.604 8.02832 197.22 7.79395C197.845 7.55957 198.46 7.37891 199.065 7.25195C199.671 7.125 200.252 7.06152 200.809 7.06152C201.746 7.06152 202.625 7.2373 203.445 7.58887C204.275 7.93066 204.993 8.4043 205.599 9.00977C206.214 9.60547 206.697 10.3086 207.049 11.1191C207.41 11.9199 207.591 12.7793 207.591 13.6973C207.591 14.5957 207.4 15.4502 207.02 16.2607C206.648 17.0615 206.146 17.7646 205.511 18.3701C204.876 18.9756 204.129 19.4541 203.27 19.8057C202.42 20.167 201.521 20.3477 200.574 20.3477C199.646 20.3477 198.787 20.1914 197.996 19.8789C197.205 19.5664 196.521 19.1367 195.945 18.5898C195.369 18.0332 194.92 17.3789 194.598 16.627C194.275 15.8652 194.114 15.0352 194.114 14.1367ZM200.896 17.7109C201.307 17.7109 201.731 17.6279 202.171 17.4619C202.61 17.2959 203.011 17.0566 203.372 16.7441C203.743 16.4219 204.046 16.0312 204.28 15.5723C204.524 15.1133 204.646 14.5957 204.646 14.0195C204.646 13.4336 204.539 12.8867 204.324 12.3789C204.109 11.8711 203.812 11.4316 203.431 11.0605C203.06 10.6797 202.615 10.3818 202.098 10.167C201.59 9.95215 201.038 9.84473 200.442 9.84473C199.358 9.84473 198.528 10.1279 197.952 10.6943C197.376 11.251 197.088 12.1104 197.088 13.2725C197.088 13.9072 197.181 14.498 197.366 15.0449C197.562 15.582 197.83 16.0508 198.172 16.4512C198.514 16.8418 198.914 17.1494 199.373 17.374C199.842 17.5986 200.35 17.7109 200.896 17.7109ZM210.813 19.6299C210.745 18.3311 210.633 17.1348 210.477 16.041C210.33 14.9375 210.174 13.9756 210.008 13.1553C209.852 12.335 209.71 11.6709 209.583 11.1631C209.466 10.6553 209.407 10.3379 209.407 10.2109C209.407 10.0254 209.476 9.84473 209.612 9.66895C209.759 9.49316 209.939 9.3418 210.154 9.21484C210.369 9.07812 210.599 8.9707 210.843 8.89258C211.097 8.81445 211.326 8.77539 211.531 8.77539C211.697 8.77539 211.839 8.80469 211.956 8.86328C212.083 8.92187 212.171 9.01953 212.22 9.15625C212.269 9.32227 212.312 9.49805 212.352 9.68359C212.4 9.85937 212.449 10.0742 212.498 10.3281C212.557 10.6895 212.635 10.8701 212.732 10.8701C212.84 10.8701 212.962 10.709 213.099 10.3867C213.294 9.9375 213.504 9.56641 213.729 9.27344C213.953 8.98047 214.192 8.75098 214.446 8.58496C214.71 8.40918 214.979 8.28711 215.252 8.21875C215.535 8.15039 215.828 8.11621 216.131 8.11621C217.049 8.11621 217.825 8.47754 218.46 9.2002C219.104 9.92285 219.607 10.9678 219.969 12.335C220.018 12.4912 220.062 12.5937 220.101 12.6426C220.14 12.6816 220.184 12.7012 220.232 12.7012C220.281 12.7012 220.33 12.6816 220.379 12.6426C220.438 12.5937 220.491 12.501 220.54 12.3643C220.774 11.7295 221.048 11.1924 221.36 10.7529C221.673 10.3037 221.995 9.94238 222.327 9.66895C222.669 9.38574 223.016 9.18066 223.367 9.05371C223.719 8.92676 224.056 8.86328 224.378 8.86328C224.974 8.86328 225.511 9.08301 225.989 9.52246C226.478 9.95215 226.907 10.6211 227.278 11.5293C227.659 12.4277 227.986 13.5703 228.26 14.957C228.543 16.334 228.777 17.9697 228.963 19.8643C228.963 20.3916 228.802 20.7578 228.479 20.9629C228.157 21.1777 227.718 21.2852 227.161 21.2852C226.8 21.2852 226.517 21.207 226.312 21.0508C226.106 20.8945 225.989 20.6895 225.96 20.4355C225.833 19.0781 225.691 17.8721 225.535 16.8174C225.389 15.7529 225.228 14.8594 225.052 14.1367C224.876 13.4043 224.681 12.8477 224.466 12.4668C224.261 12.0859 224.031 11.8955 223.777 11.8955C223.65 11.8955 223.489 11.9883 223.294 12.1738C223.108 12.3594 222.908 12.7012 222.693 13.1992C222.479 13.6875 222.254 14.3613 222.02 15.2207C221.785 16.0703 221.561 17.1592 221.346 18.4873C221.287 18.8584 221.106 19.1416 220.804 19.3369C220.511 19.5322 220.149 19.6299 219.72 19.6299C219.222 19.6299 218.875 19.5518 218.68 19.3955C218.494 19.2393 218.392 18.9756 218.372 18.6045C218.333 17.96 218.265 17.3203 218.167 16.6855C218.079 16.041 217.967 15.4307 217.83 14.8545C217.693 14.2686 217.542 13.7314 217.376 13.2432C217.21 12.7451 217.034 12.3154 216.849 11.9541C216.663 11.583 216.473 11.2949 216.277 11.0898C216.082 10.8848 215.892 10.7822 215.706 10.7822C215.462 10.7822 215.223 10.9531 214.988 11.2949C214.764 11.6367 214.559 12.1201 214.373 12.7451C214.197 13.3701 214.056 14.1221 213.948 15.001C213.841 15.8799 213.787 16.8613 213.787 17.9453C213.787 18.1309 213.792 18.3164 213.802 18.502C213.812 18.6777 213.816 18.8633 213.816 19.0586C213.816 19.3516 213.768 19.5908 213.67 19.7764C213.582 19.9619 213.45 20.1084 213.274 20.2158C213.108 20.3232 212.913 20.3965 212.688 20.4355C212.464 20.4746 212.22 20.4941 211.956 20.4941C211.712 20.4941 211.517 20.4746 211.37 20.4355C211.224 20.4062 211.111 20.3574 211.033 20.2891C210.955 20.2207 210.901 20.1279 210.872 20.0107C210.843 19.9033 210.823 19.7764 210.813 19.6299Z" fill="#FB3434"/>
</svg>
