<svg width="35" height="34" viewBox="0 0 35 34" fill="none" xmlns="http://www.w3.org/2000/svg">
<path d="M7.54047 13.7021C9.3243 13.5322 10.7583 12.1602 11.0068 10.3856C11.4805 7.00287 14.3924 4.39808 17.9063 4.39808C20.7057 4.39808 23.1276 6.04917 24.236 8.4474C24.7788 9.62188 25.8725 10.4474 27.1508 10.6476C29.3689 10.9948 31.0668 12.9208 31.0668 15.2362C31.0668 16.9613 30.1263 18.4668 28.7301 19.2679C27.9101 19.7383 27.196 20.5092 27.196 21.4546V21.5995C27.196 22.7369 28.1877 23.6463 29.2601 23.2673C32.5677 22.0984 34.9375 18.944 34.9375 15.2362C34.9375 10.9847 31.822 7.46098 27.7495 6.82341C26.0316 3.1064 22.2701 0.527344 17.9063 0.527344C12.4353 0.527344 7.91106 4.58109 7.17345 9.84881C3.6393 10.1854 0.875 13.1621 0.875 16.7844C0.875 19.9696 3.01234 22.6556 5.93105 23.4864C6.95909 23.779 7.84233 22.8853 7.84235 21.8164C7.84235 20.7476 6.89682 19.9221 6.03048 19.2959C5.25219 18.7334 4.74574 17.8181 4.74574 16.7844C4.74574 15.1767 5.97386 13.8513 7.54047 13.7021Z" fill="white"/>
<path d="M21.3626 25.3002L19.8418 23.7793V31.1062C19.8418 31.1729 19.8383 31.239 19.8317 31.3041C19.7326 32.2799 18.9084 33.0416 17.9064 33.0416C16.8374 33.0416 15.971 32.1751 15.971 31.1062V23.7793L14.4504 25.2999C14.3559 25.3944 14.2541 25.4771 14.1468 25.548C13.3955 26.0439 12.3747 25.9612 11.7133 25.2999C10.9575 24.544 10.9575 23.3187 11.7133 22.5628L16.5378 17.7384C17.2936 16.9826 18.519 16.9826 19.2749 17.7384L24.0997 22.5633C24.8554 23.319 24.8554 24.5445 24.0997 25.3002C23.3438 26.0561 22.1185 26.0561 21.3626 25.3002Z" fill="white"/>
</svg>
