<svg width="21" height="18" viewBox="0 0 21 18" fill="none" xmlns="http://www.w3.org/2000/svg">
<path d="M11.0449 2.81284L15.9821 7.75H1.24988C1.20673 7.75 1.1641 7.7522 1.12207 7.7565C0.491748 7.8205 -0.00012207 8.3528 -0.00012207 9C-0.00012207 9.6904 0.559518 10.25 1.24988 10.25H15.9821L11.0449 15.1872C10.5568 15.6754 10.5568 16.4668 11.0449 16.955C11.5331 17.4431 12.3245 17.4431 12.8127 16.955L19.8838 9.8839C20.3719 9.3958 20.3719 8.6043 19.8838 8.1161L12.8127 1.04507C12.8051 1.03744 12.7974 1.02994 12.7896 1.02255C12.7352 0.97082 12.6773 0.92494 12.6166 0.8849C12.27 0.65607 11.8346 0.617939 11.4584 0.770479C11.308 0.831499 11.167 0.92303 11.0449 1.04507C11.0373 1.0527 11.0298 1.0604 11.0224 1.06817C10.5569 1.55789 10.5644 2.33231 11.0449 2.81284Z" fill="black"/>
</svg>
