<svg width="89" height="21" viewBox="0 0 89 21" fill="none" xmlns="http://www.w3.org/2000/svg">
<path d="M0.56543 5.31836C0.56543 5.14258 0.609375 4.98145 0.697266 4.83496C0.785156 4.67871 0.907227 4.54688 1.06348 4.43945C1.21973 4.32227 1.40039 4.22949 1.60547 4.16113C1.82031 4.09277 2.04492 4.05859 2.2793 4.05859C2.73828 4.05859 3.0752 4.13184 3.29004 4.27832C3.50488 4.4248 3.63672 4.6543 3.68555 4.9668C3.85156 6.26562 3.98828 7.49609 4.0957 8.6582C4.21289 9.81055 4.30566 10.9141 4.37402 11.9688C4.44238 13.0137 4.49121 14.0195 4.52051 14.9863C4.5498 15.9434 4.56445 16.8711 4.56445 17.7695C4.56445 18.2578 4.38867 18.624 4.03711 18.8682C3.69531 19.1123 3.19238 19.2344 2.52832 19.2344C2.22559 19.2344 1.98633 19.1611 1.81055 19.0146C1.64453 18.8779 1.56152 18.6729 1.56152 18.3994C1.56152 16.7197 1.50781 15.1475 1.40039 13.6826C1.30273 12.208 1.19043 10.8994 1.06348 9.75684C0.936523 8.61426 0.819336 7.66211 0.711914 6.90039C0.614258 6.12891 0.56543 5.60156 0.56543 5.31836ZM7.74316 7.17871C7.74316 7.03223 7.80664 6.89062 7.93359 6.75391C8.06055 6.60742 8.22656 6.48047 8.43164 6.37305C8.63672 6.25586 8.86621 6.16309 9.12012 6.09473C9.38379 6.0166 9.64746 5.97754 9.91113 5.97754C10.0576 5.97754 10.1797 6.0166 10.2773 6.09473C10.3848 6.17285 10.4775 6.32422 10.5557 6.54883C10.6338 6.76367 10.7021 7.07129 10.7607 7.47168C10.8291 7.8623 10.8926 8.375 10.9512 9.00977C10.9902 9.20508 11.0244 9.35645 11.0537 9.46387C11.0928 9.56152 11.1416 9.61035 11.2002 9.61035C11.2881 9.61035 11.376 9.45898 11.4639 9.15625C12.1768 7.0957 13.207 6.06543 14.5547 6.06543C15.1797 6.06543 15.7461 6.26074 16.2539 6.65137C16.7715 7.04199 17.25 7.68164 17.6895 8.57031C18.1387 9.44922 18.5635 10.6113 18.9639 12.0566C19.3643 13.4922 19.7646 15.2646 20.165 17.374C20.1846 17.4814 20.1992 17.5791 20.209 17.667C20.2188 17.7549 20.2236 17.8379 20.2236 17.916C20.2236 18.1406 20.1699 18.3359 20.0625 18.502C19.9648 18.6582 19.833 18.79 19.667 18.8975C19.501 18.9951 19.3154 19.0684 19.1104 19.1172C18.9053 19.1758 18.7002 19.2051 18.4951 19.2051C18.085 19.2051 17.7871 19.1611 17.6016 19.0732C17.4258 18.9854 17.3135 18.8193 17.2646 18.5752C16.9814 17.0908 16.7031 15.7725 16.4297 14.6201C16.166 13.4678 15.9023 12.501 15.6387 11.7197C15.3848 10.9287 15.1309 10.3281 14.877 9.91797C14.623 9.50781 14.3691 9.30273 14.1152 9.30273C13.8613 9.30273 13.6221 9.46387 13.3975 9.78613C13.1826 10.0986 12.9727 10.5918 12.7676 11.2656C12.5625 11.9395 12.3623 12.7939 12.167 13.8291C11.9814 14.8643 11.8008 16.0996 11.625 17.5352C11.5762 17.9258 11.3809 18.2383 11.0391 18.4727C10.6973 18.707 10.2627 18.8242 9.73535 18.8242C9.38379 18.8242 9.11523 18.751 8.92969 18.6045C8.74414 18.458 8.6416 18.2578 8.62207 18.0039C8.53418 15.9727 8.43652 14.3027 8.3291 12.9941C8.23145 11.6758 8.13867 10.6211 8.05078 9.83008C7.96289 9.0293 7.88965 8.43359 7.83105 8.04297C7.77246 7.65234 7.74316 7.36426 7.74316 7.17871ZM29.4668 15.6162C29.2812 13.3311 29.0664 11.0605 28.8223 8.80469C28.5879 6.54883 28.2412 4.29785 27.7822 2.05176C27.7627 1.97363 27.7529 1.90527 27.7529 1.84668C27.7529 1.77832 27.7529 1.71484 27.7529 1.65625C27.7529 1.43164 27.7969 1.23633 27.8848 1.07031C27.9824 0.904297 28.1094 0.767578 28.2656 0.660156C28.4219 0.542969 28.5977 0.455078 28.793 0.396484C28.998 0.337891 29.2129 0.308594 29.4375 0.308594C30.0332 0.308594 30.4434 0.586914 30.668 1.14355C30.7656 1.42676 30.8633 1.83203 30.9609 2.35937C31.0684 2.88672 31.1758 3.49707 31.2832 4.19043C31.4004 4.88379 31.5127 5.64551 31.6201 6.47559C31.7275 7.2959 31.8301 8.14062 31.9277 9.00977C31.957 9.25391 32.0352 9.37598 32.1621 9.37598C32.2695 9.37598 32.3818 9.30273 32.499 9.15625C33.9248 7.28125 35.6143 6.34375 37.5674 6.34375C38.2998 6.34375 38.9834 6.50488 39.6182 6.82715C40.2529 7.14941 40.8047 7.58887 41.2734 8.14551C41.7422 8.70215 42.1084 9.36133 42.3721 10.123C42.6455 10.8848 42.7822 11.7051 42.7822 12.584C42.7822 13.4043 42.6504 14.166 42.3867 14.8691C42.1328 15.5723 41.7764 16.1777 41.3174 16.6855C40.8584 17.1934 40.3115 17.5938 39.6768 17.8867C39.0518 18.1699 38.3682 18.3115 37.626 18.3115C36.708 18.3115 35.8096 18.1357 34.9307 17.7842C34.0518 17.4229 33.2217 16.9395 32.4404 16.334C32.3525 16.2559 32.2598 16.2168 32.1621 16.2168C32.0352 16.2168 31.918 16.2852 31.8105 16.4219C31.6543 16.5977 31.4883 16.7148 31.3125 16.7734C31.1367 16.8223 30.9219 16.8467 30.668 16.8467C29.8965 16.8467 29.4961 16.4365 29.4668 15.6162ZM37.0547 9.06836C36.6641 9.06836 36.2734 9.16113 35.8828 9.34668C35.502 9.52246 35.1406 9.77637 34.7988 10.1084C34.457 10.4404 34.1396 10.8408 33.8467 11.3096C33.5635 11.7686 33.3242 12.2812 33.1289 12.8477C33.1094 12.877 33.0947 12.9209 33.085 12.9795C33.0752 13.0381 33.0703 13.0869 33.0703 13.126C33.0703 13.292 33.1289 13.4189 33.2461 13.5068C33.5977 13.8096 33.959 14.0928 34.3301 14.3564C34.7109 14.6201 35.0869 14.8496 35.458 15.0449C35.8291 15.2402 36.1953 15.3965 36.5566 15.5137C36.918 15.6211 37.2549 15.6748 37.5674 15.6748C38.2705 15.6748 38.8027 15.4697 39.1641 15.0596C39.5352 14.6494 39.7207 14.0537 39.7207 13.2725C39.7207 12.667 39.6523 12.1104 39.5156 11.6025C39.3789 11.085 39.1934 10.6406 38.959 10.2695C38.7246 9.88867 38.4414 9.5957 38.1094 9.39062C37.7871 9.17578 37.4355 9.06836 37.0547 9.06836ZM57.1963 15.792C57.4795 15.5479 57.7578 15.4258 58.0312 15.4258C58.1875 15.4258 58.3291 15.4648 58.4561 15.543C58.583 15.6211 58.7246 15.7432 58.8809 15.9092C59.0273 16.1338 59.1299 16.3193 59.1885 16.4658C59.2568 16.6025 59.291 16.7393 59.291 16.876C59.291 17.1689 59.1445 17.4473 58.8516 17.7109C58.3828 18.1016 57.875 18.4531 57.3281 18.7656C56.7812 19.0684 56.21 19.3271 55.6143 19.542C55.0186 19.7568 54.4033 19.918 53.7686 20.0254C53.1338 20.1426 52.5039 20.2012 51.8789 20.2012C51.0879 20.2012 50.3457 20.0986 49.6523 19.8936C48.959 19.6982 48.3389 19.415 47.792 19.0439C47.2549 18.6729 46.8008 18.2285 46.4297 17.7109C46.0586 17.1836 45.7949 16.5928 45.6387 15.9385C45.5508 15.665 45.4678 15.4893 45.3896 15.4111C45.3213 15.3232 45.2041 15.2793 45.0381 15.2793C44.6768 15.2793 44.3984 15.1914 44.2031 15.0156C44.0078 14.8398 43.9102 14.5859 43.9102 14.2539C43.9102 14.1172 43.9199 14.0293 43.9395 13.9902L43.9688 13.6973C44.0176 13.3457 44.1104 13.0918 44.2471 12.9355C44.3936 12.7793 44.6182 12.7012 44.9209 12.7012H45.1406C45.5508 12.7012 45.8389 12.5107 46.0049 12.1299C46.3076 11.4561 46.6934 10.8408 47.1621 10.2842C47.6309 9.72754 48.1582 9.25391 48.7441 8.86328C49.3301 8.46289 49.9551 8.15527 50.6191 7.94043C51.293 7.71582 51.9766 7.60352 52.6699 7.60352C53.3926 7.60352 54.0664 7.71094 54.6914 7.92578C55.3262 8.13086 55.8779 8.41895 56.3467 8.79004C56.8154 9.16113 57.1816 9.5957 57.4453 10.0937C57.7188 10.5918 57.8555 11.1289 57.8555 11.7051C57.8555 12.1055 57.7773 12.4717 57.6211 12.8037C57.4648 13.1357 57.2402 13.4287 56.9473 13.6826C56.6543 13.9268 56.2979 14.127 55.8779 14.2832C55.4678 14.4395 54.999 14.542 54.4717 14.5908L49.3887 15.1035C49.1934 15.1035 49.0322 15.1523 48.9053 15.25C48.7881 15.3477 48.7295 15.4795 48.7295 15.6455C48.7295 15.8994 48.8223 16.1436 49.0078 16.3779C49.2031 16.6123 49.457 16.8223 49.7695 17.0078C50.0918 17.1836 50.458 17.3252 50.8682 17.4326C51.2881 17.54 51.7178 17.5937 52.1572 17.5937C52.5771 17.5937 53.0068 17.5547 53.4463 17.4766C53.8955 17.3887 54.335 17.2666 54.7646 17.1104C55.2041 16.9541 55.6289 16.7686 56.0391 16.5537C56.4492 16.3291 56.835 16.0752 57.1963 15.792ZM53.9297 12.0127C54.0762 11.9834 54.2031 11.915 54.3105 11.8076C54.418 11.6904 54.4717 11.5488 54.4717 11.3828C54.4717 11.2363 54.418 11.0996 54.3105 10.9727C54.2031 10.8457 54.0566 10.7334 53.8711 10.6357C53.6855 10.5283 53.4707 10.4453 53.2266 10.3867C52.9824 10.3281 52.7236 10.2988 52.4502 10.2988C52.0498 10.2988 51.6396 10.3574 51.2197 10.4746C50.7998 10.5918 50.4189 10.748 50.0771 10.9434C49.7354 11.1289 49.457 11.3389 49.2422 11.5732C49.0273 11.7979 48.9199 12.0225 48.9199 12.2471C48.9199 12.4717 49.0566 12.584 49.3301 12.584C49.4961 12.584 49.7646 12.5645 50.1357 12.5254C50.5068 12.4863 50.917 12.4424 51.3662 12.3936C51.8154 12.335 52.2695 12.2715 52.7285 12.2031C53.1875 12.1348 53.5879 12.0713 53.9297 12.0127ZM61.5908 2.08105C61.5908 1.56348 61.7373 1.20215 62.0303 0.99707C62.3232 0.782227 62.8066 0.674805 63.4805 0.674805C63.7246 0.674805 63.9297 0.699219 64.0957 0.748047C64.2715 0.787109 64.418 0.865234 64.5352 0.982422C64.6621 1.09961 64.7598 1.25586 64.8281 1.45117C64.9062 1.63672 64.9697 1.87598 65.0186 2.16895C65.1357 3.07715 65.2627 4.01465 65.3994 4.98145C65.5459 5.94824 65.6973 6.91992 65.8535 7.89648C65.9121 8.33594 66.1416 8.55566 66.542 8.55566C66.6494 8.55566 66.8252 8.5459 67.0693 8.52637C67.3232 8.49707 67.6211 8.46777 67.9629 8.43848C68.3047 8.39941 68.6709 8.36035 69.0615 8.32129C69.4619 8.28223 69.8574 8.24805 70.248 8.21875C70.6484 8.17969 71.0244 8.15039 71.376 8.13086C71.7373 8.10156 72.0547 8.08691 72.3281 8.08691C72.543 8.08691 72.7139 8.13086 72.8408 8.21875C72.9678 8.29687 73.0654 8.4043 73.1338 8.54102C73.2119 8.66797 73.2607 8.81445 73.2803 8.98047C73.3096 9.13672 73.3242 9.29785 73.3242 9.46387C73.3242 9.61035 73.2949 9.76172 73.2363 9.91797C73.1875 10.0742 73.1143 10.2158 73.0166 10.3428C72.9287 10.46 72.8164 10.5576 72.6797 10.6357C72.543 10.7139 72.3867 10.7529 72.2109 10.7529C71.3613 10.7529 70.502 10.7822 69.6328 10.8408C68.7734 10.8896 67.9141 10.958 67.0547 11.0459C66.6152 11.1045 66.3955 11.3242 66.3955 11.7051C66.3955 11.7344 66.4004 11.7734 66.4102 11.8223C66.4199 11.8613 66.4248 11.8955 66.4248 11.9248C66.542 12.7744 66.6494 13.5703 66.7471 14.3125C66.8545 15.0547 66.9424 15.7187 67.0107 16.3047C67.0889 16.8809 67.1475 17.3643 67.1865 17.7549C67.2354 18.1357 67.2598 18.3896 67.2598 18.5166C67.2598 18.8682 67.2256 19.1611 67.1572 19.3955C67.0889 19.6396 66.9766 19.835 66.8203 19.9814C66.6641 20.1377 66.4541 20.2451 66.1904 20.3037C65.9365 20.3721 65.6143 20.4062 65.2236 20.4062C64.8525 20.4062 64.5791 20.3184 64.4033 20.1426C64.2275 19.9668 64.1299 19.6982 64.1104 19.3369C64.0518 18.1846 63.959 17.0273 63.832 15.8652C63.7051 14.6934 63.5586 13.5264 63.3926 12.3643C63.3047 11.9443 63.085 11.7344 62.7334 11.7344C62.7041 11.7344 62.6699 11.7393 62.6309 11.749C62.5918 11.7588 62.5576 11.7637 62.5283 11.7637C61.9229 11.9004 61.3516 12.0371 60.8145 12.1738C60.2773 12.3105 59.7744 12.457 59.3057 12.6133C59.042 12.7012 58.8076 12.7646 58.6025 12.8037C58.3975 12.833 58.2119 12.8477 58.0459 12.8477C57.8213 12.8477 57.6553 12.75 57.5479 12.5547C57.4404 12.3496 57.3867 12.0957 57.3867 11.793C57.3867 11.6855 57.3965 11.5635 57.416 11.4268C57.4355 11.2803 57.4746 11.1387 57.5332 11.002C57.582 10.8555 57.6602 10.7236 57.7676 10.6064C57.8652 10.4795 58.002 10.377 58.1777 10.2988C58.5879 10.1328 59.1348 9.96191 59.8184 9.78613C60.502 9.60059 61.2734 9.42969 62.1328 9.27344C62.3281 9.22461 62.4795 9.14648 62.5869 9.03906C62.7041 8.92187 62.7627 8.75098 62.7627 8.52637C62.7627 8.47754 62.7627 8.42871 62.7627 8.37988C62.7627 8.32129 62.7529 8.2627 62.7334 8.2041C62.5771 7.30566 62.4258 6.49023 62.2793 5.75781C62.1426 5.01562 62.0205 4.38086 61.9131 3.85352C61.8154 3.32617 61.7373 2.91113 61.6787 2.6084C61.6201 2.30566 61.5908 2.12988 61.5908 2.08105ZM81.6738 6.19727C82.2109 6.19727 82.7285 6.28027 83.2266 6.44629C83.7246 6.6123 84.1641 6.8418 84.5449 7.13477C84.9258 7.42773 85.2285 7.7793 85.4531 8.18945C85.6875 8.59961 85.8047 9.05371 85.8047 9.55176C85.8047 9.75684 85.7559 9.95703 85.6582 10.1523C85.5703 10.3379 85.4482 10.5039 85.292 10.6504C85.1357 10.7871 84.9551 10.8994 84.75 10.9873C84.5547 11.0654 84.3496 11.1045 84.1348 11.1045C84.1152 11.1045 84.0957 11.1094 84.0762 11.1191C84.0664 11.1191 84.0518 11.1191 84.0322 11.1191C84.0127 11.1289 83.9932 11.1338 83.9736 11.1338L84.0322 12.3057C84.0713 13.7021 84.2666 14.7227 84.6182 15.3672C84.9795 16.0117 85.4482 16.334 86.0244 16.334C86.2295 16.334 86.4102 16.3145 86.5664 16.2754C86.7324 16.2363 86.8838 16.1924 87.0205 16.1436C87.167 16.085 87.3037 16.0361 87.4307 15.9971C87.5576 15.958 87.6846 15.9385 87.8115 15.9385C88.0361 15.9385 88.2314 16.0361 88.3975 16.2314C88.5732 16.4268 88.6611 16.6611 88.6611 16.9346C88.6611 17.208 88.5537 17.4814 88.3389 17.7549C88.1338 18.0283 87.8604 18.2773 87.5186 18.502C87.1768 18.7168 86.791 18.8926 86.3613 19.0293C85.9316 19.166 85.4971 19.2344 85.0576 19.2344C84.2959 19.2344 83.627 18.9219 83.0508 18.2969C82.4746 17.6621 82.0645 16.7344 81.8203 15.5137C81.7617 15.3184 81.6836 15.2207 81.5859 15.2207C81.4688 15.2207 81.3662 15.2793 81.2783 15.3965C80.3115 16.6172 79.2812 17.5352 78.1875 18.1504C77.0938 18.7559 76.0146 19.0586 74.9502 19.0586C74.4521 19.0586 74.0029 18.9854 73.6025 18.8389C73.2021 18.6924 72.8604 18.4873 72.5771 18.2236C72.3037 17.9502 72.0889 17.623 71.9326 17.2422C71.7861 16.8516 71.7129 16.417 71.7129 15.9385C71.7129 15.2646 71.8594 14.5566 72.1523 13.8145C72.4551 13.0723 72.8604 12.3398 73.3682 11.6172C73.876 10.8945 74.4619 10.2061 75.126 9.55176C75.7998 8.89746 76.5029 8.32129 77.2354 7.82324C77.9775 7.3252 78.7295 6.92969 79.4912 6.63672C80.2529 6.34375 80.9805 6.19727 81.6738 6.19727ZM81.1904 11.2656C81.3662 10.9336 81.5273 10.6943 81.6738 10.5479C81.8203 10.3916 82.0303 10.2891 82.3037 10.2402C82.5186 10.2109 82.626 10.1426 82.626 10.0352C82.626 9.95703 82.5967 9.87402 82.5381 9.78613C82.3525 9.53223 82.1572 9.3125 81.9521 9.12695C81.7471 8.93164 81.4736 8.83398 81.1318 8.83398C80.7607 8.83398 80.3457 8.94141 79.8867 9.15625C79.4277 9.37109 78.959 9.65918 78.4805 10.0205C78.0117 10.3721 77.5479 10.7773 77.0889 11.2363C76.6396 11.6855 76.2393 12.1494 75.8877 12.6279C75.5361 13.1064 75.2529 13.5801 75.0381 14.0488C74.8232 14.5176 74.7158 14.9375 74.7158 15.3086C74.7158 15.6406 74.8037 15.8994 74.9795 16.085C75.165 16.2705 75.4141 16.3633 75.7266 16.3633C76.5273 16.3633 77.4014 15.9385 78.3486 15.0889C79.2959 14.2393 80.2432 12.9648 81.1904 11.2656Z" fill="#00C2FF"/>
</svg>
