<svg width="125" height="42" viewBox="0 0 125 42" fill="none" xmlns="http://www.w3.org/2000/svg">
<path d="M23.7521 10.5479C23.7521 11.1338 23.8937 11.6807 24.1769 12.1885C24.4699 12.6865 24.8507 13.126 25.3195 13.5068C25.7882 13.8779 26.3253 14.1709 26.9308 14.3857C27.5363 14.5908 28.1564 14.6934 28.7912 14.6934C28.9865 14.6934 29.1867 14.6787 29.3917 14.6494C29.5968 14.6104 29.7824 14.5469 29.9484 14.459C30.1144 14.3711 30.2511 14.2588 30.3585 14.1221C30.466 13.9756 30.5197 13.7949 30.5197 13.5801C30.5197 13.1699 30.3732 12.7646 30.0802 12.3643C29.797 11.9639 29.421 11.5684 28.9523 11.1777C28.4835 10.7773 27.9464 10.3818 27.341 9.99121C26.7355 9.59082 26.1203 9.19531 25.4953 8.80469C24.8703 8.41406 24.255 8.02344 23.6496 7.63281C23.0441 7.23242 22.507 6.83691 22.0382 6.44629C21.5695 6.0459 21.1886 5.64551 20.8956 5.24512C20.6124 4.83496 20.4708 4.4248 20.4708 4.01465C20.4708 3.62402 20.5685 3.2627 20.7638 2.93066C20.9689 2.58887 21.2374 2.28125 21.5695 2.00781C21.9015 1.73438 22.2872 1.49023 22.7267 1.27539C23.1662 1.06055 23.6251 0.879883 24.1037 0.733398C24.5822 0.586914 25.0607 0.479492 25.5392 0.411133C26.0275 0.333008 26.4913 0.293945 26.9308 0.293945C27.2531 0.293945 27.6046 0.303711 27.9855 0.323242C28.3761 0.333008 28.7374 0.376953 29.0695 0.455078C29.4113 0.523438 29.6945 0.630859 29.9191 0.777344C30.1437 0.923828 30.256 1.13379 30.256 1.40723C30.256 1.49512 30.2413 1.60742 30.2121 1.74414C30.1828 1.87109 30.0997 2.08594 29.963 2.38867C29.8263 2.67188 29.6652 2.88672 29.4796 3.0332C29.3038 3.16992 29.0744 3.23828 28.7912 3.23828C28.3908 3.23828 27.966 3.19434 27.5167 3.10645C27.0773 3.00879 26.6329 2.95996 26.1837 2.95996C25.9396 2.95996 25.6906 2.97461 25.4367 3.00391C25.1925 3.02344 24.9679 3.06738 24.7628 3.13574C24.5578 3.19434 24.3917 3.28711 24.2648 3.41406C24.1378 3.53125 24.0744 3.68262 24.0744 3.86816C24.0744 4.05371 24.2062 4.26367 24.4699 4.49805C24.7433 4.73242 25.0997 4.99121 25.5392 5.27441C25.9884 5.55762 26.4962 5.87012 27.0626 6.21191C27.629 6.54395 28.2052 6.90527 28.7912 7.2959C29.3869 7.67676 29.9679 8.08691 30.5343 8.52637C31.1007 8.95605 31.6037 9.41504 32.0431 9.90332C32.4923 10.3818 32.8488 10.8896 33.1124 11.4268C33.3859 11.9639 33.5226 12.5205 33.5226 13.0967C33.5226 13.7998 33.3615 14.4199 33.0392 14.957C32.7169 15.4941 32.3019 15.9434 31.7941 16.3047C31.2863 16.666 30.7247 16.9346 30.1095 17.1104C29.4943 17.2959 28.8937 17.3887 28.3078 17.3887C27.7121 17.3887 27.1066 17.3154 26.4913 17.1689C25.8859 17.0322 25.2999 16.832 24.7335 16.5684C24.1671 16.3145 23.6349 16.0068 23.1369 15.6455C22.6486 15.2744 22.2238 14.8643 21.8624 14.415C21.5011 13.9561 21.213 13.4629 20.9982 12.9355C20.7931 12.4082 20.6906 11.8564 20.6906 11.2803C20.6906 11.0361 20.7052 10.792 20.7345 10.5479C20.7736 10.2939 20.8371 10.0742 20.9249 9.88867C21.0128 9.69336 21.1349 9.53711 21.2912 9.41992C21.4474 9.29297 21.6476 9.22949 21.8917 9.22949C21.9699 9.22949 22.0578 9.23926 22.1554 9.25879C22.2531 9.26855 22.424 9.3125 22.6681 9.39062C22.9513 9.47852 23.2003 9.62012 23.4152 9.81543C23.6398 10.001 23.7521 10.2451 23.7521 10.5479ZM43.9376 3.75098C44.4747 3.75098 44.9923 3.83398 45.4904 4C45.9884 4.16602 46.4279 4.39551 46.8087 4.68848C47.1896 4.98145 47.4923 5.33301 47.7169 5.74316C47.9513 6.15332 48.0685 6.60742 48.0685 7.10547C48.0685 7.31055 48.0197 7.51074 47.922 7.70605C47.8341 7.8916 47.7121 8.05762 47.5558 8.2041C47.3996 8.34082 47.2189 8.45312 47.0138 8.54102C46.8185 8.61914 46.6134 8.6582 46.3986 8.6582C46.379 8.6582 46.3595 8.66309 46.34 8.67285C46.3302 8.67285 46.3156 8.67285 46.296 8.67285C46.2765 8.68262 46.257 8.6875 46.2374 8.6875L46.296 9.85938C46.3351 11.2559 46.5304 12.2764 46.882 12.9209C47.2433 13.5654 47.7121 13.8877 48.2882 13.8877C48.4933 13.8877 48.674 13.8682 48.8302 13.8291C48.9962 13.79 49.1476 13.7461 49.2843 13.6973C49.4308 13.6387 49.5675 13.5898 49.6945 13.5508C49.8214 13.5117 49.9484 13.4922 50.0753 13.4922C50.2999 13.4922 50.4953 13.5898 50.6613 13.7852C50.8371 13.9805 50.9249 14.2148 50.9249 14.4883C50.9249 14.7617 50.8175 15.0352 50.6027 15.3086C50.3976 15.582 50.1242 15.8311 49.7824 16.0557C49.4406 16.2705 49.0548 16.4463 48.6251 16.583C48.1954 16.7197 47.7609 16.7881 47.3214 16.7881C46.5597 16.7881 45.8908 16.4756 45.3146 15.8506C44.7384 15.2158 44.3283 14.2881 44.0841 13.0674C44.0255 12.8721 43.9474 12.7744 43.8497 12.7744C43.7326 12.7744 43.63 12.833 43.5421 12.9502C42.5753 14.1709 41.5451 15.0889 40.4513 15.7041C39.3576 16.3096 38.2785 16.6123 37.214 16.6123C36.716 16.6123 36.2667 16.5391 35.8663 16.3926C35.466 16.2461 35.1242 16.041 34.841 15.7773C34.5675 15.5039 34.3527 15.1768 34.1964 14.7959C34.0499 14.4053 33.9767 13.9707 33.9767 13.4922C33.9767 12.8184 34.1232 12.1104 34.4162 11.3682C34.7189 10.626 35.1242 9.89355 35.632 9.1709C36.1398 8.44824 36.7257 7.75977 37.3898 7.10547C38.0636 6.45117 38.7667 5.875 39.4992 5.37695C40.2413 4.87891 40.9933 4.4834 41.755 4.19043C42.5167 3.89746 43.2443 3.75098 43.9376 3.75098ZM43.4542 8.81934C43.63 8.4873 43.7912 8.24805 43.9376 8.10156C44.0841 7.94531 44.2941 7.84277 44.5675 7.79395C44.7824 7.76465 44.8898 7.69629 44.8898 7.58887C44.8898 7.51074 44.8605 7.42773 44.8019 7.33984C44.6163 7.08594 44.421 6.86621 44.216 6.68066C44.0109 6.48535 43.7374 6.3877 43.3956 6.3877C43.0246 6.3877 42.6095 6.49512 42.1505 6.70996C41.6915 6.9248 41.2228 7.21289 40.7443 7.57422C40.2755 7.92578 39.8117 8.33105 39.3527 8.79004C38.9035 9.23926 38.5031 9.70312 38.1515 10.1816C37.7999 10.6602 37.5167 11.1338 37.3019 11.6025C37.0871 12.0713 36.9796 12.4912 36.9796 12.8623C36.9796 13.1943 37.0675 13.4531 37.2433 13.6387C37.4288 13.8242 37.6779 13.917 37.9904 13.917C38.7912 13.917 39.6652 13.4922 40.6124 12.6426C41.5597 11.793 42.507 10.5186 43.4542 8.81934ZM59.2453 5.24512C59.2746 4.97168 59.3087 4.74707 59.3478 4.57129C59.3966 4.38574 59.465 4.23926 59.5529 4.13184C59.6505 4.01465 59.7726 3.93164 59.9191 3.88281C60.0656 3.83398 60.2511 3.80957 60.4757 3.80957C61.1886 3.80957 61.7111 3.91699 62.0431 4.13184C62.3849 4.33691 62.5558 4.66895 62.5558 5.12793C62.5558 5.21582 62.5363 5.41113 62.4972 5.71387C62.4679 6.00684 62.424 6.37305 62.3654 6.8125C62.3068 7.24219 62.2384 7.7207 62.1603 8.24805C62.0919 8.76562 62.0236 9.29297 61.9552 9.83008C61.7794 11.0801 61.5792 12.4814 61.3546 14.0342C61.2179 14.9521 60.9445 15.6113 60.5343 16.0117C60.1339 16.4121 59.5382 16.6123 58.7472 16.6123C58.1515 16.6123 57.5363 16.4609 56.9015 16.1582C56.2667 15.8555 55.6515 15.4453 55.0558 14.9277C54.4601 14.4102 53.8937 13.8096 53.3566 13.126C52.8292 12.4326 52.3654 11.7002 51.965 10.9287C51.5646 10.1475 51.2472 9.35156 51.0128 8.54102C50.7882 7.73047 50.6759 6.93945 50.6759 6.16797C50.6759 5.29883 50.798 4.64941 51.0421 4.21973C51.296 3.78027 51.7306 3.56055 52.3458 3.56055C52.7755 3.56055 53.132 3.58984 53.4152 3.64844C53.6984 3.69727 53.923 3.79004 54.089 3.92676C54.2648 4.05371 54.3869 4.22461 54.4552 4.43945C54.5333 4.6543 54.5724 4.92285 54.5724 5.24512C54.5724 5.45996 54.5626 5.6748 54.5431 5.88965C54.5236 6.10449 54.5138 6.31934 54.5138 6.53418C54.5138 7.03223 54.5626 7.55469 54.6603 8.10156C54.7677 8.63867 54.9093 9.16602 55.0851 9.68359C55.2609 10.2012 55.466 10.6943 55.7003 11.1631C55.9347 11.6221 56.1837 12.0273 56.4474 12.3789C56.7111 12.7305 56.9747 13.0088 57.2384 13.2139C57.5119 13.4189 57.7755 13.5215 58.0294 13.5215C58.2052 13.5215 58.3371 13.4629 58.4249 13.3457C58.5226 13.2285 58.5861 13.0283 58.6154 12.7451L59.2453 5.24512ZM77.1163 13.3457C77.3996 13.1016 77.6779 12.9795 77.9513 12.9795C78.1076 12.9795 78.2492 13.0186 78.3761 13.0967C78.5031 13.1748 78.6447 13.2969 78.8009 13.4629C78.9474 13.6875 79.0499 13.873 79.1085 14.0195C79.1769 14.1562 79.2111 14.293 79.2111 14.4297C79.2111 14.7227 79.0646 15.001 78.7716 15.2646C78.3029 15.6553 77.7951 16.0068 77.2482 16.3193C76.7013 16.6221 76.13 16.8809 75.5343 17.0957C74.9386 17.3105 74.3234 17.4717 73.6886 17.5791C73.0538 17.6963 72.424 17.7549 71.799 17.7549C71.0079 17.7549 70.2658 17.6523 69.5724 17.4473C68.879 17.252 68.2589 16.9688 67.7121 16.5977C67.1749 16.2266 66.7208 15.7822 66.3497 15.2646C65.9787 14.7373 65.715 14.1465 65.5587 13.4922C65.4708 13.2188 65.3878 13.043 65.3097 12.9648C65.2413 12.877 65.1242 12.833 64.9581 12.833C64.5968 12.833 64.3185 12.7451 64.1232 12.5693C63.9279 12.3936 63.8302 12.1396 63.8302 11.8076C63.8302 11.6709 63.84 11.583 63.8595 11.5439L63.8888 11.251C63.9376 10.8994 64.0304 10.6455 64.1671 10.4893C64.3136 10.333 64.5382 10.2549 64.841 10.2549H65.0607C65.4708 10.2549 65.7589 10.0645 65.9249 9.68359C66.2277 9.00977 66.6134 8.39453 67.0822 7.83789C67.5509 7.28125 68.0783 6.80762 68.6642 6.41699C69.2501 6.0166 69.8751 5.70898 70.5392 5.49414C71.213 5.26953 71.8966 5.15723 72.59 5.15723C73.3126 5.15723 73.9865 5.26465 74.6115 5.47949C75.2462 5.68457 75.798 5.97266 76.2667 6.34375C76.7355 6.71484 77.1017 7.14941 77.3654 7.64746C77.6388 8.14551 77.7755 8.68262 77.7755 9.25879C77.7755 9.65918 77.6974 10.0254 77.5412 10.3574C77.3849 10.6895 77.1603 10.9824 76.8673 11.2363C76.5744 11.4805 76.2179 11.6807 75.798 11.8369C75.3878 11.9932 74.9191 12.0957 74.3917 12.1445L69.3087 12.6572C69.1134 12.6572 68.9523 12.7061 68.8253 12.8037C68.7081 12.9014 68.6496 13.0332 68.6496 13.1992C68.6496 13.4531 68.7423 13.6973 68.9279 13.9316C69.1232 14.166 69.3771 14.376 69.6896 14.5615C70.0119 14.7373 70.3781 14.8789 70.7882 14.9863C71.2081 15.0938 71.6378 15.1475 72.0773 15.1475C72.4972 15.1475 72.9269 15.1084 73.3663 15.0303C73.8156 14.9424 74.255 14.8203 74.6847 14.6641C75.1242 14.5078 75.549 14.3223 75.9591 14.1074C76.3693 13.8828 76.755 13.6289 77.1163 13.3457ZM73.8497 9.56641C73.9962 9.53711 74.1232 9.46875 74.2306 9.36133C74.338 9.24414 74.3917 9.10254 74.3917 8.93652C74.3917 8.79004 74.338 8.65332 74.2306 8.52637C74.1232 8.39941 73.9767 8.28711 73.7912 8.18945C73.6056 8.08203 73.3908 7.99902 73.1466 7.94043C72.9025 7.88184 72.6437 7.85254 72.3703 7.85254C71.9699 7.85254 71.5597 7.91113 71.1398 8.02832C70.7199 8.14551 70.339 8.30176 69.9972 8.49707C69.6554 8.68262 69.3771 8.89258 69.1622 9.12695C68.9474 9.35156 68.84 9.57617 68.84 9.80078C68.84 10.0254 68.9767 10.1377 69.2501 10.1377C69.4162 10.1377 69.6847 10.1182 70.0558 10.0791C70.4269 10.04 70.8371 9.99609 71.2863 9.94727C71.7355 9.88867 72.1896 9.8252 72.6486 9.75684C73.1076 9.68848 73.5079 9.625 73.8497 9.56641ZM86.9747 13.6387C86.8087 13.6387 86.6818 13.5557 86.5939 13.3896C86.5158 13.2236 86.4767 12.9893 86.4767 12.6865C86.4767 12.6377 86.4767 12.584 86.4767 12.5254C86.4767 12.457 86.4865 12.3301 86.506 12.1445C86.5353 11.4414 86.882 11.0312 87.546 10.9141L87.8829 10.8848C88.1076 10.8555 88.2833 10.7871 88.4103 10.6797C88.5372 10.5625 88.63 10.4014 88.6886 10.1963C88.8546 9.63965 89.0206 9.07812 89.1867 8.51172C89.3527 7.94531 89.5285 7.38379 89.714 6.82715C89.8117 6.51465 89.9093 6.18262 90.007 5.83105C90.1144 5.46973 90.2267 5.11328 90.3439 4.76172C90.4708 4.41016 90.6124 4.06348 90.7687 3.72168C90.9347 3.37988 91.1203 3.06738 91.3253 2.78418C91.4132 2.66699 91.5353 2.54492 91.6915 2.41797C91.8478 2.29102 92.0236 2.17871 92.2189 2.08105C92.424 1.97363 92.6388 1.89062 92.8634 1.83203C93.0978 1.76367 93.3273 1.72949 93.5519 1.72949C93.8449 1.72949 94.1329 1.82227 94.4162 2.00781C94.797 2.27148 95.173 2.58887 95.5441 2.95996C95.9152 3.33105 96.3302 3.80469 96.7892 4.38086C97.2482 4.95703 97.7804 5.65527 98.3859 6.47559C98.9913 7.28613 99.7189 8.26758 100.568 9.41992C100.695 9.56641 100.827 9.67871 100.964 9.75684C101.11 9.8252 101.281 9.85938 101.477 9.85938H102.312C102.653 9.85938 102.917 9.94238 103.103 10.1084C103.298 10.2646 103.396 10.4844 103.396 10.7676C103.396 10.8262 103.391 10.8945 103.381 10.9727C103.381 11.0508 103.366 11.1289 103.337 11.207L103.059 12.0273C103.039 12.1055 103.025 12.1738 103.015 12.2324C103.005 12.291 103 12.3496 103 12.4082C103 12.6133 103.068 12.8232 103.205 13.0381L104.773 15.1768C104.948 15.4404 105.036 15.6895 105.036 15.9238C105.036 16.2754 104.836 16.583 104.436 16.8467L103.879 17.2422C103.742 17.3301 103.61 17.3984 103.484 17.4473C103.366 17.4961 103.244 17.5205 103.117 17.5205C102.942 17.5205 102.776 17.4668 102.619 17.3594C102.473 17.2617 102.331 17.125 102.194 16.9492C101.726 16.2852 101.252 15.6309 100.774 14.9863C100.305 14.3418 99.8263 13.7021 99.338 13.0674C99.1134 12.7549 98.8156 12.5986 98.4445 12.5986C97.2531 12.6475 96.0714 12.7158 94.8996 12.8037C93.7374 12.8818 92.5704 12.9795 91.3986 13.0967C90.9787 13.1357 90.715 13.3604 90.6076 13.7705L89.9484 16.1875C89.7726 16.832 89.382 17.1543 88.7765 17.1543H88.5421L88.088 17.0957C87.756 17.0664 87.5021 16.9639 87.3263 16.7881C87.1603 16.6123 87.0773 16.3828 87.0773 16.0996C87.0773 16.041 87.0822 15.9775 87.0919 15.9092C87.1017 15.8408 87.1163 15.7676 87.1359 15.6895C87.1847 15.4941 87.2335 15.2939 87.2824 15.0889C87.341 14.8838 87.3996 14.6836 87.4581 14.4883C87.4777 14.4102 87.4923 14.3418 87.5021 14.2832C87.5119 14.2148 87.5167 14.1514 87.5167 14.0928C87.5167 13.79 87.3996 13.6387 87.1652 13.6387H86.9747ZM93.9474 5.9043C93.8497 5.81641 93.7619 5.74316 93.6837 5.68457C93.6056 5.62598 93.5226 5.59668 93.4347 5.59668C93.1906 5.59668 93.0197 5.76758 92.922 6.10938C92.7267 6.68555 92.5363 7.25684 92.3507 7.82324C92.1749 8.37988 91.9943 8.95117 91.8087 9.53711C91.7892 9.58594 91.7794 9.62988 91.7794 9.66895C91.7794 9.70801 91.7794 9.75195 91.7794 9.80078C91.7794 10.1621 91.9699 10.3428 92.3507 10.3428H92.4972C93.0831 10.2646 93.6691 10.2061 94.255 10.167C94.841 10.1182 95.4269 10.0791 96.0128 10.0498C96.2081 10.0303 96.3595 9.98145 96.4669 9.90332C96.5841 9.81543 96.6427 9.70312 96.6427 9.56641C96.6427 9.43945 96.5841 9.28809 96.4669 9.1123C96.0568 8.56543 95.6417 8.02832 95.2218 7.50098C94.8117 6.96387 94.3869 6.43164 93.9474 5.9043ZM4.69447 28.8457C4.50893 28.8457 4.29408 28.8799 4.04994 28.9482C3.8058 29.0068 3.5519 29.0801 3.28822 29.168C3.02455 29.2461 2.76088 29.3193 2.49721 29.3877C2.2433 29.4463 2.01381 29.4756 1.80873 29.4756C1.59389 29.4756 1.42299 29.4414 1.29604 29.373C1.17885 29.2949 1.09096 29.1973 1.03236 29.0801C0.97377 28.9629 0.93959 28.8359 0.929825 28.6992C0.920059 28.5625 0.915176 28.4307 0.915176 28.3037C0.915176 27.9326 1.0226 27.6299 1.23744 27.3955C1.46205 27.1611 1.77943 26.9658 2.18959 26.8096C2.59975 26.6436 3.09291 26.5068 3.66908 26.3994C4.25502 26.2822 4.9142 26.1553 5.64662 26.0186C6.79897 25.8037 7.84877 25.6377 8.79604 25.5205C9.75307 25.4033 10.6613 25.3203 11.5206 25.2715C12.3898 25.2129 13.2394 25.1787 14.0695 25.1689C14.8996 25.1592 15.7736 25.1543 16.6915 25.1543C16.965 25.1543 17.1798 25.1885 17.3361 25.2568C17.4923 25.3252 17.6046 25.4131 17.673 25.5205C17.7511 25.6279 17.7951 25.75 17.8048 25.8867C17.8244 26.0234 17.8341 26.1602 17.8341 26.2969C17.8341 26.4531 17.8097 26.624 17.7609 26.8096C17.7218 26.9854 17.6486 27.1514 17.5412 27.3076C17.4435 27.4541 17.3068 27.5762 17.131 27.6738C16.965 27.7715 16.7599 27.8203 16.5158 27.8203H15.3439C14.8751 27.8203 14.3771 27.8252 13.8497 27.835C13.3224 27.835 12.7999 27.8447 12.2824 27.8643C11.7648 27.874 11.2667 27.8936 10.7882 27.9229C10.3195 27.9521 9.89955 27.9961 9.52846 28.0547C9.16713 28.1035 8.87904 28.167 8.6642 28.2451C8.44936 28.3232 8.34193 28.4209 8.34193 28.5381C8.34193 28.6553 8.38588 28.8506 8.47377 29.124C8.56166 29.3975 8.66908 29.6953 8.79604 30.0176C8.92299 30.3301 9.04994 30.6426 9.1769 30.9551C9.31361 31.2578 9.42592 31.5117 9.51381 31.7168C9.59193 31.8828 9.67982 31.9951 9.77748 32.0537C9.87514 32.1123 10.007 32.1416 10.173 32.1416C10.5734 32.1416 10.9835 32.1172 11.4035 32.0684C11.8234 32.0195 12.2433 31.9658 12.6632 31.9072C13.0929 31.8389 13.5177 31.7803 13.9376 31.7314C14.3673 31.6826 14.7921 31.6582 15.2121 31.6582C15.4464 31.6582 15.6369 31.7021 15.7833 31.79C15.9396 31.8682 16.0617 31.9707 16.1496 32.0977C16.2374 32.2148 16.296 32.3418 16.3253 32.4785C16.3644 32.6152 16.3839 32.7324 16.3839 32.8301C16.3839 33.2695 16.2472 33.6016 15.9738 33.8262C15.7003 34.041 15.3292 34.2021 14.8605 34.3096C14.3917 34.417 13.8449 34.4902 13.2199 34.5293C12.6046 34.5684 11.9503 34.6221 11.257 34.6904L10.9054 34.7197C10.7785 34.7393 10.6808 34.7832 10.6124 34.8516C10.5441 34.9199 10.5099 35.0078 10.5099 35.1152C10.5099 35.1445 10.5148 35.1689 10.5246 35.1885C10.5343 35.208 10.5392 35.2324 10.5392 35.2617C10.6271 35.584 10.7296 35.9453 10.8468 36.3457C10.964 36.7363 11.0714 37.127 11.1691 37.5176C11.2765 37.9082 11.3644 38.2793 11.4328 38.6309C11.5011 38.9824 11.5353 39.2705 11.5353 39.4951C11.5353 39.9443 11.3644 40.2861 11.0226 40.5205C10.6906 40.7549 10.2169 40.8721 9.6017 40.8721C9.37709 40.8721 9.15736 40.8184 8.94252 40.7109C8.73744 40.6133 8.61049 40.4277 8.56166 40.1543C8.40541 39.3535 8.22963 38.5723 8.03432 37.8105C7.839 37.0391 7.63393 36.2725 7.41908 35.5107C7.33119 35.2471 7.16029 35.1152 6.90639 35.1152C6.61342 35.1152 6.28139 35.1055 5.91029 35.0859C5.54897 35.0664 5.17787 35.0273 4.79701 34.9688C4.41615 34.9102 4.04506 34.8369 3.68373 34.749C3.33217 34.6514 3.01479 34.5244 2.73158 34.3682C2.45815 34.2119 2.23354 34.0264 2.05775 33.8115C1.89174 33.5967 1.80873 33.3428 1.80873 33.0498C1.80873 32.8643 1.85268 32.6836 1.94057 32.5078C2.02846 32.3223 2.14076 32.1611 2.27748 32.0244C2.4142 31.8779 2.56068 31.7607 2.71693 31.6729C2.88295 31.585 3.0392 31.541 3.18568 31.541C3.36147 31.541 3.5519 31.585 3.75697 31.6729C3.96205 31.7607 4.18178 31.8584 4.41615 31.9658C4.65053 32.0732 4.89955 32.1709 5.16322 32.2588C5.43666 32.3467 5.72963 32.3906 6.04213 32.3906C6.19838 32.3906 6.2765 32.3076 6.2765 32.1416C6.2765 31.9854 6.24721 31.7803 6.18861 31.5264C6.13979 31.2725 6.07143 31.0088 5.98354 30.7354C5.89565 30.4521 5.79311 30.1787 5.67592 29.915C5.5685 29.6416 5.45131 29.4121 5.32436 29.2266C5.24623 29.1094 5.16322 29.0166 5.07533 28.9482C4.99721 28.8799 4.87025 28.8457 4.69447 28.8457ZM20.8517 34.3682C20.8517 35.6768 21.0519 36.6875 21.4523 37.4004C21.8527 38.1133 22.4337 38.4697 23.1954 38.4697C23.674 38.4697 24.1134 38.3281 24.5138 38.0449C24.924 37.7617 25.2755 37.3662 25.5685 36.8584C25.8615 36.3506 26.0861 35.75 26.2423 35.0566C26.4083 34.3535 26.4913 33.5918 26.4913 32.7715C26.4913 32.2734 26.4718 31.8438 26.4328 31.4824C26.3937 31.1113 26.3497 30.7842 26.3009 30.501C26.2619 30.208 26.2228 29.9492 26.1837 29.7246C26.1447 29.5 26.1251 29.2852 26.1251 29.0801C26.1251 28.7676 26.257 28.543 26.5206 28.4062C26.7843 28.2598 27.2042 28.1865 27.7804 28.1865C28.5128 28.1865 29.0792 28.3525 29.4796 28.6846C29.8898 29.0166 30.0949 29.5 30.0949 30.1348C30.0949 31.8633 29.924 33.416 29.5822 34.793C29.2501 36.1699 28.7667 37.3418 28.132 38.3086C27.507 39.2656 26.7453 40.0029 25.8468 40.5205C24.9484 41.0381 23.9425 41.2969 22.8292 41.2969C22.0382 41.2969 21.3058 41.1309 20.632 40.7988C19.9679 40.4766 19.3917 40.0225 18.9035 39.4365C18.4249 38.8408 18.049 38.1377 17.7755 37.3271C17.5021 36.5068 17.3654 35.6084 17.3654 34.6318C17.3654 34.2607 17.3751 33.8652 17.3947 33.4453C17.4142 33.0254 17.4435 32.5762 17.4826 32.0977C17.5216 31.6094 17.5704 31.082 17.629 30.5156C17.6974 29.9492 17.7706 29.334 17.8488 28.6699C17.8781 28.3867 18.0099 28.1621 18.2443 27.9961C18.4884 27.8203 18.796 27.7324 19.1671 27.7324C19.4992 27.7324 19.8117 27.7666 20.1046 27.835C20.3976 27.9033 20.6466 27.9961 20.8517 28.1133C21.0665 28.2305 21.2326 28.3672 21.3497 28.5234C21.4767 28.6797 21.5402 28.8457 21.5402 29.0215C21.5402 29.1973 21.5011 29.4756 21.423 29.8564C21.3546 30.2275 21.2765 30.6572 21.1886 31.1455C21.1105 31.624 21.0324 32.1465 20.9542 32.7129C20.8859 33.2695 20.8517 33.8213 20.8517 34.3682ZM37.0382 27.4688C37.546 27.4688 38.0392 27.542 38.5177 27.6885C38.9962 27.835 39.4162 28.0352 39.7775 28.2891C40.1486 28.5332 40.4464 28.8164 40.671 29.1387C40.8956 29.4512 41.0079 29.7734 41.0079 30.1055C41.0079 30.3203 40.964 30.5303 40.8761 30.7354C40.7882 30.9307 40.671 31.1064 40.5246 31.2627C40.3781 31.4092 40.2121 31.5312 40.0265 31.6289C39.841 31.7168 39.6456 31.7607 39.4406 31.7607C39.216 31.7607 39.0109 31.6777 38.8253 31.5117C38.6398 31.3359 38.4396 31.1455 38.2247 30.9404C38.0197 30.7256 37.7853 30.5352 37.5216 30.3691C37.2677 30.1934 36.9601 30.1055 36.5988 30.1055C36.2472 30.1055 35.9298 30.1885 35.6466 30.3545C35.3634 30.5205 35.1242 30.7549 34.9288 31.0576C34.7433 31.3506 34.5968 31.7021 34.4894 32.1123C34.3917 32.5127 34.3429 32.9521 34.3429 33.4307C34.3429 34.7979 34.6017 35.8428 35.1193 36.5654C35.6369 37.2783 36.379 37.6348 37.3458 37.6348C37.8048 37.6348 38.1954 37.5615 38.5177 37.415C38.8497 37.2686 39.1378 37.1074 39.382 36.9316C39.6359 36.7559 39.8654 36.5947 40.0704 36.4482C40.2755 36.3018 40.4855 36.2285 40.7003 36.2285C40.8175 36.2285 40.9347 36.2676 41.0519 36.3457C41.1691 36.4141 41.2716 36.5068 41.3595 36.624C41.4572 36.7314 41.5353 36.8535 41.5939 36.9902C41.6622 37.127 41.6964 37.2637 41.6964 37.4004C41.6964 37.7227 41.5353 38.0547 41.213 38.3965C40.9005 38.7383 40.4953 39.0508 39.9972 39.334C39.4992 39.6074 38.9425 39.832 38.3273 40.0078C37.7218 40.1836 37.131 40.2715 36.5548 40.2715C35.7833 40.2715 35.0753 40.1201 34.4308 39.8174C33.7863 39.5244 33.2296 39.1143 32.7609 38.5869C32.2921 38.0498 31.9259 37.4102 31.6622 36.668C31.4083 35.9258 31.2814 35.1055 31.2814 34.207C31.2814 33.2305 31.423 32.332 31.7062 31.5117C31.9992 30.6914 32.3996 29.9834 32.9074 29.3877C33.4249 28.7822 34.0353 28.3135 34.7384 27.9814C35.4415 27.6396 36.2081 27.4688 37.0382 27.4688ZM42.9415 39.2607C42.9415 38.4111 42.9171 37.4883 42.8683 36.4922C42.8195 35.4961 42.756 34.4902 42.6779 33.4746C42.6095 32.4492 42.5314 31.4482 42.4435 30.4717C42.3654 29.4951 42.2872 28.6016 42.2091 27.791C42.1408 26.9805 42.0822 26.2822 42.0333 25.6963C41.9845 25.1104 41.9601 24.7002 41.9601 24.4658C41.9601 24.0752 42.1066 23.7773 42.3996 23.5723C42.6925 23.3672 43.1173 23.2646 43.674 23.2646C43.9181 23.2646 44.1232 23.2891 44.2892 23.3379C44.465 23.3867 44.6066 23.4697 44.714 23.5869C44.8214 23.7041 44.9044 23.8604 44.963 24.0557C45.0314 24.2412 45.0802 24.4756 45.1095 24.7588C45.1486 25.1494 45.1828 25.5693 45.2121 26.0186C45.2413 26.458 45.2706 26.9609 45.2999 27.5273C45.339 28.0938 45.3781 28.7334 45.4171 29.4463C45.4562 30.1592 45.505 30.9795 45.5636 31.9072C45.5636 32.0439 45.588 32.1416 45.6369 32.2002C45.6857 32.2588 45.7394 32.2881 45.798 32.2881C45.9054 32.2881 46.0031 32.2002 46.091 32.0244C46.921 30.335 47.7902 29.0459 48.6984 28.1572C49.6066 27.2588 50.4904 26.8096 51.3497 26.8096C51.8576 26.8096 52.2579 26.9609 52.5509 27.2637C52.8439 27.5664 52.9904 27.9717 52.9904 28.4795C52.9904 29.0264 52.8683 29.5342 52.6242 30.0029C52.3898 30.4619 52.0919 30.8965 51.7306 31.3066C51.379 31.7168 50.9933 32.1025 50.5734 32.4639C50.1632 32.8252 49.7775 33.1768 49.4162 33.5186C49.0646 33.8604 48.7667 34.1973 48.5226 34.5293C48.2882 34.8516 48.171 35.1787 48.171 35.5107C48.171 35.8135 48.3468 36.126 48.6984 36.4482C49.0597 36.7607 49.5773 37.0732 50.2511 37.3857C50.9249 37.6885 51.7501 37.9863 52.7267 38.2793C53.7033 38.5625 54.8117 38.8359 56.0519 39.0996C56.2472 39.1484 56.3839 39.2266 56.4621 39.334C56.5499 39.4414 56.5939 39.583 56.5939 39.7588C56.5939 39.9736 56.5451 40.1934 56.4474 40.418C56.3497 40.6523 56.2277 40.8623 56.0812 41.0479C55.9347 41.2432 55.7687 41.3994 55.5831 41.5166C55.4074 41.6436 55.2365 41.707 55.0704 41.707C54.7384 41.707 54.3429 41.6631 53.8839 41.5752C53.4249 41.4873 52.9269 41.3652 52.3898 41.209C51.8624 41.0625 51.3156 40.8867 50.7492 40.6816C50.1828 40.4863 49.631 40.2715 49.0939 40.0371C48.5665 39.8125 48.0636 39.5781 47.5851 39.334C47.1163 39.0801 46.7111 38.8311 46.3693 38.5869C46.2619 38.5283 46.174 38.4795 46.1056 38.4404C46.047 38.4014 45.9933 38.3818 45.9445 38.3818C45.8859 38.3818 45.8517 38.4062 45.8419 38.4551C45.8322 38.4941 45.8273 38.582 45.8273 38.7188C45.8273 39.0605 45.798 39.3389 45.7394 39.5537C45.6906 39.7686 45.6027 39.9346 45.4757 40.0518C45.3488 40.1787 45.173 40.2666 44.9484 40.3154C44.7238 40.3643 44.4454 40.3887 44.1134 40.3887C43.674 40.3887 43.3663 40.3057 43.1906 40.1396C43.0246 39.9736 42.9415 39.6807 42.9415 39.2607ZM66.3644 40.5498C66.0812 40.5986 65.8273 40.6523 65.6027 40.7109C65.3781 40.7793 65.0997 40.8135 64.7677 40.8135C64.4064 40.8135 64.1281 40.7109 63.9328 40.5059C63.7374 40.3008 63.6398 40.0713 63.6398 39.8174C63.6398 39.6123 63.674 39.3486 63.7423 39.0264C63.8107 38.6943 63.8449 38.3623 63.8449 38.0303C63.7765 36.7705 63.6837 35.5254 63.5665 34.2949C63.4591 33.0547 63.3517 31.9219 63.2443 30.8965C63.1369 29.8711 63.0441 28.9971 62.966 28.2744C62.8878 27.542 62.8488 27.0439 62.8488 26.7803C62.8488 26.6045 62.8927 26.4434 62.9806 26.2969C63.0685 26.1406 63.1906 26.0039 63.3468 25.8867C63.5031 25.7695 63.6837 25.6816 63.8888 25.623C64.1037 25.5547 64.3283 25.5205 64.5626 25.5205C65.0216 25.5205 65.3585 25.5938 65.5734 25.7402C65.7882 25.877 65.9201 26.1016 65.9689 26.4141C66.2423 28.5137 66.4376 30.4424 66.5548 32.2002C66.6818 33.9482 66.7697 35.5889 66.8185 37.1221C66.8185 37.3467 66.8771 37.5176 66.9943 37.6348C67.1212 37.752 67.2824 37.8105 67.4777 37.8105C67.8683 37.8105 68.2638 37.791 68.6642 37.752C69.0646 37.7031 69.465 37.6543 69.8654 37.6055C70.2658 37.5566 70.6613 37.5127 71.0519 37.4736C71.4523 37.4248 71.838 37.4004 72.2091 37.4004C72.4533 37.4004 72.6486 37.4297 72.7951 37.4883C72.9513 37.5469 73.0685 37.625 73.1466 37.7227C73.2345 37.8203 73.2882 37.9326 73.3078 38.0596C73.3371 38.1768 73.3517 38.2939 73.3517 38.4111C73.3517 38.5967 73.3322 38.7822 73.2931 38.9678C73.254 39.1533 73.1857 39.3242 73.088 39.4805C72.9904 39.627 72.8585 39.749 72.6925 39.8467C72.5265 39.9541 72.3165 40.0176 72.0626 40.0371C70.8615 40.1543 69.7628 40.2422 68.7667 40.3008C67.7804 40.3594 66.9796 40.4424 66.3644 40.5498ZM73.7472 34.6904C73.7472 34.5244 73.7667 34.3389 73.8058 34.1338C73.8449 33.9287 73.8644 33.7041 73.8644 33.46C73.8644 33.2939 73.7912 33.167 73.6447 33.0791C73.5079 32.9912 73.3517 32.8936 73.1759 32.7861C73.0001 32.6787 72.839 32.542 72.6925 32.376C72.5558 32.21 72.4874 31.9707 72.4874 31.6582C72.4874 31.4336 72.546 31.209 72.6632 30.9844C72.7902 30.7598 72.9708 30.5547 73.2052 30.3691C73.7814 29.9395 74.3771 29.5537 74.9923 29.2119C75.6173 28.8701 76.2374 28.582 76.8527 28.3477C77.4777 28.1133 78.0929 27.9326 78.6984 27.8057C79.3038 27.6787 79.8849 27.6152 80.4415 27.6152C81.379 27.6152 82.2579 27.791 83.0783 28.1426C83.9083 28.4844 84.6261 28.958 85.2316 29.5635C85.8468 30.1592 86.3302 30.8623 86.6818 31.6729C87.0431 32.4736 87.2238 33.333 87.2238 34.251C87.2238 35.1494 87.0333 36.0039 86.6525 36.8145C86.2814 37.6152 85.7785 38.3184 85.1437 38.9238C84.5089 39.5293 83.7619 40.0078 82.9025 40.3594C82.0529 40.7207 81.1544 40.9014 80.2072 40.9014C79.2794 40.9014 78.4201 40.7451 77.629 40.4326C76.838 40.1201 76.1544 39.6904 75.5783 39.1436C75.0021 38.5869 74.5529 37.9326 74.2306 37.1807C73.9083 36.4189 73.7472 35.5889 73.7472 34.6904ZM80.5294 38.2646C80.9396 38.2646 81.3644 38.1816 81.8038 38.0156C82.2433 37.8496 82.6437 37.6104 83.005 37.2979C83.3761 36.9756 83.6788 36.585 83.9132 36.126C84.1574 35.667 84.2794 35.1494 84.2794 34.5732C84.2794 33.9873 84.172 33.4404 83.9572 32.9326C83.7423 32.4248 83.4445 31.9854 83.0636 31.6143C82.6925 31.2334 82.2482 30.9355 81.7306 30.7207C81.2228 30.5059 80.671 30.3984 80.0753 30.3984C78.9913 30.3984 78.1613 30.6816 77.5851 31.248C77.0089 31.8047 76.7208 32.6641 76.7208 33.8262C76.7208 34.4609 76.8136 35.0518 76.9992 35.5986C77.1945 36.1357 77.463 36.6045 77.8048 37.0049C78.1466 37.3955 78.547 37.7031 79.006 37.9277C79.4747 38.1523 79.9826 38.2646 80.5294 38.2646ZM98.3419 26.751C98.879 26.751 99.3966 26.834 99.8947 27C100.393 27.166 100.832 27.3955 101.213 27.6885C101.594 27.9814 101.897 28.333 102.121 28.7432C102.356 29.1533 102.473 29.6074 102.473 30.1055C102.473 30.3105 102.424 30.5107 102.326 30.7061C102.238 30.8916 102.116 31.0576 101.96 31.2041C101.804 31.3408 101.623 31.4531 101.418 31.541C101.223 31.6191 101.018 31.6582 100.803 31.6582C100.783 31.6582 100.764 31.6631 100.744 31.6729C100.735 31.6729 100.72 31.6729 100.7 31.6729C100.681 31.6826 100.661 31.6875 100.642 31.6875L100.7 32.8594C100.739 34.2559 100.935 35.2764 101.286 35.9209C101.648 36.5654 102.116 36.8877 102.693 36.8877C102.898 36.8877 103.078 36.8682 103.235 36.8291C103.401 36.79 103.552 36.7461 103.689 36.6973C103.835 36.6387 103.972 36.5898 104.099 36.5508C104.226 36.5117 104.353 36.4922 104.48 36.4922C104.704 36.4922 104.9 36.5898 105.066 36.7852C105.241 36.9805 105.329 37.2148 105.329 37.4883C105.329 37.7617 105.222 38.0352 105.007 38.3086C104.802 38.582 104.528 38.8311 104.187 39.0557C103.845 39.2705 103.459 39.4463 103.029 39.583C102.6 39.7197 102.165 39.7881 101.726 39.7881C100.964 39.7881 100.295 39.4756 99.7189 38.8506C99.1427 38.2158 98.7326 37.2881 98.4884 36.0674C98.4298 35.8721 98.3517 35.7744 98.254 35.7744C98.1369 35.7744 98.0343 35.833 97.9464 35.9502C96.9796 37.1709 95.9494 38.0889 94.8556 38.7041C93.7619 39.3096 92.6828 39.6123 91.6183 39.6123C91.1203 39.6123 90.671 39.5391 90.2706 39.3926C89.8703 39.2461 89.5285 39.041 89.2453 38.7773C88.9718 38.5039 88.757 38.1768 88.6007 37.7959C88.4542 37.4053 88.381 36.9707 88.381 36.4922C88.381 35.8184 88.5275 35.1104 88.8204 34.3682C89.1232 33.626 89.5285 32.8936 90.0363 32.1709C90.5441 31.4482 91.13 30.7598 91.7941 30.1055C92.4679 29.4512 93.171 28.875 93.9035 28.377C94.6456 27.8789 95.3976 27.4834 96.1593 27.1904C96.921 26.8975 97.6486 26.751 98.3419 26.751ZM97.8585 31.8193C98.0343 31.4873 98.1954 31.248 98.3419 31.1016C98.4884 30.9453 98.6984 30.8428 98.9718 30.7939C99.1867 30.7646 99.2941 30.6963 99.2941 30.5889C99.2941 30.5107 99.2648 30.4277 99.2062 30.3398C99.0206 30.0859 98.8253 29.8662 98.6203 29.6807C98.4152 29.4854 98.1417 29.3877 97.7999 29.3877C97.4288 29.3877 97.0138 29.4951 96.5548 29.71C96.0958 29.9248 95.6271 30.2129 95.1486 30.5742C94.6798 30.9258 94.216 31.3311 93.757 31.79C93.3078 32.2393 92.9074 32.7031 92.5558 33.1816C92.2042 33.6602 91.921 34.1338 91.7062 34.6025C91.4913 35.0713 91.3839 35.4912 91.3839 35.8623C91.3839 36.1943 91.4718 36.4531 91.6476 36.6387C91.8331 36.8242 92.0822 36.917 92.3947 36.917C93.1954 36.917 94.0695 36.4922 95.0167 35.6426C95.964 34.793 96.9113 33.5186 97.8585 31.8193ZM115.612 28.8457C115.652 28.8652 115.71 28.875 115.788 28.875C116.003 28.875 116.11 28.7334 116.11 28.4502V23.8945C116.11 23.3184 116.237 22.9082 116.491 22.6641C116.755 22.4199 117.19 22.2979 117.795 22.2979C118.41 22.2979 118.845 22.4248 119.099 22.6787C119.353 22.9326 119.48 23.3672 119.48 23.9824C119.48 24.2168 119.465 24.5635 119.436 25.0225C119.406 25.4717 119.372 25.9844 119.333 26.5605C119.304 27.1367 119.275 27.7568 119.245 28.4209C119.216 29.0752 119.201 29.7246 119.201 30.3691C119.201 31.3652 119.27 32.2246 119.406 32.9473C119.543 33.6699 119.738 34.2705 119.992 34.749C120.246 35.2178 120.549 35.5693 120.901 35.8037C121.252 36.0283 121.648 36.1406 122.087 36.1406C122.331 36.1406 122.551 36.1113 122.746 36.0527C122.951 35.9844 123.191 35.9502 123.464 35.9502C123.659 35.9502 123.82 36.0527 123.947 36.2578C124.084 36.4531 124.152 36.6924 124.152 36.9756C124.152 37.2295 124.074 37.4688 123.918 37.6934C123.772 37.918 123.567 38.1133 123.303 38.2793C123.049 38.4453 122.751 38.5771 122.409 38.6748C122.068 38.7627 121.711 38.8066 121.34 38.8066C120.539 38.8066 119.807 38.5625 119.143 38.0742C118.479 37.5762 117.981 36.8193 117.649 35.8037C117.619 35.6475 117.57 35.5693 117.502 35.5693C117.424 35.5693 117.36 35.6475 117.312 35.8037C117.048 36.5166 116.701 37.1611 116.272 37.7373C115.852 38.3037 115.359 38.792 114.792 39.2021C114.235 39.6025 113.62 39.9102 112.946 40.125C112.282 40.3398 111.579 40.4473 110.837 40.4473C110.056 40.4473 109.338 40.3154 108.684 40.0518C108.039 39.7979 107.483 39.4414 107.014 38.9824C106.545 38.5137 106.179 37.9668 105.915 37.3418C105.652 36.707 105.52 36.0234 105.52 35.291C105.52 34.3535 105.715 33.4697 106.106 32.6396C106.496 31.8096 107.024 31.0869 107.688 30.4717C108.361 29.8467 109.143 29.3535 110.031 28.9922C110.92 28.6309 111.867 28.4502 112.873 28.4502C113.283 28.4502 113.718 28.4844 114.177 28.5527C114.636 28.6113 115.114 28.709 115.612 28.8457ZM111.408 37.8105C111.965 37.8105 112.458 37.6885 112.888 37.4443C113.327 37.2002 113.713 36.8926 114.045 36.5215C114.387 36.1406 114.675 35.7256 114.909 35.2764C115.144 34.8174 115.334 34.373 115.481 33.9434C115.627 33.5137 115.735 33.1279 115.803 32.7861C115.871 32.4443 115.905 32.2002 115.905 32.0537C115.905 31.9463 115.876 31.8535 115.818 31.7754C115.759 31.6875 115.671 31.6191 115.554 31.5703C115.29 31.502 115.017 31.4434 114.734 31.3945C114.45 31.3359 114.172 31.2871 113.899 31.248C113.625 31.209 113.361 31.1797 113.108 31.1602C112.863 31.1406 112.639 31.1309 112.434 31.1309C111.848 31.1309 111.316 31.2188 110.837 31.3945C110.359 31.5703 109.948 31.8193 109.607 32.1416C109.275 32.4639 109.016 32.8496 108.83 33.2988C108.645 33.7383 108.552 34.2217 108.552 34.749C108.552 35.2178 108.62 35.6426 108.757 36.0234C108.903 36.3945 109.099 36.7119 109.343 36.9756C109.597 37.2393 109.9 37.4443 110.251 37.5908C110.603 37.7373 110.988 37.8105 111.408 37.8105Z" fill="#6B66DA"/>
</svg>
